<?xml version="1.0" encoding="utf-8"?>
<!-- Generator: Adobe Illustrator 16.0.0, SVG Export Plug-In . SVG Version: 6.00 Build 0)  -->
<!DOCTYPE svg PUBLIC "-//W3C//DTD SVG 1.1//EN" "http://www.w3.org/Graphics/SVG/1.1/DTD/svg11.dtd">
<svg version="1.1" id="Layer_1" xmlns="http://www.w3.org/2000/svg" xmlns:xlink="http://www.w3.org/1999/xlink" x="0px" y="0px"
	 width="247.297px" height="248.648px" viewBox="0 0 247.297 248.648" enable-background="new 0 0 247.297 248.648"
	 xml:space="preserve">
<text transform="matrix(1 0 0 1 93.2969 136.3252)" fill="#7CAB41" font-family="'MyriadPro-Regular'" font-size="36">30%</text>
<g>
	<path fill="#7CAB41" d="M48.975,128c0-40.041,32.459-72.5,72.5-72.5c0.379,0,0.753,0.023,1.131,0.029V40c-48.602,0-88,39.399-88,88
		c0,9.642,1.556,18.919,4.421,27.601l13.719-4.53C50.313,143.821,48.975,136.069,48.975,128z"/>
	<path fill="#8BB84D" d="M122.605,40v15.529c39.517,0.607,71.369,32.81,71.369,72.471c0,40.04-32.459,72.5-72.5,72.5
		c-31.972,0-59.09-20.704-68.729-49.43l-13.719,4.53C50.605,190.681,83.646,216,122.605,216c48.601,0,88-39.399,88-88
		C210.605,79.399,171.207,40,122.605,40z"/>
	<g opacity="0.3">
		<path fill="#FFFFFF" d="M122.605,55.529V128l50.687-50.687C160.375,64.118,142.46,55.834,122.605,55.529z"/>
	</g>
</g>
</svg>
