<?xml version="1.0" encoding="utf-8"?>
<!-- Generator: Adobe Illustrator 16.0.0, SVG Export Plug-In . SVG Version: 6.00 Build 0)  -->
<!DOCTYPE svg PUBLIC "-//W3C//DTD SVG 1.1//EN" "http://www.w3.org/Graphics/SVG/1.1/DTD/svg11.dtd">
<svg version="1.1" id="Layer_1" xmlns="http://www.w3.org/2000/svg" xmlns:xlink="http://www.w3.org/1999/xlink" x="0px" y="0px"
	 width="508.475px" height="841.89px" viewBox="0 0 508.475 841.89" enable-background="new 0 0 508.475 841.89"
	 xml:space="preserve">
<g>
	<path fill="#D92B52" stroke="#E3B06A" stroke-width="2" stroke-miterlimit="10" d="M298.896,285.505h-0.242h-0.242h-15.549v18.578
		c0,0,3.389,11.558,15.549,15.86c0,0.058,0,0.115,0,0.173c0.082-0.027,0.16-0.059,0.242-0.086c0.082,0.028,0.16,0.059,0.242,0.086
		c0-0.059,0-0.115,0-0.173c12.16-4.302,15.549-15.86,15.549-15.86v-18.578H298.896z"/>
	
		<line fill="none" stroke="#FFFAFC" stroke-width="2" stroke-miterlimit="10" x1="298.168" y1="303.679" x2="298.168" y2="309.415"/>
	
		<line fill="none" stroke="#FFFAFC" stroke-width="2" stroke-miterlimit="10" x1="298.653" y1="308.445" x2="294.897" y2="310.222"/>
	
		<line fill="none" stroke="#FFFAFC" stroke-width="3" stroke-miterlimit="10" x1="286.659" y1="296.329" x2="312.021" y2="296.329"/>
	<circle fill="#EE3450" stroke="#FFFFFF" stroke-miterlimit="10" cx="298.169" cy="298.914" r="6.704"/>
	<circle fill="#EE3450" stroke="#FFFFFF" stroke-width="2" stroke-miterlimit="10" cx="298.169" cy="298.914" r="1.374"/>
</g>
<g>
	<g>
		<path fill="#DBAAA1" d="M241.286,194.029c-11.702,0-21.185,6.93-21.185,15.478v84.649c0,8.549,9.483,15.478,21.185,15.478h14.42
			V194.029H241.286z"/>
		<path fill="#C1918A" d="M270.94,194.029h-15.234v115.604h15.234c11.701,0,21.187-6.929,21.187-15.478v-84.649
			C292.127,200.958,282.642,194.029,270.94,194.029z"/>
	</g>
	<circle fill="#AC7A70" cx="203.227" cy="344.469" r="4.575"/>
	<circle fill="#AC7A70" cx="321.529" cy="344.469" r="4.575"/>
	<ellipse fill="#AC7A70" cx="258.093" cy="495.687" rx="3.66" ry="8.691"/>
	<g>
		<g>
			<path fill="#C58E83" d="M255.445,104.999c-7.397-0.299-42.916,1-47.014,53.085c0,0-1.068,29.455,10.529,48.205
				c11.596,18.75,22.73,25.267,22.73,25.267s4.018,3.482,12.023,3.953c0.09,0.02,0.179,0.033,0.267,0.037
				c0.717,0.025,1.397,0.024,2.065,0.012V104.98C255.833,104.987,255.627,104.991,255.445,104.999z"/>
			<path fill="#D0A094" d="M306.281,158.084c-4.326-50.894-41.089-53.297-50.235-53.104v130.576c0.186-0.003,0.379-0.003,0.56-0.01
				c0.065-0.002,0.125,0.001,0.19-0.002c0.012,0,0.021-0.003,0.031-0.004c8.994-0.362,13.49-3.985,13.49-3.985
				s12.044-6.517,24.582-25.267C307.437,187.539,306.281,158.084,306.281,158.084z"/>
		</g>
		<g>
			<path fill="#FFFFFF" d="M238.856,155.455c-0.353,0.714-1.402,2.092-4.208,1.965c-2.869-0.13-4.093-1.636-4.512-2.351
				c-1.905,0.78-3.169,1.817-3.169,1.817c7.612,5.32,16.089,0.4,16.089,0.4S242.399,156.881,238.856,155.455z"/>
			<path fill="#020202" d="M234.648,157.42c2.806,0.127,3.855-1.251,4.208-1.965c-0.524-0.207-1.104-0.439-1.76-0.697
				c-2.542-0.995-5.067-0.467-6.96,0.312C230.556,155.785,231.78,157.291,234.648,157.42z"/>
		</g>
		<ellipse fill="#FFFFFF" cx="234.928" cy="155.259" rx="1.703" ry="1.044"/>
		<path fill="#121212" d="M245.922,147.18c0,0-4.126,1.53-7.369,0.866c-3.243-0.665-14.832-4.653-19.2,1.263
			c-4.372,5.918-2.184,1.93-2.184,1.93s0.528-9.442,7.482-10.64C231.603,139.403,246.538,142.526,245.922,147.18z"/>
		<path fill="#191919" d="M238.089,154.213c0,0-3.642-1.817-11.122,1.609c-1.126,0.599-1.722,0.73-1.391,0
			c0.329-0.729,4.965-3.157,8.708-2.791C238.024,153.396,238.089,154.213,238.089,154.213z"/>
		<path display="none" fill="#606161" d="M243.468,153.734c0,0,5.797,2.22,4.746,9.403c-1.055,7.18-1.386,8.644-1.386,8.644
			s3.605-5.684,3.194-10.605c-0.411-4.92-3.391-10.14-5.728-9.308C241.954,152.698,243.421,153.537,243.468,153.734z"/>
		<path fill="#D0A094" d="M210.378,160.918c0,0-1.47-13.462-7.53-8.525c-6.063,4.937,0.954,7.839,0.24,11.334
			c-0.712,3.495,2.945,6.263,1.78,14.259c-1.166,7.998-0.723,8.468,1.735,10.284c2.458,1.815,4.58,0.542,4.823,0.191
			C211.671,188.109,210.378,160.918,210.378,160.918z"/>
		<path fill="#D0A094" d="M303.681,162.313c0,0,7.579-12.899,8.474-3.122c0.766,8.31-2.295,13.983-4.237,17.176
			c-1.941,3.191,1.06,11.523-0.794,13.298c-1.85,1.772-2.029,4.167-5.118,3.989C298.913,193.476,303.681,162.313,303.681,162.313z"
			/>
		<g>
			<g>
				<g>
					
						<linearGradient id="SVGID_1_" gradientUnits="userSpaceOnUse" x1="320.395" y1="151.7119" x2="300.6101" y2="185.9804" gradientTransform="matrix(1 0 0 1 -50 0)">
						<stop  offset="0" style="stop-color:#D0A094;stop-opacity:0"/>
						<stop  offset="1" style="stop-color:#BF9086;stop-opacity:0.7"/>
					</linearGradient>
					<path fill="url(#SVGID_1_)" d="M262.34,147.061c-0.131-0.046-4.678,8.639-4.017,17.948c0.66,9.31,4.678,9.484,4.726,9.44
						c0.042-0.044,9.708,3.413,6.092,8.377c-3.62,4.966-5.65-0.577-8.918,3.945c-3.664,2.482-2.513,1.906-3.887,2.482
						c-1.368,0.577,0-42.195,0-42.195L262.34,147.061z"/>
					<path fill="#020202" d="M265.678,185.249c0,0,0.264,1.373-1.236,2.305c-1.501,0.931-4.459,0.798-4.459,0.798
						s0.573-4.656,5.519-3.103"/>
				</g>
			</g>
		</g>
		<g>
			<g>
				<g>
					
						<linearGradient id="SVGID_2_" gradientUnits="userSpaceOnUse" x1="950.2578" y1="151.71" x2="930.472" y2="185.9799" gradientTransform="matrix(-1 0 0 1 1191.2383 0)">
						<stop  offset="0" style="stop-color:#D0A094;stop-opacity:0"/>
						<stop  offset="1" style="stop-color:#BF9086"/>
					</linearGradient>
					<path fill="url(#SVGID_2_)" d="M249.033,147.061c0.138-0.046,4.681,8.639,4.019,17.948c-0.659,9.31-4.677,9.484-4.72,9.44
						c-0.044-0.044-9.712,3.413-6.093,8.377c3.619,4.966,5.65-0.577,8.918,3.945c3.664,2.482,2.515,1.906,3.883,2.482
						c1.369,0.577,0-42.195,0-42.195L249.033,147.061z"/>
					<path fill="#020202" d="M245.701,185.249c0,0-0.264,1.373,1.234,2.305c1.503,0.931,4.458,0.798,4.458,0.798
						s-0.573-4.656-5.519-3.103"/>
				</g>
			</g>
		</g>
		<path fill="#121212" d="M304.383,146.008l-6.52-6.705c0,0-1.627-15.881-18.575-23.292c-16.945-7.409-22.811-13.058-26.721-12.704
			c-3.913,0.353-17.599-0.354-25.421,13.764c-5.541,2.116-9.124,5.292-9.124,5.292v11.293c0,0-8.799,2.584-10.102,28.643
			c-3.912-17.349-3.912-17.349-3.912-17.349s-10.428-42.372,24.441-62.112c11.563-6.387,18.568-7.409,18.568-7.409
			s21.517-5.294,30.315,3.176c8.796,8.468,28.027,8.115,35.849,55.756c-2.934,26.117-8.147,35.291-8.147,35.291L304.383,146.008z"/>
		<path fill="#121212" d="M230.136,112.283l-3.169,9.44c0,0-5.706-0.827-8.945,3.371
			C214.787,129.294,213.141,119.004,230.136,112.283z"/>
		<path fill="#121212" d="M230.136,112.671c0,0,23.336-7.708,25.513-7.699c2.172,0.008-4.583-7.593-19.018-3.339
			C222.199,105.889,230.136,112.671,230.136,112.671z"/>
		<path display="none" fill="#606161" d="M264.094,154.797c0,0-4.58,2.223-3.746,9.404c0.833,7.181,1.092,8.644,1.092,8.644
			s-2.851-5.685-2.526-10.606c0.327-4.921,2.684-10.139,4.533-9.308C265.292,153.762,264.133,154.602,264.094,154.797z"/>
		<g>
			<path fill="#FFFFFF" d="M273.411,155.455c0.353,0.714,1.397,2.092,4.208,1.965c2.87-0.13,4.092-1.636,4.508-2.351
				c1.908,0.78,3.172,1.817,3.172,1.817c-7.613,5.32-16.087,0.4-16.087,0.4S269.864,156.881,273.411,155.455z"/>
			<path fill="#020202" d="M277.619,157.42c-2.811,0.127-3.855-1.251-4.208-1.965c0.52-0.207,1.102-0.439,1.755-0.697
				c2.542-0.995,5.071-0.467,6.96,0.312C281.711,155.785,280.489,157.291,277.619,157.42z"/>
		</g>
		<ellipse fill="#FFFFFF" cx="277.337" cy="155.259" rx="1.705" ry="1.044"/>
		<path fill="#121212" d="M266.343,147.18c0,0,4.125,1.53,7.371,0.866c3.243-0.665,14.83-4.653,19.199,1.263
			c4.37,5.918,2.184,1.93,2.184,1.93s-0.528-9.442-7.483-10.64C280.665,139.403,265.725,142.526,266.343,147.18z"/>
		<path fill="#191919" d="M274.175,154.213c0,0,3.644-1.817,11.125,1.609c1.123,0.599,1.72,0.73,1.392,0
			c-0.333-0.729-4.966-3.157-8.709-2.791C274.241,153.396,274.175,154.213,274.175,154.213z"/>
	</g>
</g>
<g>
	<path d="M466.118,470.309c-10.855-13.556-19.796-33.566-19.796-33.566s-12.133-39.375-10.219-50.348
		c1.916-10.973-3.831-22.592-3.831-22.592s12.134-67.131-50.45-92.306c-22.99-4.518-22.99-4.518-22.99-4.518
		s-27.46-1.937-42.147-8.392s-14.688-6.455-14.688-6.455l-7.664-27.756c0,0-0.073,0.915-0.372,2.371
		c-0.96,4.657-4.25,14.843-14.955,18.285c-14.049,4.519-18.021,6.886-22.351,30.983c-0.471,2.627-0.85,8.88-1.152,17.879
		c-0.292-8.998-0.66-15.25-1.118-17.879c-4.043-23.236-8.302-26.464-22.351-30.983c-10.704-3.442-13.994-13.628-14.955-18.285
		c-0.299-1.456-0.372-2.371-0.372-2.371l-7.663,27.756c0,0,0,0-14.688,6.455s-42.147,8.392-42.147,8.392s0,0-22.99,4.518
		c-62.584,25.174-50.451,92.306-50.451,92.306s-5.747,11.619-3.831,22.592c1.916,10.973-10.219,50.348-10.219,50.348
		s-8.94,20.011-19.796,33.566c-10.857,13.554,6.13,141.361,6.13,141.361l4.087,25.82c0,0-6.386,29.692-3.193,38.729
		c3.193,9.036,30.653,30.338,35.763,27.756c5.108-2.582,4.328-5.164,4.328-5.164s19.301,3.872,23.132-2.583
		c3.832-6.453-14.688-12.264-20.436-18.072c-5.747-5.81-1.276-23.883,3.832-20.011c5.11,3.873,21.713,38.083,21.713,38.083
		s0,0,10.856-7.099c3.832-19.365-26.414-65.841-26.414-65.841v-9.682l3.425-21.947l-3.425-9.684c0,0,4.702-14.846,0.87-18.719
		c-3.832-3.872,6.237-15.49,6.237-15.49s2.065-19.365,0.559-22.593c-1.505-3.227,0.229-9.683,2.784-13.556
		c2.555-3.872,0.639-19.365-2.555-23.883c-3.192-4.519,28.1-76.168,28.1-76.168s11.495-35.502,12.133,12.909
		c-5.748,94.241-6.386,123.29-12.133,145.882c5.747,21.946,114.807,28.829,114.807,28.829s109.059-6.883,114.807-28.829
		c-5.748-22.592-6.386-51.641-12.133-145.882c0.638-48.411,12.133-12.909,12.133-12.909s31.291,71.649,28.099,76.168
		c-3.191,4.518-5.108,20.011-2.555,23.883c2.555,3.873,4.29,10.329,2.784,13.556c-1.506,3.228,0.56,22.593,0.56,22.593
		s10.067,11.618,6.236,15.49c-3.833,3.873,0.87,18.719,0.87,18.719l-3.425,9.684l3.425,21.947v9.682
		c0,0-30.247,46.476-26.414,65.841c10.856,7.099,10.856,7.099,10.856,7.099s16.604-34.21,21.711-38.083
		c5.109-3.872,9.582,14.201,3.833,20.011c-5.749,5.809-24.268,11.619-20.437,18.072c3.833,6.455,23.133,2.583,23.133,2.583
		s-0.78,2.582,4.328,5.164s32.568-18.72,35.764-27.756c3.192-9.037-3.195-38.729-3.195-38.729l4.088-25.82
		C459.988,611.67,476.975,483.862,466.118,470.309z"/>
	<path fill="#1E1E1E" d="M84.922,380.766c0,0-0.898,15.096,4.85,18.323c5.748,3.228-3.832,36.793-10.217,35.502
		c-6.386-1.291-12.772,0.036-12.772,0.036s6.714-38.866,6.779-47.157C73.626,379.18,84.922,380.766,84.922,380.766z"/>
	<path fill="#121212" d="M140.861,312.594c0,0-8.302,53.576-46.618,64.549c-15.639,4.926-18.348,10.328-18.348,10.328
		s-5.249-9.41,0-19.364c5.25-9.955,27.255-41.261,47.724-59.386C134.359,301.071,140.861,312.594,140.861,312.594z"/>
	<path fill="#1E1E1E" d="M144.693,266.119c0,0,23.628,6.455,18.52,10.973c-5.11,4.519-24.907,30.338-28.738,30.338
		c-3.832,0-12.134-3.872-26.821,23.239C92.965,357.779,78.277,359.069,77,359.069S65.505,291.938,144.693,266.119z"/>
	<path fill="#121212" d="M249.73,305.223c0,0-21.713-14.161-36.401-16.097c-14.688-1.937-44.533,0.645-47.811,4.519
		c-3.278,3.873-26.906,59.385-26.906,59.385s14.219,28.402,26.906,29.693s58.028,10.974,76.548-24.529
		c18.52-35.502,7.664-50.348,7.664-50.348"/>
	<path fill="#1E1E1E" d="M113.401,499.786c0,0-13.265-20.656-39.84-23.883c-26.576-3.228-20.829-12.264-20.829-12.264
		s-3.193-21.303-11.495-16.139c-8.302,5.164-3.193,31.629-3.193,31.629l-1.556,37.439c0,0-7.384,8.391-17.603-5.81
		c-4.47-6.455-2.555,22.592,0,23.237c2.554,0.645,20.436,5.164,20.436,12.264c0,7.101-1.277,10.974-8.94,8.392
		c-7.664-2.582-7.025-10.974-7.025-10.974s-1.916,21.948,1.278,22.593c3.194,0.646,12.133,8.391,15.966,9.037
		c3.831,0.646,2.554,14.846,2.554,14.846s-6.386,2.58-10.217,0c-3.832-2.581-5.108-7.745-5.108-7.745s0,16.783,3.831,18.719
		c3.831,1.937,13.411,5.164,13.411,5.164l8.302,19.364c0,0,34.239-21.301,53.839-12.264"/>
	<path fill="#1E1E1E" d="M242.067,358.193c0.501-0.4-78.686-37.853-89.542-28.171c-10.857,9.683-11.496,24.529-4.471,29.047
		c7.024,4.519,26.184,24.529,28.738,24.529S199.28,392.404,242.067,358.193z"/>
	<path fill="#121212" d="M252.756,380.645c0,0-53.38,38.729-67.43,39.375c-14.049,0.646-33.208-28.735-33.208-9.526
		s0,49.547,0,49.547v40.02c0,0-3.192,52.285-8.301,61.322c-5.11,9.037-17.243,18.075,7.024,24.53
		c24.267,6.453,101.915,12.908,101.915,12.908"/>
	<g>
		<path fill="#8E8E8E" d="M161.297,387.471c0,0,1.156,0.562,3.231,1.344c2.074,0.782,5.073,1.774,8.727,2.622
			c1.822,0.44,3.825,0.773,5.929,1.116c2.114,0.306,4.354,0.498,6.666,0.643c2.315,0.114,4.709,0.104,7.133-0.031
			c2.425-0.101,4.877-0.394,7.315-0.752c1.218-0.188,2.429-0.429,3.638-0.648c1.194-0.295,2.399-0.525,3.577-0.833
			c1.167-0.344,2.345-0.622,3.489-0.97c1.136-0.372,2.273-0.702,3.371-1.093c1.093-0.403,2.158-0.825,3.223-1.192
			c1.042-0.429,2.061-0.849,3.052-1.257c1.001-0.393,1.921-0.895,2.852-1.298c0.928-0.411,1.824-0.814,2.656-1.259
			c1.678-0.86,3.243-1.62,4.58-2.387c1.348-0.749,2.556-1.363,3.5-1.949c1.92-1.126,3.055-1.739,3.055-1.739
			s-0.919,0.887-2.593,2.386c-0.824,0.768-1.883,1.625-3.124,2.582c-0.622,0.475-1.262,1.018-1.982,1.523
			c-0.726,0.499-1.49,1.023-2.287,1.571c-0.79,0.562-1.649,1.09-2.544,1.632c-0.9,0.531-1.815,1.114-2.806,1.622
			c-0.988,0.518-2.003,1.049-3.041,1.592c-1.059,0.503-2.166,0.963-3.28,1.461c-1.125,0.473-2.296,0.887-3.47,1.342
			c-1.178,0.444-2.407,0.792-3.634,1.177c-1.236,0.354-2.5,0.654-3.766,0.966c-1.28,0.246-2.563,0.515-3.856,0.722
			c-2.595,0.359-5.205,0.655-7.788,0.672c-2.58,0.092-5.119-0.104-7.557-0.34c-2.44-0.25-4.77-0.707-6.949-1.224
			c-2.177-0.53-4.203-1.147-6.022-1.847c-1.83-0.665-3.458-1.399-4.864-2.111c-1.417-0.688-2.597-1.396-3.554-1.991
			c-0.962-0.585-1.67-1.125-2.157-1.477C161.537,387.684,161.297,387.471,161.297,387.471z"/>
	</g>
	<g>
		<path fill="#8E8E8E" d="M235.714,386.18c0,0-2.917,1.881-7.41,4.474c-2.24,1.309-4.873,2.797-7.713,4.354
			c-1.424,0.77-2.883,1.591-4.39,2.378c-1.501,0.797-3.026,1.608-4.551,2.418c-1.533,0.794-3.066,1.589-4.575,2.371
			c-1.504,0.792-3.012,1.519-4.456,2.25c-2.905,1.425-5.617,2.754-7.941,3.894c-4.63,2.29-7.837,3.68-7.837,3.68
			s2.839-1.955,7.278-4.683c1.107-0.686,2.309-1.434,3.606-2.152c1.29-0.736,2.648-1.519,4.07-2.295
			c1.421-0.777,2.875-1.61,4.38-2.403c1.5-0.803,3.024-1.618,4.548-2.434c1.537-0.79,3.073-1.58,4.586-2.358
			c1.511-0.781,3.022-1.503,4.472-2.227c2.907-1.431,5.639-2.73,7.998-3.811C232.49,387.466,235.714,386.18,235.714,386.18z"/>
	</g>
	<g>
		<path fill="#999999" d="M219.41,407.637c0,0-1.992,1.952-5.14,4.67c-1.568,1.368-3.424,2.928-5.438,4.566
			c-1.013,0.812-2.042,1.673-3.12,2.507c-1.074,0.839-2.164,1.692-3.254,2.544c-1.104,0.835-2.209,1.669-3.296,2.49
			c-1.081,0.83-2.18,1.601-3.225,2.371c-2.101,1.526-4.087,2.917-5.812,4.08c-3.438,2.342-5.838,3.762-5.838,3.762
			s1.99-1.954,5.138-4.673c1.568-1.367,3.423-2.929,5.438-4.565c1.014-0.811,2.041-1.675,3.121-2.506
			c1.074-0.839,2.165-1.691,3.255-2.543c1.105-0.834,2.209-1.668,3.297-2.49c1.083-0.827,2.181-1.6,3.226-2.37
			c2.102-1.525,4.087-2.917,5.812-4.08C217.011,409.059,219.41,407.637,219.41,407.637z"/>
	</g>
	<g>
		<path fill="#999999" d="M214.94,432.01c0,0-1.714,1.719-4.444,4.086c-1.359,1.192-2.971,2.548-4.724,3.967
			c-0.882,0.701-1.776,1.449-2.717,2.168c-0.936,0.724-1.887,1.459-2.838,2.194c-0.965,0.717-1.93,1.435-2.879,2.141
			c-0.943,0.714-1.907,1.37-2.82,2.031c-1.838,1.306-3.58,2.491-5.094,3.478c-3.018,1.988-5.137,3.173-5.137,3.173
			s1.712-1.721,4.443-4.089c1.359-1.191,2.97-2.548,4.724-3.965c0.883-0.701,1.775-1.452,2.718-2.167
			c0.936-0.724,1.887-1.459,2.838-2.194c0.965-0.717,1.93-1.434,2.88-2.14c0.945-0.711,1.907-1.37,2.821-2.03
			c1.839-1.305,3.58-2.49,5.095-3.477C212.822,433.195,214.94,432.01,214.94,432.01z"/>
	</g>
	<g>
		<path fill="#898989" d="M232.82,473.321c0,0-2.923,2.316-7.394,5.644c-2.23,1.673-4.846,3.6-7.655,5.652
			c-2.807,2.053-5.8,4.242-8.794,6.432c-1.495,1.095-2.99,2.189-4.461,3.268c-1.463,1.087-2.902,2.157-4.295,3.193
			c-2.771,2.089-5.333,4.066-7.469,5.828c-2.127,1.77-3.836,3.323-4.853,4.563c-0.503,0.62-0.844,1.156-0.974,1.564
			c-0.132,0.407-0.072,0.649-0.086,0.648c0.015,0.001-0.087-0.227-0.02-0.675c0.07-0.442,0.315-1.064,0.754-1.768
			c0.866-1.416,2.407-3.214,4.406-5.185c1.993-1.981,4.446-4.147,7.152-6.362c1.359-1.1,2.756-2.246,4.22-3.352
			c1.466-1.101,2.955-2.22,4.444-3.338c1.516-1.08,3.032-2.16,4.524-3.224c1.493-1.061,2.998-2.055,4.442-3.033
			c2.898-1.942,5.641-3.697,8.019-5.159C229.529,475.079,232.82,473.321,232.82,473.321z"/>
	</g>
	<path fill="#121212" d="M259.918,305.223c0,0,21.712-14.161,36.4-16.097c14.688-1.937,44.533,0.645,47.812,4.519
		c3.277,3.873,26.906,59.385,26.906,59.385s-14.219,28.402-26.906,29.693c-12.688,1.291-58.029,10.974-76.549-24.529
		c-18.52-35.502-7.663-50.348-7.663-50.348"/>
	<path fill="#1E1E1E" d="M267.581,358.193c-0.5-0.4,78.687-37.853,89.542-28.171c10.856,9.683,10.856,21.301,3.832,25.82
		c-7.024,4.518-25.543,27.756-28.099,27.756C330.302,383.598,310.368,392.404,267.581,358.193z"/>
	<path fill="#121212" d="M257.969,380.645c0,0,54.521,38.729,68.57,39.375c14.051,0.646,33.208-28.735,33.208-9.526
		s0,49.547,0,49.547v40.02c0,0,3.193,52.285,8.303,61.322c5.108,9.037,17.241,18.075-7.024,24.53
		c-24.268,6.453-100.442,12.908-100.442,12.908"/>
	<g>
		<path fill="#8E8E8E" d="M350.568,387.471c0,0-0.24,0.213-0.722,0.576c-0.486,0.352-1.194,0.892-2.157,1.477
			c-0.957,0.594-2.137,1.303-3.554,1.991c-1.406,0.712-3.033,1.447-4.864,2.111c-1.819,0.7-3.845,1.317-6.021,1.847
			c-2.179,0.517-4.509,0.974-6.949,1.224c-2.438,0.236-4.978,0.432-7.557,0.34c-2.583-0.017-5.193-0.313-7.788-0.673
			c-1.293-0.207-2.576-0.476-3.856-0.722c-1.265-0.312-2.529-0.612-3.766-0.966c-1.227-0.384-2.456-0.733-3.634-1.177
			c-1.173-0.456-2.346-0.87-3.47-1.342c-1.114-0.498-2.221-0.958-3.28-1.461c-1.038-0.543-2.052-1.075-3.041-1.592
			c-0.99-0.508-1.905-1.09-2.806-1.622c-0.895-0.542-1.753-1.069-2.544-1.631c-0.796-0.547-1.56-1.072-2.286-1.571
			c-0.72-0.506-1.36-1.048-1.982-1.523c-1.241-0.957-2.299-1.814-3.124-2.582c-1.674-1.499-2.593-2.386-2.593-2.386
			s1.135,0.613,3.055,1.739c0.944,0.586,2.153,1.2,3.5,1.949c1.337,0.767,2.902,1.526,4.58,2.386
			c0.832,0.445,1.728,0.849,2.656,1.259c0.931,0.404,1.85,0.905,2.852,1.298c0.992,0.409,2.01,0.828,3.052,1.257
			c1.064,0.367,2.13,0.789,3.223,1.192c1.097,0.391,2.234,0.721,3.371,1.093c1.144,0.349,2.321,0.626,3.489,0.97
			c1.178,0.307,2.383,0.537,3.577,0.833c1.209,0.219,2.42,0.459,3.639,0.647c2.438,0.358,4.89,0.651,7.315,0.752
			c2.423,0.135,4.817,0.145,7.133,0.031c2.312-0.145,4.551-0.337,6.666-0.643c2.104-0.342,4.106-0.675,5.929-1.116
			c3.653-0.848,6.652-1.84,8.727-2.622C349.412,388.032,350.568,387.471,350.568,387.471z"/>
	</g>
	<g>
		<path fill="#8E8E8E" d="M276.151,386.18c0,0,3.224,1.287,7.935,3.458c2.358,1.081,5.091,2.38,7.998,3.811
			c1.45,0.724,2.96,1.446,4.472,2.227c1.513,0.777,3.05,1.568,4.586,2.358c1.524,0.815,3.048,1.63,4.548,2.433
			c1.505,0.793,2.959,1.625,4.38,2.403c1.422,0.776,2.78,1.559,4.07,2.295c1.297,0.718,2.499,1.467,3.605,2.152
			c4.439,2.728,7.278,4.683,7.278,4.683s-3.208-1.391-7.837-3.68c-2.324-1.14-5.036-2.469-7.941-3.894
			c-1.444-0.732-2.952-1.459-4.456-2.25c-1.509-0.782-3.042-1.577-4.575-2.372c-1.525-0.81-3.05-1.62-4.551-2.418
			c-1.506-0.787-2.965-1.608-4.39-2.378c-2.841-1.556-5.474-3.044-7.713-4.354C279.068,388.061,276.151,386.179,276.151,386.18z"/>
	</g>
	<g>
		<path fill="#999999" d="M292.456,407.637c0,0,2.399,1.422,5.836,3.764c1.725,1.163,3.71,2.554,5.812,4.08
			c1.045,0.77,2.143,1.542,3.226,2.37c1.087,0.821,2.192,1.655,3.297,2.49c1.09,0.852,2.181,1.705,3.255,2.543
			c1.08,0.831,2.107,1.695,3.121,2.506c2.016,1.637,3.871,3.198,5.438,4.565c3.148,2.719,5.138,4.673,5.138,4.673
			s-2.4-1.42-5.838-3.762c-1.725-1.163-3.711-2.554-5.812-4.08c-1.044-0.771-2.144-1.541-3.225-2.371
			c-1.087-0.821-2.192-1.655-3.296-2.49c-1.09-0.853-2.181-1.705-3.254-2.544c-1.078-0.833-2.107-1.695-3.12-2.507
			c-2.015-1.638-3.871-3.198-5.438-4.566C294.447,409.589,292.456,407.637,292.456,407.637z"/>
	</g>
	<g>
		<path fill="#999999" d="M296.926,432.01c0,0,2.118,1.186,5.135,3.176c1.515,0.986,3.255,2.172,5.095,3.477
			c0.914,0.66,1.875,1.319,2.821,2.03c0.95,0.706,1.915,1.423,2.88,2.14c0.951,0.735,1.902,1.471,2.838,2.194
			c0.943,0.715,1.835,1.466,2.717,2.167c1.754,1.417,3.366,2.773,4.725,3.965c2.73,2.368,4.442,4.089,4.442,4.089
			s-2.119-1.185-5.136-3.173c-1.515-0.986-3.256-2.172-5.094-3.478c-0.914-0.661-1.877-1.317-2.82-2.031
			c-0.95-0.706-1.915-1.424-2.879-2.141c-0.951-0.735-1.902-1.471-2.838-2.195c-0.94-0.718-1.834-1.466-2.717-2.167
			c-1.753-1.419-3.365-2.774-4.724-3.967C298.64,433.729,296.926,432.01,296.926,432.01z"/>
	</g>
	<g>
		<path fill="#898989" d="M279.045,473.321c0,0,3.292,1.758,8.037,4.698c2.378,1.462,5.121,3.217,8.02,5.159
			c1.443,0.979,2.948,1.972,4.442,3.033c1.492,1.063,3.008,2.144,4.524,3.224c1.489,1.118,2.979,2.237,4.444,3.338
			c1.464,1.105,2.86,2.252,4.22,3.352c2.706,2.215,5.159,4.381,7.152,6.362c2,1.971,3.54,3.769,4.406,5.185
			c0.439,0.703,0.684,1.325,0.754,1.768c0.067,0.448-0.035,0.676-0.02,0.675c-0.014,0.001,0.046-0.241-0.086-0.648
			c-0.13-0.408-0.47-0.944-0.974-1.564c-1.016-1.24-2.725-2.794-4.853-4.563c-2.136-1.762-4.698-3.739-7.469-5.828
			c-1.393-1.036-2.832-2.106-4.295-3.193c-1.471-1.078-2.966-2.173-4.461-3.268c-2.994-2.189-5.987-4.379-8.794-6.432
			c-2.809-2.053-5.424-3.979-7.654-5.652C281.968,475.638,279.045,473.321,279.045,473.321z"/>
	</g>
	<path fill="#1E1E1E" d="M426.57,380.766c0,0,0.898,15.096-4.85,18.323c-5.748,3.228,3.832,36.793,10.218,35.502
		s12.772,0.036,12.772,0.036s-6.715-38.866-6.779-47.157C437.867,379.18,426.57,380.766,426.57,380.766z"/>
	<path fill="#121212" d="M370.633,312.594c0,0,8.301,53.576,46.617,64.549c15.64,4.926,18.349,10.328,18.349,10.328
		s5.249-9.41,0-19.364c-5.249-9.955-27.255-41.261-47.724-59.386C377.134,301.071,370.633,312.594,370.633,312.594z"/>
	<path fill="#1E1E1E" d="M366.248,266.925c0,0-23.63,6.455-18.52,10.973c5.108,4.519,24.905,30.339,28.737,30.339
		s12.135-3.874,26.822,23.237c14.688,27.111,29.374,28.402,30.651,28.402C435.218,359.875,445.436,292.745,366.248,266.925z"/>
	<path fill="#1E1E1E" d="M397.539,500.592c0,0,13.265-20.655,39.84-23.882c26.575-3.229,20.829-12.265,20.829-12.265
		s3.192-21.302,11.495-16.138c8.301,5.164,3.191,31.629,3.191,31.629l1.556,37.438c0,0,7.386,8.393,17.604-5.811
		c4.47-6.454,2.555,22.594,0,23.24c-2.555,0.645-20.436,5.163-20.436,12.264s1.276,10.974,8.94,8.391
		c7.664-2.582,7.023-10.972,7.023-10.972s1.917,21.945-1.275,22.591c-3.193,0.646-12.134,8.392-15.966,9.036
		c-3.832,0.647-2.555,14.845-2.555,14.845s6.387,2.583,10.218,0c3.832-2.578,5.109-7.743,5.109-7.743s0,16.783-3.832,18.721
		c-3.832,1.935-13.41,5.162-13.41,5.162l-8.302,19.365c0,0-34.24-21.301-53.841-12.264"/>
</g>
<path fill="#8E191C" d="M274.048,319.945c-3.8,2.692-13.777,15.995-16.153-3.326C256.626,322,256.626,322,256.626,322l-2.216-0.235
	L252.194,322c0,0,0,0-1.269-5.381c-2.375,19.32-12.353,6.018-16.152,3.326c-3.801-2.692-44.975-3.326-44.975-3.326
	s13.619,10.745,14.886,21.038c44.659-0.631,49.726,17.103,49.726,17.103s5.066-17.733,49.724-17.103
	c1.27-10.292,14.887-21.038,14.887-21.038S277.848,317.253,274.048,319.945z"/>
<path fill="#97485A" d="M237.076,205.068c0,0,11.979-2.371,16.468-0.949c4.488,1.423,9.395-0.771,12.3,0.247
	c2.902,1.019,7.336,1.227,7.336,1.227s-16.785,8.637-19.847,8.007C250.27,212.966,237.866,207.488,237.076,205.068z"/>
<path fill="#692137" d="M238.532,203.274c0,0,5.402-2.452,7.724-2.481c2.315-0.029,4.19-0.132,5.693,0.754
	c1.5,0.886,3.622,1.728,3.622,1.728s1.01-0.5,5.426-1.86c3.886-1.198,10.947,4.19,12.493,4.167
	c1.438-0.023-17.919-0.044-17.919-0.044l-17.039-0.31l-1.502-0.399L238.532,203.274z"/>
<path fill="#A6576C" d="M261.347,208.319c0,0-4.636,2.173-6.49,1.552c-1.854-0.621-5.604-2.126-5.604-2.126
	S259.667,206.459,261.347,208.319z"/>
</svg>
