<?xml version="1.0" encoding="iso-8859-1"?>
<!-- Generator: Adobe Illustrator 16.0.0, SVG Export Plug-In . SVG Version: 6.00 Build 0)  -->
<!DOCTYPE svg PUBLIC "-//W3C//DTD SVG 1.1//EN" "http://www.w3.org/Graphics/SVG/1.1/DTD/svg11.dtd">
<svg version="1.1" id="Layer_1" xmlns="http://www.w3.org/2000/svg" xmlns:xlink="http://www.w3.org/1999/xlink" x="0px" y="0px"
	 width="316.418px" height="267.164px" viewBox="0 0 316.418 267.164" style="enable-background:new 0 0 316.418 267.164;"
	 xml:space="preserve">
<path style="fill:#FFFFFF;" d="M118.745,65.031c6.783,0,12.905,0.583,18.5,1.796c5.563,1.181,10.305,3.149,14.318,5.851
	c3.954,2.701,7.044,6.29,9.261,10.813c2.158,4.458,3.24,10.04,3.24,16.639c0,7.137-1.614,13.1-4.86,17.867
	c-3.261,4.761-8.062,8.664-14.461,11.693c8.718,2.509,15.187,6.924,19.471,13.207c4.306,6.319,6.415,13.887,6.415,22.764
	c0,7.188-1.375,13.375-4.129,18.586c-2.777,5.275-6.561,9.538-11.217,12.842c-4.7,3.324-10.086,5.766-16.129,7.354
	c-5.973,1.582-12.176,2.383-18.537,2.383H51.893V65.031H118.745z M114.711,122.318c5.525,0,10.108-1.313,13.736-3.978
	c3.592-2.622,5.329-6.951,5.329-12.895c0-3.298-0.576-6.023-1.737-8.145c-1.204-2.112-2.803-3.77-4.812-4.929
	c-1.998-1.207-4.257-2.038-6.873-2.489c-2.574-0.503-5.265-0.7-8.031-0.7h-29.21v33.135L114.711,122.318L114.711,122.318z
	 M116.438,182.68c3.074,0,6-0.277,8.749-0.896c2.792-0.607,5.265-1.577,7.358-3.005c2.083-1.375,3.821-3.262,5.073-5.659
	c1.263-2.376,1.87-5.462,1.87-9.187c0-7.312-2.063-12.502-6.149-15.656c-4.103-3.105-9.564-4.65-16.283-4.65H83.113v39.053H116.438z
	"/>
<path style="fill:#FFFFFF;" d="M215.127,182.205c4.225,4.125,10.331,6.197,18.244,6.197c5.686,0,10.598-1.438,14.723-4.307
	c4.088-2.861,6.575-5.925,7.534-9.102h24.836c-3.989,12.361-10.044,21.188-18.31,26.492c-8.168,5.336-18.121,7.994-29.727,7.994
	c-8.09,0-15.367-1.312-21.9-3.891c-6.532-2.609-11.988-6.267-16.582-11.04c-4.477-4.791-7.95-10.455-10.428-17.104
	c-2.451-6.618-3.684-13.944-3.684-21.885c0-7.678,1.279-14.85,3.789-21.479c2.559-6.65,6.102-12.392,10.758-17.203
	c4.663-4.842,10.189-8.659,16.631-11.451c6.442-2.779,13.545-4.178,21.416-4.178c8.686,0,16.288,1.673,22.811,5.078
	c6.496,3.36,11.824,7.908,16.013,13.607c4.179,5.685,7.162,12.188,9.021,19.486c1.85,7.278,2.494,14.888,1.967,22.854H208.15
	C208.15,170.393,210.891,178.081,215.127,182.205z M247.527,128.26c-3.35-3.706-9.021-5.715-15.946-5.715
	c-4.509,0-8.231,0.759-11.224,2.305c-2.924,1.523-5.312,3.421-7.145,5.656c-1.822,2.27-3.054,4.67-3.777,7.234
	c-0.721,2.499-1.156,4.763-1.285,6.767h45.879C253.357,137.314,250.896,131.998,247.527,128.26z"/>
<rect x="202.381" y="74.543" style="fill:#FFFFFF;" width="57.479" height="13.99"/>
</svg>
