<?xml version="1.0" encoding="iso-8859-1"?>
<!-- Generator: Adobe Illustrator 16.0.0, SVG Export Plug-In . SVG Version: 6.00 Build 0)  -->
<!DOCTYPE svg PUBLIC "-//W3C//DTD SVG 1.1//EN" "http://www.w3.org/Graphics/SVG/1.1/DTD/svg11.dtd">
<svg version="1.1" id="Layer_1" xmlns="http://www.w3.org/2000/svg" xmlns:xlink="http://www.w3.org/1999/xlink" x="0px" y="0px"
	 width="470.27px" height="358.723px" viewBox="0 0 470.27 358.723" style="enable-background:new 0 0 470.27 358.723;"
	 xml:space="preserve">
<path style="fill:#FFFFFF;stroke:#0DAAA6;stroke-width:3;stroke-miterlimit:10;" d="M807.797,205.539
	c6.748,3.271-2.5,105.5-2.5,105.5s2.812,23.5,8.901,0c6.099-23.5,9.099-29.5,13.598-30.5c4.5-1,18.5-1,20,8.5s0,20.5,0,20.5
	s7-10,17-1s10,29.5,9.5,29s10.5-7.482,16,0.01c5.5,7.49,24.5,31.99,16.5,54.99s-22.5,100.5-74.5,103.5
	c-51.999,3-66.999-30.5-75.499-50.5s-18.5-42.5-22.5-44.5s2.285-20.119,0-41c-0.894-8.127-11.5-48-11.5-48s-3.667-20.332,16.5-4.5
	c12.166,13.168,17.5,46,16.5,47.5s8.5,12.188,8-5.156s7-36.844,10-47.344S774.463,189.375,807.797,205.539z"/>
<circle style="fill:#0C0C0C;" cx="239.765" cy="175.361" r="141.5"/>
<g>
	<path style="fill:#F5F5F5;" d="M206.867,142.503c-27.406,12.126-45.382,37.903-45.382,37.903
		c0.146,0.166,13.62,15.59,24.773,11.525l0.38,2.754c-1.406,0.506-2.843,0.735-4.298,0.735c-7.707,0-15.754-6.381-19.913-10.262
		c5.887,7.36,21.802,25.467,42.488,35.299C220.357,194.143,209.28,151.026,206.867,142.503z M190.129,182.893
		c-3.796,0-6.887-3.085-6.887-6.886c0-3.804,3.091-6.883,6.887-6.883c3.803,0,6.891,3.079,6.891,6.883
		C197.02,179.806,193.932,182.893,190.129,182.893z"/>
	<path style="fill:#F5F5F5;" d="M295.766,171.919c-12.063-13.295-36.104-35.115-63.776-35.115c-7.732,0-15.184,1.72-22.17,4.47
		c2.367,8.032,14.275,52.371-1.982,80.492c7.553,3.221,15.681,5.275,24.152,5.275c29.332,0,54.555-24.502,65.814-37.387
		l22.238,12.69v-40.848L295.766,171.919z"/>
	<path style="fill:#F5F5F5;" d="M241.013,104.577c1.383,1.658,2.847,3.198,4.348,4.738c1.452,1.521,2.767,3.006,3.911,4.565
		c1.106,1.582,1.854,3.278,2.012,4.906c0.205,1.624-0.288,3.298-1.312,4.91c-1.019,1.612-2.459,3.076-4.052,4.459l0.134,0.275
		c2.122-0.524,4.091-1.624,5.737-3.244c1.646-1.59,2.854-4.063,2.682-6.646c-0.173-2.581-1.513-4.73-2.984-6.408
		c-1.463-1.716-3.271-3.029-5.116-4.098c-1.771-1.042-3.412-2.352-4.576-4.042c-1.169-1.681-1.59-3.753-1.464-5.488
		c0.054-0.877,0.236-1.705,0.498-2.551c0.291-0.835,0.717-1.631,1.24-2.436c1.051-1.593,2.464-3.041,3.983-4.523l-0.134-0.268
		c-2.134,0.506-4.072,1.682-5.661,3.34c-1.563,1.632-2.75,4.087-2.405,6.55C238.163,101.11,239.696,102.941,241.013,104.577z"/>
	<path style="fill:#F5F5F5;" d="M265.481,104.577c1.371,1.658,2.83,3.198,4.336,4.738c1.444,1.521,2.78,3.006,3.914,4.565
		c1.101,1.582,1.839,3.278,2.012,4.906c0.202,1.624-0.291,3.298-1.317,4.91c-1.015,1.612-2.455,3.076-4.033,4.459l0.123,0.275
		c2.129-0.524,4.094-1.624,5.733-3.244c1.654-1.59,2.864-4.063,2.682-6.646c-0.169-2.581-1.524-4.73-2.977-6.408
		c-1.472-1.716-3.286-3.029-5.125-4.098c-1.763-1.042-3.429-2.352-4.569-4.042c-1.176-1.681-1.604-3.753-1.471-5.488
		c0.062-0.877,0.24-1.705,0.489-2.551c0.291-0.835,0.725-1.631,1.245-2.436c1.05-1.593,2.472-3.041,3.995-4.523l-0.135-0.268
		c-2.148,0.506-4.087,1.682-5.685,3.34c-1.539,1.632-2.733,4.087-2.394,6.55C262.619,101.11,264.152,102.941,265.481,104.577z"/>
	<path style="fill:#F5F5F5;" d="M214.328,104.577c1.366,1.658,2.821,3.198,4.332,4.738c1.442,1.521,2.766,3.006,3.901,4.565
		c1.127,1.582,1.843,3.278,2.012,4.906c0.206,1.624-0.283,3.298-1.313,4.91c-1.007,1.612-2.455,3.076-4.037,4.459l0.139,0.275
		c2.114-0.524,4.075-1.624,5.723-3.244c1.654-1.59,2.86-4.063,2.688-6.646c-0.173-2.581-1.518-4.73-2.992-6.408
		c-1.467-1.716-3.277-3.029-5.112-4.098c-1.771-1.042-3.42-2.352-4.577-4.042c-1.172-1.681-1.589-3.753-1.463-5.488
		c0.046-0.877,0.229-1.705,0.498-2.551c0.291-0.835,0.72-1.631,1.241-2.436c1.042-1.593,2.459-3.041,3.994-4.523l-0.139-0.268
		c-2.145,0.506-4.083,1.682-5.668,3.34c-1.552,1.632-2.751,4.087-2.413,6.55C211.448,101.11,212.98,102.941,214.328,104.577z"/>
</g>
</svg>
