<?xml version="1.0" encoding="iso-8859-1"?>
<!-- Generator: Adobe Illustrator 16.0.0, SVG Export Plug-In . SVG Version: 6.00 Build 0)  -->
<!DOCTYPE svg PUBLIC "-//W3C//DTD SVG 1.1//EN" "http://www.w3.org/Graphics/SVG/1.1/DTD/svg11.dtd">
<svg version="1.1" id="Layer_1" xmlns="http://www.w3.org/2000/svg" xmlns:xlink="http://www.w3.org/1999/xlink" x="0px" y="0px"
	 width="470.27px" height="358.723px" viewBox="0 0 470.27 358.723" style="enable-background:new 0 0 470.27 358.723;"
	 xml:space="preserve">
<path style="fill:#FFFFFF;stroke:#0DAAA6;stroke-width:3;stroke-miterlimit:10;" d="M807.797,205.539
	c6.748,3.271-2.5,105.5-2.5,105.5s2.812,23.5,8.901,0c6.099-23.5,9.099-29.5,13.598-30.5c4.5-1,18.5-1,20,8.5s0,20.5,0,20.5
	s7-10,17-1s10,29.5,9.5,29s10.5-7.482,16,0.01c5.5,7.49,24.5,31.99,16.5,54.99s-22.5,100.5-74.5,103.5
	c-51.999,3-66.999-30.5-75.499-50.5s-18.5-42.5-22.5-44.5s2.285-20.119,0-41c-0.894-8.127-11.5-48-11.5-48s-3.667-20.332,16.5-4.5
	c12.166,13.168,17.5,46,16.5,47.5s8.5,12.188,8-5.156s7-36.844,10-47.344S774.463,189.375,807.797,205.539z"/>
<circle style="fill:#29B7B7;" cx="239.765" cy="175.361" r="141.5"/>
<g>
	<path style="fill:#FFFFFF;" d="M314.293,127.261c0-18.082-14.701-32.794-32.786-32.794c-18.092,0-32.798,14.712-32.798,32.794
		c0,0.322,0.034,0.632,0.052,0.954h-15.788l-5.955-35.244L197.17,65.982l-3.963,4.369l28.35,25.611l5.44,32.253h-22.749
		l-0.791,1.405c-4.48,7.859-6.992,16.858-7.638,26.24c-1.355,4.584-0.76,16.174,4.186,27.876c0.356,0.902,0.76,1.787,1.166,2.662
		c0.097,0.216,0.177,0.416,0.281,0.635c7.013,14.826,19.623,25.557,34.494,28.117v68.647c-13.672,0.552-23.865,2.624-23.865,5.115
		c0,2.899,13.906,5.243,31.027,5.243c17.158,0,31.045-2.344,31.045-5.243c0-2.491-10.182-4.563-23.853-5.115v-68.725
		c4.611-0.863,9.008-2.543,13.093-4.853c23.251-10.166,28.729-39.956,27.52-51.678C304.399,154.479,314.293,142.06,314.293,127.261z
		 M210.772,182.322c-2.633,0-4.785-2.146-4.785-4.783c0-2.646,2.152-4.78,4.785-4.78c2.642,0,4.789,2.134,4.789,4.78
		C215.561,180.178,213.413,182.322,210.772,182.322z M201.439,154.549c0.718-7.375,2.741-14.459,6.068-20.772h20.428l4.296,25.479
		C212.684,164.926,201.439,154.549,201.439,154.549z M233.962,187.471c-2.85,0-5.156-2.305-5.156-5.147
		c0-2.849,2.307-5.153,5.156-5.153c0.479,0,0.909,0.156,1.35,0.274l0.899,5.361l2.904-0.48
		C239.115,185.166,236.807,187.471,233.962,187.471z M251.256,179.379c-1.836,0-3.313-1.474-3.313-3.306s1.479-3.314,3.313-3.314
		c1.817,0,3.307,1.481,3.307,3.314S253.074,179.379,251.256,179.379z M257.505,193.361c-1.62,0-2.942-1.311-2.942-2.94
		c0-1.629,1.322-2.95,2.942-2.95c1.639,0,2.946,1.321,2.946,2.95C260.451,192.052,259.144,193.361,257.505,193.361z M271.121,166.13
		c-0.614,0-1.104-0.495-1.104-1.1c0-0.61,0.489-1.104,1.104-1.104c0.621,0,1.106,0.493,1.106,1.104
		C272.229,165.635,271.742,166.13,271.121,166.13z M275.362,182.322c-1.725,0-3.133-1.398-3.133-3.13c0-1.721,1.408-3.12,3.133-3.12
		c1.729,0,3.122,1.397,3.122,3.12C278.484,180.924,277.089,182.322,275.362,182.322z M243.526,154.549
		c-1.957,1.068-3.823,1.945-5.659,2.712l-3.952-23.484h15.475c0.019,0.103,0.031,0.212,0.046,0.317h2.279
		c-0.019-0.104-0.021-0.214-0.045-0.317h7.123c-0.299,0.103-0.643,0.222-0.898,0.317h13.089c0.171-0.104,0.351-0.214,0.534-0.317
		h3.134c-0.1,0.111-0.201,0.198-0.313,0.317h3.949c0.027-0.036,0.034-0.074,0.056-0.104c3.272,6.259,5.268,13.258,5.981,20.56
		C284.323,154.549,270.018,140.02,243.526,154.549z M290.548,156.342c-0.173-0.736-0.373-1.356-0.624-1.793h-0.063
		c-0.048-0.51-0.151-1.018-0.219-1.528l5.586-2.418c0,0-3.386-6.835-7.293-13.567v6.779c-0.875-3.352-2.002-6.617-3.435-9.721h1.691
		c-1.563-2.569-3.144-4.973-4.564-6.77c0.076,0.51,0.207,1.11,0.314,1.678l-0.185-0.33c-0.046-0.451-0.076-0.954-0.138-1.37
		c-0.009-0.007-0.009-0.007-0.021-0.021c0,0.002,0,0.013-0.011,0.021c0.011,0.069,0.023,0.139,0.032,0.205
		c-0.009-0.063-0.021-0.128-0.032-0.194c-0.104,0.27-0.204,0.611-0.313,0.901h-0.104c0.104-0.242,0.257-0.527,0.347-0.756
		c0.02-0.048,0.042-0.115,0.052-0.164c-0.045,0.035-0.087,0.066-0.138,0.115c0.009,0,0.009,0,0.009-0.011
		c0,0.011,0,0.011-0.009,0.011c0,0-0.007,0.002-0.024,0.009c0,0,0.021-0.007,0.021-0.009c-0.284,0.229-0.632,0.559-0.931,0.804
		h-0.22c0.413-0.309,0.883-0.624,1.259-0.919c-1.353,0.198-2.935,0.53-4.568,0.919h-26c-0.014-0.322-0.051-0.631-0.051-0.954
		c0-16.86,13.713-30.584,30.587-30.584c16.863,0,30.578,13.724,30.578,30.584C312.085,140.958,302.979,152.463,290.548,156.342z"/>
	<path style="fill:#FFFFFF;" d="M281.767,127.114c6.985-5.572,18.46-19.438,18.46-19.438l-5.208-3.873
		c0,0-9.938,14.875-13.335,23.259c-0.021,0.051-0.038,0.115-0.062,0.173C281.677,127.188,281.714,127.167,281.767,127.114z"/>
	<path style="fill:#FFFFFF;" d="M281.694,127.036c-0.017,0.069-0.063,0.132-0.079,0.191c0.016-0.056,0.049-0.112,0.069-0.164
		C281.684,127.05,281.694,127.046,281.694,127.036z"/>
	<path style="fill:#FFFFFF;" d="M281.462,127.099c-5.583-6.993-19.448-18.46-19.448-18.46l-3.876,5.197
		c0,0,14.878,9.949,23.27,13.342c0.056,0.017,0.113,0.04,0.165,0.07C281.528,127.188,281.496,127.143,281.462,127.099z"/>
	<path style="fill:#FFFFFF;" d="M281.379,127.171c0.063,0.017,0.117,0.047,0.184,0.077c-0.053-0.021-0.107-0.053-0.156-0.07
		C281.392,127.171,281.386,127.171,281.379,127.171z"/>
	<path style="fill:#FFFFFF;" d="M304.941,113.634c0,0-16.22,8.033-23.279,13.602c8.893-1.311,25.882-7.612,25.882-7.612
		L304.941,113.634z"/>
	<path style="fill:#FFFFFF;" d="M267.971,103.926c0,0,8.036,16.215,13.602,23.276c-1.304-8.886-7.608-25.882-7.608-25.882
		L267.971,103.926z"/>
	<path style="fill:#FFFFFF;" d="M281.615,127.218c-0.014-0.071-0.023-0.128-0.042-0.204c0.019,0.068,0.028,0.128,0.042,0.187
		c3.307-8.354,6.322-26.208,6.322-26.208s-4.161-0.788-6.336-0.788c-0.038,0-0.115,0.011-0.115,0.011s-1.183,18.088,0.087,27.001
		c0.019,0.008,0.019,0.018,0.028,0.03C281.601,127.236,281.603,127.227,281.615,127.218z"/>
	<path style="fill:#FFFFFF;" d="M281.563,127.258c-0.077,0.007-0.132,0.007-0.205,0.024c0.07-0.018,0.128-0.024,0.183-0.034
		c-8.359-3.312-26.209-6.33-26.209-6.33s-0.781,4.154-0.781,6.343c0,0.042,0.007,0.119,0.007,0.119s18.089,1.179,26.996-0.098
		c0.011-0.007,0.021-0.018,0.021-0.021L281.563,127.258z"/>
	<path style="fill:#FFFFFF;" d="M281.646,127.265c0.063-0.003,0.128-0.007,0.19-0.017c-0.051,0.01-0.122,0.017-0.176,0.027
		c8.36,3.309,26.219,6.328,26.219,6.328l0.771-6.342c0,0-0.003-0.08-0.003-0.119c-9.019-1.204-18.092-1.18-27.003,0.105
		c-0.017,0-0.017,0.01-0.022,0.013C281.629,127.265,281.629,127.265,281.646,127.265z"/>
	<path style="fill:#FFFFFF;" d="M281.629,127.282c0.048,0.048,0.076,0.098,0.114,0.146c5.567,6.987,19.444,18.456,19.444,18.456
		l3.876-5.208c0,0-14.876-9.938-23.266-13.332c-0.054-0.02-0.105-0.049-0.17-0.069c0.051,0.02,0.085,0.027,0.116,0.049
		C281.714,127.303,281.677,127.295,281.629,127.282z"/>
	<path style="fill:#FFFFFF;" d="M281.59,127.295c-0.027,0.052-0.051,0.115-0.069,0.164c0,0.01-0.011,0.021-0.011,0.035
		C281.528,127.428,281.563,127.358,281.59,127.295z"/>
	<path style="fill:#FFFFFF;" d="M281.59,127.258h0.004l-0.004-0.01h0.004h-0.004l0,0C281.59,127.258,281.59,127.258,281.59,127.258
		L281.59,127.258L281.59,127.258z"/>
	<path style="fill:#FFFFFF;" d="M281.622,127.265c0,0,0,0,0-0.003l-0.009,0.003C281.622,127.265,281.622,127.265,281.622,127.265z"
		/>
	<path style="fill:#FFFFFF;" d="M281.615,127.282c0,0.002,0,0.013,0.009,0.021c0,0,0,0.011,0.007,0.021c0-0.021,0-0.021-0.007-0.029
		C281.622,127.285,281.622,127.285,281.615,127.282z"/>
	<path style="fill:#FFFFFF;" d="M281.615,127.248c0,0,0,0-0.012,0c0.012,0,0.012,0,0.012,0.01V127.248L281.615,127.248
		L281.615,127.248z"/>
	<path style="fill:#FFFFFF;" d="M281.622,127.275c0,0,0,0,0.007,0l0,0c0.017,0,0.017,0,0.031,0c-0.014,0-0.016-0.011-0.016-0.011
		C281.629,127.265,281.629,127.265,281.622,127.275z"/>
	<path style="fill:#FFFFFF;" d="M281.615,127.275L281.615,127.275c-0.012,0-0.012,0-0.014,0v0.007c0.002,0,0.014,0,0.014,0
		C281.615,127.275,281.615,127.275,281.615,127.275z"/>
	<path style="fill:#FFFFFF;" d="M281.59,127.285c0.004,0,0.011,0,0.011-0.002v-0.007C281.601,127.282,281.59,127.282,281.59,127.285
		z"/>
	<path style="fill:#FFFFFF;" d="M281.573,127.275c0,0-0.01,0-0.021,0.007c0,0.002-0.013,0.002-0.013,0.013
		c0.006,0,0.022-0.011,0.022-0.011C281.573,127.285,281.573,127.282,281.573,127.275z"/>
	<path style="fill:#FFFFFF;" d="M281.603,127.275c0.012,0,0.012,0,0.012,0l0,0H281.603z"/>
	<path style="fill:#FFFFFF;" d="M281.622,127.295c0.055,0.052,0.092,0.104,0.138,0.157c-0.015-0.007-0.015-0.018-0.017-0.024
		C281.705,127.38,281.662,127.344,281.622,127.295L281.622,127.295z"/>
	<path style="fill:#FFFFFF;" d="M281.573,127.236c-0.045-0.058-0.087-0.11-0.129-0.166c0,0.013,0.006,0.02,0.02,0.028
		C281.496,127.143,281.539,127.182,281.573,127.236L281.573,127.236z"/>
	<path style="fill:#FFFFFF;" d="M281.615,127.282c0.009,0.002,0.009,0.002,0.009,0.013c0-0.011,0-0.011,0-0.013h0.007
		c0,0,0,0,0-0.007c-0.007,0-0.007,0-0.007,0C281.622,127.282,281.622,127.282,281.615,127.282z"/>
	<polygon style="fill:#FFFFFF;" points="281.601,127.248 281.601,127.248 281.594,127.248 	"/>
	<polygon style="fill:#FFFFFF;" points="281.615,127.275 281.615,127.282 281.615,127.282 	"/>
	<path style="fill:#FFFFFF;" d="M281.615,127.265L281.615,127.265L281.615,127.265v0.011l0,0
		C281.615,127.265,281.615,127.265,281.615,127.265z"/>
	<polygon style="fill:#FFFFFF;" points="281.615,127.275 281.623,127.275 281.623,127.275 	"/>
	<polygon style="fill:#FFFFFF;" points="281.573,127.248 281.573,127.248 281.573,127.248 	"/>
	<path style="fill:#FFFFFF;" d="M281.573,127.236c0,0,0,0.007,0,0.012c0,0,0,0,0.008,0
		C281.573,127.243,281.573,127.236,281.573,127.236z"/>
	<path style="fill:#FFFFFF;" d="M281.579,127.285c0,0.011,0.011,0.011,0.011,0.011c0,0.007,0,0.007,0,0.018c0-0.011,0-0.011,0-0.011
		c0-0.007,0-0.007,0-0.018C281.59,127.285,281.59,127.285,281.579,127.285z"/>
	<path style="fill:#FFFFFF;" d="M281.59,127.265L281.59,127.265c0-0.003,0-0.003,0-0.007c0,0-0.011,0-0.011,0.003
		C281.59,127.261,281.59,127.261,281.59,127.265c-0.011-0.003-0.019,0-0.019-0.003c0,0.003,0,0.014,0,0.014
		C281.579,127.275,281.59,127.275,281.59,127.265L281.59,127.265z"/>
	<path style="fill:#FFFFFF;" d="M281.573,127.258c0,0,0,0,0,0.003h0.008C281.573,127.258,281.573,127.258,281.573,127.258z"/>
	<path style="fill:#FFFFFF;" d="M281.573,127.218v-0.017c0,0.011,0,0.017,0,0.035c0,0,0,0.007,0.019,0.012
		C281.579,127.236,281.579,127.227,281.573,127.218z"/>
	<path style="fill:#FFFFFF;" d="M281.615,127.243L281.615,127.243v-0.007v-0.01c0-0.008,0-0.008,0-0.025c0,0.011,0,0.017,0,0.017
		C281.615,127.227,281.615,127.236,281.615,127.243z"/>
	<rect x="281.592" y="127.263" style="fill:#FFFFFF;" width="0" height="0.004"/>
	<path style="fill:#FFFFFF;" d="M281.594,127.258h-0.004c0,0.003,0,0.007,0,0.007c0.004,0,0.011,0,0.011-0.003l0,0
		C281.601,127.258,281.601,127.258,281.594,127.258z"/>
	<path style="fill:#FFFFFF;" d="M281.601,127.261c0-0.003,0.002-0.003,0.015-0.003h-0.015c0,0,0,0,0-0.01l-0.007,0.01
		C281.601,127.258,281.601,127.258,281.601,127.261z"/>
	<path style="fill:#FFFFFF;" d="M281.629,127.236c0.055-0.049,0.1-0.089,0.162-0.132c-0.006,0.007-0.024,0.01-0.024,0.01
		C281.714,127.16,281.684,127.195,281.629,127.236L281.629,127.236z"/>
	<path style="fill:#FFFFFF;" d="M281.563,127.285c-0.042,0.04-0.077,0.077-0.119,0.115c0.042-0.038,0.077-0.076,0.129-0.115H281.563
		z"/>
	<path style="fill:#FFFFFF;" d="M281.579,127.285c-0.008-0.002-0.008-0.002-0.008-0.009c0,0.007,0,0.009,0,0.009l0,0v0.011
		C281.573,127.295,281.573,127.295,281.579,127.285L281.579,127.285z"/>
	<path style="fill:#FFFFFF;" d="M281.601,127.261v0.003l0,0c0,0,0,0,0.002,0.011v-0.011
		C281.601,127.265,281.601,127.265,281.601,127.261z"/>
	<polygon style="fill:#FFFFFF;" points="281.615,127.265 281.615,127.265 281.615,127.261 	"/>
	<path style="fill:#FFFFFF;" d="M281.615,127.265c0-0.003,0-0.003,0-0.007l0.009,0.003c0-0.003,0-0.013,0-0.013
		c-0.009,0-0.009,0-0.009,0.01c-0.012,0-0.014,0.003-0.014,0.003C281.601,127.265,281.603,127.265,281.615,127.265z"/>
	<polygon style="fill:#FFFFFF;" points="281.603,127.265 281.615,127.275 281.615,127.265 281.615,127.265 	"/>
	<polygon style="fill:#FFFFFF;" points="281.59,127.275 281.59,127.275 281.579,127.275 	"/>
	<path style="fill:#FFFFFF;" d="M281.59,127.275h0.004c0,0-0.004,0-0.004-0.011V127.275L281.59,127.275z"/>
	<path style="fill:#FFFFFF;" d="M281.594,127.265h0.007l0,0C281.601,127.265,281.601,127.265,281.594,127.265z"/>
	<path style="fill:#FFFFFF;" d="M281.601,127.261L281.601,127.261L281.601,127.261z"/>
	<path style="fill:#FFFFFF;" d="M281.59,127.275v-0.011C281.59,127.275,281.59,127.275,281.59,127.275L281.59,127.275z"/>
	<path style="fill:#FFFFFF;" d="M281.579,127.285c0.011,0,0.011,0,0.011,0v-0.009l0,0
		C281.59,127.275,281.579,127.282,281.579,127.285z"/>
	<path style="fill:#FFFFFF;" d="M281.59,127.248L281.59,127.248L281.59,127.248z"/>
	<path style="fill:#FFFFFF;" d="M281.629,127.236c-0.007,0-0.007,0.007-0.007,0.007v-0.007c0,0,0,0-0.009,0
		c0.009,0.012,0.009,0.012,0.009,0.012S281.622,127.243,281.629,127.236z"/>
	<polygon style="fill:#FFFFFF;" points="281.612,127.246 281.617,127.246 281.617,127.246 	"/>
	<path style="fill:#FFFFFF;" d="M281.573,127.248L281.573,127.248h-0.01c0,0-0.011,0-0.022,0c0.006,0,0.013,0.01,0.022,0.01
		C281.563,127.258,281.573,127.258,281.573,127.248z"/>
	<path style="fill:#FFFFFF;" d="M281.601,127.248L281.601,127.248c-0.007,0-0.011,0-0.011,0l0,0H281.601z"/>
	<path style="fill:#FFFFFF;" d="M281.59,127.248c-0.011,0-0.019,0-0.019,0l0,0C281.573,127.248,281.579,127.248,281.59,127.248
		L281.59,127.248z"/>
	<path style="fill:#FFFFFF;" d="M281.59,127.248h-0.011H281.59z"/>
	<polygon style="fill:#FFFFFF;" points="281.615,127.243 281.601,127.248 281.601,127.248 	"/>
	<polygon style="fill:#FFFFFF;" points="281.601,127.248 281.601,127.248 281.603,127.248 	"/>
	<path style="fill:#FFFFFF;" d="M281.646,127.248c0-0.005,0.016-0.012,0.016-0.012c-0.014,0-0.016,0-0.031,0
		c0,0.007-0.007,0.012-0.007,0.012C281.629,127.248,281.629,127.248,281.646,127.248z"/>
	<path style="fill:#FFFFFF;" d="M286.195,134.094c0.583,0.959,1.174,1.952,1.742,2.941v-2.941H286.195z"/>
</g>
</svg>
