<?xml version="1.0" encoding="iso-8859-1"?>
<!-- Generator: Adobe Illustrator 16.0.0, SVG Export Plug-In . SVG Version: 6.00 Build 0)  -->
<!DOCTYPE svg PUBLIC "-//W3C//DTD SVG 1.1//EN" "http://www.w3.org/Graphics/SVG/1.1/DTD/svg11.dtd">
<svg version="1.1" id="Layer_1" xmlns="http://www.w3.org/2000/svg" xmlns:xlink="http://www.w3.org/1999/xlink" x="0px" y="0px"
	 width="470.27px" height="358.723px" viewBox="0 0 470.27 358.723" style="enable-background:new 0 0 470.27 358.723;"
	 xml:space="preserve">
<path style="fill:#FFFFFF;stroke:#0DAAA6;stroke-width:3;stroke-miterlimit:10;" d="M807.797,205.539
	c6.748,3.271-2.5,105.5-2.5,105.5s2.812,23.5,8.902,0c6.098-23.5,9.098-29.5,13.597-30.5c4.5-1,18.5-1,20,8.5s0,20.5,0,20.5
	s7-10,17-1s10,29.5,9.5,29s10.5-7.482,16,0.01c5.5,7.49,24.5,31.99,16.5,54.99s-22.5,100.5-74.5,103.5
	c-51.999,3-66.999-30.5-75.499-50.5s-18.5-42.5-22.5-44.5s2.286-20.119,0-41c-0.893-8.127-11.5-48-11.5-48s-3.667-20.332,16.5-4.5
	c12.166,13.168,17.5,46,16.5,47.5s8.5,12.188,8-5.156s7-36.844,10-47.344S774.463,189.375,807.797,205.539z"/>
<path style="fill:#FFFFFF;stroke:#0DAAA6;stroke-width:3;stroke-miterlimit:10;" d="M807.797,205.539
	c6.748,3.271-2.5,105.5-2.5,105.5s2.812,23.5,8.902,0c6.098-23.5,9.098-29.5,13.597-30.5c4.5-1,18.5-1,20,8.5s0,20.5,0,20.5
	s7-10,17-1s10,29.5,9.5,29s10.5-7.482,16,0.01c5.5,7.49,24.5,31.99,16.5,54.99s-22.5,100.5-74.5,103.5
	c-51.999,3-66.999-30.5-75.499-50.5s-18.5-42.5-22.5-44.5s2.286-20.119,0-41c-0.893-8.127-11.5-48-11.5-48s-3.667-20.332,16.5-4.5
	c12.166,13.168,17.5,46,16.5,47.5s8.5,12.188,8-5.156s7-36.844,10-47.344S774.463,189.375,807.797,205.539z"/>
<circle style="fill:#29B7B7;" cx="229.826" cy="193.861" r="159"/>
<g>
	<path style="fill:#F5F5F5;" d="M212.883,171.611c0-1.021-0.828-1.858-1.845-1.858c-1.03,0-1.859,0.837-1.859,1.858
		C209.179,173.655,212.883,173.655,212.883,171.611z"/>
	<path style="fill:#F5F5F5;" d="M245.706,242.453c-0.999,0-1.858,0.827-1.858,1.849c0,2.065,3.725,2.065,3.725,0
		C247.573,243.28,246.749,242.453,245.706,242.453z"/>
	<path style="fill:#F5F5F5;" d="M271.321,156.896h-27.165l15.156-54.795l36.892-5.75l-1.044-6.676l-41.198,6.429l-16.812,60.792
		h-47.34v-24.914h-6.75v166.067h95.007V131.981h-6.746V156.896z M211.038,162.999c4.751,0,8.604,3.87,8.604,8.612
		c0,4.747-3.854,8.609-8.604,8.609c-4.747,0-8.608-3.862-8.608-8.609C202.43,166.869,206.291,162.999,211.038,162.999z
		 M245.706,252.937c-4.738,0-8.605-3.87-8.605-8.635c0-4.738,3.867-8.6,8.605-8.6c4.756,0,8.634,3.861,8.634,8.6
		C254.34,249.066,250.462,252.937,245.706,252.937z M264.856,220.946c-3.805,0-6.909-3.091-6.909-6.913
		c0-3.795,3.104-6.899,6.909-6.899c3.813,0,6.909,3.104,6.909,6.899C271.765,217.855,268.669,220.946,264.856,220.946z"/>
	<path style="fill:#F5F5F5;" d="M158.344,117.085c3.606-12.245,16.503-19.287,28.758-15.689
		c12.246,3.606,19.291,16.499,15.702,28.741l7.068,2.082c4.737-16.142-4.545-33.139-20.684-37.885
		c-16.143-4.756-33.144,4.539-37.89,20.678c-4.747,16.151,4.526,33.14,20.66,37.89l2.087-7.067
		C161.796,142.236,154.759,129.34,158.344,117.085z"/>
	<path style="fill:#F5F5F5;" d="M200.734,129.446c1.6-5.391,0.978-11.062-1.695-16.002c-2.7-4.923-7.139-8.516-12.541-10.084
		c-1.925-0.572-3.923-0.862-5.936-0.862c-9.255,0-17.542,6.213-20.145,15.098c-3.28,11.115,3.127,22.823,14.232,26.095l0.567,0.171
		l7.108-16.609l18.251,2.734L200.734,129.446z M181.531,125.799l-0.132,0.256c-0.563,0.242-1.215,0.26-1.822,0.088
		c-0.709-0.211-1.308-0.688-1.666-1.339c-0.348-0.651-0.43-1.417-0.228-2.14c0.343-1.171,1.457-1.999,2.686-1.999
		c0.254,0,0.528,0.036,0.788,0.11c1.489,0.432,2.329,1.995,1.903,3.457c-0.19,0.696-0.653,1.259-1.238,1.617L181.531,125.799z"/>
</g>
</svg>
