<?xml version="1.0" encoding="utf-8"?>
<!-- Generator: Adobe Illustrator 16.0.0, SVG Export Plug-In . SVG Version: 6.00 Build 0)  -->
<!DOCTYPE svg PUBLIC "-//W3C//DTD SVG 1.1//EN" "http://www.w3.org/Graphics/SVG/1.1/DTD/svg11.dtd">
<svg version="1.1" id="Layer_1" xmlns="http://www.w3.org/2000/svg" xmlns:xlink="http://www.w3.org/1999/xlink" x="0px" y="0px"
	 width="396.43px" height="582.286px" viewBox="0 0 396.43 582.286" enable-background="new 0 0 396.43 582.286"
	 xml:space="preserve">
<polygon fill="#CECECE" points="201.429,17.857 30.715,104.268 30.715,120.303 30.715,248.268 30.715,264.303 30.715,308.268 
	30.715,324.301 30.715,452.268 30.715,468.301 201.429,554.713 372.142,468.301 372.142,452.268 372.142,324.301 372.142,308.268 
	372.142,264.303 372.142,248.268 372.142,120.303 372.142,104.268 "/>
<polygon fill="#999999" points="201,28 38,109.506 38,124.63 38,253.506 38,268.629 38,301.926 38,317.051 38,445.926 38,461.051 
	201,542.557 364,461.051 364,445.926 364,317.051 364,301.926 364,268.629 364,253.506 364,124.63 364,109.506 "/>
</svg>
