<?xml version="1.0" encoding="utf-8"?>
<!-- Generator: Adobe Illustrator 16.0.0, SVG Export Plug-In . SVG Version: 6.00 Build 0)  -->
<!DOCTYPE svg PUBLIC "-//W3C//DTD SVG 1.1//EN" "http://www.w3.org/Graphics/SVG/1.1/DTD/svg11.dtd">
<svg version="1.1" id="Layer_1" xmlns="http://www.w3.org/2000/svg" xmlns:xlink="http://www.w3.org/1999/xlink" x="0px" y="0px"
	 width="247.297px" height="248.648px" viewBox="0 0 247.297 248.648" enable-background="new 0 0 247.297 248.648"
	 xml:space="preserve">
<g>
	<path fill="#B18DC1" d="M174.738,76.735l10.961-10.96C169.773,49.85,147.773,40,123.472,40v15.5
		C143.494,55.5,161.619,63.615,174.738,76.735z"/>
	<path fill="#764099" d="M185.699,65.774l-10.961,10.96c13.119,13.12,21.234,31.245,21.234,51.265c0,40.04-32.459,72.5-72.5,72.5
		c-40.041,0-72.5-32.46-72.5-72.5c0-40.041,32.459-72.5,72.5-72.5V40c-48.601,0-88,39.399-88,88c0,48.601,39.398,88,88,88
		c48.602,0,88-39.399,88-88C211.472,103.699,201.623,81.699,185.699,65.774z"/>
	<path opacity="0.8" fill="#FFFFFF" d="M123.472,55.5c-40.041,0-72.5,32.459-72.5,72.5c0,40.04,32.459,72.5,72.5,72.5
		c40.041,0,72.5-32.46,72.5-72.5c0-20.021-8.115-38.146-21.234-51.265L123.472,128V55.5z"/>
</g>
<text transform="matrix(1 0 0 1 105.4746 162)" fill="#764099" font-family="'MyriadPro-Regular'" font-size="21">80%</text>
</svg>
