<?xml version="1.0" encoding="utf-8"?>
<!-- Generator: Adobe Illustrator 16.0.0, SVG Export Plug-In . SVG Version: 6.00 Build 0)  -->
<!DOCTYPE svg PUBLIC "-//W3C//DTD SVG 1.1//EN" "http://www.w3.org/Graphics/SVG/1.1/DTD/svg11.dtd">
<svg version="1.1" id="Layer_1" xmlns="http://www.w3.org/2000/svg" xmlns:xlink="http://www.w3.org/1999/xlink" x="0px" y="0px"
	 width="247.297px" height="248.648px" viewBox="0 0 247.297 248.648" enable-background="new 0 0 247.297 248.648"
	 xml:space="preserve">
<g>
	<path fill="#159948" d="M50.811,128c0-40.041,32.459-72.5,72.5-72.5V40c-48.601,0-88,39.399-88,88c0,48.601,39.399,88,88,88v-15.5
		C83.27,200.5,50.811,168.04,50.811,128z"/>
	<path fill="#26AF54" d="M123.31,40v15.5c40.041,0,72.5,32.459,72.5,72.5c0,40.04-32.459,72.5-72.5,72.5V216
		c48.602,0,88-39.399,88-88C211.31,79.399,171.912,40,123.31,40z"/>
	<path opacity="0.5" fill="#FFFFFF" d="M50.811,128c0,40.04,32.459,72.5,72.5,72.5v-145C83.27,55.5,50.811,87.959,50.811,128z"/>
</g>
<text transform="matrix(1 0 0 1 70.3135 134.2881)" fill="#159948" font-family="'MyriadPro-Regular'" font-size="24">50%</text>
</svg>
