<?xml version="1.0" encoding="iso-8859-1"?>
<!-- Generator: Adobe Illustrator 16.0.0, SVG Export Plug-In . SVG Version: 6.00 Build 0)  -->
<!DOCTYPE svg PUBLIC "-//W3C//DTD SVG 1.1//EN" "http://www.w3.org/Graphics/SVG/1.1/DTD/svg11.dtd">
<svg version="1.1" id="Layer_1" xmlns="http://www.w3.org/2000/svg" xmlns:xlink="http://www.w3.org/1999/xlink" x="0px" y="0px"
	 width="252.857px" height="246.999px" viewBox="0 0 252.857 246.999" style="enable-background:new 0 0 252.857 246.999;"
	 xml:space="preserve">
<g>
	<path style="fill:#FFFFFF;stroke:#000000;stroke-width:4;stroke-miterlimit:10;" d="M49.341,175.635l18.872-10.613l20.294-11.413
		l7.829-4.023c0.093,0.625,0.208,1.242,0.333,1.854v-19.79c-2.372-4.023-3.986-8.636-5.078-13.154c0.01,0.602,0.006,0.966-0.018,1
		c-0.182,0.258-1.764,1.187-3.597-0.14c-1.834-1.327-2.163-1.669-1.294-7.511c0.869-5.841-1.858-7.864-1.327-10.417
		c0.533-2.554-4.699-4.672-0.179-8.28c0.732-0.584,1.373-0.812,1.936-0.789c-1.069-4.646-1.07-4.648-1.07-4.648
		s-7.776-30.952,18.225-45.372c8.621-4.667,13.847-5.414,13.847-5.414s16.043-3.867,22.604,2.32
		c6.561,6.187,20.896,5.929,26.729,40.732c-0.752,6.57-1.707,11.671-2.637,15.538c0.908-0.29,1.656,0.273,1.873,2.6
		c0.57,6.07-1.711,10.215-3.158,12.546s0.791,8.419-0.592,9.715c-1.383,1.294-1.516,3.044-3.818,2.915
		c-0.219-0.012-0.383-0.228-0.504-0.605c-1.186,3.448-2.744,6.83-4.797,9.835c-0.717,1.05-1.428,2.029-2.137,2.976v16.988
		c0.166-0.685,0.316-1.375,0.439-2.077l7.914,3.426l19.898,11.19l18.871,10.613c0,0,3.094,2.294,6.605,6.771
		c14.355-17.868,22.951-40.56,22.951-65.264c0-57.595-46.691-104.286-104.285-104.286c-57.596,0-104.287,46.69-104.287,104.286
		c0,24.703,8.595,47.396,22.95,65.263C46.247,177.929,49.341,175.635,49.341,175.635z"/>
	<path style="fill:#121212;" d="M198.801,175.635l-18.871-10.613l-19.898-11.19l-7.914-3.426c-0.123,0.702-0.273,1.392-0.439,2.077
		v-16.988c0.709-0.947,1.42-1.926,2.137-2.976c2.053-3.005,3.611-6.387,4.797-9.835c0.121,0.378,0.285,0.593,0.504,0.605
		c2.303,0.13,2.436-1.62,3.818-2.915c1.383-1.296-0.855-7.383,0.592-9.715s3.729-6.477,3.158-12.546
		c-0.217-2.326-0.965-2.89-1.873-2.6c0.93-3.866,1.885-8.968,2.637-15.538c-5.832-34.803-20.168-34.545-26.729-40.732
		c-6.561-6.188-22.604-2.32-22.604-2.32s-5.227,0.747-13.847,5.414C78.267,56.758,86.043,87.71,86.043,87.71s0,0.002,1.07,4.648
		c-0.563-0.022-1.204,0.205-1.936,0.789c-4.521,3.608,0.712,5.727,0.179,8.28c-0.531,2.554,2.196,4.576,1.327,10.417
		c-0.869,5.842-0.54,6.185,1.294,7.511c1.833,1.326,3.415,0.397,3.597,0.14c0.023-0.033,0.027-0.398,0.018-1
		c1.092,4.518,2.706,9.131,5.078,13.154v19.79c-0.126-0.612-0.24-1.229-0.333-1.854l-7.829,4.023l-20.294,11.413l-18.872,10.613
		c0,0-3.094,2.294-6.605,6.771c7.181,8.937,15.801,16.667,25.513,22.834c16.083,10.212,35.15,16.143,55.601,16.186
		c0.074,0,0.148,0.003,0.223,0.003c20.535,0,39.68-5.939,55.82-16.188c9.713-6.167,18.334-13.897,25.514-22.834
		C201.895,177.929,198.801,175.635,198.801,175.635z"/>
</g>
</svg>
