<?xml version="1.0" encoding="utf-8"?>
<!-- Generator: Adobe Illustrator 16.0.0, SVG Export Plug-In . SVG Version: 6.00 Build 0)  -->
<!DOCTYPE svg PUBLIC "-//W3C//DTD SVG 1.1//EN" "http://www.w3.org/Graphics/SVG/1.1/DTD/svg11.dtd">
<svg version="1.1" id="Layer_1" xmlns="http://www.w3.org/2000/svg" xmlns:xlink="http://www.w3.org/1999/xlink" x="0px" y="0px"
	 width="470.27px" height="358.723px" viewBox="0 0 470.27 358.723" enable-background="new 0 0 470.27 358.723"
	 xml:space="preserve">
<path fill="#FFFFFF" stroke="#0DAAA6" stroke-width="3" stroke-miterlimit="10" d="M807.797,205.539
	c6.748,3.272-2.5,105.5-2.5,105.5s2.811,23.5,8.904,0c6.096-23.5,9.096-29.5,13.595-30.5c4.5-1,18.5-1,20,8.5s0,20.5,0,20.5
	s7-10,17-1s10,29.5,9.5,29s10.5-7.482,16,0.01c5.5,7.49,24.5,31.99,16.5,54.99s-22.5,100.5-74.5,103.5
	c-51.999,3-66.999-30.5-75.499-50.5s-18.5-42.5-22.5-44.5s2.287-20.119,0-41c-0.891-8.127-11.5-48-11.5-48s-3.667-20.332,16.5-4.5
	c12.166,13.168,17.5,46,16.5,47.5s8.5,12.189,8-5.156c-0.5-17.344,7-36.844,10-47.344S774.463,189.375,807.797,205.539z"/>
<g>
	<path d="M423.773,116.682l17.293,0.095c0,0-32.152,43.566-34.776,47.117c-0.854,1.15-2.149,2.39-2.805,3.926
		c-1.661,3.865-3.365,12.34-3.365,12.34l-15.823,0.079c0,0,2.462-8.834,2.36-13.541c-0.09-4.112-2.188-8.217-3.365-12.34
		c-1.189-4.173-2.805-12.34-2.805-12.34h16.267l2.244,8.975L423.773,116.682L423.773,116.682z"/>
	<path d="M391.027,125.87c3.191,1.924,5.149,12.537,5.149,12.537s-16.698,0.247-25.786,0.247c-2.121,0-7.853,0-7.853,0
		l-9.535,41.508h-14.584c0,0,9.075-45.109,11.219-53.287c0.695-2.647,4.756-2.193,11.616-2.193c3.371,0,8.189,0,10.954,0
		C379.281,124.681,387.549,123.777,391.027,125.87L391.027,125.87z"/>
	<path d="M323.133,146.085c0,0,0.454-2.665-1.542-5.75c-1.705-2.631-3.281-3.242-7.769-3.382
		c-12.672-0.398-12.425,8.992-12.425,8.992L323.133,146.085L323.133,146.085z M336.876,135.333
		c1.856,6.697-1.684,22.436-1.684,22.436s-18.482-0.309-28.606,0c-3.147,0.096-6.916-0.342-7.853,1.122
		c-1.318,2.053,0.481,5.211,2.008,6.546c1.756,1.537,5.177,1.711,6.405,1.868c8.218,1.043,25.416,0.27,25.416,0.27l-2.979,13.192
		c0,0-24.304,1.217-36.459-1.683c-2.4-0.572-4.649-1.728-6.17-3.365c-0.416-0.449-0.774-1.061-1.168-1.588
		c-0.313-0.42-1.228-1.806-1.637-2.9c-2.776-7.398,0.325-21.572,3.365-29.167c0.353-0.88,0.796-1.997,1.263-2.945
		c0.583-1.183,1.076-2.519,1.542-3.225c0.313-0.488,0.701-0.802,1.026-1.262c0.376-0.544,0.813-1.071,1.218-1.542
		c1.121-1.301,2.394-2.221,3.926-3.365c5.064-3.792,14.23-6.737,25.241-5.609c4.145,0.426,10.405,1.907,13.462,6.17
		C336.012,131.422,336.416,133.683,336.876,135.333L336.876,135.333z"/>
	<g>
		<defs>
			<rect id="SVGID_1_" x="29.205" y="109.764" width="411.861" height="128.218"/>
		</defs>
		<clipPath id="SVGID_2_">
			<use xlink:href="#SVGID_1_"  overflow="visible"/>
		</clipPath>
		<path clip-path="url(#SVGID_2_)" d="M269.986,124.63l14.142-0.084c0,0-7.881,37.385-11.897,55.615c-6.097,0-11.252,0-16.267,0
			c-11.37,0-21.494,1.408-25.802-6.731c-4.179-7.903-0.191-20.9,1.683-29.729c1.324-6.249,4.112-19.02,4.112-19.02l14.651-0.135
			c0,0-4.14,19.885-5.862,29.813c-0.617,3.556-1.89,6.905-0.561,9.536c1.262,2.501,3.029,2.681,8.414,2.805
			c1.705,0.039,7.292,0,7.292,0L269.986,124.63L269.986,124.63z"/>
		<path clip-path="url(#SVGID_2_)" d="M203.798,151.554c1.481-5.261,3.64-10.966,3.365-15.706c-0.297-5.07-4.548-9.687-7.291-10.657
			c-8.263-2.917-15.998,1.161-19.071,4.487c-3.978,4.308-5.324,9.339-6.731,16.267c-1.049,5.144-1.907,10.573,0,14.584
			c3.376,7.09,13.905,5.542,25.241,5.609C200.994,161.628,202.385,156.563,203.798,151.554L203.798,151.554z M223.431,130.8
			c1.616,11.745-4.583,24.708-8.852,35.982c4.353,0.393,8.167-0.062,8.442,0.264c0.286,0.42-2.917,13.457-4.034,13.49
			c-3.455,0.089-14.903,0.185-19.677,0.185c-15.577,0-30.149,1.016-37.581-6.73c-3.018-3.147-5.104-8.543-5.61-12.34
			c-0.841-6.338,0.213-13.316,1.683-19.071c1.329-5.194,3.034-10.096,5.609-14.584c6.545-11.426,17.932-19.906,37.02-17.949
			c3.702,0.382,9.019,2.003,12.34,3.926c0.229,0.135,1.032,0.774,1.217,0.887C218.478,117.714,222.567,124.529,223.431,130.8
			L223.431,130.8z"/>
	</g>
	<path d="M154.511,124.697c-0.942,4.291-1.884,9.154-2.877,13.395c-5.233,0-10.472,0-15.706,0c1.217-4.701,2.148-9.373,3.365-13.462
		C144.319,124.63,148.992,124.697,154.511,124.697L154.511,124.697z"/>
	<g>
		<defs>
			<rect id="SVGID_3_" x="29.205" y="109.764" width="411.861" height="128.218"/>
		</defs>
		<clipPath id="SVGID_4_">
			<use xlink:href="#SVGID_3_"  overflow="visible"/>
		</clipPath>
		<path clip-path="url(#SVGID_4_)" d="M135.367,142.018c5.048,0,10.096,0,15.144,0c-1.979,10.96-5.9,28.641-8.974,40.947
			c-1.924,7.702-3.208,13.322-8.414,17.388c-0.466,0.365-0.734,0.192-1.122,0.562c-0.959,0.914-5.396,1.975-7.853,2.243
			c-3.994,0.432-8.509,0.056-13.417-0.044c1.285-4.695,2.737-10.332,3.882-14.539c11.964,1.448,12.267-9.861,14.583-20.754
			C130.538,161.527,134.599,144.542,135.367,142.018L135.367,142.018z"/>
		<path clip-path="url(#SVGID_4_)" fill="#136BB0" d="M100.029,170.625l-0.325,0.841c-5.531,10.77-15.33,17.377-29.308,17.668
			c-6.534,0.135-12.761-1.542-16.827-3.365c-8.779-3.944-16.16-11.258-20.193-19.071c-5.784-11.202-6.827-26.784,5.2-38.423
			c0.185,0-1.458,2.524-1.273,2.524l-0.331,1.077c-8.667,27.131,18.033,50.381,43.987,47.723
			C87.196,178.96,95.149,175.544,100.029,170.625L100.029,170.625z"/>
	</g>
	<path fill="#136BB0" d="M101.056,136.757c-1.015,2.328-6.86,6.726-9.44,7.275c-10.22,2.177-16.765-2.669-20.193-8.184
		c-0.51-0.824-1.453-3.074-1.621-3.646c-1.33-4.521-0.718-11.359,3.248-14.898c-1.195,3.365-1.369,7.274-0.74,9.815
		c0.381,1.537,1.542,4.219,2.703,5.907c2.114,3.074,3.456,3.82,6.17,5.452c1.224,0.735,2.535,1.324,3.102,1.486
		C86.858,140.723,92.294,142.72,101.056,136.757L101.056,136.757z"/>
	<path fill="#136BB0" d="M84.323,159.407c6.529,0.045,13.35-3.007,17.389-7.292c-3.534,8.969-13.765,14.735-27.485,12.901
		c-11.487-1.537-22.431-13.097-23.558-24.68c-0.825-8.43,2.114-13.462,6.955-19.564c-1.683,3.191-2.311,5.654-2.468,7.224
		C53.316,146.231,69.723,159.312,84.323,159.407L84.323,159.407z"/>
</g>
</svg>
