<?xml version="1.0" encoding="iso-8859-1"?>
<!-- Generator: Adobe Illustrator 16.0.0, SVG Export Plug-In . SVG Version: 6.00 Build 0)  -->
<!DOCTYPE svg PUBLIC "-//W3C//DTD SVG 1.1//EN" "http://www.w3.org/Graphics/SVG/1.1/DTD/svg11.dtd">
<svg version="1.1" id="Layer_1" xmlns="http://www.w3.org/2000/svg" xmlns:xlink="http://www.w3.org/1999/xlink" x="0px" y="0px"
	 width="316.418px" height="267.164px" viewBox="0 0 316.418 267.164" style="enable-background:new 0 0 316.418 267.164;"
	 xml:space="preserve">
<path style="fill:#FFFFFF;" d="M79.154,108.442h35.034v112.537H79.154V108.442z M96.68,52.496c11.198,0,20.287,9.088,20.287,20.273
	c0,11.196-9.089,20.285-20.287,20.285c-11.242,0-20.306-9.089-20.306-20.285C76.375,61.584,85.438,52.496,96.68,52.496"/>
<path style="fill:#FFFFFF;" d="M136.148,108.442h33.549v15.375h0.48c4.666-8.849,16.094-18.178,33.119-18.178
	c35.414,0,41.965,23.303,41.965,53.611v61.729H210.29v-54.723c0-13.053-0.253-29.841-18.19-29.841
	c-18.215,0-20.994,14.214-20.994,28.894v55.67h-34.958V108.442z"/>
</svg>
