<?xml version="1.0" encoding="iso-8859-1"?>
<!-- Generator: Adobe Illustrator 16.0.0, SVG Export Plug-In . SVG Version: 6.00 Build 0)  -->
<!DOCTYPE svg PUBLIC "-//W3C//DTD SVG 1.1//EN" "http://www.w3.org/Graphics/SVG/1.1/DTD/svg11.dtd">
<svg version="1.1" id="Layer_1" xmlns="http://www.w3.org/2000/svg" xmlns:xlink="http://www.w3.org/1999/xlink" x="0px" y="0px"
	 width="470.27px" height="358.723px" viewBox="0 0 470.27 358.723" style="enable-background:new 0 0 470.27 358.723;"
	 xml:space="preserve">
<path style="fill:#FFFFFF;stroke:#0DAAA6;stroke-width:3;stroke-miterlimit:10;" d="M807.797,205.539
	c6.748,3.271-2.5,105.5-2.5,105.5s2.812,23.5,8.902,0c6.098-23.5,9.098-29.5,13.597-30.5c4.5-1,18.5-1,20,8.5s0,20.5,0,20.5
	s7-10,17-1s10,29.5,9.5,29s10.5-7.482,16,0.01c5.5,7.49,24.5,31.99,16.5,54.99s-22.5,100.5-74.5,103.5
	c-51.999,3-66.999-30.5-75.499-50.5s-18.5-42.5-22.5-44.5s2.286-20.119,0-41c-0.893-8.127-11.5-48-11.5-48s-3.667-20.332,16.5-4.5
	c12.166,13.168,17.5,46,16.5,47.5s8.5,12.188,8-5.156s7-36.844,10-47.344S774.463,189.375,807.797,205.539z"/>
<circle style="fill:#111111;" cx="229.826" cy="193.861" r="159"/>
<g>
	<path style="fill:#F5F5F5;" d="M229.823,98.567c-50.115,0-90.741,40.625-90.741,90.741c0,50.125,40.626,90.751,90.741,90.751
		c50.118,0,90.748-40.626,90.748-90.751C320.572,139.193,279.942,98.567,229.823,98.567z M233.684,264.996v-13.535
		c0-2.125-1.729-3.839-3.849-3.839c-2.129,0-3.861,1.714-3.861,3.839v13.535c-38.816-1.951-69.883-33-71.835-71.839h12.92
		c2.128,0,3.858-1.711,3.858-3.849c0-2.119-1.73-3.854-3.858-3.854h-12.92c1.952-38.829,33.031-69.888,71.867-71.834
		c0,0.067-0.032,0.115-0.032,0.173v14.112c0,2.129,1.732,3.849,3.861,3.849c2.119,0,3.849-1.72,3.849-3.849v-14.112
		c0-0.058-0.034-0.105-0.034-0.173c38.844,1.946,69.913,33.005,71.863,71.834h-13.031c-2.123,0-3.853,1.734-3.853,3.854
		c0,2.138,1.729,3.849,3.853,3.849h13.031C303.563,231.996,272.503,263.045,233.684,264.996z"/>
	<path style="fill:#F5F5F5;" d="M247.446,144.037c-3.888,3.882-6.261,10.72-5.405,16.337l-14.158,14.155
		c-2.511-1.893-6.098-1.705-8.38,0.582c-2.499,2.499-2.499,6.549,0,9.057c1.563,1.543,3.822,2.163,5.932,1.701v1.673
		c-1.734-0.265-3.541,0.298-4.819,1.58c-2.213,2.196-2.21,5.78,0,7.981c2.016,2.022,5.189,2.2,7.397,0.523l12.505,12.493
		c-0.759,4.963,1.34,10.989,4.771,14.428c4.881,4.873,12.781,4.873,17.663,0c4.872-4.866,4.872-12.774,0-17.643
		c-3.44-3.431-9.461-5.53-14.438-4.767l-11.283-11.72c-0.004,0.011-0.004,0.029-0.004,0.044l-0.289-6.881l14.155-14.15
		c5.622,0.86,12.455-1.523,16.338-5.41c5.524-5.517,5.524-14.463,0-19.984C261.913,138.521,252.967,138.521,247.446,144.037z
		 M235.64,182.39l0.605,9.677l0.395-0.489c-0.088,0.153-0.174,0.293-0.279,0.398c-0.039,0.028-0.076,0.038-0.115,0.091
		l10.475,10.471c-0.326,0.105-0.639,0.211-0.942,0.34c-1.008,0.462-1.911,1.048-2.69,1.813c-0.885,0.89-1.527,1.937-1.975,3.095
		c-0.063,0.178-0.12,0.374-0.178,0.547l-11.979-11.974l-0.019,0.005l-0.913-0.928c-0.101,0.13-0.382,0.452-0.519,0.567
		c-1.598,1.596-4.192,1.596-5.79,0c-1.589-1.585-1.589-4.185,0-5.79c0.984-0.98,2.397-1.36,3.733-1.076c0,0,0,0.015,0,0.033
		c0.196,0.02,1.28-0.086,1.28-0.086v-4.694l-0.346-0.13c0-0.063-0.145-0.005-0.145-0.072l-0.331-0.317
		c-1.737,0.77-3.813,0.385-5.158-0.961c-1.805-1.802-1.805-4.747,0.009-6.554c1.802-1.797,4.736-1.797,6.535-0.009
		c0.044,0.043,0.426,0.648,0.513,0.764l1.131-1.153h0.012l13.553-13.55c0.115,0.37,0.24,0.721,0.395,1.062
		c0.499,1.134,1.177,2.167,2.046,3.056c1,0.99,2.191,1.725,3.509,2.224c0.191,0.087,0.408,0.135,0.614,0.202L235.64,182.39z"/>
</g>
</svg>
