<?xml version="1.0" encoding="utf-8"?>
<!-- Generator: Adobe Illustrator 16.0.0, SVG Export Plug-In . SVG Version: 6.00 Build 0)  -->
<!DOCTYPE svg PUBLIC "-//W3C//DTD SVG 1.1//EN" "http://www.w3.org/Graphics/SVG/1.1/DTD/svg11.dtd">
<svg version="1.1" id="Layer_1" xmlns="http://www.w3.org/2000/svg" xmlns:xlink="http://www.w3.org/1999/xlink" x="0px" y="0px"
	 width="78.57px" height="84.286px" viewBox="0 0 78.57 84.286" enable-background="new 0 0 78.57 84.286" xml:space="preserve">
<circle fill="#FFFFFF" stroke="#C52D2E" stroke-width="3" stroke-miterlimit="10" cx="39" cy="41.906" r="33"/>
<g>
	<g>
		<g>
			<circle fill="#C52D2E" cx="38.949" cy="41.975" r="27.812"/>
			<path fill="#FFFFFF" d="M49.852,42.556c-0.679-0.226-1.968-0.075-4.688-2.798c-2.723-2.723-1.892-4.918-4.084-7.792
				c-2.193-2.875-7.718-7.567-14.375-5.296c-3.937,1.891-3.479,2.798-3.479,2.798s-3.026-0.301-4.842,3.179l0.983-0.076
				c0,0,4.842,0.53,4.992,0.756c0.15,0.227,3.254,1.135,4.769,5.446c1.513,4.313,0.757,5.069,0.757,5.901s-0.807,4.121-1.06,4.691
				c-0.303,0.68-0.53,12.256,6.96,18.686c0.674,0.58,1.408,1.15,2.188,1.711c0.325,0.011,0.65,0.025,0.979,0.025
				c14.354,0,26.161-10.873,27.65-24.828C56.207,42.555,50.441,42.752,49.852,42.556z"/>
		</g>
	</g>
	<g>
		<g>
			<path fill="#C52D2E" d="M25.029,60.48c0,0,0.053-0.122,0.15-0.351c0.105-0.233,0.226-0.549,0.443-1
				c0.234-0.463,0.505-1.028,0.91-1.627c0.392-0.603,0.92-1.291,1.744-1.885c0.405-0.299,0.918-0.548,1.471-0.681
				c0.279-0.052,0.566-0.129,0.852-0.11c0.285-0.002,0.576-0.007,0.845,0.055c1.107,0.179,2.063,0.652,2.969,1.17
				c0.904,0.525,1.754,1.131,2.608,1.74c0.845,0.61,1.701,1.229,2.56,1.853c1.708,1.224,3.461,2.369,5.204,3.267
				c0.432,0.23,0.862,0.444,1.295,0.635c0.426,0.207,0.854,0.381,1.271,0.545c0.415,0.177,0.828,0.318,1.229,0.449
				c0.2,0.067,0.397,0.135,0.592,0.201c0.197,0.055,0.393,0.106,0.581,0.159c0.755,0.228,1.468,0.351,2.097,0.481
				c0.633,0.099,1.188,0.172,1.647,0.228c0.923,0.062,1.449,0.097,1.449,0.097s-0.528,0.004-1.457,0.014
				c-0.463-0.02-1.026-0.053-1.673-0.104c-0.645-0.086-1.373-0.158-2.155-0.33c-0.196-0.037-0.396-0.078-0.604-0.117
				c-0.201-0.053-0.408-0.104-0.617-0.158c-0.419-0.102-0.854-0.217-1.289-0.363c-0.438-0.137-0.89-0.279-1.339-0.457
				c-0.457-0.162-0.915-0.35-1.375-0.55c-1.854-0.785-3.736-1.824-5.559-2.933c-0.901-0.556-1.805-1.108-2.693-1.656
				c-0.883-0.534-1.751-1.057-2.598-1.465c-0.841-0.407-1.675-0.713-2.377-0.762c-0.706-0.054-1.214,0.143-1.651,0.516
				c-0.438,0.371-0.792,0.875-1.061,1.375c-0.284,0.494-0.46,0.961-0.622,1.336c-0.157,0.396-0.271,0.771-0.354,0.994
				c-0.081,0.234-0.124,0.358-0.124,0.358L25.029,60.48z"/>
		</g>
	</g>
	<g>
		<path fill="#C52D2E" d="M23.279,26.31c0,0,0.091,0.019,0.259,0.054c0.158,0.038,0.393,0.094,0.688,0.164
			c0.584,0.147,1.404,0.377,2.372,0.704c1.926,0.649,4.458,1.703,6.689,3.285c0.552,0.401,1.094,0.815,1.583,1.279
			c0.5,0.449,0.943,0.945,1.352,1.437c0.39,0.508,0.735,1.021,1.009,1.537c0.274,0.515,0.481,1.025,0.638,1.504
			c0.153,0.481,0.246,0.931,0.307,1.332c0.063,0.399,0.068,0.754,0.097,1.039c-0.014,0.574-0.021,0.902-0.021,0.902
			s-0.039-0.323-0.106-0.89c-0.069-0.277-0.121-0.617-0.238-0.991c-0.112-0.376-0.263-0.789-0.473-1.219
			c-0.21-0.428-0.472-0.872-0.791-1.308c-0.318-0.438-0.702-0.858-1.121-1.267c-0.438-0.394-0.898-0.783-1.412-1.125
			c-0.501-0.355-1.051-0.661-1.604-0.952c-2.233-1.144-4.7-1.778-6.55-2.117c-0.928-0.171-1.704-0.271-2.243-0.327
			c-0.268-0.024-0.477-0.043-0.618-0.056c-0.135-0.008-0.206-0.013-0.206-0.013L23.279,26.31z"/>
	</g>
</g>
</svg>
