<?xml version="1.0" encoding="utf-8"?>
<!-- Generator: Adobe Illustrator 16.0.0, SVG Export Plug-In . SVG Version: 6.00 Build 0)  -->
<!DOCTYPE svg PUBLIC "-//W3C//DTD SVG 1.1//EN" "http://www.w3.org/Graphics/SVG/1.1/DTD/svg11.dtd">
<svg version="1.1" id="Layer_1" xmlns="http://www.w3.org/2000/svg" xmlns:xlink="http://www.w3.org/1999/xlink" x="0px" y="0px"
	 width="612px" height="792px" viewBox="0 0 612 792" enable-background="new 0 0 612 792" xml:space="preserve">
<g>
	<g>
		<path opacity="0.7" fill="#C1918A" d="M258.153,560.768l-70.526,53.203c57.687,82.654,100.224,96.029,120.494,96.658V571.645
			L258.153,560.768z"/>
		<path opacity="0.6" fill="#A06D67" d="M373.624,560.768l-57.733,12.57l-7.77-1.693v138.984c3.121,0.096,5.728-0.102,7.77-0.402
			c15.283,2.268,55.199-0.885,121.766-96.256L373.624,560.768z"/>
	</g>
	<g>
		<linearGradient id="SVGID_1_" gradientUnits="userSpaceOnUse" x1="308.707" y1="457.5107" x2="308.707" y2="31.9846">
			<stop  offset="0" style="stop-color:#000000"/>
			<stop  offset="1" style="stop-color:#98962E"/>
		</linearGradient>
		<path fill="url(#SVGID_1_)" d="M372.885,484.186h59.271c0,0-5.213-49.072,31.777-54.844
			c-54.059-92.371-22.764-178.969-22.764-178.969c-68.285-43.298-132.021-37.521-132.021-37.521h-0.888
			c0,0-63.731-5.777-132.016,37.521c0,0,31.294,86.598-22.764,178.969c36.99,5.771,31.773,54.844,31.773,54.844h59.275
			l-19.916,37.523c0,0,27.292,3,50.734,11.314l30.654-27.811c-7.104-10.916-31.51-34.752-108.972-33.643
			c-2.848-23.453-33.432-47.937-33.432-47.937s92.468,1.446,101.005,7.579c8.537,6.133,30.942,36.441,36.279-7.579
			c2.845,12.261,2.845,12.261,2.845,12.261l4.978-0.533l4.979,0.533c0,0,0,0,2.848-12.261c5.334,44.021,27.742,13.712,36.279,7.579
			s101.006-7.579,101.006-7.579s-30.59,24.483-33.438,47.937c-82.403-1.182-104.768,25.865-110.133,35.564l29.677,26.676
			c23.893-8.918,52.878-12.102,52.878-12.102L372.885,484.186z"/>
		<path fill="#121212" d="M463.934,429.342c-54.059-92.371-22.764-178.969-22.764-178.969
			c-68.285-43.298-132.021-37.521-132.021-37.521h-0.888c0,0-63.731-5.777-132.016,37.521c0,0,31.294,86.598-22.764,178.969
			c36.99,5.771,31.773,54.844,31.773,54.844h59.275l-19.916,37.523c0,0,27.292,3,50.734,11.314
			c16.465,5.842,31.034,14.303,32.913,26.215c0.025,0.127,0.044,0.189,0.063,0.305c0.102,0.723,0.209,1.135,0.323,1.199
			c0.019,0.031,0.038,0.018,0.058,0.025c0.019-0.008,0.044,0.006,0.057-0.025c0.121-0.064,0.229-0.477,0.33-1.199
			c0.02-0.115,0.038-0.178,0.057-0.305c1.795-11.391,15.21-19.625,30.774-25.428c23.893-8.918,52.878-12.102,52.878-12.102
			l-19.916-37.523h59.271C432.156,484.186,426.943,435.113,463.934,429.342z M420.379,471.57
			c-82.403-1.182-104.768,25.865-110.133,35.564c-1.16,2.098-1.541,3.404-1.541,3.404s-0.609-2.111-2.704-5.326
			c-7.104-10.916-31.51-34.752-108.972-33.643c-2.848-23.453-33.432-47.937-33.432-47.937s92.468,1.446,101.005,7.579
			c8.537,6.133,30.942,36.441,36.279-7.579c2.845,12.261,2.845,12.261,2.845,12.261l4.978-0.533l4.979,0.533c0,0,0,0,2.848-12.261
			c5.334,44.021,27.742,13.712,36.279,7.579s101.006-7.579,101.006-7.579S423.227,448.117,420.379,471.57z"/>
		<linearGradient id="SVGID_2_" gradientUnits="userSpaceOnUse" x1="306.4277" y1="327.0723" x2="308.5222" y2="548.2288">
			<stop  offset="0" style="stop-color:#C49A6C"/>
			<stop  offset="1" style="stop-color:#000000"/>
		</linearGradient>
		<path fill="url(#SVGID_2_)" d="M310.246,507.135l-3.195-2.875l-1.049,0.953c2.094,3.215,2.704,5.326,2.704,5.326
			S309.086,509.232,310.246,507.135z"/>
		<linearGradient id="SVGID_3_" gradientUnits="userSpaceOnUse" x1="308.123" y1="485.043" x2="308.123" y2="405.1935">
			<stop  offset="0" style="stop-color:#020202"/>
			<stop  offset="1" style="stop-color:#000000"/>
		</linearGradient>
		<path fill="url(#SVGID_3_)" d="M310.246,507.135l-3.195-2.875l-1.049,0.953c2.094,3.215,2.704,5.326,2.704,5.326
			S309.086,509.232,310.246,507.135z"/>
		<linearGradient id="SVGID_4_" gradientUnits="userSpaceOnUse" x1="308.123" y1="510.5391" x2="308.123" y2="423.6141">
			<stop  offset="0" style="stop-color:#FAB9AC"/>
			<stop  offset="1" style="stop-color:#98962E"/>
		</linearGradient>
		<path fill="url(#SVGID_4_)" d="M310.246,507.135l-3.195-2.875l-1.049,0.953c2.094,3.215,2.704,5.326,2.704,5.326
			S309.086,509.232,310.246,507.135z"/>
		<g>
			<path d="M415.514,64.335l-9.59,150.747c-6.432-1.819-13.699-3.714-21.597-5.532c-60.032-25.778-137.642-10.34-179.531,1.563
				l-9.083-142.667c0,0-187.543,351.198-0.953,555.973l80.587-91.396c-23.442-8.314-50.734-11.314-50.734-11.314l19.916-37.523
				h-59.275c0,0,5.217-49.072-31.773-54.844c54.058-92.371,22.764-178.969,22.764-178.969
				c68.284-43.298,132.016-37.521,132.016-37.521h0.888c0,0,63.736-5.777,132.021,37.521c0,0-31.295,86.598,22.764,178.969
				c-36.99,5.771-31.777,54.844-31.777,54.844h-59.271l19.916,37.523c0,0-28.985,3.184-52.878,12.102l97.733,80.16
				C603.254,405.203,415.514,64.335,415.514,64.335z"/>
		</g>
	</g>
	<path opacity="0.7" d="M353.604,432.197c-8.657,6.133-31.389,36.443-36.806-7.576c-2.892,12.26-2.892,12.26-2.892,12.26
		l-5.049-0.537l-5.049,0.537c0,0,0,0-2.886-12.26c-5.417,44.02-28.148,13.709-36.806,7.576
		c-8.658-6.135-102.471-7.576-102.471-7.576s31.028,24.48,33.914,47.934c101.754-1.439,113.298,38.969,113.298,38.969
		s11.543-40.408,113.297-38.969c2.893-23.453,33.92-47.934,33.92-47.934S362.262,426.063,353.604,432.197z"/>
</g>
</svg>
