<?xml version="1.0" encoding="utf-8"?>
<!-- Generator: Adobe Illustrator 16.0.0, SVG Export Plug-In . SVG Version: 6.00 Build 0)  -->
<!DOCTYPE svg PUBLIC "-//W3C//DTD SVG 1.1//EN" "http://www.w3.org/Graphics/SVG/1.1/DTD/svg11.dtd">
<svg version="1.1" id="Layer_1" xmlns="http://www.w3.org/2000/svg" xmlns:xlink="http://www.w3.org/1999/xlink" x="0px" y="0px"
	 width="612px" height="792px" viewBox="0 0 612 792" enable-background="new 0 0 612 792" xml:space="preserve">
<g>
	<path d="M548.001,344.668c0,123.093-107.973,222.88-241.173,222.88c-133.193,0-241.166-99.787-241.166-222.88
		c0-123.091,107.973-222.877,241.166-222.877C440.028,121.792,548.001,221.578,548.001,344.668z"/>
	<path fill="#0D0D0D" d="M435.966,267.525c-48.57-11.206-89.398-16.012-123.058-17.187v-0.042c-0.133,0.006-0.283,0.015-0.416,0.019
		c-0.141-0.004-0.273-0.012-0.415-0.019v0.042c-33.659,1.175-74.487,5.981-123.058,17.187
		C54.457,66.897,54.457,66.897,54.457,66.897l26.931,637.802c12.078-82.404,36.226-171.969,36.226-171.969
		s1.728,16.123,84.531,23.283c70.019,6.064,101.775,28.754,109.933,35.629v0.713c0.125-0.111,0.274-0.24,0.415-0.355
		c0.133,0.115,0.291,0.244,0.416,0.355v-0.713c8.148-6.875,39.914-29.564,109.925-35.629c82.811-7.16,84.53-23.283,84.53-23.283
		s24.148,89.564,36.227,171.969l26.938-637.802C570.528,66.897,570.528,66.897,435.966,267.525z"/>
	<g>
		<path fill="#EC1D24" d="M280.295,480.5l-150.022-40.916C130.273,439.584,167.289,585.711,280.295,480.5z"/>
		<path fill="#EC1D24" d="M337.771,480.5l150.014-40.916C487.784,439.584,450.769,585.711,337.771,480.5z"/>
	</g>
</g>
</svg>
