<?xml version="1.0" encoding="utf-8"?>
<!-- Generator: Adobe Illustrator 16.0.0, SVG Export Plug-In . SVG Version: 6.00 Build 0)  -->
<!DOCTYPE svg PUBLIC "-//W3C//DTD SVG 1.1//EN" "http://www.w3.org/Graphics/SVG/1.1/DTD/svg11.dtd">
<svg version="1.1" id="Layer_1" xmlns="http://www.w3.org/2000/svg" xmlns:xlink="http://www.w3.org/1999/xlink" x="0px" y="0px"
	 width="300px" height="300px" viewBox="0 0 300 300" enable-background="new 0 0 300 300" xml:space="preserve">
<g>
	<circle fill="#AC7A70" cx="107.978" cy="208.152" r="3.579"/>
	<circle fill="#AC7A70" cx="200.535" cy="208.152" r="3.58"/>
	<path fill="#AC7A70" d="M153.768,326.461c0,3.756-1.283,6.799-2.865,6.799c-1.579,0-2.86-3.043-2.86-6.799
		c0-3.758,1.283-6.801,2.86-6.801C152.484,319.66,153.768,322.703,153.768,326.461z"/>
	<g>
		<g>
			<path fill="#DBAAA1" d="M137.754,79.918c-9.155,0-16.574,6.053-16.574,13.52v73.941c0,7.469,7.419,13.52,16.574,13.52h11.282
				V79.918H137.754z"/>
			<path fill="#C1918A" d="M160.956,79.918h-11.92v100.98h11.92c9.153,0,16.575-6.051,16.575-13.521v-73.94
				C177.531,85.972,170.109,79.918,160.956,79.918z"/>
		</g>
		<path fill="#C1918A" d="M149.472,149.635l-3.34,213.662l2.904-237.658l28.592,3.882c0,0,18.61,16.986,32.45,21.903
			c13.84,4.916,42.475,2.234,42.475,56.768c3.816,54.979,11.451,118.451,11.451,118.451s8.114,127.396,0,137.229
			c0.479,17.434-22.43,40.678-22.43,40.678l-1.908-10.278c0,0,17.18-17.882,9.546-42.912c-4.772,25.03-4.772,25.03-4.772,25.03
			l-5.248,2.232l-4.771-37.992c0,0,4.771-12.067,10.499-10.729c2.86-36.208,2.86-36.208,2.86-36.208s-7.633-7.149-15.747-48.274
			c-8.111-41.123-11.451-92.976-11.451-92.976s-7.853-34.418,2.04-46.041c9.893-11.618-12.54,23.244-19.223,73.31
			c10.021,50.063,10.498,54.531,10.498,54.531v19.668l-67.765,4.918"/>
		<path fill="#DBAAA1" d="M148.518,149.635l3.339,213.662l-3.339-238.247l-27.338,4.341c0,0-19.43,17.116-33.27,22.033
			c-13.839,4.916-42.472,2.234-42.472,56.768C41.62,263.17,33.984,326.643,33.984,326.643s-8.112,127.396,0,137.229
			c-0.477,17.434,22.43,40.678,22.43,40.678l1.908-10.278c0,0-17.18-17.882-9.544-42.912c4.773,25.03,4.773,25.03,4.773,25.03
			l5.249,2.232l4.772-37.992c0,0-4.772-12.067-10.499-10.729c-2.863-36.208-2.863-36.208-2.863-36.208s7.636-7.149,15.749-48.274
			c8.112-41.123,11.452-92.976,11.452-92.976s7.849-34.418-2.041-46.041c-9.889-11.618,12.54,23.244,19.222,73.31
			c-10.022,50.063-10.5,54.531-10.5,54.531v19.668l67.766,4.918"/>
		<circle fill="#AC7A70" cx="107.978" cy="208.152" r="3.579"/>
		<circle fill="#AC7A70" cx="200.535" cy="208.152" r="3.58"/>
		<path fill="#AC7A70" d="M153.768,326.461c0,3.756-1.283,6.799-2.865,6.799c-1.579,0-2.86-3.043-2.86-6.799
			c0-3.758,1.283-6.801,2.86-6.801C152.484,319.66,153.768,322.703,153.768,326.461z"/>
		<g>
			<g>
				<path fill="#C58E83" d="M149.24,23.345c-5.44-0.224-31.557,0.748-34.57,39.683c0,0-0.785,22.02,7.742,36.035
					c8.526,14.018,16.713,18.888,16.713,18.888s2.954,2.604,8.841,2.956c0.065,0.015,0.132,0.023,0.196,0.027
					c0.527,0.02,1.027,0.019,1.519,0.008v-97.61C149.525,23.336,149.373,23.34,149.24,23.345z"/>
				<path fill="#D0A094" d="M186.619,63.029c-3.182-38.045-30.215-39.842-36.938-39.696v97.611c0.136-0.004,0.278-0.004,0.411-0.007
					c0.048-0.001,0.092,0.001,0.141-0.001c0.008,0,0.015-0.004,0.022-0.004c6.613-0.271,9.919-2.979,9.919-2.979
					s8.855-4.871,18.075-18.888C187.471,85.048,186.619,63.029,186.619,63.029z"/>
			</g>
			<g>
				<path fill="#FFFFFF" d="M137.042,62.044c-0.259,0.525-1.031,1.539-3.094,1.445c-2.109-0.095-3.009-1.202-3.317-1.729
					c-1.401,0.574-2.331,1.336-2.331,1.336c5.597,3.912,11.831,0.294,11.831,0.294S139.647,63.093,137.042,62.044z"/>
				<path fill="#020202" d="M133.947,63.489c2.063,0.094,2.835-0.92,3.094-1.445c-0.385-0.152-0.812-0.323-1.294-0.512
					c-1.869-0.731-3.727-0.343-5.118,0.229C130.938,62.287,131.838,63.395,133.947,63.489z"/>
			</g>
			<ellipse fill="#FFFFFF" cx="134.153" cy="61.9" rx="1.252" ry="0.768"/>
			<path fill="#121212" d="M142.237,55.96c0,0-3.034,1.125-5.418,0.636c-2.384-0.489-10.906-3.422-14.118,0.929
				c-3.215,4.351-1.605,1.419-1.605,1.419s0.388-6.943,5.501-7.824C131.708,50.242,142.69,52.539,142.237,55.96z"/>
			<path fill="#191919" d="M136.478,61.131c0,0-2.678-1.336-8.179,1.183c-0.828,0.44-1.266,0.537-1.022,0
				c0.242-0.537,3.65-2.32,6.403-2.052C136.429,60.531,136.478,61.131,136.478,61.131z"/>
			<path display="none" fill="#606161" d="M140.433,60.779c0,0,4.262,1.633,3.489,6.915c-0.775,5.28-1.019,6.355-1.019,6.355
				s2.65-4.18,2.349-7.798c-0.301-3.618-2.492-7.457-4.211-6.844C139.319,60.017,140.398,60.635,140.433,60.779z"/>
			<path fill="#97485A" d="M135.733,98.525c0,0,8.808-1.743,12.108-0.698c3.302,1.046,6.909-0.567,9.044,0.182
				s5.395,0.901,5.395,0.901s-12.339,6.352-14.59,5.887C145.434,104.333,136.313,100.305,135.733,98.525z"/>
			<path fill="#692137" d="M136.803,97.207c0,0,3.972-1.804,5.68-1.826c1.702-0.021,3.082-0.096,4.186,0.554
				c1.103,0.652,2.663,1.271,2.663,1.271s0.742-0.368,3.99-1.369c2.854-0.881,8.05,3.081,9.187,3.063
				c1.058-0.017-13.176-0.032-13.176-0.032l-12.528-0.229l-1.104-0.293L136.803,97.207z"/>
			<path fill="#A6576C" d="M153.578,100.916c0,0-3.408,1.598-4.771,1.142c-1.364-0.457-4.12-1.563-4.12-1.563
				S152.344,99.548,153.578,100.916z"/>
			<path fill="#D0A094" d="M116.102,66.061c0,0-1.081-9.898-5.537-6.268c-4.458,3.631,0.701,5.765,0.177,8.334
				c-0.524,2.57,2.165,4.605,1.309,10.485c-0.857,5.881-0.531,6.227,1.276,7.562c1.807,1.335,3.368,0.399,3.546,0.141
				C117.052,86.055,116.102,66.061,116.102,66.061z"/>
			<path fill="#D0A094" d="M184.708,67.087c0,0,5.571-9.484,6.229-2.296c0.563,6.11-1.688,10.282-3.115,12.63
				c-1.428,2.346,0.779,8.473-0.584,9.779c-1.36,1.302-1.492,3.063-3.764,2.932C181.202,90.001,184.708,67.087,184.708,67.087z"/>
			<g>
				<g>
					<g>
						
							<linearGradient id="SVGID_1_" gradientUnits="userSpaceOnUse" x1="-25.6265" y1="-267.1826" x2="-40.1744" y2="-292.3802" gradientTransform="matrix(1 0 0 -1 185.8604 -207.8906)">
							<stop  offset="0" style="stop-color:#D0A094;stop-opacity:0"/>
							<stop  offset="1" style="stop-color:#BF9086;stop-opacity:0.7"/>
						</linearGradient>
						<path fill="url(#SVGID_1_)" d="M154.311,55.872c-0.098-0.034-3.438,6.353-2.955,13.197c0.484,6.846,3.44,6.974,3.478,6.941
							c0.028-0.032,7.142,2.509,4.479,6.16c-2.662,3.652-4.156-0.424-6.56,2.901c-2.694,1.825-1.849,1.402-2.857,1.825
							c-1.005,0.425,0-31.025,0-31.025L154.311,55.872z"/>
						<path fill="#020202" d="M156.764,83.952c0,0,0.194,1.009-0.908,1.694c-1.104,0.684-3.276,0.586-3.276,0.586
							s0.422-3.423,4.06-2.281"/>
					</g>
				</g>
			</g>
			<g>
				<g>
					<g>
						
							<linearGradient id="SVGID_2_" gradientUnits="userSpaceOnUse" x1="-848.2925" y1="-267.1797" x2="-862.8408" y2="-292.3782" gradientTransform="matrix(-1 0 0 -1 -709.6875 -207.8906)">
							<stop  offset="0" style="stop-color:#D0A094;stop-opacity:0"/>
							<stop  offset="1" style="stop-color:#BF9086"/>
						</linearGradient>
						<path fill="url(#SVGID_2_)" d="M144.525,55.872c0.101-0.034,3.441,6.353,2.955,13.197c-0.485,6.846-3.438,6.974-3.47,6.941
							c-0.033-0.032-7.142,2.509-4.48,6.16c2.661,3.652,4.154-0.424,6.557,2.901c2.694,1.825,1.85,1.402,2.856,1.825
							c1.006,0.425,0-31.025,0-31.025L144.525,55.872z"/>
						<path fill="#020202" d="M142.075,83.952c0,0-0.194,1.009,0.908,1.694c1.104,0.684,3.278,0.586,3.278,0.586
							s-0.422-3.423-4.058-2.281"/>
					</g>
				</g>
			</g>
			<path fill="#121212" d="M185.225,55.099l-4.795-4.93c0,0-1.195-11.677-13.658-17.126c-12.459-5.448-16.771-9.602-19.646-9.342
				c-2.877,0.259-12.94-0.26-18.692,10.121c-4.074,1.556-6.709,3.891-6.709,3.891v8.304c0,0-6.469,1.9-7.427,21.061
				c-2.877-12.757-2.877-12.757-2.877-12.757s-7.667-31.156,17.972-45.671c8.502-4.696,13.653-5.448,13.653-5.448
				s15.821-3.893,22.291,2.335c6.47,6.226,20.606,5.967,26.358,40.998c-2.154,19.204-5.989,25.95-5.989,25.95L185.225,55.099z"/>
			<path fill="#121212" d="M130.63,30.3l-2.331,6.941c0,0-4.195-0.608-6.577,2.478C119.343,42.809,118.133,35.243,130.63,30.3z"/>
			<path fill="#121212" d="M130.63,30.585c0,0,17.159-5.667,18.759-5.661c1.597,0.006-3.37-5.583-13.983-2.455
				C124.793,25.599,130.63,30.585,130.63,30.585z"/>
			<path display="none" fill="#606161" d="M155.6,61.561c0,0-3.367,1.634-2.756,6.915c0.613,5.28,0.805,6.355,0.805,6.355
				s-2.096-4.179-1.855-7.798c0.24-3.618,1.977-7.455,3.332-6.843C156.48,60.8,155.627,61.417,155.6,61.561z"/>
			<g>
				<path fill="#FFFFFF" d="M162.45,62.044c0.259,0.525,1.026,1.539,3.093,1.445c2.109-0.095,3.01-1.202,3.314-1.729
					c1.404,0.574,2.334,1.336,2.334,1.336c-5.601,3.912-11.83,0.294-11.83,0.294S159.841,63.093,162.45,62.044z"/>
				<path fill="#020202" d="M165.543,63.489c-2.064,0.094-2.834-0.92-3.093-1.445c0.381-0.152,0.812-0.323,1.29-0.512
					c1.869-0.731,3.729-0.343,5.117,0.229C168.553,62.287,167.652,63.395,165.543,63.489z"/>
			</g>
			<ellipse fill="#FFFFFF" cx="165.337" cy="61.9" rx="1.253" ry="0.768"/>
			<path fill="#121212" d="M157.252,55.96c0,0,3.034,1.125,5.42,0.636c2.385-0.489,10.905-3.422,14.118,0.929
				s1.604,1.419,1.604,1.419s-0.391-6.943-5.502-7.824C167.783,50.242,156.799,52.539,157.252,55.96z"/>
			<path fill="#191919" d="M163.012,61.131c0,0,2.68-1.336,8.18,1.183c0.826,0.44,1.268,0.537,1.024,0
				c-0.245-0.537-3.653-2.32-6.405-2.052C163.061,60.531,163.012,61.131,163.012,61.131z"/>
		</g>
	</g>
</g>
<g>
	<g>
		<g>
			<path fill="#DBAAA1" d="M844.971,78.611c-9.153,0-16.573,6.053-16.573,13.52v73.941c0,7.469,7.42,13.52,16.573,13.52h11.283
				V78.611H844.971z"/>
			<path fill="#C1918A" d="M868.174,78.611h-11.92v100.98h11.92c9.152,0,16.574-6.051,16.574-13.521V92.13
				C884.748,84.666,877.326,78.611,868.174,78.611z"/>
		</g>
		<path fill="#C1918A" d="M856.689,148.328l-3.343,213.662l-1.432-238.247l32.928,4.471c0,0,18.609,16.986,32.451,21.903
			c13.84,4.916,42.475,2.234,42.475,56.768c3.816,54.979,11.451,118.451,11.451,118.451s8.113,127.396,0,137.229
			c0.479,17.434-22.43,40.678-22.43,40.678l-1.908-10.279c0,0,17.18-17.881,9.545-42.913c-4.771,25.032-4.771,25.032-4.771,25.032
			l-5.248,2.232l-4.773-37.992c0,0,4.773-12.068,10.5-10.729c2.861-36.207,2.861-36.207,2.861-36.207s-7.633-7.148-15.748-48.273
			c-8.111-41.123-11.451-92.975-11.451-92.975s-7.852-34.418,2.039-46.041c9.891-11.619-12.539,23.243-19.221,73.309
			c10.021,50.063,10.498,54.529,10.498,54.529v19.67l-67.767,4.918"/>
		<path fill="#DBAAA1" d="M855.734,148.328l3.34,213.662l-3.34-238.247l-28.156,4.471c0,0-18.611,16.986-32.451,21.903
			c-13.84,4.916-42.473,2.234-42.473,56.768c-3.816,54.979-11.453,118.451-11.453,118.451s-8.111,127.396,0,137.229
			c-0.479,17.434,22.43,40.678,22.43,40.678l1.908-10.279c0,0-17.18-17.881-9.545-42.913c4.772,25.032,4.772,25.032,4.772,25.032
			l5.248,2.232l4.771-37.992c0,0-4.771-12.068-10.5-10.729c-2.861-36.207-2.861-36.207-2.861-36.207s7.638-7.148,15.75-48.273
			c8.109-41.123,11.451-92.975,11.451-92.975s7.85-34.418-2.041-46.041c-9.891-11.619,12.541,23.243,19.223,73.309
			c-10.021,50.063-10.5,54.529-10.5,54.529v19.67l67.767,4.918"/>
		<circle fill="#AC7A70" cx="815.195" cy="206.845" r="3.579"/>
		<circle fill="#AC7A70" cx="907.752" cy="206.846" r="3.58"/>
		<path fill="#AC7A70" d="M860.984,325.154c0,3.756-1.283,6.799-2.865,6.799c-1.58,0-2.861-3.043-2.861-6.799
			c0-3.758,1.281-6.803,2.861-6.803C859.701,318.354,860.984,321.396,860.984,325.154z"/>
		<g>
			<g>
				<path fill="#C58E83" d="M856.457,23.637c-5.439-0.22-31.557,0.735-34.57,39.033c0,0-0.785,21.659,7.742,35.445
					c8.525,13.788,16.713,18.579,16.713,18.579s2.955,2.561,8.842,2.907c0.064,0.015,0.131,0.023,0.195,0.027
					c0.527,0.019,1.027,0.018,1.521,0.008V23.625C856.742,23.628,856.59,23.632,856.457,23.637z"/>
				<path fill="#D0A094" d="M893.836,62.671c-3.182-37.422-30.215-39.189-36.938-39.046v96.012c0.135-0.004,0.276-0.004,0.409-0.007
					c0.05-0.001,0.093,0.001,0.142-0.001c0.01,0,0.016-0.004,0.021-0.004c6.613-0.266,9.92-2.93,9.92-2.93
					s8.854-4.791,18.074-18.579C894.688,84.329,893.836,62.671,893.836,62.671z"/>
			</g>
			<g>
				<path fill="#FFFFFF" d="M844.26,60.737c-0.26,0.525-1.031,1.539-3.096,1.445c-2.107-0.095-3.008-1.202-3.316-1.729
					c-1.399,0.574-2.33,1.336-2.33,1.336c5.597,3.912,11.83,0.294,11.83,0.294S846.863,61.786,844.26,60.737z"/>
				<path fill="#020202" d="M841.164,62.183c2.063,0.094,2.836-0.92,3.094-1.445c-0.385-0.152-0.813-0.323-1.293-0.512
					c-1.869-0.731-3.729-0.343-5.119,0.229C838.154,60.98,839.055,62.088,841.164,62.183z"/>
			</g>
			<ellipse fill="#FFFFFF" cx="841.369" cy="60.593" rx="1.252" ry="0.768"/>
			<path fill="#121212" d="M849.453,54.653c0,0-3.033,1.125-5.418,0.636c-2.383-0.489-10.904-3.422-14.117,0.929
				c-3.215,4.351-1.605,1.419-1.605,1.419s0.39-6.943,5.503-7.824C838.926,48.936,849.906,51.232,849.453,54.653z"/>
			<path fill="#191919" d="M843.695,59.824c0,0-2.681-1.336-8.181,1.183c-0.827,0.44-1.266,0.537-1.021,0
				c0.242-0.537,3.65-2.32,6.402-2.052C843.646,59.225,843.695,59.824,843.695,59.824z"/>
			<path display="none" fill="#606161" d="M847.65,59.472c0,0,4.262,1.633,3.487,6.915c-0.774,5.28-1.021,6.355-1.021,6.355
				s2.649-4.18,2.352-7.798c-0.301-3.618-2.492-7.457-4.211-6.844C846.535,58.71,847.615,59.328,847.65,59.472z"/>
			<path fill="#97485A" d="M842.949,97.218c0,0,8.809-1.743,12.106-0.698c3.304,1.046,6.91-0.567,9.045,0.182
				c2.136,0.749,5.396,0.901,5.396,0.901s-12.342,6.352-14.592,5.887C852.65,103.026,843.529,98.999,842.949,97.218z"/>
			<path fill="#692137" d="M844.02,95.9c0,0,3.974-1.804,5.681-1.826c1.703-0.021,3.082-0.096,4.188,0.554
				c1.104,0.652,2.664,1.271,2.664,1.271s0.742-0.368,3.99-1.369c2.854-0.881,8.049,3.081,9.186,3.063
				c1.06-0.017-13.176-0.032-13.176-0.032l-12.526-0.229l-1.104-0.293L844.02,95.9z"/>
			<path fill="#A6576C" d="M860.795,99.609c0,0-3.408,1.598-4.771,1.142c-1.363-0.457-4.119-1.563-4.119-1.563
				S859.561,98.241,860.795,99.609z"/>
			<path fill="#D0A094" d="M823.318,64.754c0,0-1.08-9.898-5.537-6.268c-4.457,3.631,0.701,5.765,0.178,8.334
				c-0.523,2.57,2.164,4.605,1.309,10.485c-0.856,5.881-0.53,6.227,1.277,7.562c1.807,1.335,3.367,0.399,3.545,0.141
				C824.27,84.749,823.318,64.754,823.318,64.754z"/>
			<path fill="#D0A094" d="M891.926,65.78c0,0,5.57-9.484,6.229-2.296c0.563,6.11-1.688,10.282-3.115,12.63
				c-1.428,2.346,0.779,8.473-0.584,9.779c-1.359,1.302-1.492,3.063-3.764,2.932C888.42,88.694,891.926,65.78,891.926,65.78z"/>
			<g>
				<g>
					<g>
						
							<linearGradient id="SVGID_3_" gradientUnits="userSpaceOnUse" x1="681.5898" y1="-265.875" x2="667.0421" y2="-291.0726" gradientTransform="matrix(1 0 0 -1 185.8604 -207.8906)">
							<stop  offset="0" style="stop-color:#D0A094;stop-opacity:0"/>
							<stop  offset="1" style="stop-color:#BF9086;stop-opacity:0.7"/>
						</linearGradient>
						<path fill="url(#SVGID_3_)" d="M861.527,54.565c-0.099-0.034-3.439,6.353-2.955,13.197c0.483,6.846,3.438,6.974,3.477,6.941
							c0.029-0.032,7.139,2.509,4.479,6.16c-2.662,3.652-4.156-0.424-6.56,2.901c-2.692,1.825-1.85,1.402-2.856,1.825
							c-1.005,0.425,0-31.025,0-31.025L861.527,54.565z"/>
						<path fill="#020202" d="M863.98,82.646c0,0,0.192,1.009-0.908,1.694c-1.104,0.684-3.277,0.586-3.277,0.586
							s0.422-3.423,4.057-2.281"/>
					</g>
				</g>
			</g>
			<g>
				<g>
					<g>
						
							<linearGradient id="SVGID_4_" gradientUnits="userSpaceOnUse" x1="-1555.5088" y1="-265.8726" x2="-1570.0576" y2="-291.0719" gradientTransform="matrix(-1 0 0 -1 -709.6875 -207.8906)">
							<stop  offset="0" style="stop-color:#D0A094;stop-opacity:0"/>
							<stop  offset="1" style="stop-color:#BF9086"/>
						</linearGradient>
						<path fill="url(#SVGID_4_)" d="M851.742,54.565c0.102-0.034,3.438,6.353,2.955,13.197c-0.484,6.846-3.438,6.974-3.472,6.941
							c-0.032-0.032-7.143,2.509-4.479,6.16c2.662,3.652,4.154-0.424,6.559,2.901c2.693,1.825,1.851,1.402,2.855,1.825
							c1.006,0.425,0-31.025,0-31.025L851.742,54.565z"/>
						<path fill="#020202" d="M849.293,82.646c0,0-0.195,1.009,0.906,1.694c1.104,0.684,3.279,0.586,3.279,0.586
							s-0.425-3.423-4.06-2.281"/>
					</g>
				</g>
			</g>
			<path fill="#121212" d="M892.441,53.792l-4.795-4.93c0,0-1.195-11.677-13.658-17.126c-12.459-5.448-16.771-9.602-19.646-9.342
				c-2.877,0.259-12.94-0.26-18.692,10.121c-4.074,1.556-6.709,3.891-6.709,3.891v8.304c0,0-6.47,1.9-7.427,21.061
				c-2.877-12.757-2.877-12.757-2.877-12.757s-7.668-31.156,17.972-45.671c8.502-4.696,13.653-5.448,13.653-5.448
				s15.82-3.893,22.291,2.335c6.467,6.226,20.607,5.967,26.359,40.998c-2.156,19.204-5.99,25.95-5.99,25.95L892.441,53.792z"/>
			<path fill="#121212" d="M837.848,28.993l-2.332,6.941c0,0-4.194-0.608-6.575,2.478C826.561,41.502,825.35,33.937,837.848,28.993z
				"/>
			<path fill="#121212" d="M837.848,29.278c0,0,17.158-5.667,18.759-5.661c1.598,0.006-3.369-5.583-13.982-2.455
				C832.01,24.292,837.848,29.278,837.848,29.278z"/>
			<path display="none" fill="#606161" d="M862.816,60.254c0,0-3.367,1.634-2.757,6.915c0.613,5.28,0.806,6.355,0.806,6.355
				s-2.097-4.179-1.857-7.798c0.24-3.618,1.976-7.455,3.332-6.843C863.697,59.493,862.844,60.11,862.816,60.254z"/>
			<g>
				<path fill="#FFFFFF" d="M869.668,60.737c0.258,0.525,1.025,1.539,3.092,1.445c2.109-0.095,3.01-1.202,3.314-1.729
					c1.404,0.574,2.334,1.336,2.334,1.336c-5.601,3.912-11.83,0.294-11.83,0.294S867.059,61.786,869.668,60.737z"/>
				<path fill="#020202" d="M872.76,62.183c-2.063,0.094-2.834-0.92-3.092-1.445c0.381-0.152,0.811-0.323,1.289-0.512
					c1.869-0.731,3.729-0.343,5.117,0.229C875.77,60.98,874.869,62.088,872.76,62.183z"/>
			</g>
			<ellipse fill="#FFFFFF" cx="872.555" cy="60.593" rx="1.252" ry="0.768"/>
			<path fill="#121212" d="M864.469,54.653c0,0,3.035,1.125,5.42,0.636c2.386-0.489,10.906-3.422,14.119,0.929
				c3.213,4.351,1.604,1.419,1.604,1.419s-0.39-6.943-5.502-7.824C875,48.936,864.016,51.232,864.469,54.653z"/>
			<path fill="#191919" d="M870.229,59.824c0,0,2.681-1.336,8.181,1.183c0.826,0.44,1.268,0.537,1.024,0
				c-0.245-0.537-3.653-2.32-6.405-2.052C870.277,59.225,870.229,59.824,870.229,59.824z"/>
		</g>
	</g>
	<g>
		<polygon fill="#FFFFFF" points="884.875,110.584 884.391,121.549 862.387,131.343 851.584,131.343 828.98,117.764 824.83,136.159 
			749.543,159.896 753.039,288.693 775.523,303.492 776.021,339.083 779.738,352.789 893.477,356.85 935.898,352.281 
			942.893,246.697 942.893,165.986 908.352,136.159 893.477,133.077 		"/>
		<g>
			<path fill="#020202" stroke="#1E1E1E" stroke-miterlimit="10" d="M826.625,115.068l-16.152,22.062l-66.131,23.527L680.49,504.895
				c0,0,35.346,9.905,45.606,13.621c10.265,3.716,11.402-110.205,11.402-110.205l28.504-90.352c0,0,3.422,111.399-2.281,143.597
				c-5.698,32.192-1.141,177.071-1.141,177.071s71.49-97.824,89.334-198.123c-11.805,13.621-11.805,13.621-11.805,13.621
				l-58.146-38.388l1.144-21.05l38.764,21.05l17.104-37.769l-10.264-218.553C828.713,159.42,817.504,159.646,826.625,115.068z"/>
			<polyline fill="#2B2B2B" points="779.818,160.412 812.695,172.199 796.451,154.545 828.537,110.584 838.506,335.561 
				779.738,165.365 			"/>
		</g>
		<g>
			<path fill="#020202" stroke="#1E1E1E" stroke-miterlimit="10" d="M886.092,113.443l16.16,22.062l66.129,23.527l63.85,344.235
				c0,0-35.346,9.905-45.604,13.621c-10.264,3.714-11.402-110.205-11.402-110.205l-28.504-90.352c0,0-3.42,111.398,2.281,143.597
				C954.698,492.121,950.14,637,950.14,637s-71.489-97.824-89.334-198.123c11.804,13.621,11.804,13.621,11.804,13.621l58.149-38.388
				l-1.145-21.05l-38.765,21.05l-17.104-37.769l10.264-218.553C884.006,157.795,895.213,158.021,886.092,113.443z"/>
			<polyline fill="#2B2B2B" points="933.596,160.412 900.719,172.199 916.963,154.545 884.875,110.584 874.908,335.561 
				933.678,165.365 			"/>
		</g>
	</g>
	<g>
		<path fill="#050606" d="M886.012,120.708c0,0-8.418-1.484-24.467,8.739c-9.396,0-9.396,0-9.396,0s-22.705-17.793-26.427-8.814
			c-3.719,8.98,0,21.182,0,21.182s-3.521,10.882,25.447-0.825c6.729-2.621,9.59,0.329,9.59,0.329s19.574,11.349,25.252,5.097
			C891.686,140.166,888.359,117.575,886.012,120.708z"/>
		<polygon fill="#B2B3B3" points="850.779,130.932 850.779,135.383 836.881,133.157 		"/>
		<path fill="#B2B3B3" d="M862.582,131.756v3.627h15.797C878.379,135.383,863.619,132.579,862.582,131.756z"/>
		<rect x="850.779" y="135.383" fill="#B2B3B3" width="11.805" height="6.93"/>
	</g>
</g>
<g>
	<g>
		<g>
			<path fill="#DBAAA1" d="M581.35,79.918c-9.155,0-16.573,6.053-16.573,13.52v73.941c0,7.469,7.418,13.52,16.573,13.52h11.281
				V79.918H581.35z"/>
			<path fill="#C1918A" d="M604.551,79.918h-11.92v100.98h11.92c9.152,0,16.576-6.051,16.576-13.521v-73.94
				C621.127,85.972,613.703,79.918,604.551,79.918z"/>
		</g>
		<path fill="#C1918A" d="M593.066,149.635l-3.341,213.662l-1.432-238.247l32.928,4.471c0,0,18.609,16.986,32.449,21.903
			c13.84,4.916,42.475,2.234,42.475,56.768c3.816,54.979,11.451,118.451,11.451,118.451s8.115,127.396,0,137.229
			c0.479,17.434-22.43,40.678-22.43,40.678l-1.908-10.278c0,0,17.18-17.882,9.547-42.912c-4.772,25.03-4.772,25.03-4.772,25.03
			l-5.248,2.232l-4.771-37.992c0,0,4.771-12.067,10.498-10.729c2.861-36.208,2.861-36.208,2.861-36.208s-7.633-7.149-15.746-48.274
			c-8.113-41.123-11.453-92.976-11.453-92.976s-7.852-34.418,2.041-46.041c9.891-11.618-12.541,23.244-19.223,73.31
			c10.021,50.063,10.498,54.531,10.498,54.531v19.668l-67.765,4.918"/>
		<path fill="#DBAAA1" d="M592.113,149.635l3.338,213.662l-3.338-238.247l-28.158,4.471c0,0-18.609,16.986-32.449,21.903
			c-13.84,4.916-42.473,2.234-42.473,56.768c-3.818,54.979-11.455,118.451-11.455,118.451s-8.111,127.396,0,137.229
			c-0.478,17.434,22.432,40.678,22.432,40.678l1.906-10.278c0,0-17.18-17.882-9.543-42.912c4.771,25.03,4.771,25.03,4.771,25.03
			l5.25,2.232l4.771-37.992c0,0-4.771-12.067-10.496-10.729c-2.863-36.208-2.863-36.208-2.863-36.208s7.638-7.149,15.748-48.274
			c8.111-41.123,11.453-92.976,11.453-92.976s7.85-34.418-2.041-46.041c-9.891-11.618,12.539,23.244,19.221,73.31
			c-10.021,50.063-10.5,54.531-10.5,54.531v19.668l67.767,4.918"/>
		<circle fill="#AC7A70" cx="551.572" cy="208.152" r="3.579"/>
		<circle fill="#AC7A70" cx="644.131" cy="208.152" r="3.58"/>
		<path fill="#AC7A70" d="M597.361,326.461c0,3.756-1.283,6.799-2.865,6.799c-1.578,0-2.861-3.043-2.861-6.799
			c0-3.758,1.283-6.801,2.861-6.801C596.078,319.66,597.361,322.703,597.361,326.461z"/>
		<g>
			<g>
				<path fill="#C58E83" d="M592.834,24.944c-5.439-0.22-31.557,0.735-34.568,39.033c0,0-0.784,21.659,7.742,35.445
					c8.525,13.788,16.713,18.579,16.713,18.579s2.953,2.561,8.84,2.907c0.064,0.015,0.134,0.023,0.197,0.027
					c0.525,0.019,1.025,0.018,1.519,0.008V24.931C593.119,24.935,592.969,24.939,592.834,24.944z"/>
				<path fill="#D0A094" d="M630.215,63.978c-3.184-37.422-30.217-39.189-36.938-39.046v96.012c0.137-0.004,0.278-0.004,0.411-0.007
					c0.048-0.001,0.093,0.001,0.142-0.001c0.01,0,0.016-0.004,0.021-0.004c6.613-0.266,9.92-2.93,9.92-2.93
					s8.855-4.791,18.074-18.579C631.064,85.636,630.215,63.978,630.215,63.978z"/>
			</g>
			<g>
				<path fill="#FFFFFF" d="M580.637,62.044c-0.258,0.525-1.03,1.539-3.094,1.445c-2.109-0.095-3.01-1.202-3.316-1.729
					c-1.401,0.574-2.331,1.336-2.331,1.336c5.598,3.912,11.831,0.294,11.831,0.294S583.242,63.093,580.637,62.044z"/>
				<path fill="#020202" d="M577.541,63.489c2.064,0.094,2.836-0.92,3.096-1.445c-0.387-0.152-0.813-0.323-1.295-0.512
					c-1.869-0.731-3.727-0.343-5.117,0.229C574.533,62.287,575.434,63.395,577.541,63.489z"/>
			</g>
			<ellipse fill="#FFFFFF" cx="577.748" cy="61.9" rx="1.252" ry="0.768"/>
			<path fill="#121212" d="M585.832,55.96c0,0-3.033,1.125-5.418,0.636c-2.385-0.489-10.906-3.422-14.117,0.929
				c-3.217,4.351-1.604,1.419-1.604,1.419s0.387-6.943,5.5-7.824C575.303,50.242,586.285,52.539,585.832,55.96z"/>
			<path fill="#191919" d="M580.072,61.131c0,0-2.678-1.336-8.181,1.183c-0.825,0.44-1.266,0.537-1.021,0
				c0.242-0.537,3.65-2.32,6.404-2.052C580.023,60.531,580.072,61.131,580.072,61.131z"/>
			<path display="none" fill="#606161" d="M584.027,60.779c0,0,4.262,1.633,3.487,6.915c-0.772,5.28-1.02,6.355-1.02,6.355
				s2.649-4.18,2.35-7.798s-2.49-7.457-4.211-6.844C582.914,60.017,583.992,60.635,584.027,60.779z"/>
			<path fill="#97485A" d="M579.328,98.525c0,0,8.809-1.743,12.106-0.698c3.302,1.046,6.908-0.567,9.044,0.182
				c2.135,0.749,5.396,0.901,5.396,0.901s-12.342,6.352-14.594,5.887C589.029,104.333,579.908,100.305,579.328,98.525z"/>
			<path fill="#692137" d="M580.398,97.207c0,0,3.971-1.804,5.68-1.826c1.701-0.021,3.082-0.096,4.186,0.554
				c1.104,0.652,2.664,1.271,2.664,1.271s0.74-0.368,3.99-1.369c2.854-0.881,8.049,3.081,9.186,3.063
				c1.06-0.017-13.176-0.032-13.176-0.032L580.4,98.639l-1.104-0.293L580.398,97.207z"/>
			<path fill="#A6576C" d="M597.174,100.916c0,0-3.408,1.598-4.771,1.142c-1.365-0.457-4.121-1.563-4.121-1.563
				S595.938,99.548,597.174,100.916z"/>
			<path fill="#D0A094" d="M559.697,66.061c0,0-1.082-9.898-5.537-6.268c-4.459,3.631,0.701,5.765,0.178,8.334
				c-0.525,2.57,2.164,4.605,1.31,10.485c-0.855,5.881-0.531,6.227,1.274,7.562c1.807,1.335,3.367,0.399,3.547,0.141
				C560.646,86.055,559.697,66.061,559.697,66.061z"/>
			<path fill="#D0A094" d="M628.303,67.087c0,0,5.57-9.484,6.229-2.296c0.563,6.11-1.688,10.282-3.113,12.63
				c-1.43,2.346,0.777,8.473-0.584,9.779c-1.361,1.302-1.492,3.063-3.766,2.932C624.797,90.001,628.303,67.087,628.303,67.087z"/>
			<g>
				<g>
					<g>
						
							<linearGradient id="SVGID_5_" gradientUnits="userSpaceOnUse" x1="417.9668" y1="-267.1826" x2="403.4195" y2="-292.3794" gradientTransform="matrix(1 0 0 -1 185.8604 -207.8906)">
							<stop  offset="0" style="stop-color:#D0A094;stop-opacity:0"/>
							<stop  offset="1" style="stop-color:#BF9086;stop-opacity:0.7"/>
						</linearGradient>
						<path fill="url(#SVGID_5_)" d="M597.904,55.872c-0.099-0.034-3.439,6.353-2.955,13.197c0.483,6.846,3.44,6.974,3.477,6.941
							c0.031-0.032,7.142,2.509,4.479,6.16c-2.662,3.652-4.154-0.424-6.56,2.901c-2.692,1.825-1.848,1.402-2.854,1.825
							c-1.006,0.425,0-31.025,0-31.025L597.904,55.872z"/>
						<path fill="#020202" d="M600.357,83.952c0,0,0.194,1.009-0.908,1.694c-1.104,0.684-3.277,0.586-3.277,0.586
							s0.422-3.423,4.06-2.281"/>
					</g>
				</g>
			</g>
			<g>
				<g>
					<g>
						
							<linearGradient id="SVGID_6_" gradientUnits="userSpaceOnUse" x1="-1291.8872" y1="-267.1797" x2="-1306.4355" y2="-292.3782" gradientTransform="matrix(-1 0 0 -1 -709.6875 -207.8906)">
							<stop  offset="0" style="stop-color:#D0A094;stop-opacity:0"/>
							<stop  offset="1" style="stop-color:#BF9086"/>
						</linearGradient>
						<path fill="url(#SVGID_6_)" d="M588.119,55.872c0.102-0.034,3.44,6.353,2.955,13.197c-0.484,6.846-3.438,6.974-3.469,6.941
							c-0.033-0.032-7.144,2.509-4.48,6.16c2.66,3.652,4.154-0.424,6.557,2.901c2.693,1.825,1.851,1.402,2.855,1.825
							c1.008,0.425,0-31.025,0-31.025L588.119,55.872z"/>
						<path fill="#020202" d="M585.67,83.952c0,0-0.193,1.009,0.908,1.694c1.104,0.684,3.277,0.586,3.277,0.586
							s-0.423-3.423-4.06-2.281"/>
					</g>
				</g>
			</g>
			<path fill="#121212" d="M628.818,55.099l-4.795-4.93c0,0-1.195-11.677-13.658-17.126c-12.459-5.448-16.771-9.602-19.646-9.342
				c-2.877,0.259-12.938-0.26-18.69,10.121c-4.074,1.556-6.709,3.891-6.709,3.891v8.304c0,0-6.47,1.9-7.429,21.061
				c-2.877-12.757-2.877-12.757-2.877-12.757s-7.666-31.156,17.974-45.671c8.502-4.696,13.651-5.448,13.651-5.448
				s15.822-3.893,22.291,2.335c6.47,6.226,20.607,5.967,26.361,40.998c-2.156,19.204-5.992,25.95-5.992,25.95L628.818,55.099z"/>
			<path fill="#121212" d="M574.225,30.3l-2.33,6.941c0,0-4.194-0.608-6.577,2.478C562.938,42.809,561.729,35.243,574.225,30.3z"/>
			<path fill="#121212" d="M574.225,30.585c0,0,17.16-5.667,18.761-5.661c1.598,0.006-3.371-5.583-13.982-2.455
				C568.389,25.599,574.225,30.585,574.225,30.585z"/>
			<path display="none" fill="#606161" d="M599.193,61.561c0,0-3.367,1.634-2.756,6.915c0.612,5.28,0.805,6.355,0.805,6.355
				s-2.096-4.179-1.855-7.798c0.24-3.618,1.976-7.455,3.332-6.843C600.074,60.8,599.223,61.417,599.193,61.561z"/>
			<g>
				<path fill="#FFFFFF" d="M606.045,62.044c0.26,0.525,1.025,1.539,3.094,1.445c2.107-0.095,3.011-1.202,3.313-1.729
					c1.403,0.574,2.334,1.336,2.334,1.336c-5.599,3.912-11.83,0.294-11.83,0.294S603.436,63.093,606.045,62.044z"/>
				<path fill="#020202" d="M609.139,63.489c-2.063,0.094-2.834-0.92-3.094-1.445c0.381-0.152,0.813-0.323,1.291-0.512
					c1.867-0.731,3.729-0.343,5.115,0.229C612.146,62.287,611.246,63.395,609.139,63.489z"/>
			</g>
			<ellipse fill="#FFFFFF" cx="608.932" cy="61.9" rx="1.254" ry="0.768"/>
			<path fill="#121212" d="M600.848,55.96c0,0,3.033,1.125,5.42,0.636c2.386-0.489,10.904-3.422,14.117,0.929
				s1.604,1.419,1.604,1.419s-0.39-6.943-5.502-7.824C611.379,50.242,600.395,52.539,600.848,55.96z"/>
			<path fill="#191919" d="M606.605,61.131c0,0,2.68-1.336,8.18,1.183c0.826,0.44,1.268,0.537,1.024,0
				c-0.245-0.537-3.653-2.32-6.405-2.052C606.654,60.531,606.605,61.131,606.605,61.131z"/>
		</g>
	</g>
	<g>
		<g>
			<path fill="#FFFFFF" d="M498.656,164.164c0,0-19.508,12.828-20.767,37.264c-0.411,8.008-0.555,21.463-0.561,35.937
				c0,0.104,0,0.206,0,0.311c-0.006,29.605,0.561,63.327,0.561,63.327h44.683l-0.15-148.722L498.656,164.164z"/>
			<path fill="#ED3450" d="M638.049,139.746c-4.815,19.804-23.131,34.548-45.006,34.548c-0.186,0-0.371-0.012-0.559-0.015V301h0.559
				h69.916l0.146-148.723L638.049,139.746z"/>
			<path fill="#FFFFFF" d="M707.641,201.428c-1.26-24.436-20.768-37.264-20.768-37.264l-23.768-11.887L662.959,301h44.682
				c0,0,0.564-33.723,0.56-63.327c0-0.104,0-0.207,0-0.312C708.193,222.891,708.053,209.436,707.641,201.428z"/>
			<g>
				<path fill="#ED3450" d="M547.979,139.496l-25.557,12.781L522.572,301h69.912V174.279
					C570.77,174.029,552.664,159.255,547.979,139.496z"/>
				<g>
					<path fill="#3A457A" d="M627.186,139.456c-4.44,14.219-18.043,24.569-34.143,24.569c-0.186,0-0.371-0.01-0.559-0.015
						c-15.853-0.235-29.193-10.503-33.584-24.557c-0.453-1.45-0.808-2.942-1.062-4.466l-9.861,4.506
						c4.687,19.759,22.791,34.531,44.507,34.783c0.188,0.002,0.373,0.015,0.559,0.015c21.875,0,40.189-14.744,45.006-34.548
						l-9.961-3.837C627.846,137.114,627.549,138.298,627.186,139.456z"/>
				</g>
			</g>
		</g>
		<rect x="477.609" y="275.729" fill="#ED3450" width="44.963" height="11.545"/>
		<rect x="477.609" y="292.16" fill="#374976" width="44.963" height="8.551"/>
		<line fill="none" stroke="#FFFFFF" stroke-width="4" stroke-miterlimit="10" x1="535.24" y1="188.77" x2="541.514" y2="194.014"/>
		
			<line fill="none" stroke="#FFFFFF" stroke-width="4" stroke-miterlimit="10" x1="540.256" y1="195.848" x2="558.547" y2="182.887"/>
		<rect x="662.627" y="275.729" fill="#ED3450" width="44.961" height="11.545"/>
		<rect x="662.627" y="292.16" fill="#374976" width="44.961" height="8.551"/>
	</g>
	<g>
		<path fill="#D82A52" stroke="#E2B069" stroke-width="2" stroke-miterlimit="10" d="M637.689,181.365h-0.166h-0.166H626.67v12.769
			c0,0,2.328,7.942,10.688,10.899c0,0.041,0,0.08,0,0.119c0.055-0.02,0.108-0.039,0.166-0.061c0.057,0.021,0.108,0.041,0.166,0.061
			c0-0.039,0-0.078,0-0.119c8.356-2.957,10.688-10.899,10.688-10.899v-12.769H637.689z"/>
		
			<line fill="none" stroke="#FFF9FB" stroke-width="2" stroke-miterlimit="10" x1="637.189" y1="193.855" x2="637.189" y2="197.797"/>
		
			<line fill="none" stroke="#FFF9FB" stroke-width="2" stroke-miterlimit="10" x1="637.523" y1="197.132" x2="634.941" y2="198.354"/>
		
			<line fill="none" stroke="#FFF9FB" stroke-width="3" stroke-miterlimit="10" x1="629.279" y1="188.805" x2="646.711" y2="188.805"/>
		<circle fill="#ED3350" stroke="#FFFFFF" stroke-miterlimit="10" cx="637.189" cy="190.581" r="4.608"/>
		<circle fill="#ED3350" stroke="#FFFFFF" stroke-width="2" stroke-miterlimit="10" cx="637.189" cy="190.581" r="0.944"/>
	</g>
</g>
<g>
	<g>
		<g>
			<path fill="#DBAAA1" d="M505.363,79.336c-9.154,0-16.574,6.053-16.574,13.52v73.941c0,7.469,7.42,13.52,16.574,13.52h11.28
				V79.336H505.363z"/>
			<path fill="#C1918A" d="M528.564,79.336h-11.92v100.98h11.92c9.153,0,16.575-6.051,16.575-13.521v-73.94
				C545.141,85.39,537.719,79.336,528.564,79.336z"/>
		</g>
		<path fill="#C1918A" d="M517.082,149.053l-3.342,213.662l-1.433-238.247l32.929,4.471c0,0,18.61,16.986,32.45,21.903
			c13.841,4.916,42.476,2.234,42.476,56.768c3.815,54.979,11.451,118.451,11.451,118.451s8.112,127.396,0,137.229
			c0.479,17.434-22.431,40.678-22.431,40.678l-1.907-10.277c0,0,17.18-17.883,9.545-42.913c-4.771,25.03-4.771,25.03-4.771,25.03
			l-5.248,2.232l-4.772-37.992c0,0,4.772-12.066,10.5-10.729c2.86-36.208,2.86-36.208,2.86-36.208s-7.633-7.149-15.748-48.274
			c-8.11-41.123-11.451-92.976-11.451-92.976s-7.852-34.418,2.039-46.039c9.892-11.62-12.539,23.242-19.221,73.308
			c10.021,50.063,10.498,54.531,10.498,54.531v19.668l-67.766,4.918"/>
		<path fill="#DBAAA1" d="M516.127,149.053l3.34,213.662l-3.34-238.247l-28.156,4.471c0,0-18.61,16.986-32.451,21.903
			c-13.84,4.916-42.473,2.234-42.473,56.768c-3.815,54.979-11.453,118.451-11.453,118.451s-8.11,127.396,0,137.229
			c-0.479,17.434,22.431,40.678,22.431,40.678l1.907-10.277c0,0-17.18-17.883-9.545-42.913c4.773,25.03,4.773,25.03,4.773,25.03
			l5.248,2.232l4.772-37.992c0,0-4.772-12.066-10.5-10.729c-2.862-36.208-2.862-36.208-2.862-36.208s7.637-7.149,15.75-48.274
			c8.11-41.123,11.45-92.976,11.45-92.976s7.851-34.418-2.041-46.039c-9.889-11.62,12.541,23.242,19.224,73.308
			c-10.021,50.063-10.5,54.531-10.5,54.531v19.668l67.766,4.918"/>
		<circle fill="#AC7A70" cx="475.588" cy="207.57" r="3.579"/>
		<circle fill="#AC7A70" cx="568.145" cy="207.57" r="3.58"/>
		<path fill="#AC7A70" d="M521.377,325.879c0,3.756-1.283,6.799-2.865,6.799c-1.58,0-2.86-3.043-2.86-6.799
			c0-3.758,1.28-6.801,2.86-6.801C520.094,319.078,521.377,322.121,521.377,325.879z"/>
		<g>
			<g>
				<path fill="#C58E83" d="M516.85,24.362c-5.438-0.22-31.557,0.735-34.569,39.033c0,0-0.785,21.659,7.741,35.445
					c8.525,13.788,16.714,18.579,16.714,18.579s2.955,2.561,8.842,2.907c0.063,0.015,0.133,0.023,0.194,0.027
					c0.527,0.019,1.027,0.018,1.521,0.008V24.349C517.135,24.353,516.982,24.357,516.85,24.362z"/>
				<path fill="#D0A094" d="M554.229,63.396c-3.182-37.422-30.215-39.189-36.938-39.046v96.012c0.135-0.004,0.277-0.004,0.41-0.007
					c0.049-0.001,0.092,0.001,0.141-0.001c0.01,0,0.017-0.004,0.021-0.004c6.612-0.266,9.92-2.93,9.92-2.93
					s8.854-4.791,18.074-18.579C555.08,85.054,554.229,63.396,554.229,63.396z"/>
			</g>
			<g>
				<path fill="#FFFFFF" d="M504.65,61.462c-0.259,0.525-1.029,1.539-3.095,1.445c-2.108-0.095-3.008-1.202-3.315-1.729
					c-1.4,0.574-2.332,1.336-2.332,1.336c5.598,3.912,11.832,0.294,11.832,0.294S507.256,62.511,504.65,61.462z"/>
				<path fill="#020202" d="M501.557,62.907c2.063,0.094,2.836-0.92,3.095-1.445c-0.386-0.152-0.813-0.323-1.293-0.512
					c-1.869-0.731-3.729-0.343-5.119,0.229C498.547,61.705,499.447,62.813,501.557,62.907z"/>
			</g>
			<ellipse fill="#FFFFFF" cx="501.762" cy="61.318" rx="1.252" ry="0.768"/>
			<path fill="#121212" d="M509.846,55.378c0,0-3.032,1.125-5.418,0.636c-2.383-0.489-10.903-3.422-14.117,0.929
				c-3.215,4.351-1.604,1.419-1.604,1.419s0.391-6.943,5.504-7.824C499.316,49.66,510.299,51.957,509.846,55.378z"/>
			<path fill="#191919" d="M504.088,60.549c0,0-2.68-1.336-8.18,1.183c-0.828,0.44-1.267,0.537-1.021,0
				c0.242-0.537,3.65-2.32,6.402-2.052C504.039,59.949,504.088,60.549,504.088,60.549z"/>
			<path display="none" fill="#606161" d="M508.043,60.197c0,0,4.262,1.633,3.488,6.915c-0.775,5.28-1.021,6.355-1.021,6.355
				s2.648-4.18,2.351-7.798c-0.302-3.618-2.492-7.457-4.211-6.844C506.928,59.435,508.008,60.053,508.043,60.197z"/>
			<path fill="#97485A" d="M503.342,97.943c0,0,8.81-1.743,12.107-0.698c3.303,1.046,6.91-0.567,9.045,0.182
				c2.135,0.749,5.395,0.901,5.395,0.901s-12.342,6.352-14.592,5.887C513.043,103.751,503.922,99.723,503.342,97.943z"/>
			<path fill="#692137" d="M504.412,96.625c0,0,3.973-1.804,5.68-1.826c1.703-0.021,3.082-0.096,4.188,0.554
				c1.104,0.652,2.662,1.271,2.662,1.271s0.741-0.368,3.989-1.369c2.855-0.881,8.052,3.081,9.188,3.063
				c1.059-0.017-13.176-0.032-13.176-0.032l-12.529-0.229l-1.104-0.293L504.412,96.625z"/>
			<path fill="#A6576C" d="M521.188,100.334c0,0-3.407,1.598-4.77,1.142c-1.363-0.457-4.119-1.563-4.119-1.563
				S519.953,98.966,521.188,100.334z"/>
			<path fill="#D0A094" d="M483.711,65.479c0,0-1.08-9.898-5.537-6.268c-4.457,3.631,0.701,5.765,0.178,8.334
				c-0.522,2.57,2.164,4.605,1.31,10.485c-0.855,5.881-0.529,6.227,1.277,7.562c1.806,1.335,3.366,0.399,3.545,0.141
				C484.662,85.473,483.711,65.479,483.711,65.479z"/>
			<path fill="#D0A094" d="M552.316,66.505c0,0,5.571-9.484,6.229-2.296c0.563,6.11-1.688,10.282-3.115,12.63
				c-1.428,2.346,0.779,8.473-0.584,9.779c-1.36,1.302-1.491,3.063-3.764,2.932C548.813,89.419,552.316,66.505,552.316,66.505z"/>
			<g>
				<g>
					<g>
						
							<linearGradient id="SVGID_7_" gradientUnits="userSpaceOnUse" x1="341.9824" y1="-266.5996" x2="327.4346" y2="-291.7972" gradientTransform="matrix(1 0 0 -1 185.8604 -207.8906)">
							<stop  offset="0" style="stop-color:#D0A094;stop-opacity:0"/>
							<stop  offset="1" style="stop-color:#BF9086;stop-opacity:0.7"/>
						</linearGradient>
						<path fill="url(#SVGID_7_)" d="M521.92,55.29c-0.098-0.034-3.439,6.353-2.955,13.197c0.484,6.846,3.439,6.974,3.478,6.941
							c0.028-0.032,7.139,2.509,4.479,6.16c-2.662,3.652-4.156-0.424-6.559,2.901c-2.693,1.825-1.849,1.402-2.857,1.825
							c-1.004,0.425,0-31.025,0-31.025L521.92,55.29z"/>
						<path fill="#020202" d="M524.373,83.37c0,0,0.193,1.009-0.908,1.694c-1.104,0.684-3.277,0.586-3.277,0.586
							s0.423-3.423,4.058-2.281"/>
					</g>
				</g>
			</g>
			<g>
				<g>
					<g>
						
							<linearGradient id="SVGID_8_" gradientUnits="userSpaceOnUse" x1="-1215.9023" y1="-266.5981" x2="-1230.4512" y2="-291.7975" gradientTransform="matrix(-1 0 0 -1 -709.6875 -207.8906)">
							<stop  offset="0" style="stop-color:#D0A094;stop-opacity:0"/>
							<stop  offset="1" style="stop-color:#BF9086"/>
						</linearGradient>
						<path fill="url(#SVGID_8_)" d="M512.135,55.29c0.103-0.034,3.439,6.353,2.955,13.197c-0.483,6.846-3.438,6.974-3.471,6.941
							c-0.033-0.032-7.144,2.509-4.48,6.16c2.662,3.652,4.154-0.424,6.56,2.901c2.692,1.825,1.852,1.402,2.854,1.825
							c1.006,0.425,0-31.025,0-31.025L512.135,55.29z"/>
						<path fill="#020202" d="M509.686,83.37c0,0-0.194,1.009,0.906,1.694c1.104,0.684,3.279,0.586,3.279,0.586
							s-0.424-3.423-4.059-2.281"/>
					</g>
				</g>
			</g>
			<path fill="#121212" d="M552.834,54.517l-4.795-4.93c0,0-1.195-11.677-13.658-17.126c-12.459-5.448-16.771-9.602-19.646-9.342
				c-2.877,0.259-12.939-0.26-18.691,10.121c-4.074,1.556-6.709,3.891-6.709,3.891v8.304c0,0-6.471,1.9-7.428,21.061
				c-2.877-12.757-2.877-12.757-2.877-12.757S471.361,22.583,497,8.068c8.502-4.696,13.652-5.448,13.652-5.448
				s15.821-3.893,22.291,2.335c6.469,6.226,20.608,5.967,26.36,40.998c-2.155,19.204-5.991,25.95-5.991,25.95L552.834,54.517z"/>
			<path fill="#121212" d="M498.238,29.718l-2.33,6.941c0,0-4.195-0.608-6.576,2.478C486.953,42.227,485.742,34.661,498.238,29.718z
				"/>
			<path fill="#121212" d="M498.238,30.003c0,0,17.16-5.667,18.76-5.661c1.598,0.006-3.369-5.583-13.982-2.455
				C492.402,25.017,498.238,30.003,498.238,30.003z"/>
			<path display="none" fill="#606161" d="M523.209,60.979c0,0-3.367,1.634-2.756,6.915c0.613,5.28,0.805,6.355,0.805,6.355
				s-2.096-4.179-1.856-7.798c0.239-3.618,1.977-7.455,3.332-6.843C524.09,60.218,523.236,60.835,523.209,60.979z"/>
			<g>
				<path fill="#FFFFFF" d="M530.061,61.462c0.259,0.525,1.025,1.539,3.093,1.445c2.108-0.095,3.01-1.202,3.313-1.729
					c1.404,0.574,2.334,1.336,2.334,1.336c-5.6,3.912-11.83,0.294-11.83,0.294S527.449,62.511,530.061,61.462z"/>
				<path fill="#020202" d="M533.152,62.907c-2.064,0.094-2.834-0.92-3.095-1.445c0.382-0.152,0.813-0.323,1.291-0.512
					c1.869-0.731,3.729-0.343,5.117,0.229C536.162,61.705,535.262,62.813,533.152,62.907z"/>
			</g>
			<ellipse fill="#FFFFFF" cx="532.945" cy="61.318" rx="1.254" ry="0.768"/>
			<path fill="#121212" d="M524.861,55.378c0,0,3.033,1.125,5.42,0.636c2.385-0.489,10.903-3.422,14.117,0.929
				c3.213,4.351,1.604,1.419,1.604,1.419s-0.391-6.943-5.502-7.824C535.393,49.66,524.408,51.957,524.861,55.378z"/>
			<path fill="#191919" d="M530.621,60.549c0,0,2.68-1.336,8.18,1.183c0.826,0.44,1.267,0.537,1.023,0
				c-0.244-0.537-3.652-2.32-6.404-2.052C530.67,59.949,530.621,60.549,530.621,60.549z"/>
		</g>
	</g>
	<g>
		<path d="M676.461,299.664c-8.238-10.286-15.021-25.469-15.021-25.469s-9.207-29.879-7.757-38.204
			c1.455-8.326-2.905-17.144-2.905-17.144s9.207-50.938-38.281-70.04c-17.443-3.429-17.443-3.429-17.443-3.429
			s-20.836-1.469-31.979-6.367c-11.144-4.897-11.144-4.897-11.144-4.897l-5.815-21.061c0,0-0.058,0.694-0.283,1.799
			c-0.729,3.534-3.225,11.262-11.348,13.875c-10.66,3.429-13.675,5.225-16.959,23.508c-0.357,1.994-0.646,6.738-0.875,13.566
			c-0.222-6.826-0.5-11.572-0.849-13.566c-3.067-17.629-6.301-20.079-16.959-23.508c-8.123-2.612-10.619-10.34-11.35-13.875
			c-0.228-1.105-0.281-1.799-0.281-1.799l-5.813,21.061c0,0,0,0-11.146,4.897c-11.146,4.898-31.979,6.367-31.979,6.367
			s0,0-17.445,3.429c-47.487,19.103-38.28,70.04-38.28,70.04s-4.359,8.815-2.905,17.144c1.453,8.325-7.754,38.204-7.754,38.204
			s-6.782,15.183-15.021,25.469c-8.238,10.284,4.651,107.263,4.651,107.263l3.103,19.592c0,0-4.848,22.529-2.424,29.389
			c2.424,6.855,23.26,23.02,27.137,21.06c3.875-1.958,3.283-3.917,3.283-3.917s14.645,2.938,17.553-1.959
			c2.906-4.896-11.146-9.306-15.507-13.714s-0.97-18.121,2.907-15.185c3.877,2.938,16.477,28.896,16.477,28.896s0,0,8.236-5.387
			c2.906-14.694-20.043-49.959-20.043-49.959v-7.346l2.6-16.654l-2.6-7.347c0,0,3.567-11.267,0.66-14.203
			c-2.908-2.939,4.731-11.754,4.731-11.754s1.564-14.694,0.424-17.146c-1.143-2.448,0.175-7.348,2.111-10.284
			c1.939-2.938,0.484-14.693-1.938-18.123c-2.423-3.43,21.319-57.796,21.319-57.796s8.724-26.938,9.207,9.798
			c-4.36,71.508-4.848,93.551-9.207,110.69c4.359,16.651,87.113,21.874,87.113,21.874s82.752-5.223,87.113-21.874
			c-4.361-17.142-4.847-39.185-9.205-110.69c0.481-36.734,9.205-9.798,9.205-9.798s23.741,54.366,21.319,57.796
			s-3.877,15.186-1.938,18.123c1.938,2.938,3.254,7.836,2.111,10.284c-1.144,2.449,0.426,17.146,0.426,17.146
			s7.639,8.813,4.731,11.754c-2.909,2.938,0.66,14.203,0.66,14.203l-2.6,7.347l2.6,16.654v7.346c0,0-22.951,35.265-20.043,49.959
			c8.236,5.387,8.236,5.387,8.236,5.387s12.6-25.959,16.475-28.896c3.877-2.938,7.271,10.774,2.908,15.185
			s-18.414,8.816-15.508,13.714c2.91,4.897,17.553,1.959,17.553,1.959s-0.592,1.959,3.285,3.917
			c3.877,1.96,24.711-14.202,27.139-21.06c2.42-6.857-2.428-29.389-2.428-29.389l3.104-19.592
			C671.809,406.927,684.697,309.948,676.461,299.664z"/>
		<path fill="#1D1D1D" d="M387.216,231.723c0,0-0.682,11.453,3.679,13.901c4.362,2.449-2.905,27.919-7.752,26.94
			c-4.846-0.98-9.689,0.023-9.689,0.023s5.095-29.488,5.146-35.779C378.645,230.518,387.216,231.723,387.216,231.723z"/>
		<path fill="#121112" d="M429.66,179.993c0,0-6.299,40.651-35.373,48.979c-11.866,3.735-13.922,7.836-13.922,7.836
			s-3.982-7.142,0-14.692c3.981-7.554,20.682-31.31,36.211-45.062C424.727,171.249,429.66,179.993,429.66,179.993z"/>
		<path fill="#1D1D1D" d="M432.568,144.729c0,0,17.928,4.898,14.053,8.326c-3.877,3.43-18.898,23.021-21.807,23.021
			c-2.906,0-9.207-2.938-20.353,17.634c-11.146,20.569-22.29,21.55-23.26,21.55C380.234,215.258,372.482,164.32,432.568,144.729z"/>
		<path fill="#121112" d="M512.27,174.398c0,0-16.477-10.744-27.62-12.213c-11.145-1.471-33.791,0.487-36.277,3.429
			c-2.486,2.938-20.416,45.06-20.416,45.06s10.789,21.551,20.416,22.531c9.627,0.979,44.029,8.326,58.082-18.612
			s5.815-38.202,5.815-38.202"/>
		<path fill="#1D1D1D" d="M408.824,322.031c0,0-10.064-15.674-30.229-18.123c-20.166-2.447-15.806-9.305-15.806-9.305
			s-2.425-16.164-8.724-12.246c-6.3,3.918-2.423,24-2.423,24l-1.181,28.406c0,0-5.604,6.366-13.355-4.406
			c-3.394-4.897-1.938,17.144,0,17.632c1.938,0.489,15.506,3.919,15.506,9.306c0,5.389-0.97,8.327-6.783,6.368
			c-5.814-1.959-5.33-8.327-5.33-8.327s-1.454,16.654,0.971,17.145c2.422,0.49,9.205,6.365,12.112,6.856
			c2.908,0.488,1.938,11.265,1.938,11.265s-4.847,1.959-7.755,0c-2.905-1.959-3.875-5.877-3.875-5.877s0,12.734,2.906,14.202
			c2.906,1.473,10.176,3.919,10.176,3.919l6.3,14.693c0,0,25.979-16.163,40.854-9.305"/>
		<path fill="#1D1D1D" d="M506.453,214.593c0.381-0.304-59.705-28.722-67.941-21.375c-8.237,7.347-8.725,18.611-3.395,22.04
			c5.33,3.43,19.869,18.612,21.807,18.612C458.862,233.87,473.988,240.552,506.453,214.593z"/>
		<path fill="#121112" d="M514.564,231.629c0,0-40.505,29.387-51.164,29.878c-10.66,0.489-25.197-21.806-25.197-7.229
			c0,14.578,0,37.597,0,37.597v30.367c0,0-2.424,39.673-6.299,46.528c-3.879,6.856-13.084,13.717,5.33,18.613
			c18.412,4.896,77.33,9.794,77.33,9.794"/>
		<g>
			<path fill="#8D8D8D" d="M445.168,236.809c0,0,0.898,0.393,2.494,0.937c1.594,0.543,3.887,1.229,6.658,1.812
				c1.383,0.305,2.897,0.522,4.489,0.746c1.597,0.201,3.281,0.346,5.021,0.418c1.742,0.053,3.541,0.063,5.361-0.057
				c1.819-0.087,3.661-0.311,5.493-0.58c0.914-0.143,1.824-0.318,2.734-0.48c0.896-0.225,1.805-0.391,2.689-0.617
				c0.879-0.254,1.768-0.459,2.627-0.719c0.858-0.271,1.709-0.539,2.545-0.804c0.828-0.294,1.645-0.582,2.44-0.862
				c0.789-0.314,1.562-0.623,2.313-0.922c0.764-0.281,1.465-0.646,2.176-0.936c0.709-0.296,1.393-0.587,2.027-0.91
				c1.282-0.627,2.483-1.172,3.514-1.727c1.035-0.545,1.971-0.979,2.701-1.402c1.488-0.811,2.375-1.241,2.375-1.241
				s-0.672,0.706-1.912,1.89c-0.609,0.604-1.396,1.285-2.324,2.035c-0.465,0.375-0.942,0.801-1.481,1.199
				c-0.545,0.393-1.119,0.805-1.72,1.233c-1.196,0.864-2.563,1.709-4.034,2.563c-0.75,0.403-1.521,0.817-2.31,1.241
				c-0.813,0.375-1.646,0.759-2.494,1.148c-1.719,0.727-3.533,1.399-5.424,1.953c-0.945,0.274-1.912,0.513-2.881,0.75
				c-0.979,0.188-1.961,0.396-2.951,0.558c-1.988,0.272-3.988,0.498-5.967,0.501c-1.978,0.055-3.922-0.077-5.785-0.291
				c-3.732-0.457-7.129-1.379-9.889-2.501c-1.39-0.531-2.619-1.124-3.681-1.695c-1.069-0.55-1.953-1.12-2.67-1.596
				c-0.723-0.468-1.246-0.901-1.606-1.183C445.344,236.979,445.168,236.809,445.168,236.809z"/>
		</g>
		<g>
			<path fill="#8D8D8D" d="M501.633,235.828c0,0-2.176,1.499-5.561,3.518c-1.685,1.021-3.67,2.174-5.816,3.368
				c-1.078,0.591-2.18,1.226-3.322,1.823c-1.137,0.607-2.293,1.225-3.448,1.842c-1.164,0.602-2.328,1.201-3.474,1.792
				c-1.143,0.601-2.293,1.14-3.391,1.688c-2.201,1.09-4.301,2.039-6.059,2.89c-3.535,1.685-6.015,2.671-6.015,2.671
				s2.107-1.551,5.455-3.674c1.66-1.092,3.65-2.229,5.791-3.441c1.074-0.596,2.174-1.24,3.314-1.842
				c1.137-0.611,2.291-1.232,3.446-1.854c1.168-0.598,2.334-1.194,3.484-1.782c1.146-0.591,2.301-1.127,3.402-1.671
				c2.215-1.07,4.299-2.033,6.104-2.825C499.15,236.732,501.633,235.828,501.633,235.828z"/>
		</g>
		<g>
			<path fill="#989898" d="M489.262,252.109c0,0-1.461,1.545-3.815,3.654c-1.17,1.062-2.563,2.266-4.08,3.521
				c-0.767,0.619-1.539,1.283-2.354,1.918c-0.813,0.639-1.641,1.288-2.465,1.938c-0.842,0.631-1.682,1.262-2.508,1.883
				c-0.818,0.629-1.662,1.203-2.459,1.783c-1.604,1.146-3.127,2.178-4.453,3.036c-2.645,1.73-4.516,2.744-4.516,2.744
				s1.461-1.547,3.813-3.655c1.17-1.063,2.563-2.268,4.082-3.521c0.765-0.62,1.535-1.287,2.354-1.918
				c0.813-0.64,1.641-1.287,2.465-1.938c0.842-0.631,1.682-1.262,2.508-1.882c0.822-0.627,1.662-1.202,2.461-1.782
				c1.604-1.144,3.127-2.179,4.453-3.035C487.393,253.125,489.262,252.109,489.262,252.109z"/>
		</g>
		<g>
			<path fill="#989898" d="M485.869,270.604c0,0-1.252,1.369-3.289,3.211c-1.012,0.931-2.219,1.979-3.539,3.067
				c-0.666,0.537-1.336,1.116-2.049,1.661c-0.709,0.553-1.428,1.111-2.148,1.673c-0.731,0.541-1.467,1.083-2.188,1.617
				c-0.715,0.542-1.455,1.028-2.15,1.524c-1.404,0.978-2.742,1.854-3.91,2.58c-2.324,1.463-3.979,2.297-3.979,2.297
				s1.25-1.371,3.287-3.213c1.012-0.931,2.219-1.979,3.539-3.067c0.666-0.537,1.336-1.117,2.051-1.66
				c0.709-0.552,1.43-1.11,2.147-1.672c0.732-0.541,1.468-1.083,2.189-1.616c0.719-0.539,1.455-1.027,2.151-1.523
				c1.406-0.977,2.742-1.854,3.91-2.578C484.215,271.439,485.869,270.604,485.869,270.604z"/>
		</g>
		<g>
			<path fill="#888888" d="M499.438,301.95c0,0-2.174,1.825-5.532,4.396c-1.674,1.295-3.644,2.777-5.765,4.35
				c-2.123,1.563-4.387,3.231-6.651,4.9c-2.267,1.659-4.529,3.318-6.652,4.875c-2.111,1.569-4.068,3.047-5.707,4.357
				c-1.629,1.318-2.945,2.468-3.734,3.388c-0.391,0.461-0.659,0.856-0.766,1.162c-0.109,0.306-0.068,0.49-0.078,0.489
				c0.013,0.001-0.069-0.172-0.026-0.516c0.045-0.34,0.221-0.822,0.545-1.365c0.641-1.098,1.789-2.489,3.289-4.01
				c1.496-1.528,3.344-3.195,5.391-4.894c1.027-0.84,2.08-1.724,3.191-2.563c1.112-0.838,2.241-1.688,3.37-2.541
				c1.152-0.816,2.306-1.637,3.439-2.439c1.135-0.805,2.283-1.548,3.385-2.286c2.209-1.46,4.308-2.771,6.129-3.854
				C496.896,303.217,499.438,301.95,499.438,301.95z"/>
		</g>
		<path fill="#121112" d="M520,174.398c0,0,16.475-10.744,27.617-12.213c11.146-1.471,33.791,0.487,36.279,3.429
			c2.485,2.938,20.416,45.06,20.416,45.06s-10.789,21.551-20.416,22.531c-9.628,0.979-44.031,8.326-58.084-18.612
			C511.762,187.654,520,176.391,520,176.391"/>
		<path fill="#1D1D1D" d="M525.813,214.593c-0.379-0.304,59.705-28.722,67.943-21.375c8.236,7.347,8.236,16.163,2.906,19.591
			c-5.328,3.431-19.381,21.063-21.32,21.063C573.404,233.87,558.277,240.552,525.813,214.593z"/>
		<path fill="#121112" d="M518.52,231.629c0,0,41.371,29.387,52.029,29.878c10.662,0.489,25.197-21.806,25.197-7.229
			c0,14.578,0,37.597,0,37.597v30.367c0,0,2.424,39.673,6.301,46.528c3.875,6.856,13.082,13.717-5.33,18.613
			c-18.414,4.896-76.215,9.794-76.215,9.794"/>
		<g>
			<path fill="#8D8D8D" d="M588.781,236.809c0,0-0.176,0.172-0.533,0.461c-0.361,0.28-0.887,0.715-1.607,1.184
				c-0.717,0.475-1.602,1.046-2.67,1.596c-1.061,0.571-2.289,1.164-3.68,1.695c-2.76,1.122-6.154,2.044-9.887,2.501
				c-1.865,0.214-3.812,0.346-5.787,0.291c-1.979-0.003-3.979-0.229-5.965-0.501c-0.992-0.159-1.974-0.367-2.953-0.559
				c-0.969-0.236-1.937-0.475-2.881-0.748c-1.892-0.555-3.705-1.229-5.425-1.955c-0.846-0.391-1.678-0.772-2.491-1.147
				c-0.789-0.424-1.562-0.838-2.312-1.241c-1.471-0.854-2.838-1.695-4.033-2.563c-0.6-0.43-1.174-0.842-1.719-1.232
				c-0.539-0.4-1.02-0.826-1.481-1.199c-0.931-0.752-1.716-1.432-2.326-2.035c-1.238-1.184-1.91-1.89-1.91-1.89
				s0.889,0.433,2.373,1.241c0.731,0.423,1.666,0.859,2.701,1.402c1.028,0.555,2.231,1.1,3.514,1.727
				c0.637,0.323,1.32,0.614,2.029,0.91c0.709,0.29,1.412,0.652,2.174,0.936c0.752,0.299,1.522,0.605,2.313,0.92
				c0.798,0.282,1.613,0.57,2.441,0.864c0.836,0.265,1.684,0.531,2.543,0.804c0.861,0.26,1.748,0.465,2.629,0.72
				c0.885,0.228,1.793,0.394,2.689,0.614c0.908,0.164,1.817,0.342,2.733,0.482c1.832,0.271,3.672,0.493,5.494,0.58
				c1.818,0.117,3.617,0.107,5.357,0.057c1.742-0.074,3.428-0.217,5.022-0.418c1.591-0.224,3.105-0.443,4.488-0.746
				c2.771-0.584,5.064-1.269,6.658-1.812C587.883,237.199,588.781,236.809,588.781,236.809z"/>
		</g>
		<g>
			<path fill="#8D8D8D" d="M532.316,235.828c0,0,2.481,0.904,6.084,2.501c1.805,0.793,3.889,1.756,6.104,2.826
				c1.104,0.544,2.256,1.079,3.402,1.671c1.149,0.588,2.315,1.186,3.483,1.781c1.156,0.621,2.312,1.242,3.447,1.854
				c1.144,0.604,2.238,1.247,3.314,1.844c2.141,1.215,4.129,2.351,5.791,3.44c3.348,2.123,5.455,3.674,5.455,3.674
				s-2.479-0.985-6.015-2.671c-1.758-0.852-3.854-1.8-6.059-2.891c-1.099-0.549-2.248-1.088-3.392-1.688
				c-1.145-0.591-2.309-1.189-3.475-1.792c-1.154-0.617-2.311-1.233-3.447-1.842c-1.143-0.601-2.244-1.231-3.321-1.823
				c-2.146-1.193-4.134-2.348-5.816-3.367C534.492,237.327,532.316,235.828,532.316,235.828z"/>
		</g>
		<g>
			<path fill="#989898" d="M544.688,252.109c0,0,1.869,1.016,4.513,2.748c1.328,0.855,2.852,1.893,4.455,3.035
				c0.797,0.58,1.639,1.154,2.461,1.78c0.826,0.621,1.666,1.252,2.508,1.884c0.824,0.648,1.65,1.299,2.465,1.938
				c0.818,0.631,1.59,1.298,2.355,1.918c1.52,1.255,2.909,2.46,4.082,3.521c2.354,2.107,3.813,3.654,3.813,3.654
				s-1.871-1.014-4.516-2.743c-1.328-0.858-2.853-1.894-4.455-3.036c-0.797-0.58-1.639-1.154-2.459-1.783
				c-0.826-0.621-1.668-1.252-2.508-1.883c-0.824-0.649-1.65-1.3-2.463-1.938c-0.818-0.634-1.591-1.298-2.355-1.918
				c-1.518-1.257-2.91-2.462-4.08-3.522C546.148,253.654,544.688,252.109,544.688,252.109z"/>
		</g>
		<g>
			<path fill="#989898" d="M548.078,270.604c0,0,1.656,0.836,3.979,2.301c1.168,0.725,2.505,1.604,3.91,2.578
				c0.695,0.496,1.437,0.984,2.152,1.523c0.723,0.533,1.457,1.075,2.188,1.616c0.722,0.562,1.441,1.12,2.15,1.672
				c0.715,0.543,1.383,1.123,2.049,1.66c1.32,1.089,2.527,2.139,3.541,3.067c2.035,1.842,3.287,3.213,3.287,3.213
				s-1.658-0.834-3.982-2.297c-1.168-0.726-2.504-1.604-3.909-2.58c-0.695-0.496-1.437-0.982-2.15-1.524
				c-0.725-0.534-1.457-1.076-2.188-1.617c-0.722-0.561-1.439-1.12-2.148-1.673c-0.713-0.545-1.383-1.124-2.049-1.661
				c-1.32-1.09-2.527-2.139-3.541-3.067C549.33,271.973,548.078,270.604,548.078,270.604z"/>
		</g>
		<g>
			<path fill="#888888" d="M534.514,301.95c0,0,2.541,1.267,6.177,3.45c1.821,1.084,3.918,2.396,6.129,3.854
				c1.1,0.738,2.248,1.48,3.383,2.286c1.137,0.806,2.287,1.623,3.438,2.44c1.132,0.852,2.261,1.703,3.371,2.541
				c1.111,0.84,2.164,1.723,3.191,2.563c2.047,1.696,3.895,3.363,5.391,4.895c1.502,1.52,2.648,2.912,3.289,4.009
				c0.324,0.543,0.5,1.024,0.545,1.366c0.043,0.344-0.039,0.516-0.026,0.515c-0.011,0.001,0.03-0.187-0.078-0.489
				c-0.104-0.306-0.375-0.701-0.767-1.162c-0.789-0.92-2.104-2.068-3.733-3.388c-1.64-1.312-3.597-2.788-5.705-4.356
				c-2.125-1.558-4.392-3.217-6.654-4.875c-2.266-1.67-4.529-3.338-6.651-4.9c-2.119-1.571-4.091-3.057-5.765-4.35
				C536.688,303.775,534.514,301.95,534.514,301.95z"/>
		</g>
		<path fill="#1D1D1D" d="M646.451,231.723c0,0,0.684,11.453-3.68,13.901c-4.361,2.449,2.907,27.919,7.752,26.94
			c4.846-0.98,9.69,0.023,9.69,0.023s-5.096-29.488-5.145-35.779C655.023,230.518,646.451,231.723,646.451,231.723z"/>
		<path fill="#121112" d="M604.008,179.993c0,0,6.299,40.651,35.371,48.979c11.867,3.735,13.924,7.836,13.924,7.836
			s3.98-7.142,0-14.692c-3.981-7.554-20.682-31.31-36.213-45.062C608.939,171.249,604.008,179.993,604.008,179.993z"/>
		<path fill="#1D1D1D" d="M600.68,145.341c0,0-17.93,4.897-14.051,8.325c3.875,3.43,18.896,23.021,21.805,23.021
			c2.908,0,9.207-2.939,20.353,17.631c11.146,20.572,22.289,21.551,23.26,21.551C653.014,215.869,660.766,164.934,600.68,145.341z"
			/>
		<path fill="#1D1D1D" d="M624.424,322.643c0,0,10.064-15.672,30.229-18.121c20.165-2.447,15.805-9.306,15.805-9.306
			s2.422-16.164,8.725-12.245c6.298,3.918,2.42,24,2.42,24l1.181,28.407c0,0,5.604,6.368,13.358-4.409
			c3.392-4.896,1.938,17.145,0,17.635c-1.938,0.489-15.508,3.918-15.508,9.308c0,5.387,0.969,8.325,6.783,6.364
			c5.814-1.957,5.33-8.323,5.33-8.323s1.453,16.649-0.969,17.142c-2.422,0.49-9.207,6.366-12.115,6.856
			c-2.906,0.491-1.938,11.264-1.938,11.264s4.847,1.96,7.755,0c2.905-1.956,3.877-5.875,3.877-5.875s0,12.734-2.91,14.204
			c-2.906,1.469-10.174,3.917-10.174,3.917l-6.3,14.693c0,0-25.979-16.163-40.854-9.308"/>
	</g>
	<path fill="#8D191C" d="M530.721,185.57c-2.885,2.044-10.453,12.138-12.256-2.521c-0.965,4.083-0.965,4.083-0.965,4.083
		l-1.682-0.179l-1.681,0.179c0,0,0,0-0.963-4.083c-1.805,14.659-9.373,4.565-12.256,2.521c-2.887-2.041-34.127-2.521-34.127-2.521
		s10.332,8.151,11.295,15.963c33.887-0.479,37.73,12.979,37.73,12.979s3.844-13.456,37.729-12.979
		c0.963-7.812,11.295-15.963,11.295-15.963S533.604,183.529,530.721,185.57z"/>
</g>
<g>
	<path fill="#020202" d="M28.008,167.939c0,0-20.396,314.169-6.927,313.783c13.468-0.386,41.562,0,41.562,0l8.109-177.024
		C70.752,304.698,78.806,193.577,28.008,167.939z"/>
	<polygon fill="#FFFFFF" points="146.921,141.148 45,173 149.036,271.75 227.75,159 174.25,138.964 	"/>
	<path fill="#121112" d="M101.712,138.964l-73.704,28.976c0,0,41.946,20.158,42.716,132.527c0.77,112.372-1.54,90.821-2.31,100.828
		C67.646,411.3,64.86,517.896,64.86,517.896h62.819c0,0,13.469-5.004,21.166-51.183c7.696-46.182-4.618-204.731-4.618-204.731
		L101.712,138.964z"/>
	<g>
		<g>
			<path fill="#9F1C30" d="M153.078,140.741l9.621,11.545l-9.621,15.394c0,0,9.234,25.012,6.926,44.639s-10.39,45.797-10.39,45.797
				l-13.084-51.568c0,0,6.158-36.464,7.697-40.938c1.54-4.474-7.697-14.512-7.697-14.512l8.762-10.354h7.786V140.741z"/>
			<path fill="#CECECD" d="M121.907,113.055l25.014,28.094l-21.166,25.013c0,0-8.466-21.156-8.659-43.866
				C121.907,113.055,121.907,113.055,121.907,113.055z"/>
			<path fill="#CECECD" d="M177.93,113.055l-25.015,28.094l21.166,25.013c0,0,8.466-21.156,8.657-43.866
				C177.93,113.055,177.93,113.055,177.93,113.055z"/>
		</g>
	</g>
	<polygon fill="#151415" points="116.903,121.521 85.733,157.311 101.318,159.619 85.733,171.549 145.767,275.068 151.375,256.98 	
		"/>
	<path fill="#0B0B0B" d="M195.611,138.964l73.302,28.976c0,0-49.261,105.977-42.718,141.766s6.065,208.194,6.065,208.194
		s-67.255,16.164-70.719-12.315c-3.463-28.476-17.702-64.267-17.702-64.267l-1.924-156.239L195.611,138.964z"/>
	<g>
		<circle fill="#212120" cx="149.447" cy="278.171" r="4.687"/>
		<circle fill="#212120" cx="149.447" cy="340.596" r="4.686"/>
		<circle fill="#212120" cx="149.447" cy="408.625" r="4.686"/>
	</g>
	<polygon fill="#191818" points="182.337,121.521 213.497,160.004 197.143,160.004 210.801,173.473 141.917,285.076 	"/>
	<path d="M268.913,167.939c0,0,24.243,300.313,8.851,313.783c-15.395,13.469-42.33,1.926-42.33,1.926s0.383-175.483-6.929-180.104
		C221.191,298.93,235.434,216.666,268.913,167.939z"/>
</g>
</svg>
