<?xml version="1.0" encoding="utf-8"?>
<!-- Generator: Adobe Illustrator 16.0.0, SVG Export Plug-In . SVG Version: 6.00 Build 0)  -->
<!DOCTYPE svg PUBLIC "-//W3C//DTD SVG 1.1//EN" "http://www.w3.org/Graphics/SVG/1.1/DTD/svg11.dtd">
<svg version="1.1" id="Layer_1" xmlns="http://www.w3.org/2000/svg" xmlns:xlink="http://www.w3.org/1999/xlink" x="0px" y="0px"
	 width="300px" height="300px" viewBox="0 0 300 300" enable-background="new 0 0 300 300" xml:space="preserve">
<g>
	<g>
		<path fill="#DBAAA1" d="M137.754,79.918c-9.155,0-16.574,6.053-16.574,13.52v73.941c0,7.469,7.419,13.52,16.574,13.52h11.282
			V79.918H137.754z"/>
		<path fill="#C1918A" d="M160.956,79.918h-11.92v100.98h11.92c9.153,0,16.575-6.051,16.575-13.521v-73.94
			C177.531,85.972,170.109,79.918,160.956,79.918z"/>
	</g>
	<path fill="#C1918A" d="M149.472,149.635l-3.34,213.662l2.904-237.658l28.592,3.882c0,0,18.61,16.986,32.45,21.903
		c13.84,4.916,42.475,2.234,42.475,56.768c3.816,54.979,11.451,118.451,11.451,118.451s8.114,127.396,0,137.229
		c0.479,17.434-22.43,40.678-22.43,40.678l-1.908-10.278c0,0,17.18-17.882,9.546-42.912c-4.772,25.03-4.772,25.03-4.772,25.03
		l-5.248,2.232l-4.771-37.992c0,0,4.771-12.067,10.499-10.729c2.86-36.208,2.86-36.208,2.86-36.208s-7.633-7.149-15.747-48.274
		c-8.111-41.123-11.451-92.976-11.451-92.976s-7.853-34.418,2.04-46.041c9.893-11.618-12.54,23.244-19.223,73.31
		c10.021,50.063,10.498,54.531,10.498,54.531v19.668l-67.765,4.918"/>
	<path fill="#DBAAA1" d="M148.518,149.635l3.339,213.662l-3.339-238.247l-27.338,4.341c0,0-19.43,17.116-33.27,22.033
		c-13.839,4.916-42.472,2.234-42.472,56.768C41.62,263.17,33.984,326.643,33.984,326.643s-8.112,127.396,0,137.229
		c-0.477,17.434,22.43,40.678,22.43,40.678l1.908-10.278c0,0-17.18-17.882-9.544-42.912c4.773,25.03,4.773,25.03,4.773,25.03
		l5.249,2.232l4.772-37.992c0,0-4.772-12.067-10.499-10.729c-2.863-36.208-2.863-36.208-2.863-36.208s7.636-7.149,15.749-48.274
		c8.112-41.123,11.452-92.976,11.452-92.976s7.849-34.418-2.041-46.041c-9.889-11.618,12.54,23.244,19.222,73.31
		c-10.022,50.063-10.5,54.531-10.5,54.531v19.668l67.766,4.918"/>
	<circle fill="#AC7A70" cx="107.978" cy="208.152" r="3.579"/>
	<circle fill="#AC7A70" cx="200.535" cy="208.152" r="3.58"/>
	<path fill="#AC7A70" d="M153.768,326.461c0,3.756-1.283,6.799-2.865,6.799c-1.579,0-2.86-3.043-2.86-6.799
		c0-3.758,1.283-6.801,2.86-6.801C152.484,319.66,153.768,322.703,153.768,326.461z"/>
	<g>
		<g>
			<path fill="#C58E83" d="M149.24,23.345c-5.44-0.224-31.557,0.748-34.57,39.683c0,0-0.785,22.02,7.742,36.035
				c8.526,14.018,16.713,18.888,16.713,18.888s2.954,2.604,8.841,2.956c0.065,0.015,0.132,0.023,0.196,0.027
				c0.527,0.02,1.027,0.019,1.519,0.008v-97.61C149.525,23.336,149.373,23.34,149.24,23.345z"/>
			<path fill="#D0A094" d="M186.619,63.029c-3.182-38.045-30.215-39.842-36.938-39.696v97.611c0.136-0.004,0.278-0.004,0.411-0.007
				c0.048-0.001,0.092,0.001,0.141-0.001c0.008,0,0.015-0.004,0.022-0.004c6.613-0.271,9.919-2.979,9.919-2.979
				s8.855-4.871,18.075-18.888C187.471,85.048,186.619,63.029,186.619,63.029z"/>
		</g>
		<g>
			<path fill="#FFFFFF" d="M137.042,62.044c-0.259,0.525-1.031,1.539-3.094,1.445c-2.109-0.095-3.009-1.202-3.317-1.729
				c-1.401,0.574-2.331,1.336-2.331,1.336c5.597,3.912,11.831,0.294,11.831,0.294S139.647,63.093,137.042,62.044z"/>
			<path fill="#020202" d="M133.947,63.489c2.063,0.094,2.835-0.92,3.094-1.445c-0.385-0.152-0.812-0.323-1.294-0.512
				c-1.869-0.731-3.727-0.343-5.118,0.229C130.938,62.287,131.838,63.395,133.947,63.489z"/>
		</g>
		<ellipse fill="#FFFFFF" cx="134.153" cy="61.9" rx="1.252" ry="0.768"/>
		<path fill="#121212" d="M142.237,55.96c0,0-3.034,1.125-5.418,0.636c-2.384-0.489-10.906-3.422-14.118,0.929
			c-3.215,4.351-1.605,1.419-1.605,1.419s0.388-6.943,5.501-7.824C131.708,50.242,142.69,52.539,142.237,55.96z"/>
		<path fill="#191919" d="M136.478,61.131c0,0-2.678-1.336-8.179,1.183c-0.828,0.44-1.266,0.537-1.022,0
			c0.242-0.537,3.65-2.32,6.403-2.052C136.429,60.531,136.478,61.131,136.478,61.131z"/>
		<path display="none" fill="#606161" d="M140.433,60.779c0,0,4.262,1.633,3.489,6.915c-0.775,5.28-1.019,6.355-1.019,6.355
			s2.65-4.18,2.349-7.798c-0.301-3.618-2.492-7.457-4.211-6.844C139.319,60.017,140.398,60.635,140.433,60.779z"/>
		<path fill="#97485A" d="M135.733,98.525c0,0,8.808-1.743,12.108-0.698c3.302,1.046,6.909-0.567,9.044,0.182
			s5.395,0.901,5.395,0.901s-12.339,6.352-14.59,5.887C145.434,104.333,136.313,100.305,135.733,98.525z"/>
		<path fill="#692137" d="M136.803,97.207c0,0,3.972-1.804,5.68-1.826c1.702-0.021,3.082-0.096,4.186,0.554
			c1.103,0.652,2.663,1.271,2.663,1.271s0.742-0.368,3.99-1.369c2.854-0.881,8.05,3.081,9.187,3.063
			c1.058-0.017-13.176-0.032-13.176-0.032l-12.528-0.229l-1.104-0.293L136.803,97.207z"/>
		<path fill="#A6576C" d="M153.578,100.916c0,0-3.408,1.598-4.771,1.142c-1.364-0.457-4.12-1.563-4.12-1.563
			S152.344,99.548,153.578,100.916z"/>
		<path fill="#D0A094" d="M116.102,66.061c0,0-1.081-9.898-5.537-6.268c-4.458,3.631,0.701,5.765,0.177,8.334
			c-0.524,2.57,2.165,4.605,1.309,10.485c-0.857,5.881-0.531,6.227,1.276,7.562c1.807,1.335,3.368,0.399,3.546,0.141
			C117.052,86.055,116.102,66.061,116.102,66.061z"/>
		<path fill="#D0A094" d="M184.708,67.087c0,0,5.571-9.484,6.229-2.296c0.563,6.11-1.688,10.282-3.115,12.63
			c-1.428,2.346,0.779,8.473-0.584,9.779c-1.36,1.302-1.492,3.063-3.764,2.932C181.202,90.001,184.708,67.087,184.708,67.087z"/>
		<g>
			<g>
				<g>
					
						<linearGradient id="SVGID_1_" gradientUnits="userSpaceOnUse" x1="-25.6265" y1="-267.1826" x2="-40.1744" y2="-292.3802" gradientTransform="matrix(1 0 0 -1 185.8604 -207.8906)">
						<stop  offset="0" style="stop-color:#D0A094;stop-opacity:0"/>
						<stop  offset="1" style="stop-color:#BF9086;stop-opacity:0.7"/>
					</linearGradient>
					<path fill="url(#SVGID_1_)" d="M154.311,55.872c-0.098-0.034-3.438,6.353-2.955,13.197c0.484,6.846,3.44,6.974,3.478,6.941
						c0.028-0.032,7.142,2.509,4.479,6.16c-2.662,3.652-4.156-0.424-6.56,2.901c-2.694,1.825-1.849,1.402-2.857,1.825
						c-1.005,0.425,0-31.025,0-31.025L154.311,55.872z"/>
					<path fill="#020202" d="M156.764,83.952c0,0,0.194,1.009-0.908,1.694c-1.104,0.684-3.276,0.586-3.276,0.586
						s0.422-3.423,4.06-2.281"/>
				</g>
			</g>
		</g>
		<g>
			<g>
				<g>
					
						<linearGradient id="SVGID_2_" gradientUnits="userSpaceOnUse" x1="-848.2925" y1="-267.1797" x2="-862.8408" y2="-292.3782" gradientTransform="matrix(-1 0 0 -1 -709.6875 -207.8906)">
						<stop  offset="0" style="stop-color:#D0A094;stop-opacity:0"/>
						<stop  offset="1" style="stop-color:#BF9086"/>
					</linearGradient>
					<path fill="url(#SVGID_2_)" d="M144.525,55.872c0.101-0.034,3.441,6.353,2.955,13.197c-0.485,6.846-3.438,6.974-3.47,6.941
						c-0.033-0.032-7.142,2.509-4.48,6.16c2.661,3.652,4.154-0.424,6.557,2.901c2.694,1.825,1.85,1.402,2.856,1.825
						c1.006,0.425,0-31.025,0-31.025L144.525,55.872z"/>
					<path fill="#020202" d="M142.075,83.952c0,0-0.194,1.009,0.908,1.694c1.104,0.684,3.278,0.586,3.278,0.586
						s-0.422-3.423-4.058-2.281"/>
				</g>
			</g>
		</g>
		<path fill="#121212" d="M185.225,55.099l-4.795-4.93c0,0-1.195-11.677-13.658-17.126c-12.459-5.448-16.771-9.602-19.646-9.342
			c-2.877,0.259-12.94-0.26-18.692,10.121c-4.074,1.556-6.709,3.891-6.709,3.891v8.304c0,0-6.469,1.9-7.427,21.061
			c-2.877-12.757-2.877-12.757-2.877-12.757s-7.667-31.156,17.972-45.671c8.502-4.696,13.653-5.448,13.653-5.448
			s15.821-3.893,22.291,2.335c6.47,6.226,20.606,5.967,26.358,40.998c-2.154,19.204-5.989,25.95-5.989,25.95L185.225,55.099z"/>
		<path fill="#121212" d="M130.63,30.3l-2.331,6.941c0,0-4.195-0.608-6.577,2.478C119.343,42.809,118.133,35.243,130.63,30.3z"/>
		<path fill="#121212" d="M130.63,30.585c0,0,17.159-5.667,18.759-5.661c1.597,0.006-3.37-5.583-13.983-2.455
			C124.793,25.599,130.63,30.585,130.63,30.585z"/>
		<path display="none" fill="#606161" d="M155.6,61.561c0,0-3.367,1.634-2.756,6.915c0.613,5.28,0.805,6.355,0.805,6.355
			s-2.096-4.179-1.855-7.798c0.24-3.618,1.977-7.455,3.332-6.843C156.48,60.8,155.627,61.417,155.6,61.561z"/>
		<g>
			<path fill="#FFFFFF" d="M162.45,62.044c0.259,0.525,1.026,1.539,3.093,1.445c2.109-0.095,3.01-1.202,3.314-1.729
				c1.404,0.574,2.334,1.336,2.334,1.336c-5.601,3.912-11.83,0.294-11.83,0.294S159.841,63.093,162.45,62.044z"/>
			<path fill="#020202" d="M165.543,63.489c-2.064,0.094-2.834-0.92-3.093-1.445c0.381-0.152,0.812-0.323,1.29-0.512
				c1.869-0.731,3.729-0.343,5.117,0.229C168.553,62.287,167.652,63.395,165.543,63.489z"/>
		</g>
		<ellipse fill="#FFFFFF" cx="165.337" cy="61.9" rx="1.253" ry="0.768"/>
		<path fill="#121212" d="M157.252,55.96c0,0,3.034,1.125,5.42,0.636c2.385-0.489,10.905-3.422,14.118,0.929
			s1.604,1.419,1.604,1.419s-0.391-6.943-5.502-7.824C167.783,50.242,156.799,52.539,157.252,55.96z"/>
		<path fill="#191919" d="M163.012,61.131c0,0,2.68-1.336,8.18,1.183c0.826,0.44,1.268,0.537,1.024,0
			c-0.245-0.537-3.653-2.32-6.405-2.052C163.061,60.531,163.012,61.131,163.012,61.131z"/>
	</g>
</g>
</svg>
