<?xml version="1.0" encoding="utf-8"?>
<!-- Generator: Adobe Illustrator 16.0.0, SVG Export Plug-In . SVG Version: 6.00 Build 0)  -->
<!DOCTYPE svg PUBLIC "-//W3C//DTD SVG 1.1//EN" "http://www.w3.org/Graphics/SVG/1.1/DTD/svg11.dtd">
<svg version="1.1" id="Layer_1" xmlns="http://www.w3.org/2000/svg" xmlns:xlink="http://www.w3.org/1999/xlink" x="0px" y="0px"
	 width="300px" height="300px" viewBox="0 0 300 300" enable-background="new 0 0 300 300" xml:space="preserve">
<g>
	<g>
		<path fill="#DBAAA1" d="M137.754,79.918c-9.155,0-16.574,6.053-16.574,13.52v73.941c0,7.469,7.419,13.52,16.574,13.52h11.282
			V79.918H137.754z"/>
		<path fill="#C1918A" d="M160.956,79.918h-11.92v100.98h11.92c9.153,0,16.575-6.051,16.575-13.521v-73.94
			C177.531,85.972,170.109,79.918,160.956,79.918z"/>
	</g>
	<path fill="#C1918A" d="M149.472,149.635l-3.34,213.662l2.904-237.658l28.592,3.882c0,0,18.61,16.986,32.45,21.903
		c13.84,4.916,42.475,2.234,42.475,56.768c3.816,54.979,11.451,118.451,11.451,118.451s8.114,127.396,0,137.229
		c0.479,17.434-22.43,40.678-22.43,40.678l-1.908-10.277c0,0,17.18-17.883,9.546-42.912c-4.772,25.029-4.772,25.029-4.772,25.029
		l-5.248,2.232l-4.771-37.992c0,0,4.771-12.066,10.499-10.729c2.859-36.208,2.859-36.208,2.859-36.208s-7.633-7.149-15.747-48.274
		c-8.11-41.123-11.45-92.976-11.45-92.976s-7.854-34.418,2.04-46.041c9.894-11.618-12.54,23.244-19.224,73.31
		c10.021,50.063,10.498,54.531,10.498,54.531v19.668l-67.765,4.918"/>
	<path fill="#DBAAA1" d="M148.518,149.635l3.339,213.662l-3.339-238.247l-27.338,4.341c0,0-19.43,17.116-33.27,22.033
		c-13.839,4.916-42.472,2.234-42.472,56.768C41.62,263.17,33.984,326.643,33.984,326.643s-8.112,127.396,0,137.229
		c-0.477,17.434,22.43,40.678,22.43,40.678l1.908-10.277c0,0-17.18-17.883-9.544-42.912c4.773,25.029,4.773,25.029,4.773,25.029
		l5.249,2.232l4.772-37.992c0,0-4.772-12.066-10.499-10.729c-2.863-36.208-2.863-36.208-2.863-36.208s7.636-7.149,15.749-48.274
		c8.112-41.123,11.452-92.976,11.452-92.976s7.849-34.418-2.041-46.041c-9.889-11.618,12.54,23.244,19.222,73.31
		c-10.022,50.063-10.5,54.531-10.5,54.531v19.668l67.766,4.918"/>
	<circle fill="#AC7A70" cx="107.978" cy="208.152" r="3.579"/>
	<circle fill="#AC7A70" cx="200.535" cy="208.152" r="3.58"/>
	<path fill="#AC7A70" d="M153.768,326.461c0,3.756-1.283,6.799-2.865,6.799c-1.579,0-2.859-3.043-2.859-6.799
		c0-3.758,1.283-6.801,2.859-6.801C152.484,319.66,153.768,322.703,153.768,326.461z"/>
	<g>
		<g>
			<path fill="#C58E83" d="M149.24,23.345c-5.44-0.224-31.557,0.748-34.57,39.683c0,0-0.785,22.02,7.742,36.035
				c8.526,14.018,16.713,18.888,16.713,18.888s2.954,2.604,8.841,2.956c0.065,0.015,0.132,0.023,0.196,0.027
				c0.527,0.02,1.027,0.019,1.519,0.008v-97.61C149.525,23.336,149.373,23.34,149.24,23.345z"/>
			<path fill="#D0A094" d="M186.619,63.029c-3.182-38.045-30.215-39.842-36.938-39.696v97.611c0.136-0.004,0.278-0.004,0.411-0.007
				c0.048-0.001,0.092,0.001,0.141-0.001c0.008,0,0.015-0.004,0.022-0.004c6.613-0.271,9.919-2.979,9.919-2.979
				s8.855-4.871,18.075-18.888C187.471,85.048,186.619,63.029,186.619,63.029z"/>
		</g>
		<g>
			<path fill="#FFFFFF" d="M137.042,62.044c-0.259,0.525-1.031,1.539-3.094,1.445c-2.109-0.095-3.009-1.202-3.317-1.729
				c-1.401,0.574-2.331,1.336-2.331,1.336c5.597,3.912,11.831,0.294,11.831,0.294S139.647,63.093,137.042,62.044z"/>
			<path fill="#020202" d="M133.947,63.489c2.063,0.094,2.835-0.92,3.094-1.445c-0.385-0.152-0.812-0.323-1.294-0.512
				c-1.869-0.731-3.727-0.343-5.118,0.229C130.938,62.287,131.838,63.395,133.947,63.489z"/>
		</g>
		<ellipse fill="#FFFFFF" cx="134.153" cy="61.9" rx="1.252" ry="0.768"/>
		<path fill="#121212" d="M142.237,55.96c0,0-3.034,1.125-5.418,0.636c-2.384-0.489-10.906-3.422-14.118,0.929
			c-3.215,4.351-1.605,1.419-1.605,1.419s0.388-6.943,5.501-7.824C131.708,50.242,142.69,52.539,142.237,55.96z"/>
		<path fill="#191919" d="M136.478,61.131c0,0-2.678-1.336-8.179,1.183c-0.828,0.44-1.266,0.537-1.022,0
			c0.242-0.537,3.65-2.32,6.403-2.052C136.429,60.531,136.478,61.131,136.478,61.131z"/>
		<path display="none" fill="#606161" d="M140.433,60.779c0,0,4.262,1.633,3.489,6.915c-0.775,5.28-1.019,6.355-1.019,6.355
			s2.65-4.18,2.349-7.798c-0.301-3.618-2.492-7.457-4.211-6.844C139.319,60.017,140.398,60.635,140.433,60.779z"/>
		<path fill="#97485A" d="M135.733,98.525c0,0,8.808-1.743,12.108-0.698c3.302,1.046,6.909-0.567,9.044,0.182
			s5.395,0.901,5.395,0.901s-12.338,6.352-14.589,5.887C145.434,104.333,136.313,100.305,135.733,98.525z"/>
		<path fill="#692137" d="M136.803,97.207c0,0,3.972-1.804,5.68-1.826c1.702-0.021,3.082-0.096,4.186,0.554
			c1.103,0.652,2.663,1.271,2.663,1.271s0.742-0.368,3.99-1.369c2.854-0.881,8.05,3.081,9.187,3.063
			c1.058-0.017-13.176-0.032-13.176-0.032l-12.528-0.229l-1.104-0.293L136.803,97.207z"/>
		<path fill="#A6576C" d="M153.578,100.916c0,0-3.408,1.598-4.771,1.142c-1.364-0.457-4.12-1.563-4.12-1.563
			S152.344,99.548,153.578,100.916z"/>
		<path fill="#D0A094" d="M116.102,66.061c0,0-1.081-9.898-5.537-6.268c-4.458,3.631,0.701,5.765,0.177,8.334
			c-0.524,2.57,2.165,4.605,1.309,10.485c-0.857,5.881-0.531,6.227,1.276,7.562c1.807,1.335,3.368,0.399,3.546,0.141
			C117.052,86.055,116.102,66.061,116.102,66.061z"/>
		<path fill="#D0A094" d="M184.708,67.087c0,0,5.571-9.484,6.229-2.296c0.563,6.11-1.688,10.282-3.115,12.63
			c-1.428,2.346,0.779,8.473-0.584,9.779c-1.36,1.302-1.492,3.063-3.764,2.932C181.202,90.001,184.708,67.087,184.708,67.087z"/>
		<g>
			<g>
				<g>
					
						<linearGradient id="SVGID_1_" gradientUnits="userSpaceOnUse" x1="-196.5557" y1="554.1279" x2="-211.1032" y2="579.3249" gradientTransform="matrix(1 0 0 1 356.79 -494.8359)">
						<stop  offset="0" style="stop-color:#D0A094;stop-opacity:0"/>
						<stop  offset="1" style="stop-color:#BF9086;stop-opacity:0.7"/>
					</linearGradient>
					<path fill="url(#SVGID_1_)" d="M154.311,55.872c-0.098-0.034-3.438,6.353-2.955,13.197c0.484,6.846,3.44,6.974,3.479,6.941
						c0.027-0.032,7.143,2.509,4.479,6.16c-2.662,3.652-4.155-0.424-6.56,2.901c-2.694,1.825-1.849,1.402-2.857,1.825
						c-1.005,0.425,0-31.025,0-31.025L154.311,55.872z"/>
					<path fill="#020202" d="M156.764,83.952c0,0,0.194,1.009-0.908,1.694c-1.104,0.684-3.275,0.586-3.275,0.586
						s0.422-3.423,4.061-2.281"/>
				</g>
			</g>
		</g>
		<g>
			<g>
				<g>
					
						<linearGradient id="SVGID_2_" gradientUnits="userSpaceOnUse" x1="-1510.3633" y1="554.126" x2="-1524.9114" y2="579.324" gradientTransform="matrix(-1 0 0 1 -1371.7578 -494.8359)">
						<stop  offset="0" style="stop-color:#D0A094;stop-opacity:0"/>
						<stop  offset="1" style="stop-color:#BF9086"/>
					</linearGradient>
					<path fill="url(#SVGID_2_)" d="M144.525,55.872c0.101-0.034,3.441,6.353,2.955,13.197c-0.485,6.846-3.438,6.974-3.47,6.941
						c-0.033-0.032-7.142,2.509-4.48,6.16c2.661,3.652,4.154-0.424,6.557,2.901c2.694,1.825,1.85,1.402,2.856,1.825
						c1.006,0.425,0-31.025,0-31.025L144.525,55.872z"/>
					<path fill="#020202" d="M142.075,83.952c0,0-0.194,1.009,0.908,1.694c1.104,0.684,3.278,0.586,3.278,0.586
						s-0.422-3.423-4.058-2.281"/>
				</g>
			</g>
		</g>
		<path fill="#121212" d="M185.225,55.099l-4.795-4.93c0,0-1.195-11.677-13.658-17.126c-12.459-5.448-16.771-9.602-19.646-9.342
			c-2.877,0.259-12.94-0.26-18.692,10.121c-4.074,1.556-6.709,3.891-6.709,3.891v8.304c0,0-6.469,1.9-7.427,21.061
			c-2.877-12.757-2.877-12.757-2.877-12.757s-7.667-31.156,17.972-45.671c8.502-4.696,13.653-5.448,13.653-5.448
			s15.821-3.893,22.291,2.335c6.47,6.226,20.606,5.967,26.358,40.998c-2.154,19.204-5.989,25.95-5.989,25.95L185.225,55.099z"/>
		<path fill="#121212" d="M130.63,30.3l-2.331,6.941c0,0-4.195-0.608-6.577,2.478C119.343,42.809,118.133,35.243,130.63,30.3z"/>
		<path fill="#121212" d="M130.63,30.585c0,0,17.159-5.667,18.759-5.661c1.597,0.006-3.37-5.583-13.983-2.455
			C124.793,25.599,130.63,30.585,130.63,30.585z"/>
		<path display="none" fill="#606161" d="M155.6,61.561c0,0-3.367,1.634-2.756,6.915c0.613,5.28,0.805,6.355,0.805,6.355
			s-2.096-4.179-1.854-7.798c0.24-3.618,1.978-7.455,3.332-6.843C156.48,60.8,155.627,61.417,155.6,61.561z"/>
		<g>
			<path fill="#FFFFFF" d="M162.45,62.044c0.259,0.525,1.026,1.539,3.093,1.445c2.109-0.095,3.01-1.202,3.314-1.729
				c1.404,0.574,2.334,1.336,2.334,1.336c-5.602,3.912-11.83,0.294-11.83,0.294S159.841,63.093,162.45,62.044z"/>
			<path fill="#020202" d="M165.543,63.489c-2.064,0.094-2.834-0.92-3.093-1.445c0.381-0.152,0.812-0.323,1.29-0.512
				c1.869-0.731,3.729-0.343,5.117,0.229C168.553,62.287,167.652,63.395,165.543,63.489z"/>
		</g>
		<ellipse fill="#FFFFFF" cx="165.337" cy="61.9" rx="1.253" ry="0.768"/>
		<path fill="#121212" d="M157.252,55.96c0,0,3.034,1.125,5.42,0.636c2.385-0.489,10.905-3.422,14.118,0.929
			s1.604,1.419,1.604,1.419s-0.392-6.943-5.502-7.824C167.783,50.242,156.799,52.539,157.252,55.96z"/>
		<path fill="#191919" d="M163.012,61.131c0,0,2.68-1.336,8.18,1.183c0.826,0.44,1.269,0.537,1.024,0
			c-0.245-0.537-3.653-2.32-6.405-2.052C163.061,60.531,163.012,61.131,163.012,61.131z"/>
	</g>
	<polygon fill="#FFFFFF" points="251.871,161.686 41.215,161.686 15.233,282.939 12.755,329.867 273.822,350.256 	"/>
</g>
<g>
	<g>
		<g>
			<path fill="#DBAAA1" d="M844.971,78.611c-9.153,0-16.573,6.053-16.573,13.52v73.941c0,7.469,7.42,13.52,16.573,13.52h11.283
				V78.611H844.971z"/>
			<path fill="#C1918A" d="M868.174,78.611h-11.92v100.98h11.92c9.152,0,16.574-6.051,16.574-13.521V92.13
				C884.748,84.666,877.326,78.611,868.174,78.611z"/>
		</g>
		<path fill="#C1918A" d="M856.689,148.328l-3.343,213.662l-1.432-238.247l32.928,4.471c0,0,18.607,16.986,32.451,21.903
			c13.84,4.916,42.475,2.234,42.475,56.768c3.816,54.979,11.451,118.451,11.451,118.451s8.113,127.396,0,137.229
			c0.479,17.434-22.43,40.678-22.43,40.678l-1.908-10.279c0,0,17.18-17.881,9.545-42.913c-4.771,25.032-4.771,25.032-4.771,25.032
			l-5.248,2.232l-4.773-37.992c0,0,4.773-12.068,10.5-10.729c2.861-36.207,2.861-36.207,2.861-36.207s-7.633-7.147-15.748-48.272
			c-8.111-41.123-11.451-92.976-11.451-92.976s-7.852-34.418,2.039-46.041c9.891-11.619-12.539,23.243-19.221,73.31
			c10.021,50.063,10.498,54.528,10.498,54.528v19.67l-67.767,4.918"/>
		<path fill="#DBAAA1" d="M855.734,148.328l3.34,213.662l-3.34-238.247l-28.156,4.471c0,0-18.611,16.986-32.451,21.903
			c-13.84,4.916-42.473,2.234-42.473,56.768c-3.816,54.979-11.453,118.451-11.453,118.451s-8.111,127.396,0,137.229
			c-0.479,17.434,22.43,40.678,22.43,40.678l1.908-10.279c0,0-17.18-17.881-9.545-42.913c4.772,25.032,4.772,25.032,4.772,25.032
			l5.248,2.232l4.771-37.992c0,0-4.771-12.068-10.5-10.729c-2.859-36.207-2.859-36.207-2.859-36.207s7.638-7.147,15.75-48.272
			c8.107-41.123,11.451-92.976,11.451-92.976s7.85-34.418-2.041-46.041c-9.893-11.619,12.541,23.243,19.223,73.31
			c-10.021,50.063-10.5,54.528-10.5,54.528v19.67l67.767,4.918"/>
		<circle fill="#AC7A70" cx="815.195" cy="206.845" r="3.579"/>
		<circle fill="#AC7A70" cx="907.752" cy="206.846" r="3.58"/>
		<path fill="#AC7A70" d="M860.984,325.154c0,3.756-1.283,6.799-2.865,6.799c-1.58,0-2.861-3.043-2.861-6.799
			c0-3.758,1.281-6.803,2.861-6.803C859.701,318.354,860.984,321.396,860.984,325.154z"/>
		<g>
			<g>
				<path fill="#C58E83" d="M856.457,23.637c-5.439-0.22-31.557,0.735-34.57,39.033c0,0-0.785,21.659,7.742,35.445
					c8.525,13.788,16.713,18.579,16.713,18.579s2.955,2.561,8.842,2.907c0.064,0.015,0.131,0.023,0.195,0.027
					c0.527,0.019,1.027,0.018,1.521,0.008V23.625C856.742,23.628,856.59,23.632,856.457,23.637z"/>
				<path fill="#D0A094" d="M893.836,62.671c-3.182-37.422-30.215-39.189-36.938-39.046v96.012c0.135-0.004,0.276-0.004,0.409-0.007
					c0.05-0.001,0.093,0.001,0.142-0.001c0.01,0,0.016-0.004,0.021-0.004c6.613-0.266,9.92-2.93,9.92-2.93
					s8.854-4.791,18.074-18.579C894.688,84.329,893.836,62.671,893.836,62.671z"/>
			</g>
			<g>
				<path fill="#FFFFFF" d="M844.26,60.737c-0.26,0.525-1.031,1.539-3.096,1.445c-2.107-0.095-3.008-1.202-3.316-1.729
					c-1.399,0.574-2.33,1.336-2.33,1.336c5.597,3.912,11.83,0.294,11.83,0.294S846.863,61.786,844.26,60.737z"/>
				<path fill="#020202" d="M841.164,62.183c2.063,0.094,2.836-0.92,3.094-1.445c-0.385-0.152-0.813-0.323-1.293-0.512
					c-1.869-0.731-3.729-0.343-5.119,0.229C838.154,60.98,839.055,62.088,841.164,62.183z"/>
			</g>
			<ellipse fill="#FFFFFF" cx="841.369" cy="60.593" rx="1.252" ry="0.768"/>
			<path fill="#121212" d="M849.453,54.653c0,0-3.033,1.125-5.418,0.636c-2.383-0.489-10.904-3.422-14.117,0.929
				c-3.215,4.351-1.605,1.419-1.605,1.419s0.39-6.943,5.503-7.824C838.926,48.936,849.906,51.232,849.453,54.653z"/>
			<path fill="#191919" d="M843.695,59.824c0,0-2.681-1.336-8.181,1.183c-0.827,0.44-1.266,0.537-1.021,0
				c0.242-0.537,3.65-2.32,6.402-2.052C843.646,59.225,843.695,59.824,843.695,59.824z"/>
			<path display="none" fill="#606161" d="M847.65,59.472c0,0,4.262,1.633,3.487,6.915c-0.774,5.28-1.021,6.355-1.021,6.355
				s2.649-4.18,2.352-7.798c-0.301-3.618-2.492-7.457-4.211-6.844C846.535,58.71,847.615,59.328,847.65,59.472z"/>
			<path fill="#97485A" d="M842.949,97.218c0,0,8.809-1.743,12.106-0.698c3.304,1.046,6.91-0.567,9.045,0.182
				c2.136,0.749,5.396,0.901,5.396,0.901s-12.342,6.352-14.592,5.887C852.65,103.026,843.529,98.999,842.949,97.218z"/>
			<path fill="#692137" d="M844.02,95.9c0,0,3.974-1.804,5.681-1.826c1.703-0.021,3.082-0.096,4.188,0.554
				c1.104,0.652,2.664,1.271,2.664,1.271s0.742-0.368,3.99-1.369c2.854-0.881,8.049,3.081,9.186,3.063
				c1.06-0.017-13.176-0.032-13.176-0.032l-12.526-0.229l-1.104-0.293L844.02,95.9z"/>
			<path fill="#A6576C" d="M860.795,99.609c0,0-3.408,1.598-4.771,1.142c-1.363-0.457-4.119-1.563-4.119-1.563
				S859.561,98.241,860.795,99.609z"/>
			<path fill="#D0A094" d="M823.318,64.754c0,0-1.08-9.898-5.537-6.268c-4.457,3.631,0.701,5.765,0.178,8.334
				c-0.523,2.57,2.164,4.605,1.309,10.485c-0.856,5.881-0.53,6.227,1.277,7.562c1.807,1.335,3.367,0.399,3.545,0.141
				C824.27,84.749,823.318,64.754,823.318,64.754z"/>
			<path fill="#D0A094" d="M891.926,65.78c0,0,5.57-9.484,6.229-2.296c0.563,6.11-1.688,10.282-3.113,12.63
				c-1.43,2.346,0.777,8.473-0.584,9.779c-1.359,1.302-1.492,3.063-3.766,2.932C888.42,88.694,891.926,65.78,891.926,65.78z"/>
			<g>
				<g>
					<g>
						
							<linearGradient id="SVGID_3_" gradientUnits="userSpaceOnUse" x1="510.6611" y1="552.8203" x2="496.1136" y2="578.0175" gradientTransform="matrix(1 0 0 1 356.79 -494.8359)">
							<stop  offset="0" style="stop-color:#D0A094;stop-opacity:0"/>
							<stop  offset="1" style="stop-color:#BF9086;stop-opacity:0.7"/>
						</linearGradient>
						<path fill="url(#SVGID_3_)" d="M861.527,54.565c-0.099-0.034-3.439,6.353-2.955,13.197c0.483,6.846,3.438,6.974,3.477,6.941
							c0.029-0.032,7.139,2.509,4.479,6.16c-2.662,3.652-4.156-0.424-6.56,2.901c-2.692,1.825-1.85,1.402-2.856,1.825
							c-1.005,0.425,0-31.025,0-31.025L861.527,54.565z"/>
						<path fill="#020202" d="M863.98,82.646c0,0,0.192,1.009-0.908,1.694c-1.104,0.684-3.277,0.586-3.277,0.586
							s0.422-3.423,4.057-2.281"/>
					</g>
				</g>
			</g>
			<g>
				<g>
					<g>
						
							<linearGradient id="SVGID_4_" gradientUnits="userSpaceOnUse" x1="-2217.5796" y1="552.8193" x2="-2232.1277" y2="578.0174" gradientTransform="matrix(-1 0 0 1 -1371.7578 -494.8359)">
							<stop  offset="0" style="stop-color:#D0A094;stop-opacity:0"/>
							<stop  offset="1" style="stop-color:#BF9086"/>
						</linearGradient>
						<path fill="url(#SVGID_4_)" d="M851.742,54.565c0.102-0.034,3.438,6.353,2.955,13.197c-0.484,6.846-3.438,6.974-3.472,6.941
							c-0.032-0.032-7.143,2.509-4.479,6.16c2.662,3.652,4.154-0.424,6.559,2.901c2.693,1.825,1.851,1.402,2.855,1.825
							c1.006,0.425,0-31.025,0-31.025L851.742,54.565z"/>
						<path fill="#020202" d="M849.293,82.646c0,0-0.195,1.009,0.906,1.694c1.104,0.684,3.279,0.586,3.279,0.586
							s-0.425-3.423-4.06-2.281"/>
					</g>
				</g>
			</g>
			<path fill="#121212" d="M892.441,53.792l-4.795-4.93c0,0-1.195-11.677-13.658-17.126c-12.459-5.448-16.771-9.602-19.646-9.342
				c-2.877,0.259-12.94-0.26-18.692,10.121c-4.074,1.556-6.709,3.891-6.709,3.891v8.304c0,0-6.47,1.9-7.427,21.061
				c-2.877-12.757-2.877-12.757-2.877-12.757s-7.668-31.156,17.972-45.671c8.502-4.696,13.653-5.448,13.653-5.448
				s15.82-3.893,22.291,2.335c6.467,6.226,20.607,5.967,26.359,40.998c-2.156,19.204-5.99,25.95-5.99,25.95L892.441,53.792z"/>
			<path fill="#121212" d="M837.848,28.993l-2.332,6.941c0,0-4.194-0.608-6.575,2.478C826.561,41.502,825.35,33.937,837.848,28.993z
				"/>
			<path fill="#121212" d="M837.848,29.278c0,0,17.158-5.667,18.759-5.661c1.6,0.006-3.369-5.583-13.98-2.455
				C832.01,24.292,837.848,29.278,837.848,29.278z"/>
			<path display="none" fill="#606161" d="M862.816,60.254c0,0-3.367,1.634-2.757,6.915c0.613,5.28,0.806,6.355,0.806,6.355
				s-2.097-4.179-1.857-7.798c0.24-3.618,1.976-7.455,3.332-6.843C863.697,59.493,862.844,60.11,862.816,60.254z"/>
			<g>
				<path fill="#FFFFFF" d="M869.668,60.737c0.258,0.525,1.025,1.539,3.092,1.445c2.109-0.095,3.01-1.202,3.314-1.729
					c1.404,0.574,2.334,1.336,2.334,1.336c-5.601,3.912-11.83,0.294-11.83,0.294S867.059,61.786,869.668,60.737z"/>
				<path fill="#020202" d="M872.76,62.183c-2.063,0.094-2.834-0.92-3.092-1.445c0.381-0.152,0.811-0.323,1.289-0.512
					c1.869-0.731,3.729-0.343,5.117,0.229C875.77,60.98,874.869,62.088,872.76,62.183z"/>
			</g>
			<ellipse fill="#FFFFFF" cx="872.555" cy="60.593" rx="1.252" ry="0.768"/>
			<path fill="#121212" d="M864.469,54.653c0,0,3.035,1.125,5.42,0.636c2.386-0.489,10.906-3.422,14.119,0.929
				c3.213,4.351,1.604,1.419,1.604,1.419s-0.39-6.943-5.502-7.824C875,48.936,864.016,51.232,864.469,54.653z"/>
			<path fill="#191919" d="M870.229,59.824c0,0,2.681-1.336,8.181,1.183c0.826,0.44,1.27,0.537,1.024,0s-3.653-2.32-6.405-2.052
				C870.277,59.225,870.229,59.824,870.229,59.824z"/>
		</g>
	</g>
	<g>
		<polygon fill="#FFFFFF" points="884.875,110.584 884.391,121.549 862.387,131.343 851.584,131.343 828.98,117.764 824.83,136.159 
			749.543,159.896 753.039,288.693 775.523,303.492 776.021,339.083 779.738,352.789 893.477,356.85 935.898,352.281 
			942.893,246.697 942.893,165.986 908.352,136.159 893.477,133.077 		"/>
		<g>
			<path fill="#020202" stroke="#1E1E1E" stroke-miterlimit="10" d="M826.625,115.068l-16.152,22.062l-66.131,23.527L680.49,504.895
				c0,0,35.346,9.905,45.606,13.621c10.265,3.717,11.4-110.205,11.4-110.205l28.506-90.352c0,0,3.422,111.399-2.281,143.597
				c-5.698,32.192-1.143,177.071-1.143,177.071s71.49-97.824,89.334-198.123c-11.805,13.621-11.805,13.621-11.805,13.621
				l-58.146-38.388l1.143-21.052l38.765,21.052l17.104-37.77l-10.264-218.553C828.713,159.42,817.504,159.646,826.625,115.068z"/>
			<polyline fill="#2B2B2B" points="779.818,160.412 812.695,172.199 796.451,154.545 828.537,110.584 838.506,335.561 
				779.738,165.365 			"/>
		</g>
		<g>
			<path fill="#020202" stroke="#1E1E1E" stroke-miterlimit="10" d="M886.092,113.443l16.16,22.062l66.129,23.527l63.85,344.234
				c0,0-35.346,9.905-45.604,13.621c-10.266,3.714-11.402-110.205-11.402-110.205l-28.504-90.352c0,0-3.42,111.397,2.281,143.597
				C954.697,492.121,950.141,637,950.141,637s-71.489-97.824-89.334-198.123c11.804,13.621,11.804,13.621,11.804,13.621
				l58.149-38.388l-1.146-21.052L890.85,414.11l-17.104-37.77l10.266-218.553C884.006,157.795,895.213,158.021,886.092,113.443z"/>
			<polyline fill="#2B2B2B" points="933.596,160.412 900.719,172.199 916.963,154.545 884.875,110.584 874.908,335.561 
				933.678,165.365 			"/>
		</g>
	</g>
	<g>
		<path fill="#050606" d="M886.012,120.708c0,0-8.418-1.484-24.467,8.739c-9.396,0-9.396,0-9.396,0s-22.705-17.793-26.427-8.814
			c-3.719,8.98,0,21.182,0,21.182s-3.521,10.882,25.447-0.825c6.729-2.621,9.59,0.329,9.59,0.329s19.574,11.349,25.252,5.097
			C891.686,140.166,888.359,117.575,886.012,120.708z"/>
		<polygon fill="#B2B3B3" points="850.779,130.932 850.779,135.383 836.881,133.157 		"/>
		<path fill="#B2B3B3" d="M862.582,131.756v3.627h15.797C878.379,135.383,863.619,132.579,862.582,131.756z"/>
		<rect x="850.779" y="135.383" fill="#B2B3B3" width="11.805" height="6.93"/>
	</g>
</g>
<g>
	<g>
		<g>
			<path fill="#DBAAA1" d="M581.35,79.918c-9.155,0-16.573,6.053-16.573,13.52v73.941c0,7.469,7.418,13.52,16.573,13.52h11.281
				V79.918H581.35z"/>
			<path fill="#C1918A" d="M604.551,79.918h-11.92v100.98h11.92c9.152,0,16.576-6.051,16.576-13.521v-73.94
				C621.127,85.972,613.703,79.918,604.551,79.918z"/>
		</g>
		<path fill="#C1918A" d="M593.066,149.635l-3.341,213.662l-1.432-238.247l32.928,4.471c0,0,18.607,16.986,32.449,21.903
			c13.84,4.916,42.475,2.234,42.475,56.768c3.814,54.979,11.451,118.451,11.451,118.451s8.113,127.396,0,137.229
			c0.479,17.434-22.432,40.678-22.432,40.678l-1.906-10.277c0,0,17.18-17.883,9.547-42.912c-4.772,25.029-4.772,25.029-4.772,25.029
			l-5.248,2.232l-4.771-37.992c0,0,4.771-12.066,10.498-10.729c2.861-36.208,2.861-36.208,2.861-36.208s-7.633-7.149-15.746-48.274
			c-8.113-41.123-11.453-92.976-11.453-92.976s-7.852-34.418,2.041-46.041c9.891-11.618-12.541,23.244-19.223,73.31
			c10.021,50.063,10.498,54.531,10.498,54.531v19.668l-67.765,4.918"/>
		<path fill="#DBAAA1" d="M592.113,149.635l3.338,213.662l-3.338-238.247l-28.158,4.471c0,0-18.609,16.986-32.449,21.903
			c-13.84,4.916-42.473,2.234-42.473,56.768c-3.818,54.979-11.455,118.451-11.455,118.451s-8.111,127.396,0,137.229
			c-0.478,17.434,22.432,40.678,22.432,40.678l1.906-10.277c0,0-17.18-17.883-9.543-42.912c4.771,25.029,4.771,25.029,4.771,25.029
			l5.25,2.232l4.771-37.992c0,0-4.771-12.066-10.496-10.729c-2.863-36.208-2.863-36.208-2.863-36.208s7.638-7.149,15.748-48.274
			c8.111-41.123,11.453-92.976,11.453-92.976s7.85-34.418-2.041-46.041c-9.891-11.618,12.539,23.244,19.221,73.31
			c-10.021,50.063-10.5,54.531-10.5,54.531v19.668l67.767,4.918"/>
		<circle fill="#AC7A70" cx="551.572" cy="208.152" r="3.579"/>
		<circle fill="#AC7A70" cx="644.131" cy="208.152" r="3.58"/>
		<path fill="#AC7A70" d="M597.361,326.461c0,3.756-1.283,6.799-2.865,6.799c-1.578,0-2.861-3.043-2.861-6.799
			c0-3.758,1.283-6.801,2.861-6.801C596.078,319.66,597.361,322.703,597.361,326.461z"/>
		<g>
			<g>
				<path fill="#C58E83" d="M592.834,24.944c-5.439-0.22-31.557,0.735-34.568,39.033c0,0-0.784,21.659,7.742,35.445
					c8.525,13.788,16.713,18.579,16.713,18.579s2.953,2.561,8.84,2.907c0.064,0.015,0.134,0.023,0.197,0.027
					c0.525,0.019,1.025,0.018,1.519,0.008V24.931C593.119,24.935,592.969,24.939,592.834,24.944z"/>
				<path fill="#D0A094" d="M630.215,63.978c-3.184-37.422-30.217-39.189-36.938-39.046v96.012c0.137-0.004,0.278-0.004,0.411-0.007
					c0.048-0.001,0.093,0.001,0.142-0.001c0.012,0,0.018-0.004,0.021-0.004c6.613-0.266,9.92-2.93,9.92-2.93
					s8.855-4.791,18.074-18.579C631.064,85.636,630.215,63.978,630.215,63.978z"/>
			</g>
			<g>
				<path fill="#FFFFFF" d="M580.637,62.044c-0.258,0.525-1.03,1.539-3.094,1.445c-2.109-0.095-3.01-1.202-3.316-1.729
					c-1.401,0.574-2.331,1.336-2.331,1.336c5.598,3.912,11.831,0.294,11.831,0.294S583.242,63.093,580.637,62.044z"/>
				<path fill="#020202" d="M577.541,63.489c2.064,0.094,2.836-0.92,3.096-1.445c-0.387-0.152-0.813-0.323-1.295-0.512
					c-1.869-0.731-3.727-0.343-5.117,0.229C574.533,62.287,575.434,63.395,577.541,63.489z"/>
			</g>
			<ellipse fill="#FFFFFF" cx="577.748" cy="61.9" rx="1.252" ry="0.768"/>
			<path fill="#121212" d="M585.832,55.96c0,0-3.033,1.125-5.418,0.636c-2.385-0.489-10.906-3.422-14.117,0.929
				c-3.217,4.351-1.604,1.419-1.604,1.419s0.387-6.943,5.5-7.824C575.303,50.242,586.285,52.539,585.832,55.96z"/>
			<path fill="#191919" d="M580.072,61.131c0,0-2.678-1.336-8.181,1.183c-0.825,0.44-1.266,0.537-1.021,0
				c0.242-0.537,3.65-2.32,6.404-2.052C580.023,60.531,580.072,61.131,580.072,61.131z"/>
			<path display="none" fill="#606161" d="M584.027,60.779c0,0,4.262,1.633,3.487,6.915c-0.772,5.28-1.021,6.355-1.021,6.355
				s2.649-4.18,2.352-7.798c-0.301-3.618-2.49-7.457-4.211-6.844C582.914,60.017,583.992,60.635,584.027,60.779z"/>
			<path fill="#97485A" d="M579.328,98.525c0,0,8.809-1.743,12.106-0.698c3.302,1.046,6.908-0.567,9.044,0.182
				c2.135,0.749,5.396,0.901,5.396,0.901s-12.344,6.352-14.596,5.887C589.029,104.333,579.908,100.305,579.328,98.525z"/>
			<path fill="#692137" d="M580.398,97.207c0,0,3.971-1.804,5.68-1.826c1.701-0.021,3.082-0.096,4.186,0.554
				c1.104,0.652,2.664,1.271,2.664,1.271s0.74-0.368,3.99-1.369c2.854-0.881,8.049,3.081,9.186,3.063
				c1.06-0.017-13.176-0.032-13.176-0.032L580.4,98.639l-1.104-0.293L580.398,97.207z"/>
			<path fill="#A6576C" d="M597.174,100.916c0,0-3.408,1.598-4.771,1.142c-1.365-0.457-4.121-1.563-4.121-1.563
				S595.938,99.548,597.174,100.916z"/>
			<path fill="#D0A094" d="M559.697,66.061c0,0-1.082-9.898-5.537-6.268c-4.459,3.631,0.701,5.765,0.178,8.334
				c-0.525,2.57,2.164,4.605,1.31,10.485c-0.854,5.881-0.531,6.227,1.274,7.562c1.807,1.335,3.367,0.399,3.547,0.141
				C560.646,86.055,559.697,66.061,559.697,66.061z"/>
			<path fill="#D0A094" d="M628.303,67.087c0,0,5.57-9.484,6.229-2.296c0.563,6.11-1.688,10.282-3.111,12.63
				c-1.432,2.346,0.775,8.473-0.584,9.779c-1.361,1.302-1.492,3.063-3.768,2.932C624.797,90.001,628.303,67.087,628.303,67.087z"/>
			<g>
				<g>
					<g>
						
							<linearGradient id="SVGID_5_" gradientUnits="userSpaceOnUse" x1="247.0381" y1="554.1279" x2="232.491" y2="579.3243" gradientTransform="matrix(1 0 0 1 356.79 -494.8359)">
							<stop  offset="0" style="stop-color:#D0A094;stop-opacity:0"/>
							<stop  offset="1" style="stop-color:#BF9086;stop-opacity:0.7"/>
						</linearGradient>
						<path fill="url(#SVGID_5_)" d="M597.904,55.872c-0.099-0.034-3.439,6.353-2.955,13.197c0.483,6.846,3.44,6.974,3.477,6.941
							c0.031-0.032,7.142,2.509,4.479,6.16c-2.662,3.652-4.152-0.424-6.56,2.901c-2.692,1.825-1.848,1.402-2.854,1.825
							c-1.006,0.425,0-31.025,0-31.025L597.904,55.872z"/>
						<path fill="#020202" d="M600.357,83.952c0,0,0.194,1.009-0.908,1.694c-1.104,0.684-3.277,0.586-3.277,0.586
							s0.422-3.423,4.06-2.281"/>
					</g>
				</g>
			</g>
			<g>
				<g>
					<g>
						
							<linearGradient id="SVGID_6_" gradientUnits="userSpaceOnUse" x1="-1953.9575" y1="554.126" x2="-1968.5059" y2="579.3245" gradientTransform="matrix(-1 0 0 1 -1371.7578 -494.8359)">
							<stop  offset="0" style="stop-color:#D0A094;stop-opacity:0"/>
							<stop  offset="1" style="stop-color:#BF9086"/>
						</linearGradient>
						<path fill="url(#SVGID_6_)" d="M588.119,55.872c0.102-0.034,3.44,6.353,2.955,13.197c-0.484,6.846-3.438,6.974-3.469,6.941
							c-0.033-0.032-7.144,2.509-4.48,6.16c2.66,3.652,4.154-0.424,6.557,2.901c2.693,1.825,1.851,1.402,2.855,1.825
							c1.008,0.425,0-31.025,0-31.025L588.119,55.872z"/>
						<path fill="#020202" d="M585.67,83.952c0,0-0.193,1.009,0.908,1.694c1.104,0.684,3.277,0.586,3.277,0.586
							s-0.423-3.423-4.06-2.281"/>
					</g>
				</g>
			</g>
			<path fill="#121212" d="M628.818,55.099l-4.795-4.93c0,0-1.195-11.677-13.658-17.126c-12.459-5.448-16.771-9.602-19.646-9.342
				c-2.877,0.259-12.938-0.26-18.69,10.121c-4.074,1.556-6.709,3.891-6.709,3.891v8.304c0,0-6.47,1.9-7.429,21.061
				c-2.877-12.757-2.877-12.757-2.877-12.757s-7.666-31.156,17.974-45.671c8.502-4.696,13.651-5.448,13.651-5.448
				s15.822-3.893,22.291,2.335c6.47,6.226,20.607,5.967,26.361,40.998c-2.156,19.204-5.992,25.95-5.992,25.95L628.818,55.099z"/>
			<path fill="#121212" d="M574.225,30.3l-2.33,6.941c0,0-4.194-0.608-6.577,2.478C562.938,42.809,561.729,35.243,574.225,30.3z"/>
			<path fill="#121212" d="M574.225,30.585c0,0,17.16-5.667,18.761-5.661c1.6,0.006-3.371-5.583-13.98-2.455
				C568.389,25.599,574.225,30.585,574.225,30.585z"/>
			<path display="none" fill="#606161" d="M599.193,61.561c0,0-3.367,1.634-2.756,6.915c0.612,5.28,0.805,6.355,0.805,6.355
				s-2.096-4.179-1.855-7.798c0.24-3.618,1.976-7.455,3.332-6.843C600.074,60.8,599.223,61.417,599.193,61.561z"/>
			<g>
				<path fill="#FFFFFF" d="M606.045,62.044c0.26,0.525,1.025,1.539,3.094,1.445c2.107-0.095,3.011-1.202,3.313-1.729
					c1.403,0.574,2.334,1.336,2.334,1.336c-5.599,3.912-11.83,0.294-11.83,0.294S603.436,63.093,606.045,62.044z"/>
				<path fill="#020202" d="M609.139,63.489c-2.063,0.094-2.834-0.92-3.094-1.445c0.381-0.152,0.813-0.323,1.291-0.512
					c1.867-0.731,3.729-0.343,5.115,0.229C612.146,62.287,611.246,63.395,609.139,63.489z"/>
			</g>
			<ellipse fill="#FFFFFF" cx="608.932" cy="61.9" rx="1.254" ry="0.768"/>
			<path fill="#121212" d="M600.848,55.96c0,0,3.033,1.125,5.42,0.636c2.386-0.489,10.904-3.422,14.117,0.929
				s1.604,1.419,1.604,1.419s-0.39-6.943-5.502-7.824C611.379,50.242,600.395,52.539,600.848,55.96z"/>
			<path fill="#191919" d="M606.605,61.131c0,0,2.68-1.336,8.18,1.183c0.826,0.44,1.268,0.537,1.024,0
				c-0.245-0.537-3.653-2.32-6.405-2.052C606.654,60.531,606.605,61.131,606.605,61.131z"/>
		</g>
	</g>
	<g>
		<g>
			<path fill="#FFFFFF" d="M498.656,164.164c0,0-19.508,12.828-20.767,37.264c-0.411,8.008-0.555,21.463-0.563,35.938
				c0,0.104,0,0.205,0,0.311c-0.006,29.605,0.563,63.327,0.563,63.327h44.683l-0.15-148.722L498.656,164.164z"/>
			<path fill="#ED3450" d="M638.049,139.746c-4.815,19.804-23.131,34.548-45.006,34.548c-0.186,0-0.371-0.012-0.559-0.015V301h0.559
				h69.916l0.146-148.723L638.049,139.746z"/>
			<path fill="#FFFFFF" d="M707.641,201.428c-1.26-24.436-20.768-37.264-20.768-37.264l-23.768-11.887L662.959,301h44.682
				c0,0,0.564-33.723,0.56-63.327c0-0.104,0-0.207,0-0.312C708.193,222.891,708.053,209.436,707.641,201.428z"/>
			<g>
				<path fill="#ED3450" d="M547.979,139.496l-25.557,12.781L522.572,301h69.912V174.279
					C570.77,174.029,552.664,159.255,547.979,139.496z"/>
				<g>
					<path fill="#3A457A" d="M627.186,139.456c-4.44,14.219-18.043,24.569-34.143,24.569c-0.186,0-0.371-0.01-0.559-0.016
						c-15.853-0.234-29.193-10.503-33.584-24.557c-0.453-1.45-0.808-2.942-1.062-4.466l-9.861,4.506
						c4.687,19.759,22.791,34.53,44.507,34.782c0.188,0.002,0.373,0.016,0.559,0.016c21.875,0,40.189-14.744,45.006-34.548
						l-9.961-3.837C627.846,137.114,627.549,138.298,627.186,139.456z"/>
				</g>
			</g>
		</g>
		<rect x="477.609" y="275.729" fill="#ED3450" width="44.963" height="11.545"/>
		<rect x="477.609" y="292.16" fill="#374976" width="44.963" height="8.551"/>
		<line fill="none" stroke="#FFFFFF" stroke-width="4" stroke-miterlimit="10" x1="535.24" y1="188.77" x2="541.514" y2="194.014"/>
		
			<line fill="none" stroke="#FFFFFF" stroke-width="4" stroke-miterlimit="10" x1="540.256" y1="195.848" x2="558.547" y2="182.887"/>
		<rect x="662.627" y="275.729" fill="#ED3450" width="44.961" height="11.545"/>
		<rect x="662.627" y="292.16" fill="#374976" width="44.961" height="8.551"/>
	</g>
	<g>
		<path fill="#D82A52" stroke="#E2B069" stroke-width="2" stroke-miterlimit="10" d="M637.689,181.365h-0.166h-0.166H626.67v12.769
			c0,0,2.328,7.942,10.688,10.899c0,0.041,0,0.08,0,0.119c0.055-0.021,0.108-0.039,0.166-0.062c0.057,0.021,0.108,0.041,0.166,0.062
			c0-0.039,0-0.078,0-0.119c8.356-2.957,10.688-10.899,10.688-10.899v-12.769H637.689z"/>
		
			<line fill="none" stroke="#FFF9FB" stroke-width="2" stroke-miterlimit="10" x1="637.189" y1="193.855" x2="637.189" y2="197.797"/>
		
			<line fill="none" stroke="#FFF9FB" stroke-width="2" stroke-miterlimit="10" x1="637.523" y1="197.132" x2="634.941" y2="198.354"/>
		
			<line fill="none" stroke="#FFF9FB" stroke-width="3" stroke-miterlimit="10" x1="629.279" y1="188.805" x2="646.711" y2="188.805"/>
		<circle fill="#ED3350" stroke="#FFFFFF" stroke-miterlimit="10" cx="637.189" cy="190.581" r="4.608"/>
		<circle fill="#ED3350" stroke="#FFFFFF" stroke-width="2" stroke-miterlimit="10" cx="637.189" cy="190.581" r="0.944"/>
	</g>
</g>
<g>
	<path d="M308.852,300.246c-8.238-10.286-15.021-25.469-15.021-25.469s-9.207-29.879-7.755-38.204
		c1.453-8.326-2.906-17.144-2.906-17.144s9.206-50.938-38.279-70.041c-17.445-3.429-17.445-3.429-17.445-3.429
		s-20.836-1.469-31.979-6.367c-11.145-4.896-11.145-4.896-11.145-4.896l-5.815-21.063c0,0-0.057,0.694-0.282,1.799
		c-0.729,3.534-3.225,11.262-11.348,13.875c-10.661,3.429-13.675,5.225-16.959,23.507c-0.358,1.994-0.646,6.738-0.875,13.566
		c-0.221-6.826-0.5-11.572-0.848-13.566c-3.068-17.628-6.3-20.078-16.959-23.507c-8.122-2.612-10.619-10.34-11.348-13.875
		c-0.227-1.105-0.281-1.799-0.281-1.799l-5.814,21.063c0,0,0,0-11.146,4.896c-11.146,4.898-31.981,6.367-31.981,6.367
		s0,0-17.444,3.429c-47.49,19.103-38.283,70.039-38.283,70.039s-4.36,8.817-2.906,17.146c1.453,8.322-7.754,38.201-7.754,38.201
		s-6.783,15.186-15.021,25.472C-18.98,310.531-6.09,407.51-6.09,407.51l3.101,19.592c0,0-4.846,22.529-2.423,29.39
		c2.423,6.854,23.259,23.02,27.136,21.06c3.876-1.958,3.284-3.917,3.284-3.917s14.645,2.938,17.552-1.959
		c2.908-4.896-11.145-9.306-15.506-13.714c-4.361-4.408-0.969-18.121,2.907-15.185c3.877,2.938,16.476,28.896,16.476,28.896
		s0,0,8.237-5.387c2.907-14.694-20.043-49.959-20.043-49.959v-7.347l2.599-16.653l-2.599-7.35c0,0,3.568-11.265,0.66-14.201
		c-2.908-2.938,4.733-11.754,4.733-11.754s1.566-14.693,0.423-17.146c-1.142-2.448,0.174-7.348,2.112-10.285
		c1.939-2.938,0.485-14.692-1.938-18.122c-2.422-3.43,21.321-57.796,21.321-57.796s8.723-26.938,9.207,9.796
		c-4.361,71.512-4.846,93.551-9.207,110.692c4.361,16.651,87.114,21.874,87.114,21.874s82.75-5.223,87.113-21.874
		c-4.36-17.144-4.847-39.187-9.206-110.692c0.482-36.731,9.206-9.796,9.206-9.796s23.742,54.366,21.319,57.796
		c-2.422,3.43-3.877,15.187-1.938,18.122c1.938,2.938,3.256,7.837,2.112,10.285c-1.144,2.449,0.425,17.144,0.425,17.144
		s7.641,8.814,4.73,11.756c-2.907,2.938,0.66,14.201,0.66,14.201l-2.6,7.35l2.6,16.653v7.347c0,0-22.951,35.265-20.043,49.959
		c8.237,5.387,8.237,5.387,8.237,5.387s12.601-25.959,16.476-28.896c3.877-2.938,7.271,10.773,2.908,15.185
		c-4.363,4.409-18.414,8.816-15.509,13.714c2.909,4.897,17.554,1.959,17.554,1.959s-0.593,1.959,3.283,3.917
		c3.879,1.96,24.713-14.202,27.139-21.06c2.422-6.857-2.426-29.39-2.426-29.39l3.104-19.592
		C304.199,407.509,317.088,310.529,308.852,300.246z"/>
	<path fill="#1D1D1D" d="M19.606,232.305c0,0-0.682,11.453,3.679,13.901c4.362,2.448-2.907,27.919-7.752,26.94
		c-4.846-0.98-9.691,0.022-9.691,0.022s5.095-29.487,5.144-35.778C11.035,231.1,19.606,232.305,19.606,232.305z"/>
	<path fill="#121112" d="M62.051,180.575c0,0-6.3,40.651-35.373,48.979c-11.867,3.734-13.922,7.836-13.922,7.836
		s-3.983-7.143,0-14.692c3.983-7.554,20.68-31.31,36.211-45.063C57.118,171.831,62.051,180.575,62.051,180.575z"/>
	<path fill="#1D1D1D" d="M64.958,145.311c0,0,17.928,4.898,14.053,8.325c-3.877,3.431-18.899,23.021-21.806,23.021
		c-2.908,0-9.207-2.938-20.352,17.634c-11.146,20.57-22.291,21.55-23.26,21.55C12.626,215.84,4.873,164.902,64.958,145.311z"/>
	<path fill="#121112" d="M144.659,174.98c0,0-16.476-10.744-27.62-12.213c-11.146-1.472-33.791,0.486-36.278,3.428
		c-2.487,2.938-20.416,45.061-20.416,45.061s10.79,21.551,20.416,22.531c9.627,0.979,44.031,8.326,58.083-18.612
		c14.051-26.938,5.815-38.202,5.815-38.202"/>
	<path fill="#1D1D1D" d="M41.215,322.613c0,0-10.065-15.674-30.229-18.123c-20.166-2.447-15.805-9.305-15.805-9.305
		s-2.423-16.164-8.722-12.246s-2.423,24-2.423,24l-1.18,28.406c0,0-5.604,6.365-13.357-4.406c-3.392-4.897-1.939,17.144,0,17.632
		c1.938,0.487,15.506,3.919,15.506,9.306c0,5.389-0.969,8.327-6.784,6.368s-5.33-8.327-5.33-8.327s-1.454,16.654,0.969,17.146
		c2.423,0.488,9.207,6.363,12.114,6.854c2.907,0.488,1.938,11.265,1.938,11.265s-4.846,1.959-7.753,0
		c-2.907-1.959-3.876-5.877-3.876-5.877s0,12.734,2.907,14.202c2.907,1.474,10.176,3.919,10.176,3.919l6.3,14.693
		c0,0,25.979-16.163,40.852-9.305"/>
	<path fill="#1D1D1D" d="M138.844,215.175c0.38-0.304-59.705-28.722-67.942-21.375c-8.238,7.347-8.723,18.611-3.393,22.04
		c5.33,3.43,19.868,18.612,21.806,18.612S106.379,241.134,138.844,215.175z"/>
	<path fill="#121112" d="M146.955,232.211c0,0-40.503,29.387-51.164,29.878c-10.661,0.489-25.197-21.806-25.197-7.229
		c0,14.578,0,37.598,0,37.598v30.367c0,0-2.423,39.673-6.299,46.527c-3.877,6.856-13.083,13.717,5.33,18.613
		s77.33,9.794,77.33,9.794"/>
	<g>
		<path fill="#8D8D8D" d="M77.558,237.391c0,0,0.9,0.394,2.495,0.938c1.594,0.543,3.887,1.229,6.659,1.813
			c1.383,0.305,2.899,0.521,4.49,0.745c1.596,0.201,3.281,0.347,5.022,0.417c1.742,0.055,3.54,0.063,5.36-0.056
			c1.821-0.087,3.662-0.312,5.494-0.58c0.915-0.144,1.825-0.317,2.734-0.479c0.897-0.226,1.805-0.392,2.691-0.617
			c0.879-0.254,1.766-0.459,2.627-0.719c0.859-0.271,1.708-0.539,2.544-0.805c0.829-0.294,1.644-0.582,2.441-0.861
			c0.789-0.314,1.563-0.623,2.313-0.922c0.763-0.281,1.465-0.646,2.175-0.937c0.708-0.296,1.393-0.587,2.028-0.91
			c1.282-0.627,2.484-1.172,3.513-1.728c1.035-0.545,1.971-0.979,2.702-1.401c1.487-0.812,2.374-1.241,2.374-1.241
			s-0.671,0.706-1.912,1.891c-0.611,0.604-1.396,1.283-2.325,2.035c-0.465,0.373-0.943,0.801-1.482,1.198
			c-0.546,0.394-1.12,0.806-1.719,1.231c-1.197,0.865-2.564,1.709-4.035,2.563c-0.75,0.403-1.521,0.817-2.31,1.241
			c-0.814,0.375-1.646,0.759-2.493,1.148c-1.719,0.727-3.534,1.398-5.424,1.953c-0.945,0.273-1.912,0.512-2.88,0.75
			c-0.98,0.188-1.962,0.396-2.952,0.558c-1.988,0.272-3.988,0.498-5.966,0.501c-1.976,0.055-3.922-0.077-5.786-0.291
			c-3.731-0.457-7.127-1.379-9.887-2.501c-1.39-0.531-2.619-1.124-3.68-1.695c-1.07-0.55-1.954-1.121-2.67-1.596
			c-0.722-0.468-1.246-0.901-1.608-1.183C77.734,237.563,77.558,237.391,77.558,237.391z"/>
	</g>
	<g>
		<path fill="#8D8D8D" d="M134.023,236.41c0,0-2.176,1.499-5.56,3.518c-1.685,1.021-3.671,2.174-5.818,3.368
			c-1.078,0.59-2.178,1.226-3.321,1.823c-1.138,0.607-2.293,1.225-3.449,1.842c-1.164,0.602-2.328,1.201-3.474,1.792
			c-1.141,0.601-2.292,1.14-3.39,1.688c-2.201,1.09-4.3,2.039-6.058,2.89c-3.536,1.685-6.014,2.671-6.014,2.671
			s2.109-1.551,5.455-3.674c1.663-1.092,3.651-2.229,5.792-3.441c1.076-0.596,2.172-1.24,3.314-1.842
			c1.137-0.611,2.292-1.232,3.448-1.854c1.167-0.6,2.335-1.194,3.484-1.782c1.147-0.591,2.3-1.127,3.403-1.671
			c2.214-1.07,4.299-2.033,6.104-2.825C131.541,237.314,134.023,236.41,134.023,236.41z"/>
	</g>
	<g>
		<path fill="#989898" d="M121.652,252.691c0,0-1.462,1.545-3.816,3.654c-1.171,1.062-2.563,2.266-4.082,3.521
			c-0.765,0.618-1.538,1.282-2.354,1.918c-0.813,0.639-1.639,1.288-2.464,1.938c-0.84,0.631-1.68,1.262-2.506,1.883
			c-0.82,0.629-1.663,1.203-2.459,1.783c-1.604,1.146-3.127,2.178-4.455,3.035c-2.644,1.729-4.514,2.744-4.514,2.744
			s1.46-1.547,3.814-3.654c1.17-1.063,2.563-2.269,4.082-3.521c0.765-0.62,1.536-1.287,2.355-1.918
			c0.813-0.641,1.639-1.287,2.465-1.938c0.84-0.631,1.68-1.262,2.507-1.882c0.822-0.627,1.663-1.203,2.46-1.781
			c1.605-1.145,3.127-2.18,4.455-3.035C119.783,253.707,121.652,252.691,121.652,252.691z"/>
	</g>
	<g>
		<path fill="#989898" d="M118.261,271.188c0,0-1.252,1.367-3.289,3.209c-1.012,0.933-2.22,1.979-3.54,3.068
			c-0.666,0.537-1.336,1.116-2.049,1.661c-0.708,0.552-1.428,1.112-2.148,1.673c-0.734,0.541-1.467,1.083-2.19,1.617
			c-0.715,0.542-1.455,1.027-2.152,1.523c-1.405,0.979-2.742,1.854-3.91,2.58c-2.324,1.463-3.981,2.297-3.981,2.297
			s1.25-1.369,3.288-3.211c1.012-0.933,2.219-1.979,3.54-3.068c0.666-0.537,1.334-1.117,2.049-1.66
			c0.709-0.552,1.429-1.111,2.149-1.672c0.734-0.541,1.468-1.083,2.19-1.616c0.718-0.539,1.456-1.028,2.153-1.522
			c1.406-0.978,2.743-1.854,3.911-2.58C116.605,272.021,118.261,271.188,118.261,271.188z"/>
	</g>
	<g>
		<path fill="#888888" d="M131.828,302.532c0,0-2.173,1.825-5.533,4.396c-1.674,1.295-3.644,2.777-5.764,4.352
			c-2.123,1.563-4.387,3.229-6.652,4.898c-2.266,1.659-4.531,3.318-6.655,4.875c-2.111,1.569-4.067,3.047-5.706,4.357
			c-1.629,1.316-2.947,2.468-3.736,3.388c-0.39,0.461-0.66,0.856-0.765,1.162c-0.108,0.306-0.068,0.49-0.078,0.489
			c0.012,0.001-0.071-0.172-0.027-0.518c0.046-0.34,0.221-0.82,0.546-1.363c0.639-1.098,1.788-2.489,3.289-4.012
			c1.495-1.527,3.344-3.193,5.389-4.893c1.029-0.84,2.081-1.723,3.193-2.563c1.112-0.838,2.241-1.688,3.37-2.543
			c1.153-0.814,2.306-1.636,3.44-2.438c1.134-0.805,2.284-1.548,3.384-2.286c2.21-1.46,4.306-2.771,6.129-3.854
			C129.286,303.799,131.828,302.532,131.828,302.532z"/>
	</g>
	<path fill="#121112" d="M152.391,174.98c0,0,16.478-10.744,27.618-12.213c11.146-1.472,33.791,0.486,36.279,3.428
		c2.485,2.938,20.416,45.061,20.416,45.061s-10.789,21.551-20.416,22.531c-9.628,0.979-44.031,8.326-58.084-18.612
		c-14.053-26.938-5.813-38.202-5.813-38.202"/>
	<path fill="#1D1D1D" d="M158.204,215.175c-0.379-0.304,59.705-28.722,67.942-21.375c8.235,7.347,8.235,16.163,2.908,19.591
		c-5.33,3.43-19.385,21.063-21.322,21.063C205.796,234.452,190.669,241.134,158.204,215.175z"/>
	<path fill="#121112" d="M150.909,232.211c0,0,41.37,29.387,52.03,29.878c10.662,0.489,25.197-21.806,25.197-7.229
		c0,14.578,0,37.598,0,37.598v30.367c0,0,2.422,39.673,6.301,46.527c3.875,6.856,13.082,13.717-5.33,18.613
		c-18.414,4.896-76.215,9.794-76.215,9.794"/>
	<g>
		<path fill="#8D8D8D" d="M221.173,237.391c0,0-0.176,0.172-0.532,0.461c-0.363,0.28-0.888,0.715-1.607,1.185
			c-0.719,0.476-1.602,1.046-2.672,1.596c-1.061,0.571-2.288,1.164-3.68,1.695c-2.76,1.122-6.154,2.044-9.887,2.501
			c-1.863,0.214-3.811,0.346-5.785,0.291c-1.98-0.003-3.98-0.229-5.967-0.501c-0.99-0.159-1.973-0.367-2.952-0.56
			c-0.969-0.238-1.937-0.475-2.881-0.748c-1.892-0.555-3.705-1.229-5.424-1.955c-0.847-0.391-1.679-0.771-2.493-1.146
			c-0.788-0.424-1.561-0.838-2.311-1.241c-1.471-0.854-2.838-1.694-4.033-2.563c-0.6-0.43-1.174-0.842-1.719-1.231
			c-0.539-0.399-1.021-0.825-1.482-1.198c-0.93-0.752-1.714-1.433-2.325-2.035c-1.239-1.185-1.911-1.891-1.911-1.891
			s0.889,0.434,2.375,1.241c0.73,0.423,1.666,0.858,2.7,1.401c1.029,0.556,2.231,1.101,3.513,1.728
			c0.637,0.323,1.32,0.613,2.029,0.91c0.71,0.29,1.412,0.651,2.176,0.937c0.752,0.299,1.522,0.604,2.313,0.92
			c0.798,0.281,1.612,0.569,2.44,0.863c0.836,0.266,1.686,0.531,2.543,0.805c0.86,0.26,1.748,0.465,2.629,0.719
			c0.887,0.229,1.793,0.395,2.688,0.615c0.909,0.164,1.819,0.342,2.733,0.481c1.832,0.271,3.674,0.493,5.494,0.58
			c1.82,0.117,3.617,0.106,5.358,0.058c1.74-0.074,3.427-0.218,5.021-0.418c1.592-0.225,3.105-0.443,4.488-0.746
			c2.771-0.584,5.064-1.27,6.66-1.813C220.273,237.781,221.173,237.391,221.173,237.391z"/>
	</g>
	<g>
		<path fill="#8D8D8D" d="M164.707,236.41c0,0,2.482,0.904,6.084,2.501c1.805,0.793,3.891,1.756,6.104,2.825
			c1.104,0.545,2.256,1.08,3.403,1.672c1.149,0.588,2.315,1.186,3.483,1.781c1.156,0.621,2.311,1.242,3.447,1.854
			c1.143,0.604,2.236,1.247,3.313,1.844c2.143,1.215,4.13,2.35,5.792,3.44c3.349,2.123,5.455,3.674,5.455,3.674
			s-2.479-0.985-6.017-2.671c-1.758-0.852-3.854-1.801-6.057-2.891c-1.1-0.549-2.25-1.088-3.392-1.688
			c-1.146-0.591-2.31-1.188-3.476-1.792c-1.154-0.617-2.313-1.232-3.447-1.842c-1.145-0.602-2.243-1.232-3.321-1.823
			c-2.147-1.192-4.134-2.349-5.817-3.369C166.884,237.909,164.707,236.41,164.707,236.41z"/>
	</g>
	<g>
		<path fill="#989898" d="M177.077,252.691c0,0,1.868,1.016,4.513,2.748c1.328,0.854,2.852,1.893,4.455,3.035
			c0.797,0.58,1.639,1.153,2.461,1.779c0.826,0.621,1.666,1.252,2.508,1.885c0.824,0.647,1.65,1.299,2.465,1.938
			c0.818,0.631,1.59,1.298,2.354,1.918c1.521,1.255,2.911,2.46,4.082,3.521c2.354,2.106,3.813,3.653,3.813,3.653
			s-1.871-1.015-4.517-2.743c-1.326-0.857-2.853-1.895-4.455-3.035c-0.796-0.58-1.639-1.154-2.459-1.783
			c-0.825-0.621-1.667-1.252-2.507-1.883c-0.825-0.649-1.648-1.302-2.464-1.938c-0.816-0.634-1.593-1.298-2.354-1.918
			c-1.52-1.257-2.91-2.462-4.082-3.522C178.539,254.236,177.077,252.691,177.077,252.691z"/>
	</g>
	<g>
		<path fill="#989898" d="M180.471,271.188c0,0,1.654,0.834,3.979,2.299c1.168,0.727,2.505,1.604,3.909,2.58
			c0.697,0.494,1.437,0.983,2.151,1.522c0.724,0.533,1.457,1.075,2.19,1.616c0.721,0.561,1.439,1.12,2.148,1.672
			c0.715,0.543,1.383,1.123,2.049,1.66c1.32,1.089,2.527,2.139,3.541,3.068c2.035,1.842,3.287,3.211,3.287,3.211
			s-1.658-0.834-3.98-2.297c-1.168-0.726-2.505-1.604-3.91-2.58c-0.695-0.496-1.438-0.981-2.15-1.523
			c-0.725-0.534-1.457-1.076-2.188-1.617c-0.722-0.561-1.438-1.121-2.147-1.673c-0.713-0.545-1.384-1.124-2.05-1.661
			c-1.319-1.09-2.526-2.139-3.538-3.068C181.723,272.555,180.471,271.188,180.471,271.188z"/>
	</g>
	<g>
		<path fill="#888888" d="M166.902,302.532c0,0,2.543,1.267,6.177,3.45c1.821,1.084,3.919,2.396,6.129,3.854
			c1.099,0.738,2.249,1.48,3.384,2.286s2.287,1.623,3.439,2.44c1.13,0.852,2.259,1.701,3.369,2.541
			c1.113,0.84,2.164,1.723,3.191,2.563c2.047,1.696,3.896,3.363,5.391,4.893c1.502,1.521,2.647,2.914,3.289,4.012
			c0.326,0.543,0.5,1.023,0.547,1.363c0.043,0.347-0.039,0.519-0.027,0.518c-0.01,0.001,0.029-0.188-0.078-0.489
			c-0.105-0.306-0.375-0.7-0.766-1.162c-0.789-0.92-2.105-2.067-3.735-3.388c-1.638-1.313-3.595-2.788-5.705-4.357
			c-2.124-1.557-4.39-3.216-6.655-4.875c-2.264-1.668-4.525-3.336-6.648-4.898c-2.12-1.571-4.092-3.057-5.766-4.35
			C169.077,304.357,166.902,302.532,166.902,302.532z"/>
	</g>
	<path fill="#1D1D1D" d="M278.842,232.305c0,0,0.684,11.453-3.68,13.901c-4.361,2.448,2.908,27.919,7.753,26.94
		c4.847-0.98,9.69,0.022,9.69,0.022s-5.094-29.487-5.146-35.778C287.414,231.1,278.842,232.305,278.842,232.305z"/>
	<path fill="#121112" d="M236.396,180.575c0,0,6.301,40.651,35.373,48.979c11.866,3.734,13.922,7.836,13.922,7.836
		s3.98-7.143,0-14.692c-3.981-7.554-20.681-31.31-36.211-45.063C241.331,171.831,236.396,180.575,236.396,180.575z"/>
	<path fill="#1D1D1D" d="M233.07,145.923c0,0-17.93,4.897-14.053,8.325c3.877,3.43,18.896,23.021,21.805,23.021
		c2.91,0,9.209-2.939,20.354,17.631c11.145,20.572,22.288,21.551,23.258,21.551C285.404,216.451,293.156,165.516,233.07,145.923z"/>
	<path fill="#1D1D1D" d="M256.813,323.225c0,0,10.065-15.673,30.23-18.121c20.163-2.449,15.805-9.306,15.805-9.306
		s2.422-16.164,8.724-12.246c6.3,3.919,2.422,24,2.422,24l1.181,28.408c0,0,5.604,6.368,13.356-4.409
		c3.394-4.896,1.938,17.146,0,17.635c-1.938,0.489-15.506,3.918-15.506,9.309c0,5.387,0.969,8.324,6.782,6.365
		c5.814-1.959,5.33-8.324,5.33-8.324s1.453,16.648-0.97,17.142c-2.422,0.49-9.206,6.366-12.114,6.856
		c-2.906,0.488-1.938,11.264-1.938,11.264s4.846,1.96,7.752,0c2.906-1.956,3.878-5.875,3.878-5.875s0,12.734-2.909,14.204
		c-2.906,1.469-10.175,3.917-10.175,3.917l-6.3,14.693c0,0-25.979-16.163-40.854-9.309"/>
</g>
<path fill="#8D191C" d="M163.111,186.152c-2.885,2.043-10.455,12.138-12.256-2.521c-0.964,4.083-0.964,4.083-0.964,4.083
	l-1.681-0.179l-1.681,0.179c0,0,0,0-0.962-4.083c-1.803,14.659-9.374,4.564-12.257,2.521c-2.884-2.041-34.125-2.521-34.125-2.521
	s10.333,8.151,11.295,15.962c33.886-0.479,37.73,12.978,37.73,12.978s3.845-13.453,37.729-12.978
	c0.963-7.811,11.297-15.962,11.297-15.962S165.994,184.111,163.111,186.152z"/>
<g>
	<g>
		<g>
			<path fill="#DBAAA1" d="M505.363,79.336c-9.154,0-16.574,6.053-16.574,13.52v73.941c0,7.469,7.42,13.52,16.574,13.52h11.28
				V79.336H505.363z"/>
			<path fill="#C1918A" d="M528.564,79.336h-11.92v100.98h11.92c9.153,0,16.575-6.051,16.575-13.521v-73.94
				C545.141,85.39,537.719,79.336,528.564,79.336z"/>
		</g>
		<path fill="#C1918A" d="M517.082,149.053l-3.342,213.662l-1.433-238.247l32.929,4.471c0,0,18.61,16.986,32.45,21.903
			c13.841,4.916,42.476,2.234,42.476,56.768c3.815,54.979,11.451,118.451,11.451,118.451s8.112,127.396,0,137.229
			c0.479,17.434-22.431,40.678-22.431,40.678l-1.907-10.276c0,0,17.18-17.884,9.545-42.913c-4.771,25.029-4.771,25.029-4.771,25.029
			l-5.248,2.232l-4.772-37.992c0,0,4.772-12.065,10.5-10.729c2.86-36.208,2.86-36.208,2.86-36.208s-7.633-7.149-15.748-48.274
			c-8.11-41.123-11.451-92.976-11.451-92.976s-7.852-34.418,2.039-46.039c9.892-11.62-12.539,23.242-19.221,73.308
			c10.021,50.063,10.498,54.531,10.498,54.531v19.668l-67.766,4.918"/>
		<path fill="#DBAAA1" d="M516.127,149.053l3.34,213.662l-3.34-238.247l-28.156,4.471c0,0-18.61,16.986-32.451,21.903
			c-13.84,4.916-42.473,2.234-42.473,56.768c-3.815,54.979-11.453,118.451-11.453,118.451s-8.11,127.396,0,137.229
			c-0.479,17.434,22.431,40.678,22.431,40.678l1.907-10.276c0,0-17.18-17.884-9.545-42.913c4.773,25.029,4.773,25.029,4.773,25.029
			l5.248,2.232l4.772-37.992c0,0-4.772-12.065-10.5-10.729c-2.862-36.208-2.862-36.208-2.862-36.208s7.637-7.149,15.75-48.274
			c8.11-41.123,11.45-92.976,11.45-92.976s7.851-34.418-2.041-46.039c-9.889-11.62,12.541,23.242,19.224,73.308
			c-10.021,50.063-10.5,54.531-10.5,54.531v19.668l67.766,4.918"/>
		<circle fill="#AC7A70" cx="475.588" cy="207.57" r="3.579"/>
		<circle fill="#AC7A70" cx="568.145" cy="207.57" r="3.58"/>
		<path fill="#AC7A70" d="M521.377,325.879c0,3.756-1.283,6.799-2.865,6.799c-1.58,0-2.86-3.043-2.86-6.799
			c0-3.758,1.28-6.801,2.86-6.801C520.094,319.078,521.377,322.121,521.377,325.879z"/>
		<g>
			<g>
				<path fill="#C58E83" d="M516.85,24.362c-5.438-0.22-31.557,0.735-34.569,39.033c0,0-0.785,21.659,7.741,35.445
					c8.525,13.788,16.714,18.579,16.714,18.579s2.955,2.561,8.842,2.907c0.063,0.015,0.135,0.023,0.194,0.027
					c0.527,0.019,1.027,0.018,1.521,0.008V24.349C517.135,24.353,516.982,24.357,516.85,24.362z"/>
				<path fill="#D0A094" d="M554.229,63.396c-3.182-37.422-30.215-39.189-36.938-39.046v96.012c0.135-0.004,0.277-0.004,0.41-0.007
					c0.049-0.001,0.092,0.001,0.141-0.001c0.01,0,0.017-0.004,0.021-0.004c6.612-0.266,9.92-2.93,9.92-2.93
					s8.854-4.791,18.074-18.579C555.08,85.054,554.229,63.396,554.229,63.396z"/>
			</g>
			<g>
				<path fill="#FFFFFF" d="M504.65,61.462c-0.259,0.525-1.029,1.539-3.095,1.445c-2.108-0.095-3.008-1.202-3.315-1.729
					c-1.4,0.574-2.332,1.336-2.332,1.336c5.598,3.912,11.832,0.294,11.832,0.294S507.256,62.511,504.65,61.462z"/>
				<path fill="#020202" d="M501.557,62.907c2.063,0.094,2.836-0.92,3.095-1.445c-0.386-0.152-0.813-0.323-1.293-0.512
					c-1.869-0.731-3.729-0.343-5.119,0.229C498.547,61.705,499.447,62.813,501.557,62.907z"/>
			</g>
			<ellipse fill="#FFFFFF" cx="501.762" cy="61.318" rx="1.252" ry="0.768"/>
			<path fill="#121212" d="M509.846,55.378c0,0-3.032,1.125-5.418,0.636c-2.383-0.489-10.903-3.422-14.117,0.929
				c-3.215,4.351-1.604,1.419-1.604,1.419s0.393-6.943,5.506-7.824C499.316,49.66,510.299,51.957,509.846,55.378z"/>
			<path fill="#191919" d="M504.088,60.549c0,0-2.68-1.336-8.18,1.183c-0.828,0.44-1.267,0.537-1.021,0
				c0.242-0.537,3.65-2.32,6.402-2.052C504.039,59.949,504.088,60.549,504.088,60.549z"/>
			<path display="none" fill="#606161" d="M508.043,60.197c0,0,4.262,1.633,3.488,6.915c-0.775,5.28-1.021,6.355-1.021,6.355
				s2.646-4.18,2.351-7.798c-0.302-3.618-2.492-7.457-4.211-6.844C506.928,59.435,508.008,60.053,508.043,60.197z"/>
			<path fill="#97485A" d="M503.342,97.943c0,0,8.81-1.743,12.107-0.698c3.303,1.046,6.91-0.567,9.045,0.182
				c2.135,0.749,5.395,0.901,5.395,0.901s-12.342,6.352-14.592,5.887C513.043,103.751,503.922,99.723,503.342,97.943z"/>
			<path fill="#692137" d="M504.412,96.625c0,0,3.973-1.804,5.68-1.826c1.703-0.021,3.082-0.096,4.188,0.554
				c1.104,0.652,2.662,1.271,2.662,1.271s0.741-0.368,3.989-1.369c2.855-0.881,8.052,3.081,9.188,3.063
				c1.061-0.017-13.176-0.032-13.176-0.032l-12.529-0.229l-1.104-0.293L504.412,96.625z"/>
			<path fill="#A6576C" d="M521.188,100.334c0,0-3.407,1.598-4.77,1.142c-1.363-0.457-4.119-1.563-4.119-1.563
				S519.953,98.966,521.188,100.334z"/>
			<path fill="#D0A094" d="M483.711,65.479c0,0-1.08-9.898-5.537-6.268c-4.457,3.631,0.701,5.765,0.178,8.334
				c-0.522,2.57,2.164,4.605,1.31,10.485c-0.854,5.881-0.527,6.227,1.277,7.562c1.807,1.335,3.366,0.399,3.545,0.141
				C484.662,85.473,483.711,65.479,483.711,65.479z"/>
			<path fill="#D0A094" d="M552.316,66.505c0,0,5.571-9.484,6.229-2.296c0.563,6.11-1.688,10.282-3.115,12.63
				c-1.428,2.346,0.779,8.473-0.584,9.779c-1.36,1.302-1.491,3.063-3.764,2.932C548.813,89.419,552.316,66.505,552.316,66.505z"/>
			<g>
				<g>
					<g>
						
							<linearGradient id="SVGID_7_" gradientUnits="userSpaceOnUse" x1="171.0537" y1="553.5459" x2="156.5064" y2="578.7427" gradientTransform="matrix(1 0 0 1 356.79 -494.8359)">
							<stop  offset="0" style="stop-color:#D0A094;stop-opacity:0"/>
							<stop  offset="1" style="stop-color:#BF9086;stop-opacity:0.7"/>
						</linearGradient>
						<path fill="url(#SVGID_7_)" d="M521.92,55.29c-0.098-0.034-3.439,6.353-2.955,13.197c0.484,6.846,3.439,6.974,3.478,6.941
							c0.028-0.032,7.139,2.509,4.479,6.16c-2.662,3.652-4.156-0.424-6.561,2.901c-2.691,1.825-1.849,1.402-2.855,1.825
							c-1.006,0.425,0-31.025,0-31.025L521.92,55.29z"/>
						<path fill="#020202" d="M524.373,83.37c0,0,0.193,1.009-0.908,1.694c-1.104,0.684-3.277,0.586-3.277,0.586
							s0.423-3.423,4.058-2.281"/>
					</g>
				</g>
			</g>
			<g>
				<g>
					<g>
						
							<linearGradient id="SVGID_8_" gradientUnits="userSpaceOnUse" x1="-1877.9722" y1="553.5439" x2="-1892.5205" y2="578.7424" gradientTransform="matrix(-1 0 0 1 -1371.7578 -494.8359)">
							<stop  offset="0" style="stop-color:#D0A094;stop-opacity:0"/>
							<stop  offset="1" style="stop-color:#BF9086"/>
						</linearGradient>
						<path fill="url(#SVGID_8_)" d="M512.135,55.29c0.103-0.034,3.439,6.353,2.955,13.197c-0.483,6.846-3.438,6.974-3.471,6.941
							c-0.033-0.032-7.144,2.509-4.48,6.16c2.662,3.652,4.154-0.424,6.56,2.901c2.692,1.825,1.854,1.402,2.854,1.825
							c1.006,0.425,0-31.025,0-31.025L512.135,55.29z"/>
						<path fill="#020202" d="M509.686,83.37c0,0-0.194,1.009,0.906,1.694c1.104,0.684,3.279,0.586,3.279,0.586
							s-0.424-3.423-4.059-2.281"/>
					</g>
				</g>
			</g>
			<path fill="#121212" d="M552.834,54.517l-4.795-4.93c0,0-1.195-11.677-13.658-17.126c-12.459-5.448-16.771-9.602-19.646-9.342
				c-2.877,0.259-12.938-0.26-18.689,10.121c-4.074,1.556-6.709,3.891-6.709,3.891v8.304c0,0-6.473,1.9-7.43,21.061
				c-2.877-12.757-2.877-12.757-2.877-12.757S471.361,22.583,497,8.068c8.502-4.696,13.652-5.448,13.652-5.448
				s15.821-3.893,22.291,2.335c6.469,6.226,20.608,5.967,26.36,40.998c-2.155,19.204-5.991,25.95-5.991,25.95L552.834,54.517z"/>
			<path fill="#121212" d="M498.238,29.718l-2.33,6.941c0,0-4.195-0.608-6.576,2.478C486.953,42.227,485.742,34.661,498.238,29.718z
				"/>
			<path fill="#121212" d="M498.238,30.003c0,0,17.16-5.667,18.76-5.661c1.598,0.006-3.369-5.583-13.982-2.455
				C492.402,25.017,498.238,30.003,498.238,30.003z"/>
			<path display="none" fill="#606161" d="M523.209,60.979c0,0-3.367,1.634-2.756,6.915c0.613,5.28,0.805,6.355,0.805,6.355
				s-2.096-4.179-1.856-7.798c0.239-3.618,1.979-7.455,3.332-6.843C524.09,60.218,523.236,60.835,523.209,60.979z"/>
			<g>
				<path fill="#FFFFFF" d="M530.061,61.462c0.259,0.525,1.025,1.539,3.093,1.445c2.108-0.095,3.01-1.202,3.313-1.729
					c1.404,0.574,2.334,1.336,2.334,1.336c-5.6,3.912-11.83,0.294-11.83,0.294S527.449,62.511,530.061,61.462z"/>
				<path fill="#020202" d="M533.152,62.907c-2.064,0.094-2.834-0.92-3.095-1.445c0.382-0.152,0.813-0.323,1.291-0.512
					c1.869-0.731,3.729-0.343,5.117,0.229C536.162,61.705,535.262,62.813,533.152,62.907z"/>
			</g>
			<ellipse fill="#FFFFFF" cx="532.945" cy="61.318" rx="1.254" ry="0.768"/>
			<path fill="#121212" d="M524.861,55.378c0,0,3.033,1.125,5.42,0.636c2.385-0.489,10.903-3.422,14.117,0.929
				c3.213,4.351,1.604,1.419,1.604,1.419s-0.393-6.943-5.502-7.824C535.393,49.66,524.408,51.957,524.861,55.378z"/>
			<path fill="#191919" d="M530.621,60.549c0,0,2.68-1.336,8.18,1.183c0.826,0.44,1.267,0.537,1.023,0
				c-0.244-0.537-3.652-2.32-6.404-2.052C530.67,59.949,530.621,60.549,530.621,60.549z"/>
		</g>
	</g>
	<g>
		<path d="M676.461,299.664c-8.238-10.286-15.021-25.469-15.021-25.469s-9.207-29.879-7.757-38.204
			c1.455-8.326-2.905-17.144-2.905-17.144s9.207-50.938-38.281-70.041c-17.441-3.429-17.441-3.429-17.441-3.429
			s-20.836-1.469-31.979-6.367c-11.144-4.896-11.144-4.896-11.144-4.896l-5.815-21.062c0,0-0.057,0.694-0.283,1.799
			c-0.729,3.534-3.225,11.262-11.348,13.875c-10.66,3.429-13.674,5.225-16.959,23.507c-0.357,1.994-0.646,6.738-0.875,13.566
			c-0.222-6.826-0.5-11.572-0.849-13.566c-3.067-17.628-6.301-20.078-16.959-23.507c-8.123-2.612-10.619-10.34-11.352-13.875
			c-0.228-1.105-0.279-1.799-0.279-1.799l-5.813,21.061c0,0,0,0-11.146,4.896c-11.146,4.898-31.979,6.367-31.979,6.367
			s0,0-17.445,3.429c-47.487,19.103-38.28,70.04-38.28,70.04s-4.359,8.815-2.904,17.145c1.452,8.324-7.755,38.203-7.755,38.203
			s-6.782,15.184-15.021,25.47c-8.238,10.284,4.651,107.263,4.651,107.263l3.103,19.592c0,0-4.849,22.529-2.425,29.39
			c2.425,6.854,23.261,23.02,27.138,21.06c3.875-1.958,3.283-3.917,3.283-3.917s14.646,2.938,17.554-1.959
			c2.904-4.896-11.146-9.306-15.508-13.714s-0.971-18.121,2.906-15.185c3.877,2.938,16.479,28.896,16.479,28.896s0,0,8.234-5.387
			c2.906-14.694-20.043-49.959-20.043-49.959v-7.346l2.602-16.654l-2.602-7.348c0,0,3.568-11.267,0.66-14.203
			c-2.908-2.938,4.731-11.754,4.731-11.754s1.564-14.693,0.425-17.146c-1.144-2.448,0.174-7.349,2.11-10.285
			c1.939-2.938,0.484-14.692-1.938-18.122s21.319-57.796,21.319-57.796s8.724-26.938,9.207,9.798
			c-4.36,71.51-4.85,93.551-9.207,110.69c4.357,16.651,87.111,21.874,87.111,21.874s82.754-5.223,87.113-21.874
			c-4.361-17.142-4.847-39.185-9.205-110.69c0.481-36.734,9.205-9.798,9.205-9.798s23.742,54.366,21.319,57.796
			c-2.422,3.43-3.877,15.186-1.938,18.122c1.938,2.938,3.254,7.837,2.111,10.285c-1.144,2.449,0.426,17.146,0.426,17.146
			s7.639,8.813,4.731,11.754c-2.909,2.938,0.66,14.203,0.66,14.203l-2.602,7.348l2.602,16.654v7.346
			c0,0-22.951,35.265-20.043,49.959c8.234,5.387,8.234,5.387,8.234,5.387s12.602-25.959,16.477-28.896
			c3.877-2.938,7.271,10.773,2.908,15.185c-4.363,4.41-18.414,8.816-15.51,13.714c2.91,4.897,17.555,1.959,17.555,1.959
			s-0.594,1.959,3.283,3.917c3.877,1.96,24.711-14.202,27.141-21.06c2.42-6.857-2.43-29.39-2.43-29.39l3.104-19.592
			C671.809,406.927,684.697,309.948,676.461,299.664z"/>
		<path fill="#1D1D1D" d="M387.216,231.723c0,0-0.682,11.453,3.679,13.901c4.362,2.449-2.905,27.919-7.752,26.94
			c-4.846-0.98-9.688,0.022-9.688,0.022s5.095-29.487,5.146-35.778C378.645,230.518,387.216,231.723,387.216,231.723z"/>
		<path fill="#121112" d="M429.66,179.993c0,0-6.299,40.651-35.373,48.979c-11.866,3.734-13.922,7.836-13.922,7.836
			s-3.982-7.143,0-14.692c3.981-7.554,20.682-31.31,36.211-45.062C424.727,171.249,429.66,179.993,429.66,179.993z"/>
		<path fill="#1D1D1D" d="M432.568,144.729c0,0,17.928,4.898,14.053,8.326c-3.877,3.43-18.898,23.021-21.807,23.021
			c-2.906,0-9.207-2.938-20.353,17.634c-11.146,20.569-22.291,21.55-23.261,21.55C380.234,215.258,372.482,164.32,432.568,144.729z"
			/>
		<path fill="#121112" d="M512.27,174.398c0,0-16.477-10.744-27.62-12.213c-11.144-1.472-33.791,0.486-36.277,3.429
			c-2.484,2.938-20.416,45.06-20.416,45.06s10.789,21.551,20.416,22.531c9.629,0.979,44.029,8.326,58.082-18.612
			c14.055-26.938,5.815-38.202,5.815-38.202"/>
		<path fill="#1D1D1D" d="M408.824,322.031c0,0-10.064-15.674-30.229-18.123c-20.166-2.447-15.807-9.305-15.807-9.305
			s-2.426-16.164-8.726-12.246c-6.299,3.918-2.422,24-2.422,24l-1.181,28.406c0,0-5.604,6.365-13.356-4.406
			c-3.393-4.897-1.938,17.144,0,17.632c1.938,0.489,15.507,3.919,15.507,9.306c0,5.389-0.97,8.327-6.782,6.368
			c-5.813-1.959-5.33-8.327-5.33-8.327s-1.454,16.654,0.972,17.146c2.422,0.488,9.205,6.363,12.111,6.854
			c2.908,0.488,1.938,11.265,1.938,11.265s-4.846,1.959-7.754,0c-2.905-1.959-3.875-5.877-3.875-5.877s0,12.734,2.906,14.202
			c2.906,1.474,10.176,3.919,10.176,3.919l6.3,14.693c0,0,25.979-16.163,40.854-9.305"/>
		<path fill="#1D1D1D" d="M506.453,214.593c0.381-0.304-59.705-28.722-67.941-21.375c-8.237,7.347-8.725,18.611-3.395,22.04
			c5.33,3.43,19.869,18.612,21.807,18.612C458.862,233.87,473.988,240.552,506.453,214.593z"/>
		<path fill="#121112" d="M514.564,231.629c0,0-40.505,29.387-51.164,29.878c-10.66,0.489-25.197-21.806-25.197-7.229
			c0,14.578,0,37.598,0,37.598v30.367c0,0-2.424,39.673-6.299,46.527c-3.879,6.856-13.084,13.717,5.33,18.613
			c18.412,4.896,77.33,9.794,77.33,9.794"/>
		<g>
			<path fill="#8D8D8D" d="M445.168,236.809c0,0,0.898,0.394,2.494,0.938c1.594,0.543,3.887,1.229,6.658,1.813
				c1.383,0.305,2.897,0.521,4.489,0.746c1.597,0.2,3.281,0.346,5.021,0.418c1.742,0.053,3.541,0.063,5.361-0.058
				c1.819-0.087,3.661-0.312,5.493-0.58c0.914-0.144,1.824-0.317,2.734-0.479c0.895-0.226,1.805-0.392,2.688-0.617
				c0.879-0.254,1.77-0.459,2.627-0.719c0.858-0.271,1.709-0.539,2.545-0.805c0.828-0.294,1.646-0.582,2.44-0.861
				c0.789-0.314,1.562-0.623,2.313-0.922c0.766-0.281,1.465-0.646,2.178-0.937c0.709-0.296,1.393-0.587,2.025-0.91
				c1.282-0.627,2.483-1.172,3.516-1.728c1.033-0.545,1.971-0.979,2.699-1.401c1.488-0.812,2.375-1.241,2.375-1.241
				s-0.672,0.706-1.912,1.891c-0.607,0.604-1.396,1.285-2.322,2.035c-0.465,0.375-0.942,0.801-1.481,1.198
				c-0.545,0.394-1.119,0.806-1.72,1.233c-1.196,0.863-2.563,1.709-4.034,2.563c-0.75,0.403-1.521,0.817-2.31,1.241
				c-0.813,0.375-1.646,0.759-2.494,1.147c-1.719,0.728-3.533,1.399-5.424,1.953c-0.945,0.274-1.912,0.514-2.883,0.75
				c-0.979,0.188-1.961,0.396-2.949,0.559c-1.988,0.271-3.988,0.498-5.969,0.501c-1.978,0.055-3.922-0.077-5.783-0.291
				c-3.731-0.457-7.131-1.379-9.891-2.501c-1.39-0.531-2.619-1.124-3.681-1.695c-1.069-0.55-1.952-1.119-2.67-1.596
				c-0.723-0.469-1.246-0.901-1.606-1.184C445.344,236.979,445.168,236.809,445.168,236.809z"/>
		</g>
		<g>
			<path fill="#8D8D8D" d="M501.633,235.828c0,0-2.176,1.499-5.561,3.518c-1.685,1.021-3.67,2.174-5.816,3.368
				c-1.078,0.591-2.18,1.226-3.322,1.823c-1.137,0.607-2.293,1.225-3.448,1.842c-1.164,0.602-2.328,1.201-3.474,1.792
				c-1.143,0.601-2.293,1.14-3.391,1.688c-2.201,1.09-4.301,2.039-6.059,2.89c-3.535,1.685-6.015,2.671-6.015,2.671
				s2.105-1.551,5.455-3.674c1.658-1.092,3.648-2.229,5.791-3.441c1.072-0.596,2.174-1.24,3.313-1.842
				c1.137-0.611,2.291-1.232,3.446-1.854c1.168-0.598,2.334-1.194,3.484-1.782c1.146-0.591,2.301-1.127,3.402-1.671
				c2.215-1.07,4.299-2.033,6.104-2.825C499.15,236.732,501.633,235.828,501.633,235.828z"/>
		</g>
		<g>
			<path fill="#989898" d="M489.262,252.109c0,0-1.461,1.545-3.815,3.654c-1.17,1.062-2.563,2.266-4.08,3.521
				c-0.767,0.618-1.539,1.282-2.354,1.918c-0.813,0.639-1.641,1.288-2.465,1.938c-0.842,0.631-1.682,1.262-2.508,1.883
				c-0.818,0.629-1.662,1.203-2.459,1.783c-1.604,1.146-3.127,2.178-4.453,3.035c-2.645,1.73-4.516,2.744-4.516,2.744
				s1.461-1.547,3.813-3.654c1.17-1.063,2.563-2.269,4.082-3.521c0.765-0.62,1.535-1.287,2.354-1.918
				c0.813-0.641,1.641-1.287,2.465-1.938c0.842-0.632,1.682-1.263,2.508-1.883c0.822-0.627,1.662-1.201,2.461-1.781
				c1.604-1.145,3.127-2.18,4.453-3.035C487.393,253.125,489.262,252.109,489.262,252.109z"/>
		</g>
		<g>
			<path fill="#989898" d="M485.869,270.604c0,0-1.252,1.369-3.289,3.211c-1.012,0.932-2.219,1.979-3.539,3.067
				c-0.666,0.537-1.336,1.116-2.049,1.661c-0.709,0.553-1.428,1.111-2.148,1.673c-0.731,0.541-1.467,1.083-2.188,1.617
				c-0.715,0.542-1.455,1.028-2.148,1.524c-1.404,0.978-2.742,1.854-3.91,2.58c-2.323,1.463-3.979,2.297-3.979,2.297
				s1.25-1.371,3.287-3.213c1.012-0.932,2.219-1.979,3.539-3.067c0.666-0.537,1.336-1.117,2.051-1.66
				c0.709-0.552,1.43-1.11,2.147-1.672c0.73-0.541,1.468-1.083,2.188-1.616c0.721-0.539,1.455-1.027,2.152-1.523
				c1.405-0.977,2.741-1.854,3.909-2.578C484.215,271.439,485.869,270.604,485.869,270.604z"/>
		</g>
		<g>
			<path fill="#888888" d="M499.438,301.95c0,0-2.174,1.825-5.532,4.396c-1.674,1.295-3.644,2.777-5.765,4.352
				c-2.123,1.563-4.387,3.23-6.651,4.898c-2.267,1.659-4.527,3.318-6.65,4.875c-2.111,1.569-4.067,3.047-5.707,4.357
				c-1.629,1.318-2.945,2.468-3.733,3.388c-0.392,0.461-0.66,0.856-0.767,1.162c-0.108,0.306-0.067,0.49-0.078,0.489
				c0.013,0.001-0.069-0.172-0.026-0.518c0.045-0.34,0.221-0.82,0.545-1.363c0.641-1.098,1.789-2.489,3.289-4.012
				c1.496-1.526,3.344-3.193,5.391-4.893c1.027-0.84,2.08-1.723,3.191-2.563c1.112-0.838,2.241-1.688,3.371-2.541
				c1.151-0.816,2.305-1.638,3.438-2.439c1.135-0.805,2.281-1.548,3.385-2.286c2.209-1.46,4.308-2.771,6.129-3.854
				C496.896,303.217,499.438,301.95,499.438,301.95z"/>
		</g>
		<path fill="#121112" d="M520,174.398c0,0,16.475-10.744,27.617-12.213c11.146-1.472,33.791,0.486,36.279,3.429
			c2.485,2.938,20.416,45.06,20.416,45.06s-10.789,21.551-20.416,22.531c-9.628,0.979-44.031,8.326-58.084-18.612
			C511.762,187.654,520,176.391,520,176.391"/>
		<path fill="#1D1D1D" d="M525.813,214.593c-0.379-0.304,59.705-28.722,67.943-21.375c8.236,7.347,8.236,16.163,2.906,19.591
			c-5.328,3.432-19.381,21.063-21.32,21.063C573.404,233.87,558.277,240.552,525.813,214.593z"/>
		<path fill="#121112" d="M518.52,231.629c0,0,41.371,29.387,52.029,29.878c10.662,0.489,25.197-21.806,25.197-7.229
			c0,14.578,0,37.598,0,37.598v30.367c0,0,2.424,39.673,6.301,46.527c3.875,6.856,13.082,13.717-5.33,18.613
			c-18.414,4.896-76.215,9.794-76.215,9.794"/>
		<g>
			<path fill="#8D8D8D" d="M588.781,236.809c0,0-0.176,0.172-0.533,0.461c-0.361,0.28-0.887,0.715-1.607,1.185
				c-0.717,0.476-1.602,1.046-2.67,1.596c-1.061,0.571-2.289,1.164-3.68,1.695c-2.76,1.122-6.154,2.044-9.887,2.501
				c-1.865,0.214-3.812,0.346-5.787,0.291c-1.979-0.003-3.979-0.229-5.965-0.501c-0.992-0.159-1.974-0.367-2.953-0.56
				c-0.969-0.235-1.937-0.475-2.881-0.748c-1.892-0.555-3.705-1.229-5.425-1.955c-0.846-0.391-1.678-0.771-2.491-1.146
				c-0.789-0.424-1.562-0.838-2.312-1.241c-1.473-0.854-2.838-1.694-4.033-2.563c-0.6-0.431-1.174-0.843-1.719-1.232
				c-0.539-0.399-1.021-0.825-1.481-1.198c-0.931-0.752-1.716-1.433-2.326-2.035c-1.238-1.185-1.91-1.891-1.91-1.891
				s0.889,0.434,2.373,1.241c0.731,0.423,1.666,0.858,2.701,1.401c1.028,0.556,2.231,1.101,3.514,1.728
				c0.637,0.323,1.32,0.614,2.029,0.91c0.709,0.29,1.412,0.651,2.174,0.937c0.752,0.299,1.522,0.604,2.313,0.92
				c0.798,0.281,1.613,0.569,2.441,0.863c0.836,0.266,1.684,0.531,2.543,0.805c0.859,0.26,1.748,0.465,2.629,0.72
				c0.885,0.228,1.793,0.394,2.688,0.614c0.908,0.164,1.817,0.342,2.733,0.481c1.832,0.271,3.672,0.493,5.494,0.58
				c1.818,0.117,3.617,0.106,5.357,0.058c1.742-0.074,3.428-0.218,5.022-0.418c1.59-0.225,3.104-0.443,4.488-0.746
				c2.77-0.584,5.063-1.27,6.656-1.813C587.883,237.199,588.781,236.809,588.781,236.809z"/>
		</g>
		<g>
			<path fill="#8D8D8D" d="M532.316,235.828c0,0,2.481,0.904,6.084,2.501c1.805,0.793,3.889,1.756,6.104,2.826
				c1.104,0.544,2.256,1.079,3.402,1.671c1.149,0.588,2.315,1.186,3.483,1.781c1.156,0.621,2.312,1.242,3.447,1.854
				c1.144,0.604,2.236,1.247,3.313,1.844c2.143,1.215,4.129,2.352,5.791,3.44c3.35,2.123,5.455,3.674,5.455,3.674
				s-2.479-0.985-6.015-2.671c-1.758-0.852-3.854-1.8-6.059-2.891c-1.099-0.549-2.248-1.088-3.392-1.688
				c-1.146-0.591-2.309-1.188-3.475-1.792c-1.154-0.617-2.313-1.232-3.447-1.842c-1.145-0.602-2.244-1.23-3.322-1.823
				c-2.146-1.192-4.133-2.348-5.815-3.366C534.492,237.327,532.316,235.828,532.316,235.828z"/>
		</g>
		<g>
			<path fill="#989898" d="M544.688,252.109c0,0,1.869,1.016,4.513,2.748c1.328,0.854,2.854,1.893,4.455,3.035
				c0.797,0.58,1.641,1.153,2.461,1.779c0.826,0.621,1.666,1.252,2.51,1.885c0.822,0.647,1.648,1.299,2.465,1.938
				c0.816,0.631,1.59,1.298,2.354,1.918c1.521,1.255,2.91,2.46,4.082,3.521c2.354,2.106,3.813,3.653,3.813,3.653
				s-1.871-1.015-4.516-2.743c-1.328-0.857-2.853-1.894-4.455-3.035c-0.797-0.58-1.639-1.154-2.459-1.783
				c-0.826-0.621-1.668-1.252-2.508-1.883c-0.824-0.649-1.65-1.301-2.463-1.938c-0.818-0.634-1.591-1.298-2.355-1.918
				c-1.518-1.257-2.91-2.462-4.08-3.522C546.148,253.654,544.688,252.109,544.688,252.109z"/>
		</g>
		<g>
			<path fill="#989898" d="M548.078,270.604c0,0,1.656,0.836,3.979,2.301c1.168,0.726,2.505,1.604,3.91,2.578
				c0.693,0.496,1.437,0.984,2.15,1.523c0.725,0.533,1.457,1.075,2.188,1.616c0.722,0.562,1.441,1.12,2.15,1.672
				c0.715,0.543,1.383,1.123,2.049,1.66c1.32,1.089,2.527,2.139,3.541,3.067c2.035,1.842,3.287,3.213,3.287,3.213
				s-1.658-0.834-3.982-2.297c-1.168-0.727-2.504-1.604-3.909-2.58c-0.693-0.496-1.437-0.982-2.148-1.524
				c-0.727-0.534-1.457-1.076-2.188-1.617c-0.722-0.561-1.439-1.12-2.148-1.673c-0.713-0.545-1.383-1.124-2.049-1.661
				c-1.32-1.09-2.527-2.139-3.541-3.067C549.33,271.973,548.078,270.604,548.078,270.604z"/>
		</g>
		<g>
			<path fill="#888888" d="M534.514,301.95c0,0,2.541,1.267,6.177,3.45c1.821,1.084,3.918,2.396,6.129,3.854
				c1.102,0.738,2.248,1.48,3.383,2.286c1.139,0.806,2.287,1.623,3.438,2.44c1.132,0.852,2.261,1.701,3.371,2.541
				c1.111,0.84,2.164,1.723,3.191,2.563c2.047,1.696,3.895,3.363,5.391,4.895c1.502,1.521,2.648,2.912,3.289,4.01
				c0.324,0.543,0.5,1.023,0.545,1.365c0.043,0.345-0.039,0.517-0.026,0.516c-0.011,0.001,0.03-0.188-0.078-0.489
				c-0.104-0.306-0.375-0.7-0.767-1.161c-0.789-0.921-2.104-2.068-3.733-3.389c-1.64-1.313-3.597-2.788-5.705-4.357
				c-2.125-1.557-4.392-3.216-6.652-4.875c-2.268-1.668-4.528-3.336-6.651-4.898c-2.119-1.571-4.091-3.057-5.765-4.35
				C536.688,303.775,534.514,301.95,534.514,301.95z"/>
		</g>
		<path fill="#1D1D1D" d="M646.451,231.723c0,0,0.684,11.453-3.68,13.901c-4.361,2.449,2.907,27.919,7.752,26.94
			c4.846-0.98,9.69,0.022,9.69,0.022s-5.098-29.487-5.146-35.778C655.023,230.518,646.451,231.723,646.451,231.723z"/>
		<path fill="#121112" d="M604.008,179.993c0,0,6.299,40.651,35.371,48.979c11.867,3.734,13.924,7.836,13.924,7.836
			s3.98-7.143,0-14.692c-3.981-7.554-20.682-31.31-36.213-45.062C608.939,171.249,604.008,179.993,604.008,179.993z"/>
		<path fill="#1D1D1D" d="M600.68,145.341c0,0-17.93,4.897-14.051,8.325c3.875,3.43,18.896,23.021,21.805,23.021
			c2.908,0,9.207-2.939,20.353,17.631c11.146,20.572,22.289,21.551,23.262,21.551C653.014,215.869,660.766,164.934,600.68,145.341z"
			/>
		<path fill="#1D1D1D" d="M624.424,322.643c0,0,10.064-15.672,30.229-18.121c20.166-2.446,15.807-9.306,15.807-9.306
			s2.422-16.164,8.725-12.245c6.298,3.918,2.421,24,2.421,24l1.18,28.407c0,0,5.604,6.368,13.358-4.409
			c3.392-4.896,1.938,17.146,0,17.635c-1.938,0.489-15.508,3.92-15.508,9.309c0,5.387,0.97,8.324,6.783,6.365
			s5.328-8.324,5.328-8.324s1.453,16.648-0.969,17.143c-2.422,0.489-9.207,6.365-12.115,6.855
			c-2.904,0.49-1.938,11.264-1.938,11.264s4.847,1.96,7.755,0c2.905-1.956,3.877-5.875,3.877-5.875s0,12.734-2.91,14.204
			c-2.904,1.469-10.174,3.917-10.174,3.917l-6.3,14.693c0,0-25.979-16.163-40.854-9.309"/>
	</g>
	<path fill="#8D191C" d="M530.721,185.57c-2.885,2.044-10.453,12.138-12.256-2.521c-0.965,4.083-0.965,4.083-0.965,4.083
		l-1.682-0.179l-1.681,0.179c0,0,0,0-0.963-4.083c-1.807,14.659-9.373,4.565-12.256,2.521c-2.889-2.041-34.127-2.521-34.127-2.521
		s10.332,8.151,11.295,15.963c33.887-0.479,37.729,12.979,37.729,12.979s3.844-13.456,37.729-12.979
		c0.963-7.812,11.295-15.963,11.295-15.963S533.604,183.529,530.721,185.57z"/>
</g>
</svg>
