<?xml version="1.0" encoding="utf-8"?>
<!-- Generator: Adobe Illustrator 16.0.0, SVG Export Plug-In . SVG Version: 6.00 Build 0)  -->
<!DOCTYPE svg PUBLIC "-//W3C//DTD SVG 1.1//EN" "http://www.w3.org/Graphics/SVG/1.1/DTD/svg11.dtd">
<svg version="1.1" id="Layer_1" xmlns="http://www.w3.org/2000/svg" xmlns:xlink="http://www.w3.org/1999/xlink" x="0px" y="0px"
	 width="300px" height="300px" viewBox="0 0 300 300" enable-background="new 0 0 300 300" xml:space="preserve">
<g>
	<g>
		<path fill="#DBAAA1" d="M137.754,79.918c-9.155,0-16.574,6.053-16.574,13.52v73.941c0,7.469,7.419,13.52,16.574,13.52h11.282
			V79.918H137.754z"/>
		<path fill="#C1918A" d="M160.956,79.918h-11.92v100.98h11.92c9.153,0,16.575-6.051,16.575-13.521v-73.94
			C177.531,85.972,170.109,79.918,160.956,79.918z"/>
	</g>
	<path fill="#C1918A" d="M149.472,149.635l-3.34,213.662l2.904-237.658l28.592,3.882c0,0,18.61,16.986,32.45,21.903
		c13.84,4.916,42.475,2.234,42.475,56.768c3.816,54.979,11.451,118.451,11.451,118.451s8.114,127.396,0,137.229
		c0.479,17.434-22.43,40.678-22.43,40.678l-1.908-10.278c0,0,17.18-17.882,9.546-42.912c-4.772,25.03-4.772,25.03-4.772,25.03
		l-5.248,2.232l-4.771-37.992c0,0,4.771-12.067,10.499-10.729c2.86-36.208,2.86-36.208,2.86-36.208s-7.633-7.149-15.747-48.274
		c-8.111-41.123-11.451-92.976-11.451-92.976s-7.853-34.418,2.04-46.041c9.893-11.618-12.54,23.244-19.223,73.31
		c10.021,50.063,10.498,54.531,10.498,54.531v19.668l-67.765,4.918"/>
	<path fill="#DBAAA1" d="M148.518,149.635l3.339,213.662l-3.339-238.247l-27.338,4.341c0,0-19.43,17.116-33.27,22.033
		c-13.839,4.916-42.472,2.234-42.472,56.768C41.62,263.17,33.984,326.643,33.984,326.643s-8.112,127.396,0,137.229
		c-0.477,17.434,22.43,40.678,22.43,40.678l1.908-10.278c0,0-17.18-17.882-9.544-42.912c4.773,25.03,4.773,25.03,4.773,25.03
		l5.249,2.232l4.772-37.992c0,0-4.772-12.067-10.499-10.729c-2.863-36.208-2.863-36.208-2.863-36.208s7.636-7.149,15.749-48.274
		c8.112-41.123,11.452-92.976,11.452-92.976s7.849-34.418-2.041-46.041c-9.889-11.618,12.54,23.244,19.222,73.31
		c-10.022,50.063-10.5,54.531-10.5,54.531v19.668l67.766,4.918"/>
	<circle fill="#AC7A70" cx="107.978" cy="208.152" r="3.579"/>
	<circle fill="#AC7A70" cx="200.535" cy="208.152" r="3.58"/>
	<path fill="#AC7A70" d="M153.768,326.461c0,3.756-1.283,6.799-2.865,6.799c-1.579,0-2.86-3.043-2.86-6.799
		c0-3.758,1.283-6.801,2.86-6.801C152.484,319.66,153.768,322.703,153.768,326.461z"/>
	<g>
		<g>
			<path fill="#C58E83" d="M149.24,23.345c-5.44-0.224-31.557,0.748-34.57,39.683c0,0-0.785,22.02,7.742,36.035
				c8.526,14.018,16.713,18.888,16.713,18.888s2.954,2.604,8.841,2.956c0.065,0.015,0.132,0.023,0.196,0.027
				c0.527,0.02,1.027,0.019,1.519,0.008v-97.61C149.525,23.336,149.373,23.34,149.24,23.345z"/>
			<path fill="#D0A094" d="M186.619,63.029c-3.182-38.045-30.215-39.842-36.938-39.696v97.611c0.136-0.004,0.278-0.004,0.411-0.007
				c0.048-0.001,0.092,0.001,0.141-0.001c0.008,0,0.015-0.004,0.022-0.004c6.613-0.271,9.919-2.979,9.919-2.979
				s8.855-4.871,18.075-18.888C187.471,85.048,186.619,63.029,186.619,63.029z"/>
		</g>
		<g>
			<path fill="#FFFFFF" d="M137.042,62.044c-0.259,0.525-1.031,1.539-3.094,1.445c-2.109-0.095-3.009-1.202-3.317-1.729
				c-1.401,0.574-2.331,1.336-2.331,1.336c5.597,3.912,11.831,0.294,11.831,0.294S139.647,63.093,137.042,62.044z"/>
			<path fill="#020202" d="M133.947,63.489c2.063,0.094,2.835-0.92,3.094-1.445c-0.385-0.152-0.812-0.323-1.294-0.512
				c-1.869-0.731-3.727-0.343-5.118,0.229C130.938,62.287,131.838,63.395,133.947,63.489z"/>
		</g>
		<ellipse fill="#FFFFFF" cx="134.153" cy="61.9" rx="1.252" ry="0.768"/>
		<path fill="#121212" d="M142.237,55.96c0,0-3.034,1.125-5.418,0.636c-2.384-0.489-10.906-3.422-14.118,0.929
			c-3.215,4.351-1.605,1.419-1.605,1.419s0.388-6.943,5.501-7.824C131.708,50.242,142.69,52.539,142.237,55.96z"/>
		<path fill="#191919" d="M136.478,61.131c0,0-2.678-1.336-8.179,1.183c-0.828,0.44-1.266,0.537-1.022,0
			c0.242-0.537,3.65-2.32,6.403-2.052C136.429,60.531,136.478,61.131,136.478,61.131z"/>
		<path display="none" fill="#606161" d="M140.433,60.779c0,0,4.262,1.633,3.489,6.915c-0.775,5.28-1.019,6.355-1.019,6.355
			s2.65-4.18,2.349-7.798c-0.301-3.618-2.492-7.457-4.211-6.844C139.319,60.017,140.398,60.635,140.433,60.779z"/>
		<path fill="#97485A" d="M135.733,98.525c0,0,8.808-1.743,12.108-0.698c3.302,1.046,6.909-0.567,9.044,0.182
			s5.395,0.901,5.395,0.901s-12.339,6.352-14.59,5.887C145.434,104.333,136.313,100.305,135.733,98.525z"/>
		<path fill="#692137" d="M136.803,97.207c0,0,3.972-1.804,5.68-1.826c1.702-0.021,3.082-0.096,4.186,0.554
			c1.103,0.652,2.663,1.271,2.663,1.271s0.742-0.368,3.99-1.369c2.854-0.881,8.05,3.081,9.187,3.063
			c1.058-0.017-13.176-0.032-13.176-0.032l-12.528-0.229l-1.104-0.293L136.803,97.207z"/>
		<path fill="#A6576C" d="M153.578,100.916c0,0-3.408,1.598-4.771,1.142c-1.364-0.457-4.12-1.563-4.12-1.563
			S152.344,99.548,153.578,100.916z"/>
		<path fill="#D0A094" d="M116.102,66.061c0,0-1.081-9.898-5.537-6.268c-4.458,3.631,0.701,5.765,0.177,8.334
			c-0.524,2.57,2.165,4.605,1.309,10.485c-0.857,5.881-0.531,6.227,1.276,7.562c1.807,1.335,3.368,0.399,3.546,0.141
			C117.052,86.055,116.102,66.061,116.102,66.061z"/>
		<path fill="#D0A094" d="M184.708,67.087c0,0,5.571-9.484,6.229-2.296c0.563,6.11-1.688,10.282-3.115,12.63
			c-1.428,2.346,0.779,8.473-0.584,9.779c-1.36,1.302-1.492,3.063-3.764,2.932C181.202,90.001,184.708,67.087,184.708,67.087z"/>
		<g>
			<g>
				<g>
					
						<linearGradient id="SVGID_1_" gradientUnits="userSpaceOnUse" x1="-25.6265" y1="-267.1826" x2="-40.1744" y2="-292.3802" gradientTransform="matrix(1 0 0 -1 185.8604 -207.8906)">
						<stop  offset="0" style="stop-color:#D0A094;stop-opacity:0"/>
						<stop  offset="1" style="stop-color:#BF9086;stop-opacity:0.7"/>
					</linearGradient>
					<path fill="url(#SVGID_1_)" d="M154.311,55.872c-0.098-0.034-3.438,6.353-2.955,13.197c0.484,6.846,3.44,6.974,3.478,6.941
						c0.028-0.032,7.142,2.509,4.479,6.16c-2.662,3.652-4.156-0.424-6.56,2.901c-2.694,1.825-1.849,1.402-2.857,1.825
						c-1.005,0.425,0-31.025,0-31.025L154.311,55.872z"/>
					<path fill="#020202" d="M156.764,83.952c0,0,0.194,1.009-0.908,1.694c-1.104,0.684-3.276,0.586-3.276,0.586
						s0.422-3.423,4.06-2.281"/>
				</g>
			</g>
		</g>
		<g>
			<g>
				<g>
					
						<linearGradient id="SVGID_2_" gradientUnits="userSpaceOnUse" x1="-848.2925" y1="-267.1797" x2="-862.8408" y2="-292.3782" gradientTransform="matrix(-1 0 0 -1 -709.6875 -207.8906)">
						<stop  offset="0" style="stop-color:#D0A094;stop-opacity:0"/>
						<stop  offset="1" style="stop-color:#BF9086"/>
					</linearGradient>
					<path fill="url(#SVGID_2_)" d="M144.525,55.872c0.101-0.034,3.441,6.353,2.955,13.197c-0.485,6.846-3.438,6.974-3.47,6.941
						c-0.033-0.032-7.142,2.509-4.48,6.16c2.661,3.652,4.154-0.424,6.557,2.901c2.694,1.825,1.85,1.402,2.856,1.825
						c1.006,0.425,0-31.025,0-31.025L144.525,55.872z"/>
					<path fill="#020202" d="M142.075,83.952c0,0-0.194,1.009,0.908,1.694c1.104,0.684,3.278,0.586,3.278,0.586
						s-0.422-3.423-4.058-2.281"/>
				</g>
			</g>
		</g>
		<path fill="#121212" d="M185.225,55.099l-4.795-4.93c0,0-1.195-11.677-13.658-17.126c-12.459-5.448-16.771-9.602-19.646-9.342
			c-2.877,0.259-12.94-0.26-18.692,10.121c-4.074,1.556-6.709,3.891-6.709,3.891v8.304c0,0-6.469,1.9-7.427,21.061
			c-2.877-12.757-2.877-12.757-2.877-12.757s-7.667-31.156,17.972-45.671c8.502-4.696,13.653-5.448,13.653-5.448
			s15.821-3.893,22.291,2.335c6.47,6.226,20.606,5.967,26.358,40.998c-2.154,19.204-5.989,25.95-5.989,25.95L185.225,55.099z"/>
		<path fill="#121212" d="M130.63,30.3l-2.331,6.941c0,0-4.195-0.608-6.577,2.478C119.343,42.809,118.133,35.243,130.63,30.3z"/>
		<path fill="#121212" d="M130.63,30.585c0,0,17.159-5.667,18.759-5.661c1.597,0.006-3.37-5.583-13.983-2.455
			C124.793,25.599,130.63,30.585,130.63,30.585z"/>
		<path display="none" fill="#606161" d="M155.6,61.561c0,0-3.367,1.634-2.756,6.915c0.613,5.28,0.805,6.355,0.805,6.355
			s-2.096-4.179-1.855-7.798c0.24-3.618,1.977-7.455,3.332-6.843C156.48,60.8,155.627,61.417,155.6,61.561z"/>
		<g>
			<path fill="#FFFFFF" d="M162.45,62.044c0.259,0.525,1.026,1.539,3.093,1.445c2.109-0.095,3.01-1.202,3.314-1.729
				c1.404,0.574,2.334,1.336,2.334,1.336c-5.601,3.912-11.83,0.294-11.83,0.294S159.841,63.093,162.45,62.044z"/>
			<path fill="#020202" d="M165.543,63.489c-2.064,0.094-2.834-0.92-3.093-1.445c0.381-0.152,0.812-0.323,1.29-0.512
				c1.869-0.731,3.729-0.343,5.117,0.229C168.553,62.287,167.652,63.395,165.543,63.489z"/>
		</g>
		<ellipse fill="#FFFFFF" cx="165.337" cy="61.9" rx="1.253" ry="0.768"/>
		<path fill="#121212" d="M157.252,55.96c0,0,3.034,1.125,5.42,0.636c2.385-0.489,10.905-3.422,14.118,0.929
			s1.604,1.419,1.604,1.419s-0.391-6.943-5.502-7.824C167.783,50.242,156.799,52.539,157.252,55.96z"/>
		<path fill="#191919" d="M163.012,61.131c0,0,2.68-1.336,8.18,1.183c0.826,0.44,1.268,0.537,1.024,0
			c-0.245-0.537-3.653-2.32-6.405-2.052C163.061,60.531,163.012,61.131,163.012,61.131z"/>
	</g>
</g>
<g>
	<g>
		<path fill="#FFFFFF" d="M55.063,164.164c0,0-19.508,12.828-20.767,37.264c-0.412,8.008-0.555,21.463-0.56,35.938
			c0,0.104,0,0.205,0,0.311C33.732,267.277,34.296,301,34.296,301h44.682l-0.15-148.723L55.063,164.164z"/>
		<path fill="#ED3450" d="M194.454,139.746c-4.815,19.804-23.132,34.548-45.006,34.548c-0.185,0-1.39-0.04-1.577-0.042L148.89,301
			h0.558h69.915l0.148-148.723L194.454,139.746z"/>
		<path fill="#FFFFFF" d="M264.046,201.428c-1.26-24.436-20.769-37.264-20.769-37.264l-23.767-11.887L219.363,301h44.683
			c0,0,0.563-33.723,0.558-63.327c0-0.104,0-0.207,0-0.312C264.6,222.891,264.457,209.436,264.046,201.428z"/>
		<g>
			<path fill="#ED3450" d="M104.385,139.496l-25.558,12.781L78.978,301h69.913l1.61-126.721
				C128.785,174.029,109.07,159.255,104.385,139.496z"/>
			<g>
				<path fill="#3A457A" d="M183.59,139.456c-4.439,14.219-18.042,24.569-34.142,24.569c-0.185,0-0.371-0.01-0.558-0.016
					c-15.852-0.234-29.194-10.503-33.584-24.557c-0.454-1.45-0.808-2.942-1.062-4.466l-9.86,4.506
					c4.685,19.759,22.791,34.53,44.506,34.782c0.187,0.002,0.373,0.016,0.558,0.016c21.875,0,40.188-14.744,45.006-34.548
					l-9.962-3.837C184.251,137.114,183.953,138.298,183.59,139.456z"/>
			</g>
		</g>
	</g>
	<rect x="34.015" y="268.729" fill="#ED3450" width="44.963" height="11.545"/>
	<rect x="34.015" y="275.16" fill="#FFFFFF" width="44.963" height="8.551"/>
	<line fill="none" stroke="#FFFFFF" stroke-width="4" stroke-miterlimit="10" x1="91.646" y1="188.77" x2="97.918" y2="194.014"/>
	<line fill="none" stroke="#FFFFFF" stroke-width="4" stroke-miterlimit="10" x1="96.66" y1="195.848" x2="114.951" y2="182.887"/>
	<rect x="219.031" y="268.729" fill="#ED3450" width="44.962" height="11.545"/>
	<rect x="219.031" y="275.16" fill="#FCFCFC" width="44.962" height="8.551"/>
	<rect x="34.015" y="280.16" fill="#374976" width="44.963" height="8.551"/>
	<rect x="219.031" y="280.16" fill="#374976" width="44.962" height="8.551"/>
</g>
<g>
	<g>
		<path fill="#DBAAA1" d="M475.754,79.918c-9.154,0-16.574,6.053-16.574,13.52v73.941c0,7.469,7.42,13.52,16.574,13.52h11.281
			V79.918H475.754z"/>
		<path fill="#C1918A" d="M498.955,79.918h-11.92v100.98h11.92c9.154,0,16.576-6.051,16.576-13.521v-73.94
			C515.531,85.972,508.109,79.918,498.955,79.918z"/>
	</g>
	<path fill="#C1918A" d="M487.473,149.635l-3.34,213.662l-1.434-238.247l32.93,4.471c0,0,18.609,16.986,32.449,21.903
		c13.84,4.916,42.475,2.234,42.475,56.768c3.816,54.979,11.451,118.451,11.451,118.451s8.113,127.396,0,137.229
		c0.479,17.434-22.43,40.678-22.43,40.678l-1.908-10.277c0,0,17.18-17.883,9.547-42.912c-4.773,25.029-4.773,25.029-4.773,25.029
		l-5.247,2.232l-4.771-37.992c0,0,4.771-12.066,10.498-10.729c2.859-36.208,2.859-36.208,2.859-36.208s-7.634-7.149-15.748-48.274
		c-8.109-41.123-11.451-92.976-11.451-92.976s-7.853-34.418,2.039-46.041c9.895-11.618-12.539,23.244-19.221,73.31
		c10.021,50.063,10.497,54.531,10.497,54.531v19.668l-67.764,4.918"/>
	<path fill="#DBAAA1" d="M486.518,149.635l3.341,213.662l-3.341-238.247l-28.155,4.471c0,0-18.607,16.986-32.451,21.903
		c-13.84,4.916-42.473,2.234-42.473,56.768c-3.815,54.979-11.453,118.451-11.453,118.451s-8.11,127.396,0,137.229
		c-0.479,17.434,22.432,40.678,22.432,40.678l1.906-10.277c0,0-17.181-17.883-9.545-42.912c4.772,25.029,4.772,25.029,4.772,25.029
		l5.25,2.232l4.771-37.992c0,0-4.771-12.066-10.5-10.729c-2.862-36.208-2.862-36.208-2.862-36.208s7.636-7.149,15.749-48.274
		c8.111-41.123,11.451-92.976,11.451-92.976s7.85-34.418-2.041-46.041c-9.889-11.618,12.541,23.244,19.223,73.31
		c-10.021,50.063-10.5,54.531-10.5,54.531v19.668l67.767,4.918"/>
	<circle fill="#AC7A70" cx="445.979" cy="208.152" r="3.579"/>
	<circle fill="#AC7A70" cx="538.535" cy="208.152" r="3.58"/>
	<path fill="#AC7A70" d="M491.768,326.461c0,3.756-1.282,6.799-2.864,6.799c-1.58,0-2.859-3.043-2.859-6.799
		c0-3.758,1.279-6.801,2.859-6.801C490.484,319.66,491.768,322.703,491.768,326.461z"/>
	<g>
		<g>
			<path fill="#C58E83" d="M487.24,24.944c-5.439-0.22-31.558,0.735-34.57,39.033c0,0-0.785,21.659,7.742,35.445
				c8.524,13.788,16.713,18.579,16.713,18.579s2.953,2.561,8.842,2.907c0.064,0.015,0.131,0.023,0.195,0.027
				c0.527,0.019,1.027,0.018,1.52,0.008V24.931C487.525,24.935,487.373,24.939,487.24,24.944z"/>
			<path fill="#D0A094" d="M524.619,63.978c-3.182-37.422-30.215-39.189-36.938-39.046v96.012c0.136-0.004,0.277-0.004,0.41-0.007
				c0.049-0.001,0.092,0.001,0.142-0.001c0.008,0,0.016-0.004,0.021-0.004c6.611-0.266,9.92-2.93,9.92-2.93
				s8.854-4.791,18.072-18.579C525.471,85.636,524.619,63.978,524.619,63.978z"/>
		</g>
		<g>
			<path fill="#FFFFFF" d="M475.043,62.044c-0.26,0.525-1.031,1.539-3.096,1.445c-2.107-0.095-3.008-1.202-3.316-1.729
				c-1.399,0.574-2.33,1.336-2.33,1.336c5.597,3.912,11.83,0.294,11.83,0.294S477.646,63.093,475.043,62.044z"/>
			<path fill="#020202" d="M471.947,63.489c2.063,0.094,2.834-0.92,3.094-1.445c-0.385-0.152-0.813-0.323-1.295-0.512
				c-1.867-0.731-3.728-0.343-5.117,0.229C468.938,62.287,469.838,63.395,471.947,63.489z"/>
		</g>
		<ellipse fill="#FFFFFF" cx="472.152" cy="61.9" rx="1.252" ry="0.768"/>
		<path fill="#121212" d="M480.236,55.96c0,0-3.033,1.125-5.418,0.636c-2.384-0.489-10.906-3.422-14.117,0.929
			c-3.215,4.351-1.605,1.419-1.605,1.419s0.39-6.943,5.502-7.824C469.709,50.242,480.689,52.539,480.236,55.96z"/>
		<path fill="#191919" d="M474.479,61.131c0,0-2.678-1.336-8.18,1.183c-0.828,0.44-1.266,0.537-1.021,0
			c0.241-0.537,3.649-2.32,6.401-2.052C474.43,60.531,474.479,61.131,474.479,61.131z"/>
		<path display="none" fill="#606161" d="M478.434,60.779c0,0,4.263,1.633,3.488,6.915c-0.774,5.28-1.02,6.355-1.02,6.355
			s2.649-4.18,2.35-7.798s-2.492-7.457-4.211-6.844C477.318,60.017,478.398,60.635,478.434,60.779z"/>
		<path fill="#97485A" d="M473.732,98.525c0,0,8.809-1.743,12.106-0.698c3.303,1.046,6.91-0.567,9.045,0.182
			s5.396,0.901,5.396,0.901s-12.343,6.352-14.593,5.887C483.434,104.333,474.313,100.305,473.732,98.525z"/>
		<path fill="#692137" d="M474.803,97.207c0,0,3.974-1.804,5.681-1.826c1.702-0.021,3.082-0.096,4.188,0.554
			c1.104,0.652,2.664,1.271,2.664,1.271s0.738-0.368,3.986-1.369c2.854-0.881,8.053,3.081,9.188,3.063
			c1.06-0.017-13.176-0.032-13.176-0.032l-12.527-0.229l-1.104-0.293L474.803,97.207z"/>
		<path fill="#A6576C" d="M491.578,100.916c0,0-3.408,1.598-4.771,1.142c-1.362-0.457-4.118-1.563-4.118-1.563
			S490.344,99.548,491.578,100.916z"/>
		<path fill="#D0A094" d="M454.102,66.061c0,0-1.079-9.898-5.536-6.268c-4.457,3.631,0.7,5.765,0.178,8.334
			c-0.521,2.57,2.164,4.605,1.313,10.485c-0.856,5.881-0.53,6.227,1.273,7.562c1.807,1.335,3.367,0.399,3.549,0.141
			C455.053,86.055,454.102,66.061,454.102,66.061z"/>
		<path fill="#D0A094" d="M522.709,67.087c0,0,5.57-9.484,6.229-2.296c0.564,6.11-1.688,10.282-3.114,12.63
			c-1.429,2.346,0.778,8.473-0.584,9.779c-1.357,1.302-1.492,3.063-3.765,2.932C519.201,90.001,522.709,67.087,522.709,67.087z"/>
		<g>
			<g>
				<g>
					
						<linearGradient id="SVGID_3_" gradientUnits="userSpaceOnUse" x1="141.4458" y1="554.1289" x2="126.8989" y2="579.3248" gradientTransform="matrix(1 0 0 1 356.79 -494.8359)">
						<stop  offset="0" style="stop-color:#D0A094;stop-opacity:0"/>
						<stop  offset="1" style="stop-color:#BF9086;stop-opacity:0.7"/>
					</linearGradient>
					<path fill="url(#SVGID_3_)" d="M492.311,55.872c-0.098-0.034-3.438,6.353-2.954,13.197c0.483,6.846,3.44,6.974,3.479,6.941
						c0.027-0.032,7.141,2.509,4.479,6.16c-2.662,3.652-4.156-0.424-6.56,2.901c-2.692,1.825-1.85,1.402-2.856,1.825
						c-1.004,0.425,0-31.025,0-31.025L492.311,55.872z"/>
					<path fill="#020202" d="M494.764,83.952c0,0,0.195,1.009-0.907,1.694c-1.104,0.684-3.277,0.586-3.277,0.586
						s0.424-3.423,4.061-2.281"/>
				</g>
			</g>
		</g>
		<g>
			<g>
				<g>
					
						<linearGradient id="SVGID_4_" gradientUnits="userSpaceOnUse" x1="-1848.3628" y1="554.126" x2="-1862.9111" y2="579.3245" gradientTransform="matrix(-1 0 0 1 -1371.7578 -494.8359)">
						<stop  offset="0" style="stop-color:#D0A094;stop-opacity:0"/>
						<stop  offset="1" style="stop-color:#BF9086"/>
					</linearGradient>
					<path fill="url(#SVGID_4_)" d="M482.525,55.872c0.102-0.034,3.438,6.353,2.955,13.197c-0.486,6.846-3.438,6.974-3.472,6.941
						c-0.033-0.032-7.145,2.509-4.479,6.16c2.662,3.652,4.153-0.424,6.559,2.901c2.693,1.825,1.85,1.402,2.855,1.825
						c1.006,0.425,0-31.025,0-31.025L482.525,55.872z"/>
					<path fill="#020202" d="M480.074,83.952c0,0-0.193,1.009,0.908,1.694c1.104,0.684,3.278,0.586,3.278,0.586
						s-0.424-3.423-4.063-2.281"/>
				</g>
			</g>
		</g>
		<path fill="#121212" d="M523.225,55.099l-4.795-4.93c0,0-1.194-11.677-13.657-17.126c-12.46-5.448-16.771-9.602-19.646-9.342
			c-2.877,0.259-12.938-0.26-18.691,10.121c-4.073,1.556-6.709,3.891-6.709,3.891v8.304c0,0-6.469,1.9-7.428,21.061
			c-2.877-12.757-2.877-12.757-2.877-12.757s-7.666-31.156,17.973-45.671c8.502-4.696,13.652-5.448,13.652-5.448
			s15.818-3.893,22.291,2.335c6.469,6.226,20.605,5.967,26.357,40.998c-2.156,19.204-5.99,25.95-5.99,25.95L523.225,55.099z"/>
		<path fill="#121212" d="M468.631,30.3l-2.332,6.941c0,0-4.195-0.608-6.576,2.478C457.344,42.809,456.133,35.243,468.631,30.3z"/>
		<path fill="#121212" d="M468.631,30.585c0,0,17.158-5.667,18.758-5.661c1.599,0.006-3.369-5.583-13.981-2.455
			C462.793,25.599,468.631,30.585,468.631,30.585z"/>
		<path display="none" fill="#606161" d="M493.6,61.561c0,0-3.366,1.634-2.756,6.915c0.613,5.28,0.806,6.355,0.806,6.355
			s-2.097-4.179-1.854-7.798c0.236-3.618,1.975-7.455,3.332-6.843C494.48,60.8,493.627,61.417,493.6,61.561z"/>
		<g>
			<path fill="#FFFFFF" d="M500.449,62.044c0.26,0.525,1.026,1.539,3.094,1.445c2.109-0.095,3.01-1.202,3.314-1.729
				c1.403,0.574,2.334,1.336,2.334,1.336c-5.601,3.912-11.83,0.294-11.83,0.294S497.842,63.093,500.449,62.044z"/>
			<path fill="#020202" d="M503.543,63.489c-2.064,0.094-2.834-0.92-3.094-1.445c0.383-0.152,0.813-0.323,1.291-0.512
				c1.869-0.731,3.729-0.343,5.117,0.229C506.553,62.287,505.652,63.395,503.543,63.489z"/>
		</g>
		<ellipse fill="#FFFFFF" cx="503.338" cy="61.9" rx="1.252" ry="0.768"/>
		<path fill="#121212" d="M495.252,55.96c0,0,3.033,1.125,5.42,0.636c2.385-0.489,10.904-3.422,14.119,0.929
			c3.213,4.351,1.604,1.419,1.604,1.419s-0.389-6.943-5.502-7.824C505.783,50.242,494.799,52.539,495.252,55.96z"/>
		<path fill="#191919" d="M501.012,61.131c0,0,2.681-1.336,8.181,1.183c0.825,0.44,1.27,0.537,1.024,0
			c-0.246-0.537-3.654-2.32-6.406-2.052C501.061,60.531,501.012,61.131,501.012,61.131z"/>
	</g>
</g>
<g>
	<polygon fill="#FFFFFF" points="515.658,111.891 515.174,122.856 493.17,132.65 482.365,132.65 459.764,119.071 455.613,137.466 
		380.326,161.202 383.822,290 406.307,304.799 406.805,340.391 410.521,354.096 524.26,358.156 566.682,353.588 573.676,248.004 
		573.676,167.293 539.135,137.466 524.26,134.384 	"/>
	<g>
		<path fill="#020202" stroke="#1E1E1E" stroke-miterlimit="10" d="M457.408,116.375l-16.152,22.062l-66.132,23.527l-63.851,344.237
			c0,0,35.346,9.905,45.605,13.621c10.265,3.714,11.401-110.205,11.401-110.205l28.504-90.354c0,0,3.422,111.399-2.28,143.6
			c-5.698,32.189-1.142,177.068-1.142,177.068s71.489-97.821,89.334-198.123c-11.806,13.621-11.806,13.621-11.806,13.621
			l-58.146-38.388l1.145-21.049l38.765,21.049l17.104-37.768l-10.268-218.555C459.496,160.727,448.287,160.953,457.408,116.375z"/>
		<polyline fill="#2B2B2B" points="410.602,161.719 443.479,173.506 427.234,155.852 459.32,111.891 469.289,336.866 
			410.521,166.672 		"/>
	</g>
	<g>
		<path fill="#020202" stroke="#1E1E1E" stroke-miterlimit="10" d="M516.875,114.75l16.158,22.062l66.131,23.527l63.85,344.237
			c0,0-35.346,9.905-45.604,13.621c-10.265,3.714-11.4-110.205-11.4-110.205L577.5,317.641c0,0-3.42,111.399,2.281,143.6
			c5.699,32.189,1.139,177.068,1.139,177.068s-71.49-97.821-89.334-198.123c11.803,13.621,11.803,13.621,11.803,13.621l58.15-38.388
			l-1.143-21.049l-38.767,21.049l-17.104-37.767L514.789,159.1C514.787,159.102,525.994,159.328,516.875,114.75z"/>
		<polyline fill="#2B2B2B" points="564.379,161.719 531.502,173.506 547.746,155.852 515.658,111.891 505.691,336.866 
			564.461,166.672 		"/>
	</g>
</g>
<g>
	<path fill="#050606" d="M516.795,122.015c0,0-8.418-1.484-24.469,8.739c-9.396,0-9.396,0-9.396,0s-22.705-17.793-26.426-8.814
		c-3.721,8.98,0,21.182,0,21.182s-3.521,10.882,25.443-0.825c6.729-2.621,9.594,0.329,9.594,0.329s19.572,11.349,25.252,5.097
		C522.469,141.472,519.143,118.882,516.795,122.015z"/>
	<polygon fill="#B2B3B3" points="481.563,132.238 481.563,136.69 467.664,134.464 	"/>
	<path fill="#B2B3B3" d="M493.365,133.063v3.627h15.795C509.16,136.69,494.402,133.886,493.365,133.063z"/>
	<rect x="481.563" y="136.69" fill="#B2B3B3" width="11.806" height="6.93"/>
</g>
<g>
	<path fill="#D82A52" stroke="#E2B069" stroke-width="2" stroke-miterlimit="10" d="M194.096,181.365h-0.166h-0.166h-10.688v12.769
		c0,0,2.328,7.942,10.688,10.899c0,0.041,0,0.08,0,0.119c0.055-0.021,0.108-0.039,0.166-0.062c0.057,0.021,0.109,0.041,0.166,0.062
		c0-0.039,0-0.078,0-0.119c8.356-2.957,10.687-10.899,10.687-10.899v-12.769H194.096z"/>
	
		<line fill="none" stroke="#FFF9FB" stroke-width="2" stroke-miterlimit="10" x1="193.596" y1="193.855" x2="193.596" y2="197.797"/>
	<line fill="none" stroke="#FFF9FB" stroke-width="2" stroke-miterlimit="10" x1="193.93" y1="197.132" x2="191.348" y2="198.354"/>
	
		<line fill="none" stroke="#FFF9FB" stroke-width="3" stroke-miterlimit="10" x1="185.686" y1="188.805" x2="203.115" y2="188.805"/>
	<circle fill="#ED3350" stroke="#FFFFFF" stroke-miterlimit="10" cx="193.596" cy="190.581" r="4.608"/>
	<circle fill="#ED3350" stroke="#FFFFFF" stroke-width="2" stroke-miterlimit="10" cx="193.596" cy="190.581" r="0.944"/>
</g>
</svg>
