<?xml version="1.0" encoding="iso-8859-1"?>
<!-- Generator: Adobe Illustrator 16.0.0, SVG Export Plug-In . SVG Version: 6.00 Build 0)  -->
<!DOCTYPE svg PUBLIC "-//W3C//DTD SVG 1.1//EN" "http://www.w3.org/Graphics/SVG/1.1/DTD/svg11.dtd">
<svg version="1.1" id="Layer_1" xmlns="http://www.w3.org/2000/svg" xmlns:xlink="http://www.w3.org/1999/xlink" x="0px" y="0px"
	 width="283.582px" height="253.731px" viewBox="0 0 283.582 253.731" style="enable-background:new 0 0 283.582 253.731;"
	 xml:space="preserve">
<circle style="fill:#FFFFFF;" cx="151.757" cy="125.97" r="78.47"/>
<g>
	<circle style="fill:#B2B3B3;" cx="151.691" cy="124.44" r="89.808"/>
	<circle style="fill:#FFFFFF;" cx="151.691" cy="124.44" r="78.47"/>
	<g>
		<g>
			<path style="fill:#878787;" d="M236.458,41.647l-7.668-7.667c-5.928-5.928-15.537-5.928-21.465,0l-23.51,23.51l29.131,29.132
				l23.512-23.51C242.383,57.186,242.383,47.575,236.458,41.647z"/>
			<path style="fill:#CCCCCC;" d="M191.481,86.624l-7.666-7.667c-5.928-5.927-5.93-15.538,0-21.466L78.528,162.776l29.133,29.133
				L212.946,86.624C207.018,92.551,197.409,92.551,191.481,86.624z"/>
			<path style="fill:#CCCCCC;" d="M183.815,78.957l7.666,7.667c5.928,5.928,15.537,5.928,21.465,0l-29.131-29.132
				C177.885,63.419,177.887,73.03,183.815,78.957z"/>
		</g>
		<g>
			<polygon style="fill:#050606;" points="84.671,195.109 75.328,185.767 73.674,196.764 			"/>
			<polygon style="fill:#E2E2E2;stroke:#B5B5B6;stroke-miterlimit:10;" points="107.963,191.607 78.83,162.475 75.328,185.767 
				84.671,195.109 			"/>
		</g>
	</g>
</g>
</svg>
