<?xml version="1.0" encoding="utf-8"?>
<!-- Generator: Adobe Illustrator 16.0.0, SVG Export Plug-In . SVG Version: 6.00 Build 0)  -->
<!DOCTYPE svg PUBLIC "-//W3C//DTD SVG 1.1//EN" "http://www.w3.org/Graphics/SVG/1.1/DTD/svg11.dtd">
<svg version="1.1" id="Layer_1" xmlns="http://www.w3.org/2000/svg" xmlns:xlink="http://www.w3.org/1999/xlink" x="0px" y="0px"
	 width="247.297px" height="248.648px" viewBox="0 0 247.297 248.648" enable-background="new 0 0 247.297 248.648"
	 xml:space="preserve">
<g>
	<path fill="#3F83C4" d="M122.513,199.905c-40.041,0-72.5-32.459-72.5-72.5c0-40.041,32.459-72.5,72.5-72.5v-15.5
		c-48.601,0-88,39.399-88,88c0,48.602,39.399,88,88,88c24.301,0,46.301-9.85,62.226-25.774l-10.96-10.96
		C160.659,191.79,142.534,199.905,122.513,199.905z"/>
	<path fill="#5399D3" d="M122.513,39.405v15.5c40.041,0,72.5,32.459,72.5,72.5c0,20.021-8.115,38.146-21.234,51.266l10.96,10.96
		c15.925-15.925,25.774-37.925,25.774-62.226C210.513,78.804,171.115,39.405,122.513,39.405z"/>
	<path opacity="0.7" fill="#FFFFFF" d="M50.013,127.405c0,40.041,32.459,72.5,72.5,72.5c20.021,0,38.146-8.115,51.266-21.234
		l-51.266-51.266v-72.5C82.473,54.905,50.013,87.365,50.013,127.405z"/>
</g>
<text transform="matrix(1 0 0 1 66.0166 133.6943)" fill="#3F83C4" font-family="'MyriadPro-Regular'" font-size="24">70%</text>
</svg>
