<?xml version="1.0" encoding="iso-8859-1"?>
<!-- Generator: Adobe Illustrator 16.0.0, SVG Export Plug-In . SVG Version: 6.00 Build 0)  -->
<!DOCTYPE svg PUBLIC "-//W3C//DTD SVG 1.1//EN" "http://www.w3.org/Graphics/SVG/1.1/DTD/svg11.dtd">
<svg version="1.1" id="Layer_1" xmlns="http://www.w3.org/2000/svg" xmlns:xlink="http://www.w3.org/1999/xlink" x="0px" y="0px"
	 width="316.418px" height="267.164px" viewBox="0 0 316.418 267.164" style="enable-background:new 0 0 316.418 267.164;"
	 xml:space="preserve">
<g>
	<path style="fill:#FFFFFF;" d="M158.212,41.663c-49.659,0-89.92,40.258-89.92,89.918c0,36.819,22.141,68.449,53.822,82.356
		c-0.253-6.278-0.045-13.815,1.565-20.646c1.729-7.3,11.57-48.996,11.57-48.996s-2.873-5.741-2.873-14.228
		c0-13.325,7.724-23.276,17.342-23.276c8.179,0,12.129,6.144,12.129,13.5c0,8.222-5.244,20.52-7.941,31.91
		c-2.253,9.539,4.783,17.318,14.193,17.318c17.037,0,28.51-21.881,28.51-47.807c0-19.708-13.272-34.458-37.414-34.458
		c-27.275,0-44.268,20.341-44.268,43.063c0,7.834,2.31,13.358,5.928,17.635c1.663,1.967,1.895,2.757,1.292,5.012
		c-0.43,1.655-1.421,5.639-1.831,7.217c-0.599,2.277-2.444,3.092-4.502,2.252c-12.563-5.13-18.415-18.889-18.415-34.354
		c0-25.542,21.542-56.171,64.265-56.171c34.329,0,56.924,24.843,56.924,51.509c0,35.274-19.609,61.626-48.518,61.626
		c-9.709,0-18.839-5.248-21.966-11.208c0,0-5.221,20.717-6.326,24.718c-1.906,6.934-5.638,13.861-9.05,19.264
		c8.087,2.387,16.629,3.687,25.484,3.687c49.653,0,89.913-40.257,89.913-89.92C248.125,81.921,207.865,41.663,158.212,41.663z"/>
</g>
</svg>
