<?xml version="1.0" encoding="utf-8"?>
<!-- Generator: Adobe Illustrator 16.0.0, SVG Export Plug-In . SVG Version: 6.00 Build 0)  -->
<!DOCTYPE svg PUBLIC "-//W3C//DTD SVG 1.1//EN" "http://www.w3.org/Graphics/SVG/1.1/DTD/svg11.dtd">
<svg version="1.1" id="Layer_1" xmlns="http://www.w3.org/2000/svg" xmlns:xlink="http://www.w3.org/1999/xlink" x="0px" y="0px"
	 width="152px" height="150px" viewBox="0 0 152 150" enable-background="new 0 0 152 150" xml:space="preserve">
<circle fill="#FFFFFF" cx="77.091" cy="74" r="67"/>
<image overflow="visible" enable-background="new    " width="1367" height="768" xlink:href="F8D655E6.jpg"  transform="matrix(0.9994 0 0 0.9994 325.9346 -987.7866)">
</image>
<g>
	<g>
		<polyline fill="#DF5A47" points="108.7,41.37 95.023,43.929 100.583,49.487 106.085,54.989 		"/>
		<path fill="#DF5A47" d="M79.915,85.794c18.769-10.948,25.248-28.822,25.248-28.822L99.13,50.94l-0.194-0.196l-6.033-6.032
			c0,0-17.874,6.479-28.822,25.248l-10.948,0.67L42.76,83.011l2.011,2.013l9.478-5.681l3.463,1.9l-2.123,2.121l5.391,5.391
			l0.139,0.14l5.39,5.391l2.123-2.122l1.899,3.462l-5.679,9.479l2.011,2.013l12.382-10.372L79.915,85.794z"/>
		<polyline fill="#DF5A47" points="54.667,85.182 53.55,87.639 62.375,96.465 64.749,95.264 		"/>
	</g>
	<circle fill="#EAEAEA" stroke="#BE3E27" stroke-width="3" stroke-miterlimit="10" cx="90.65" cy="59.278" r="7.129"/>
	<circle fill="#EAEAEA" stroke="#BE3E27" stroke-width="2" stroke-miterlimit="10" cx="79.945" cy="69.985" r="3.374"/>
	<path fill="#BE3F27" d="M51.907,88.748c0,0-4.721-0.057-7.231,5.014c2.169-0.818,5.018,0.223,5.018,0.223s-7.734-0.801-6.703,6.863
		c-0.645,3.793-5.277,2.203-6.322,1.699c-1.044-0.503,0.604,3.557,7.271,0.944c3.511-0.161-2.668,5.202-5.987,4.446
		c-3.318-0.758,8.631,4.646,11.934-8.004c5.213-4.188,2.361,5.133,0.041,5.942c-2.321,0.812,7.137,3.974,11.464-7.719"/>
</g>
<circle fill="#EFC84A" cx="343.091" cy="74" r="67"/>
<polygon fill="#BE3F27" points="343.448,38.352 309.748,57.964 343.448,77.162 376.434,57.757 "/>
<g>
	<path fill="#BE3F27" d="M308.898,96.631c0.3,0.342,0.737,0.559,1.229,0.559h65.927c0.439,0,0.838-0.174,1.131-0.455l-34.23-19.959
		L308.898,96.631z"/>
	<path fill="#BE3F27" d="M375.869,57.757h-65.742c-0.027,0-0.054,0.003-0.081,0.004l32.907,18.856L375.869,57.757z"/>
	<path fill="#DF5A47" d="M342.816,76.695l0.137-0.078l-32.907-18.856c-0.865,0.043-1.554,0.756-1.554,1.632v36.162
		c0,0.412,0.154,0.788,0.406,1.076l34.055-19.855L342.816,76.695z"/>
	<path fill="#DF5A47" d="M377.688,95.555V59.393c0-0.903-0.731-1.636-1.635-1.636h-0.185l-32.916,18.86l0.137,0.078l-0.137,0.08
		l34.23,19.957C377.495,96.436,377.688,96.018,377.688,95.555z"/>
	<polygon fill="#DF5A47" points="342.953,76.775 343.09,76.695 342.953,76.617 342.816,76.695 	"/>
</g>
<g>
	<polygon fill="#E4E7E7" points="315.509,45.435 315.509,60.277 342.598,74.461 370.673,59.967 370.673,45.435 	"/>
</g>
</svg>
