<?xml version="1.0" encoding="utf-8"?>
<!-- Generator: Adobe Illustrator 16.0.0, SVG Export Plug-In . SVG Version: 6.00 Build 0)  -->
<!DOCTYPE svg PUBLIC "-//W3C//DTD SVG 1.1//EN" "http://www.w3.org/Graphics/SVG/1.1/DTD/svg11.dtd">
<svg version="1.1" id="Layer_1" xmlns="http://www.w3.org/2000/svg" xmlns:xlink="http://www.w3.org/1999/xlink" x="0px" y="0px"
	 width="470.27px" height="358.723px" viewBox="0 0 470.27 358.723" enable-background="new 0 0 470.27 358.723"
	 xml:space="preserve">
<path fill="#FFFFFF" stroke="#0DAAA6" stroke-width="3" stroke-miterlimit="10" d="M807.797,205.539
	c6.748,3.272-2.5,105.5-2.5,105.5s2.811,23.5,8.904,0c6.096-23.5,9.096-29.5,13.595-30.5c4.5-1,18.5-1,20,8.5s0,20.5,0,20.5
	s7-10,17-1s10,29.5,9.5,29s10.5-7.482,16,0.01c5.5,7.49,24.5,31.99,16.5,54.99s-22.5,100.5-74.5,103.5
	c-51.999,3-66.999-30.5-75.499-50.5s-18.5-42.5-22.5-44.5s2.287-20.119,0-41c-0.891-8.127-11.5-48-11.5-48s-3.667-20.332,16.5-4.5
	c12.166,13.168,17.5,46,16.5,47.5s8.5,12.189,8-5.156c-0.5-17.344,7-36.844,10-47.344S774.463,189.375,807.797,205.539z"/>
<g>
	<polygon fill="#D1D3D4" points="215.076,282.299 211.392,240.757 181.321,241.38 150.731,240.757 147.046,282.299 138.259,289.886 
		138.259,291.484 139.771,293.082 142.039,293.982 150.731,294.381 181.007,294.977 181.007,294.979 181.062,294.979 
		181.115,294.979 181.115,294.977 211.392,294.381 220.084,293.982 222.352,293.082 223.863,291.484 223.863,289.886 	"/>
	<polygon fill="#247FC3" points="215.076,281.928 211.392,242.623 181.321,243.211 150.731,242.623 147.046,281.928 138.259,289.11 
		138.259,290.621 139.771,292.131 142.039,292.982 150.731,293.361 181.007,293.924 181.007,293.927 181.062,293.927 
		181.115,293.927 181.115,293.924 211.392,293.361 220.084,292.982 222.352,292.131 223.863,290.621 223.863,289.11 	"/>
	<path fill="#247FC3" d="M315.009,48.182H45.324c-6.432,0-11.646,5.215-11.646,11.646v10.653v152.543v10.654
		c0,6.432,5.214,11.644,11.646,11.644h269.686c6.434,0,11.646-5.212,11.646-11.644v-10.654V70.481V59.828
		C326.656,53.396,321.443,48.182,315.009,48.182z"/>
	<rect x="43.805" y="60.244" fill="#FFFFFF" width="272.852" height="141.4"/>
	<path fill="#247FC3" d="M33.678,214.062v8.962v10.654c0,6.432,5.214,11.644,11.646,11.644h269.686
		c6.434,0,11.646-5.212,11.646-11.644v-10.654v-8.962H33.678z"/>
</g>
<g>
	<rect x="56.174" y="71.371" fill="#D1D2D1" width="247.985" height="32.586"/>
	<rect x="56.174" y="114.651" fill="#D1D2D1" width="119.862" height="32.586"/>
	<rect x="189.657" y="114.651" opacity="0.5" fill="#1F77A4" width="114.503" height="32.586"/>
	<rect x="56.174" y="159.038" fill="#D1D2D1" width="77.195" height="32.586"/>
	<rect x="146.668" y="159.038" fill="#D1D2D1" width="77.195" height="32.586"/>
	<rect x="235.135" y="159.038" fill="#D1D2D1" width="77.194" height="32.586"/>
</g>
<g>
	<path fill="#247FC3" d="M385.249,289.202c0,3.138-2.545,5.684-5.685,5.684h-107.77c-3.139,0-5.684-2.546-5.684-5.684V143.409
		c0-3.14,2.545-5.684,5.684-5.684h107.77c3.14,0,5.685,2.544,5.685,5.684V289.202z"/>
	<rect x="279.587" y="153.207" fill="#FFFFFF" width="92.185" height="127.369"/>
	<ellipse fill="#BCBEC0" cx="325.679" cy="287.993" rx="3.989" ry="3.824"/>
	<ellipse fill="#FFFFFF" cx="325.679" cy="288.106" rx="3.989" ry="3.825"/>
	<path fill="#E6E7E8" d="M326.607,286.65h-1.855c-0.303,0-0.551,0.243-0.551,0.543v1.754c0,0.3,0.248,0.543,0.551,0.543h1.855
		c0.305,0,0.551-0.243,0.551-0.543v-1.754C327.158,286.893,326.912,286.65,326.607,286.65z M326.911,288.799
		c0,0.25-0.205,0.454-0.46,0.454h-1.543c-0.255,0-0.459-0.204-0.459-0.454v-1.459c0-0.25,0.204-0.454,0.459-0.454h1.543
		c0.255,0,0.46,0.204,0.46,0.454V288.799z"/>
</g>
<g>
	<g>
		<path fill="#D1D3D4" d="M437.933,292.662c0,3.079-2.62,5.576-5.855,5.576h-33.9c-3.235,0-5.856-2.497-5.856-5.576v-81.581
			c0-3.081,2.621-5.578,5.856-5.578h33.9c3.235,0,5.855,2.497,5.855,5.578V292.662z"/>
		<path fill="#247FC3" d="M437.48,291.509c0,3.043-2.569,5.506-5.739,5.506h-33.227c-3.17,0-5.738-2.463-5.738-5.506v-80.502
			c0-3.041,2.568-5.505,5.738-5.505h33.227c3.17,0,5.739,2.464,5.739,5.505V291.509z"/>
	</g>
	<path fill="#58595B" d="M418.572,212.872c0,0.25-0.212,0.453-0.473,0.453h-6.834c-0.261,0-0.473-0.203-0.473-0.453l0,0
		c0-0.25,0.212-0.454,0.473-0.454h6.834C418.36,212.418,418.572,212.622,418.572,212.872L418.572,212.872z"/>
	<ellipse fill="#58595B" cx="414.61" cy="209.348" rx="0.944" ry="0.905"/>
	<path fill="#FFFFFF" d="M418.663,212.959c0,0.251-0.212,0.453-0.473,0.453h-6.833c-0.262,0-0.474-0.202-0.474-0.453l0,0
		c0-0.25,0.212-0.454,0.474-0.454h6.833C418.451,212.505,418.663,212.709,418.663,212.959L418.663,212.959z"/>
	<ellipse fill="#FFFFFF" cx="414.727" cy="209.46" rx="0.943" ry="0.906"/>
	<ellipse fill="#FFFFFF" cx="408.817" cy="212.959" rx="0.433" ry="0.415"/>
	<ellipse fill="#BCBEC0" cx="415.216" cy="291.52" rx="3.989" ry="3.825"/>
	<ellipse fill="#E6E7E8" cx="415.216" cy="291.632" rx="3.989" ry="3.826"/>
	<path fill="#D1D3D4" d="M416.133,290.177h-1.854c-0.305,0-0.552,0.243-0.552,0.543v1.755c0,0.3,0.247,0.543,0.552,0.543h1.854
		c0.306,0,0.553-0.243,0.553-0.543v-1.755C416.686,290.42,416.439,290.177,416.133,290.177z M416.438,292.328
		c0,0.252-0.205,0.454-0.459,0.454h-1.544c-0.253,0-0.459-0.202-0.459-0.454v-1.459c0-0.253,0.206-0.452,0.459-0.452h1.544
		c0.254,0,0.459,0.199,0.459,0.452V292.328z"/>
	<rect x="396.108" y="218.632" fill="#FFFFFF" width="38.038" height="66.478"/>
</g>
<rect x="285.18" y="159.038" fill="#D1D2D1" width="81" height="32.586"/>
<rect x="285.18" y="198.695" opacity="0.5" fill="#1F77A4" width="81" height="32.587"/>
<rect x="285.18" y="239.354" fill="#D1D2D1" width="81" height="32.586"/>
<rect x="402.514" y="224.125" fill="#D1D2D1" width="25.521" height="16.293"/>
<rect x="402.514" y="243.954" opacity="0.5" fill="#0B527D" width="25.521" height="16.294"/>
<rect x="402.514" y="264.283" fill="#D1D2D1" width="25.521" height="16.293"/>
</svg>
