<?xml version="1.0" encoding="iso-8859-1"?>
<!-- Generator: Adobe Illustrator 16.0.0, SVG Export Plug-In . SVG Version: 6.00 Build 0)  -->
<!DOCTYPE svg PUBLIC "-//W3C//DTD SVG 1.1//EN" "http://www.w3.org/Graphics/SVG/1.1/DTD/svg11.dtd">
<svg version="1.1" id="Layer_1" xmlns="http://www.w3.org/2000/svg" xmlns:xlink="http://www.w3.org/1999/xlink" x="0px" y="0px"
	 width="283.582px" height="253.731px" viewBox="0 0 283.582 253.731" style="enable-background:new 0 0 283.582 253.731;"
	 xml:space="preserve">
<circle style="fill:#6B6B6B;" cx="151.757" cy="125.97" r="89.808"/>
<circle style="fill:#FFFFFF;" cx="151.757" cy="125.97" r="78.47"/>
<g>
	<g>
		<polyline style="fill:#878787;" points="252.963,21.06 209.858,29.127 227.377,46.646 244.719,63.989 		"/>
		<path style="fill:#B5B5B6;" d="M162.231,161.089c59.16-34.509,79.583-90.85,79.583-90.85l-19.015-19.015l-0.617-0.616
			l-19.016-19.016c0,0-56.34,20.424-90.851,79.583l-34.509,2.113l-32.692,39.031l6.338,6.338l29.875-17.902l10.916,5.986l-6.69,6.69
			l16.991,16.991l0.44,0.438l16.991,16.991l6.689-6.689l5.987,10.915l-17.903,29.875l6.339,6.339l39.029-32.691L162.231,161.089z"/>
		<polyline style="fill:#B5B5B6;" points="82.645,159.157 79.125,166.903 106.943,194.724 114.426,190.938 		"/>
	</g>
	<circle style="fill:#EAEAEA;stroke:#565656;stroke-width:3;stroke-miterlimit:10;" cx="196.073" cy="77.51" r="22.472"/>
	<circle style="fill:#EAEAEA;stroke:#565656;stroke-width:2;stroke-miterlimit:10;" cx="162.326" cy="111.257" r="10.635"/>
	<path style="fill:#E83232;" d="M73.945,170.402c0,0-14.88-0.178-22.792,15.8c6.837-2.578,15.816,0.7,15.816,0.7
		s-24.38-2.521-21.128,21.636c-2.031,11.954-16.635,6.945-19.927,5.359c-3.292-1.587,1.904,11.21,22.919,2.976
		c11.067-0.509-8.41,16.396-18.871,14.013c-10.459-2.385,27.205,14.65,37.617-25.228c16.432-13.197,7.445,16.179,0.129,18.736
		c-7.316,2.557,22.497,12.522,36.136-24.332"/>
</g>
</svg>
