<?xml version="1.0" encoding="utf-8"?>
<!-- Generator: Adobe Illustrator 16.0.0, SVG Export Plug-In . SVG Version: 6.00 Build 0)  -->
<!DOCTYPE svg PUBLIC "-//W3C//DTD SVG 1.1//EN" "http://www.w3.org/Graphics/SVG/1.1/DTD/svg11.dtd">
<svg version="1.1" id="Layer_1" xmlns="http://www.w3.org/2000/svg" xmlns:xlink="http://www.w3.org/1999/xlink" x="0px" y="0px"
	 width="152px" height="150px" viewBox="0 0 152 150" enable-background="new 0 0 152 150" xml:space="preserve">
<image overflow="visible" enable-background="new    " width="1367" height="768" xlink:href="D5A140CE.jpg"  transform="matrix(0.9994 0 0 0.9994 325.9346 -987.7866)">
</image>
<circle fill="#EFC84A" cx="493.091" cy="74" r="67"/>
<polygon fill="#BE3F27" points="493.448,38.352 459.748,57.964 493.448,77.162 526.434,57.757 "/>
<g>
	<path fill="#BE3F27" d="M458.898,96.631c0.3,0.342,0.737,0.559,1.229,0.559h65.927c0.439,0,0.838-0.174,1.131-0.455l-34.23-19.959
		L458.898,96.631z"/>
	<path fill="#BE3F27" d="M525.869,57.757h-65.742c-0.027,0-0.054,0.003-0.081,0.004l32.907,18.856L525.869,57.757z"/>
	<path fill="#DF5A47" d="M492.816,76.695l0.137-0.078l-32.907-18.856c-0.865,0.043-1.554,0.756-1.554,1.632v36.162
		c0,0.412,0.154,0.788,0.406,1.076l34.055-19.855L492.816,76.695z"/>
	<path fill="#DF5A47" d="M527.688,95.555V59.393c0-0.903-0.731-1.636-1.635-1.636h-0.185l-32.916,18.86l0.137,0.078l-0.137,0.08
		l34.23,19.957C527.495,96.436,527.688,96.018,527.688,95.555z"/>
	<polygon fill="#DF5A47" points="492.953,76.775 493.09,76.695 492.953,76.617 492.816,76.695 	"/>
</g>
<g>
	<polygon fill="#E4E7E7" points="465.509,45.435 465.509,60.277 492.598,74.461 520.673,59.967 520.673,45.435 	"/>
</g>
<g>
	<circle fill="#EFC84A" cx="281.091" cy="74" r="67"/>
	<g>
		<g>
			<polyline fill="#DF5A47" points="312.7,41.37 299.023,43.929 304.583,49.487 310.085,54.989 			"/>
			<path fill="#DF5A47" d="M283.915,85.794c18.769-10.948,25.248-28.822,25.248-28.822l-6.033-6.032l-0.194-0.196l-6.033-6.032
				c0,0-17.873,6.479-28.821,25.248l-10.949,0.67L246.76,83.011l2.012,2.013l9.478-5.681l3.463,1.9l-2.122,2.121l5.393,5.391
				l0.139,0.14l5.391,5.391l2.122-2.122l1.899,3.462l-5.68,9.479l2.01,2.013l12.383-10.372L283.915,85.794z"/>
			<polyline fill="#DF5A47" points="258.666,85.182 257.55,87.639 266.375,96.465 268.749,95.264 			"/>
		</g>
		<circle fill="#EAEAEA" stroke="#BE3E27" stroke-width="3" stroke-miterlimit="10" cx="294.65" cy="59.278" r="7.129"/>
		<circle fill="#EAEAEA" stroke="#BE3E27" stroke-width="2" stroke-miterlimit="10" cx="283.945" cy="69.985" r="3.374"/>
		<path fill="#BE3F27" d="M255.906,88.748c0,0-4.721-0.057-7.23,5.014c2.17-0.818,5.018,0.223,5.018,0.223s-7.733-0.801-6.702,6.863
			c-0.646,3.793-5.277,2.203-6.321,1.699c-1.044-0.503,0.604,3.557,7.271,0.944c3.512-0.161-2.668,5.202-5.986,4.446
			c-3.318-0.758,8.631,4.646,11.934-8.004c5.215-4.188,2.361,5.133,0.041,5.942c-2.32,0.812,7.137,3.974,11.465-7.719"/>
	</g>
</g>
<g>
	<circle fill="#EFC84A" cx="77.443" cy="74" r="67"/>
</g>
<g>
	<path fill="#FFFFFF" d="M144.443,74c0-37.003-29.996-67-67-67c-37.002,0-67,29.997-67,67c0,22.818,11.416,42.96,28.839,55.059
		c0.37-26.398,3.267-71.025,3.267-71.025l21.137-8.31l4.357-5.003l0.056,0.221c1.379-2.649,1.379-2.649,1.379-2.649l7.072,7.941
		h1.545l0.408-0.033l7.042-7.909c0,0,0.004,0.007,1.265,2.429l0,0l4.166,5.146l20.662,8.167c0,0,3.598,44.569,3.975,71.022
		C133.031,116.955,144.443,96.814,144.443,74z"/>
	<path fill="#EFC84A" d="M54.809,97.258l-1.792,39.128c0.236,0.093,0.47,0.188,0.707,0.278c0.171-5.736,0.333-10.641,0.416-11.708
		C54.356,122.123,55.003,128.079,54.809,97.258z"/>
	<path fill="#EFC84A" d="M42.55,58.032c0.114,0.058,0.217,0.129,0.329,0.189C42.669,58.091,42.55,58.032,42.55,58.032z"/>
	<path fill="#EFC84A" d="M99.626,92.247c-0.418,2.537-0.545,4.763-0.237,6.442c1.038,5.683,1.461,23.371,1.629,38.033
		c0.328-0.123,0.651-0.258,0.978-0.386c-0.113-14.987-0.521-38.517-1.944-39.416C99.525,96.591,99.389,94.866,99.626,92.247z"/>
	<path fill="#FFFFFF" d="M81.134,53.613l-2.715,4.345c0,0,2.586,7.016,2.001,12.616l3.406-13.78L81.134,53.613z"/>
	<path fill="#FFFFFF" d="M73.904,67.748c0.494-2.871,1.633-9.388,1.976-10.384c0.351-1.021-1.248-3.045-1.919-3.833l-2.825,3.338
		L73.904,67.748z"/>
	<polygon fill="#FFFFFF" points="78.419,50.232 78.445,50.265 78.504,50.201 78.096,50.233 78.419,50.233 	"/>
	<polygon fill="#A01C31" points="78.096,50.233 76.551,50.233 76.652,50.349 	"/>
	<path fill="#BE3F27" d="M73.96,53.531c0.671,0.789,2.271,2.813,1.919,3.833c-0.343,0.996-1.482,7.513-1.976,10.384l3.66,14.382
		l2.856-11.556c0.584-5.6-2.001-12.616-2.001-12.616l2.715-4.345l-2.762-3.264l0.074-0.083l-0.027-0.033v0.001h-0.322l-1.443,0.115
		L73.96,53.531z"/>
	<path fill="#CFCECD" d="M75.885,50.589l0.301-0.355h0.365l-7.072-7.941c0,0,0,0-1.379,2.649l1.905,7.485L75.885,50.589z"/>
	<path fill="#CFCECD" d="M73.96,53.531c-0.173-0.203-0.288-0.329-0.288-0.329l2.212-2.613l-5.879,1.837l1.13,4.442L73.96,53.531z"/>
	<polygon fill="#CFCECD" points="75.885,50.589 76.652,50.349 76.551,50.233 76.186,50.233 	"/>
	<path fill="#CFCECD" d="M73.96,53.531l2.692-3.182l-0.769,0.24l-2.212,2.613C73.673,53.202,73.788,53.328,73.96,53.531z"/>
	<path fill="#CFCECD" d="M85.48,50.094l1.328-5.373c-1.26-2.421-1.264-2.429-1.264-2.429l-7.042,7.909l5.985-0.478L85.48,50.094z"/>
	<polygon fill="#CFCECD" points="81.178,53.543 81.134,53.613 83.826,56.794 85.48,50.094 84.49,49.723 78.504,50.201 
		78.445,50.265 	"/>
	<polygon fill="#CFCECD" points="78.445,50.265 78.372,50.349 81.134,53.613 81.178,53.543 	"/>
	<path fill="#010101" d="M100.05,96.922c1.425,0.9,1.831,24.43,1.944,39.416c4.841-1.908,9.404-4.357,13.617-7.283
		c-0.375-26.453-3.973-71.021-3.973-71.021l-20.664-8.167l-4.164-5.146v0.001c0.037,0.074,0.073,0.143,0.114,0.222
		c-0.017,1.917-0.239,3.791-0.545,5.488c-0.731,4.066-1.938,7.092-1.938,7.092l-0.615-0.729l-3.406,13.78
		c-0.006,0.062-0.008,0.125-0.016,0.186c-0.661,5.629-2.979,13.135-2.979,13.135l-3.752-14.79c0,0,0.089-0.527,0.231-1.356
		L71.135,56.87l-0.553,0.654c0,0-0.778-1.948-1.464-4.819c-0.525-2.198-0.995-4.937-1.019-7.761v-0.001l-0.056-0.221l-4.357,5.003
		l-21.137,8.31c0,0,0.119,0.059,0.329,0.189c-0.111-0.06-0.215-0.132-0.329-0.189c0,0-2.897,44.627-3.267,71.025
		c4.246,2.949,8.85,5.414,13.733,7.328l1.792-39.129c0.195,30.821-0.453,24.865-0.67,27.698c-0.082,1.067-0.244,5.972-0.416,11.708
		C61.099,139.458,69.09,141,77.443,141c8.299,0,16.24-1.52,23.574-4.277c-0.17-14.66-0.592-32.351-1.631-38.033
		c-0.307-1.68-0.18-3.904,0.238-6.441C99.389,94.866,99.525,96.591,100.05,96.922z"/>
	<path fill="#010101" d="M77.425,83.895c0,0,2.318-7.506,2.979-13.135c0.008-0.061,0.01-0.125,0.016-0.186L77.564,82.13
		l-3.661-14.382c-0.143,0.829-0.231,1.356-0.231,1.356L77.425,83.895z"/>
	<path fill="#010101" d="M69.119,52.703l0.887-0.277L68.1,44.941v0.001C68.124,47.767,68.594,50.505,69.119,52.703z"/>
	<path fill="#010101" d="M71.136,56.869l-1.13-4.442l-0.887,0.277c0.686,2.871,1.464,4.819,1.464,4.819L71.136,56.869z"/>
	<path fill="#010101" d="M86.38,50.43c0.306-1.697,0.528-3.57,0.545-5.488c-0.041-0.079-0.077-0.147-0.114-0.222l-1.328,5.373
		L86.38,50.43z"/>
	<path fill="#010101" d="M83.826,56.794l0.615,0.729c0,0,1.207-3.026,1.938-7.092l-0.897-0.336L83.826,56.794z"/>
</g>
</svg>
