<?xml version="1.0" encoding="iso-8859-1"?>
<!-- Generator: Adobe Illustrator 16.0.0, SVG Export Plug-In . SVG Version: 6.00 Build 0)  -->
<!DOCTYPE svg PUBLIC "-//W3C//DTD SVG 1.1//EN" "http://www.w3.org/Graphics/SVG/1.1/DTD/svg11.dtd">
<svg version="1.1" id="Layer_1" xmlns="http://www.w3.org/2000/svg" xmlns:xlink="http://www.w3.org/1999/xlink" x="0px" y="0px"
	 width="252.238px" height="256.715px" viewBox="0 0 252.238 256.715" style="enable-background:new 0 0 252.238 256.715;"
	 xml:space="preserve">
<circle style="fill:#0C0C0C;" cx="127.313" cy="130.561" r="111.94"/>
<path style="fill:#17C6BD;" d="M112.509,73.363L96.44,46.344H67.163v4.819h26.551l13.207,22.199h-26.79v23.937h8.782l2.36,21.011
	l-2.188-19.482l2.249,19.906l1.078,9.629l0,0l0.036,0.341l0.124,1.076l0,0l4.224,37.213l5.592,49.426h56.471l2.955-25.873
	l2.817-25.092h-0.014l7.716-68.154h8.782V73.363H112.509z M157.35,212.84l-22.131-17.293L98.27,163.131l-3.41-30.036l64.958,58.228
	L157.35,212.84z"/>
</svg>
