<?xml version="1.0" encoding="iso-8859-1"?>
<!-- Generator: Adobe Illustrator 16.0.0, SVG Export Plug-In . SVG Version: 6.00 Build 0)  -->
<!DOCTYPE svg PUBLIC "-//W3C//DTD SVG 1.1//EN" "http://www.w3.org/Graphics/SVG/1.1/DTD/svg11.dtd">
<svg version="1.1" id="Layer_1" xmlns="http://www.w3.org/2000/svg" xmlns:xlink="http://www.w3.org/1999/xlink" x="0px" y="0px"
	 width="252.238px" height="256.715px" viewBox="0 0 252.238 256.715" style="enable-background:new 0 0 252.238 256.715;"
	 xml:space="preserve">
<circle style="fill:#141414;" cx="127.313" cy="130.561" r="111.94"/>
<g>
	<path style="fill:#D3BD22;" d="M201.631,184.5c0,0-12.259-5.832-26.138-10.697c10.906-16.206,20.562-43.334,20.562-43.334
		s-21.979,7.813-38.191,17.324c0-0.154,0.019-0.315,0.019-0.473c0-0.951-0.019-1.93-0.033-2.936h-6.529
		c0.067,2.587,0.098,5.082,0.113,7.523c-1.137,0.793-2.2,1.604-3.193,2.401c0-3.167-0.03-6.47-0.127-9.925h-19.935v11.23h18.521
		c-0.491,0.441-0.963,0.881-1.405,1.322c-0.637,0.637-1.222,1.268-1.795,1.896h-15.32v10.699h4.616
		c-1.795,0.705-3.323,1.549-4.616,2.53v-2.53h-3.203v3.213h2.364c-0.407,0.355-0.792,0.727-1.143,1.102
		c-0.384-0.311-0.791-0.618-1.222-0.914v-0.188h-0.253c-2.067-1.373-4.688-2.459-7.93-3.176c-0.009-0.02-0.009-0.025-0.015-0.037
		h8.197v-10.699h-15.973c-0.21-0.219-0.396-0.436-0.614-0.652c-0.785-0.787-1.668-1.566-2.616-2.354
		c0-0.068-0.002-0.136-0.002-0.215h-0.245c-0.918-0.738-1.906-1.488-2.948-2.23c0.007-2.885,0.038-5.879,0.12-8.998h-7.385
		c-0.026,1.004-0.041,1.982-0.041,2.935c0,0.487,0.023,0.937,0.032,1.429c-16.157-9.375-37.667-17.027-37.667-17.027
		s9.652,27.123,20.563,43.33c-13.892,4.873-26.151,10.699-26.151,10.699s36.119,17.166,54.604,17.166
		c10.644-0.006,17.194-2.56,20.842-6.535c3.836,3.257,10.059,5.277,19.54,5.277C165.517,201.659,201.631,184.5,201.631,184.5z"/>
	<path style="fill:#D3BD22;" d="M128.176,127.26h19.081c-0.21-2.967-0.465-5.995-0.771-9.106h-18.31V127.26L128.176,127.26z"/>
	<path style="fill:#D3BD22;" d="M152.534,101.034c-0.854-4.166-1.795-8.302-2.811-12.305h-3.974
		c0.728,4.194,1.36,8.285,1.926,12.305H152.534z"/>
	<path style="fill:#D3BD22;" d="M128.176,114.954h17.99c-0.375-3.493-0.783-7.059-1.277-10.708h-16.713V114.954z"/>
	<path style="fill:#D3BD22;" d="M155.022,114.954c-0.547-3.555-1.166-7.136-1.855-10.708h-5.041
		c0.483,3.648,0.896,7.215,1.264,10.708H155.022z"/>
	<path style="fill:#D3BD22;" d="M144.896,72.672c-1.313-3.695-2.698-7.112-4.143-10.161h-0.472
		c0.843,3.426,1.615,6.815,2.328,10.161H144.896z"/>
	<path style="fill:#D3BD22;" d="M148.872,85.52c-0.911-3.337-1.877-6.563-2.882-9.632h-2.68c0.679,3.255,1.286,6.463,1.858,9.632
		H148.872z"/>
	<path style="fill:#D3BD22;" d="M97.649,118.154c-0.44,3.096-0.825,6.132-1.147,9.106h7.041c0.214-2.967,0.471-5.995,0.768-9.106
		H97.649z"/>
	<path style="fill:#D3BD22;" d="M107.16,75.888c-1.01,3.069-1.973,6.294-2.876,9.632h4.561c0.574-3.169,1.186-6.377,1.863-9.632
		H107.16z"/>
	<path style="fill:#D3BD22;" d="M99.98,104.246c-0.685,3.572-1.302,7.153-1.852,10.708h6.502c0.358-3.493,0.776-7.059,1.264-10.708
		H99.98z"/>
	<path style="fill:#D3BD22;" d="M124.974,47.984c-2.53,0.594-4.979,2.584-7.313,5.607l1.549,0.423
		c-0.482,1.771-0.92,3.529-1.363,5.277h7.126L124.974,47.984L124.974,47.984z"/>
	<path style="fill:#D3BD22;" d="M134.806,54.015l0.836-0.227c-2.389-3.143-4.876-5.2-7.467-5.804v11.308h8.002
		C135.721,57.543,135.286,55.786,134.806,54.015z"/>
	<path style="fill:#D3BD22;" d="M114.026,59.292h0.506c0.137-0.542,0.281-1.087,0.416-1.627
		C114.639,58.197,114.332,58.731,114.026,59.292z"/>
	<path style="fill:#D3BD22;" d="M112.399,62.511c-1.447,3.049-2.835,6.465-4.147,10.161h3.148c0.724-3.345,1.5-6.735,2.332-10.161
		H112.399z"/>
	<path style="fill:#D3BD22;" d="M103.435,88.729c-1.021,4.003-1.964,8.139-2.826,12.305h5.736c0.565-4.02,1.204-8.11,1.93-12.305
		H103.435z"/>
	<path style="fill:#D3BD22;" d="M128.176,141.174h19.846c-0.127-3.441-0.309-7.014-0.54-10.705h-19.306V141.174z"/>
	<path style="fill:#D3BD22;" d="M124.974,88.729h-13.448c-0.732,4.194-1.374,8.291-1.947,12.305h15.396V88.729z"/>
	<path style="fill:#D3BD22;" d="M124.974,62.511h-7.938c-0.842,3.431-1.619,6.815-2.352,10.161h10.29V62.511z"/>
	<path style="fill:#D3BD22;" d="M124.974,104.246h-15.843c-0.49,3.648-0.908,7.215-1.271,10.708h17.115L124.974,104.246
		L124.974,104.246z"/>
	<path style="fill:#D3BD22;" d="M128.176,101.034h16.263c-0.574-4.02-1.214-8.11-1.949-12.305h-14.313V101.034L128.176,101.034z"/>
	<path style="fill:#D3BD22;" d="M139.326,72.672c-0.727-3.345-1.496-6.729-2.339-10.161h-8.812v10.161H139.326z"/>
	<path style="fill:#D3BD22;" d="M128.176,85.52h13.736c-0.577-3.169-1.199-6.377-1.877-9.632h-11.857v9.632H128.176z"/>
	<path style="fill:#D3BD22;" d="M124.974,75.888h-10.987c-0.682,3.255-1.301,6.463-1.882,9.632h12.869V75.888z"/>
	<path style="fill:#D3BD22;" d="M124.974,144.385h-19.077c-0.104,3.929-0.142,7.688-0.128,11.23h19.205V144.385z"/>
	<path style="fill:#D3BD22;" d="M124.974,118.154h-17.447c-0.301,3.111-0.556,6.139-0.771,9.106h18.218V118.154z"/>
	<path style="fill:#D3BD22;" d="M124.974,130.469h-18.44c-0.24,3.691-0.414,7.264-0.534,10.705h18.975V130.469z"/>
	<path style="fill:#D3BD22;" d="M96.173,130.469c-0.361,3.734-0.616,7.324-0.761,10.705h7.383c0.124-3.441,0.298-7.014,0.534-10.705
		H96.173z"/>
	<path style="fill:#D3BD22;" d="M157.74,141.174c-0.143-3.381-0.401-6.971-0.765-10.705h-6.278
		c0.232,3.691,0.409,7.264,0.532,10.705H157.74z"/>
	<path style="fill:#D3BD22;" d="M156.653,127.26c-0.326-2.974-0.712-6.01-1.158-9.106h-5.787c0.296,3.111,0.551,6.139,0.765,9.106
		H156.653z"/>
	<path style="fill:#D3BD22;" d="M117.847,59.292h-3.315c-0.281,1.074-0.54,2.151-0.8,3.219h3.304
		C117.294,61.443,117.57,60.366,117.847,59.292z"/>
	<path style="fill:#D3BD22;" d="M140.282,62.511c-0.146-0.628-0.289-1.237-0.446-1.857c-0.229-0.469-0.469-0.915-0.712-1.362h-2.945
		c0.263,1.074,0.547,2.151,0.81,3.219H140.282z"/>
	<rect x="124.974" y="59.292" style="fill:#D3BD22;" width="3.203" height="3.219"/>
	<path style="fill:#D3BD22;" d="M114.684,72.672H111.4c-0.232,1.076-0.475,2.151-0.693,3.216h3.28
		C114.209,74.823,114.451,73.748,114.684,72.672z"/>
	<path style="fill:#D3BD22;" d="M140.035,75.888h3.275c-0.222-1.064-0.461-2.14-0.701-3.216h-3.283
		C139.57,73.748,139.813,74.823,140.035,75.888z"/>
	<rect x="124.974" y="72.672" style="fill:#D3BD22;" width="3.203" height="3.216"/>
	<path style="fill:#D3BD22;" d="M112.105,85.52h-3.262c-0.188,1.068-0.389,2.146-0.568,3.21h3.251
		C111.719,87.666,111.908,86.588,112.105,85.52z"/>
	<path style="fill:#D3BD22;" d="M142.489,88.729h3.261c-0.188-1.064-0.382-2.142-0.581-3.21h-3.257
		C142.104,86.588,142.302,87.666,142.489,88.729z"/>
	<rect x="124.974" y="85.52" style="fill:#D3BD22;" width="3.203" height="3.21"/>
	<path style="fill:#D3BD22;" d="M109.579,101.034h-3.233c-0.154,1.074-0.305,2.153-0.45,3.212h3.235
		C109.273,103.187,109.425,102.108,109.579,101.034z"/>
	<path style="fill:#D3BD22;" d="M144.888,104.246h3.237c-0.143-1.059-0.3-2.138-0.449-3.212h-3.238
		C144.581,102.108,144.75,103.187,144.888,104.246z"/>
	<rect x="124.974" y="101.034" style="fill:#D3BD22;" width="3.203" height="3.212"/>
	<path style="fill:#D3BD22;" d="M107.859,114.954h-3.228c-0.106,1.078-0.223,2.147-0.321,3.201h3.217
		C107.632,117.101,107.739,116.031,107.859,114.954z"/>
	<path style="fill:#D3BD22;" d="M146.485,118.154h3.223c-0.098-1.053-0.203-2.123-0.318-3.201h-3.224
		C146.275,116.031,146.387,117.101,146.485,118.154z"/>
	<rect x="124.974" y="114.954" style="fill:#D3BD22;" width="3.203" height="3.201"/>
	<path style="fill:#D3BD22;" d="M106.757,127.26h-3.214c-0.083,1.079-0.151,2.153-0.213,3.209h3.204
		C106.603,129.413,106.676,128.339,106.757,127.26z"/>
	<path style="fill:#D3BD22;" d="M147.481,130.469h3.216c-0.067-1.057-0.15-2.13-0.225-3.209h-3.216
		C147.339,128.339,147.414,129.413,147.481,130.469z"/>
	<rect x="124.974" y="127.26" style="fill:#D3BD22;" width="3.203" height="3.209"/>
	<path style="fill:#D3BD22;" d="M106,141.174h-3.205c-0.033,1.078-0.074,2.154-0.1,3.211h3.201
		C105.925,143.329,105.958,142.252,106,141.174z"/>
	<path style="fill:#D3BD22;" d="M148.111,144.385h3.208c-0.03-1.057-0.061-2.133-0.09-3.211h-3.208
		C148.051,142.252,148.085,143.329,148.111,144.385z"/>
	<rect x="124.974" y="141.174" style="fill:#D3BD22;" width="3.203" height="3.211"/>
	<rect x="124.974" y="155.616" style="fill:#D3BD22;" width="3.203" height="3.219"/>
</g>
</svg>
