<?xml version="1.0" encoding="iso-8859-1"?>
<!-- Generator: Adobe Illustrator 16.0.0, SVG Export Plug-In . SVG Version: 6.00 Build 0)  -->
<!DOCTYPE svg PUBLIC "-//W3C//DTD SVG 1.1//EN" "http://www.w3.org/Graphics/SVG/1.1/DTD/svg11.dtd">
<svg version="1.1" id="Layer_1" xmlns="http://www.w3.org/2000/svg" xmlns:xlink="http://www.w3.org/1999/xlink" x="0px" y="0px"
	 width="252.238px" height="256.715px" viewBox="0 0 252.238 256.715" style="enable-background:new 0 0 252.238 256.715;"
	 xml:space="preserve">
<circle style="fill:#161616;" cx="127.313" cy="130.561" r="111.94"/>
<g>
	<path style="fill:#EF2E6F;" d="M107.562,96.039c0.014,0,0.027,0,0.044,0c3.082,0.058,4.354,3.938,5.049,6.866
		c1.618,3.917,4.118,7.2,5.073,7.2c0.02,0,0.039,0,0.047-0.005c0.017,0,1.441-0.409,2.621-6.548l0.085-0.42l0.275-0.345
		c0.258-0.317,6.073-7.482,13.115-7.482c0.287,0,0.58,0.02,0.867,0.036c3.988,0.312,7.407,2.892,10.164,7.669
		c1.099,1.392,4.624,5.016,7.7,5.016c0.326,0,0.668-0.044,0.994-0.152c2.026-0.597,7.119-2.417,8.391-17.949l0.26-1.362v-6.198
		c0-13.922,2.325-21.796-15.588-21.796c0,0-11.661,0.08-21.202,0.08c-4.77,0-9.001-0.02-10.986-0.08
		c-18.568,0-19.466,3.226-19.466,21.796v14.74v21.054C98.083,108.066,102.768,96.039,107.562,96.039z M98.542,99.772v-2.668v-14.74
		c0-17.229,0-18.261,15.81-18.267c1.798,0.063,5.54,0.094,11.107,0.094c9.364,0,20.754-0.083,21.207-0.088
		c5.413,0,8.921,0.784,10.44,2.334c1.839,1.873,1.762,6.147,1.663,11.558c-0.022,1.384-0.062,2.842-0.062,4.369v5.861l-0.188,1.033
		l-0.033,0.188l-0.017,0.185c-0.515,6.134-1.935,13.688-5.866,14.851c-0.979,0-3.325-1.737-4.772-3.483
		c-4.182-7.087-9.263-8.91-12.788-9.186c-0.392-0.031-0.79-0.05-1.171-0.05c-8.316,0-14.667,7.322-15.859,8.796l-0.285,0.34
		l-0.556,0.688l-0.163,0.875l-0.088,0.431c-0.035,0.19-0.071,0.381-0.107,0.561c-0.273-0.52-0.533-1.066-0.784-1.654
		c-0.619-2.585-2.411-9.194-8.468-9.296C105.107,92.503,102.094,93.594,98.542,99.772z"/>
	<path style="fill:#EF2E6F;" d="M162.249,122.599V99.847c-1.624,6.43-4.143,10.172-7.649,11.208
		c-6.248,1.842-12.362-5.966-12.627-6.294c-2.271-3.908-4.75-5.896-7.508-6.105c-4.367-0.309-9.516,3.436-10.673,5.803
		c-1.721,3.485-2.209,8.609-5.665,8.948c-4.443,0.356-7.874-7.283-8.841-9.658c-0.947-3.944-1.809-4.399-1.813-4.399
		c-2.107,0.403-5.727,7.333-10.764,20.871l-1.701,4.103v13.02c0,18.564,0.897,21.806,19.466,21.806
		c1.464-0.056,4.162-0.077,7.391-0.088v50.802c0,3.762,3.049,6.816,6.811,6.816c3.764,0,6.818-3.055,6.818-6.816v-50.785
		c6.147,0.028,11.169,0.072,11.169,0.072c17.913,0,15.588-7.877,15.588-21.807L162.249,122.599L162.249,122.599z"/>
</g>
</svg>
