<?xml version="1.0" encoding="utf-8"?>
<!-- Generator: Adobe Illustrator 16.0.0, SVG Export Plug-In . SVG Version: 6.00 Build 0)  -->
<!DOCTYPE svg PUBLIC "-//W3C//DTD SVG 1.1//EN" "http://www.w3.org/Graphics/SVG/1.1/DTD/svg11.dtd">
<svg version="1.1" id="Layer_1" xmlns="http://www.w3.org/2000/svg" xmlns:xlink="http://www.w3.org/1999/xlink" x="0px" y="0px"
	 width="470.27px" height="358.723px" viewBox="0 0 470.27 358.723" enable-background="new 0 0 470.27 358.723"
	 xml:space="preserve">
<g>
	<circle fill="#FFFFFF" stroke="#18A3A3" stroke-width="5" stroke-miterlimit="10" cx="237.094" cy="114.473" r="57.702"/>
	<circle fill="none" stroke="#2EA8A5" stroke-width="3" stroke-miterlimit="10" cx="237.094" cy="114.473" r="40.202"/>
	<circle fill="none" stroke="#50BCB9" stroke-width="3" stroke-miterlimit="10" cx="237.094" cy="114.473" r="20.202"/>
	<g>
		<circle fill="#FFFFFF" cx="377.094" cy="114.473" r="57.702"/>
		<path fill="#7CCED2" d="M434.796,114.473c0,0-0.008,0.354-0.023,1.04c-0.029,0.685-0.002,1.705-0.125,3.028
			c-0.165,2.646-0.585,6.545-1.905,11.332c-1.312,4.772-3.518,10.459-7.281,16.276c-3.743,5.806-9.085,11.712-16.127,16.576
			c-3.526,2.412-7.474,4.541-11.774,6.23c-4.298,1.699-8.974,2.869-13.855,3.502c-1.22,0.171-2.459,0.24-3.702,0.354
			c-1.251,0.028-2.495,0.137-3.776,0.098c-0.624-0.008-1.251-0.017-1.879-0.024c-0.631-0.016-1.278-0.074-1.92-0.11
			c-1.294-0.054-2.567-0.233-3.857-0.376c-2.564-0.371-5.154-0.841-7.704-1.573c-1.288-0.318-2.543-0.771-3.819-1.176
			c-1.248-0.482-2.529-0.907-3.757-1.476c-4.975-2.121-9.726-5.008-14.052-8.536c-4.315-3.544-8.157-7.774-11.36-12.5
			c-6.45-9.437-9.968-21.047-9.983-32.667c0.01-11.621,3.533-23.231,9.978-32.672c3.203-4.727,7.048-8.952,11.358-12.503
			c4.328-3.528,9.08-6.415,14.056-8.536c1.228-0.568,2.509-0.993,3.757-1.475c1.277-0.405,2.532-0.857,3.821-1.176
			c2.55-0.731,5.14-1.201,7.704-1.572c1.29-0.142,2.567-0.321,3.85-0.375c1.277-0.106,2.551-0.128,3.816-0.135
			c1.309-0.038,2.506,0.07,3.752,0.098c1.246,0.113,2.501,0.184,3.719,0.355c4.883,0.634,9.559,1.804,13.857,3.503
			c4.301,1.69,8.248,3.82,11.775,6.232c7.042,4.864,12.381,10.773,16.125,16.579c3.764,5.817,5.969,11.505,7.28,16.277
			c1.32,4.786,1.74,8.687,1.905,11.332c0.123,1.323,0.096,2.343,0.125,3.028C434.789,114.119,434.796,114.473,434.796,114.473z
			 M434.796,114.473c0,0-0.01-0.354-0.029-1.04c-0.032-0.685-0.01-1.705-0.14-3.027c-0.179-2.644-0.618-6.54-1.961-11.313
			c-1.329-4.758-3.554-10.437-7.41-16.163c-3.816-5.715-9.188-11.549-16.291-16.158c-3.545-2.298-7.487-4.299-11.754-5.855
			c-4.264-1.565-8.874-2.597-13.657-3.099c-1.196-0.138-2.394-0.174-3.605-0.257c-1.22,0.003-2.505-0.075-3.692-0.005
			c-1.233,0.036-2.471,0.088-3.711,0.222c-1.244,0.082-2.482,0.289-3.729,0.457c-2.48,0.422-4.977,0.938-7.426,1.708
			c-1.238,0.337-2.44,0.807-3.663,1.227c-1.194,0.497-2.419,0.934-3.589,1.513c-9.479,4.334-18.006,11.528-23.971,20.646
			c-2.968,4.563-5.318,9.57-6.906,14.836c-0.803,2.631-1.357,5.336-1.781,8.059c-0.173,1.369-0.356,2.739-0.428,4.092
			c-0.135,1.314-0.111,2.829-0.161,4.157c0.028,2.76,0.191,5.52,0.587,8.25c0.423,2.723,0.979,5.428,1.78,8.059
			c1.592,5.264,3.934,10.276,6.904,14.839c5.966,9.118,14.489,16.319,23.973,20.65c1.169,0.579,2.395,1.016,3.589,1.513
			c1.224,0.419,2.426,0.889,3.664,1.227c2.449,0.769,4.946,1.285,7.427,1.707c1.247,0.168,2.489,0.375,3.721,0.456
			c0.619,0.049,1.227,0.122,1.851,0.152c0.628,0.023,1.254,0.047,1.878,0.071c1.216,0.069,2.454-0.009,3.669-0.005
			c1.215-0.083,2.428-0.119,3.622-0.258c4.784-0.502,9.395-1.534,13.659-3.1c4.267-1.557,8.209-3.559,11.754-5.857
			c7.104-4.61,12.473-10.447,16.29-16.161c3.855-5.727,6.079-11.407,7.408-16.164c1.343-4.773,1.782-8.669,1.961-11.312
			c0.13-1.322,0.107-2.343,0.14-3.028C434.787,114.827,434.796,114.473,434.796,114.473z"/>
	</g>
	<g>
		<path fill="#2EA8A5" d="M336.892,114.473c0,0,0.054,0.985,0.153,2.832c0.037,0.46,0.026,0.98,0.11,1.542
			c0.088,0.561,0.184,1.174,0.287,1.836c0.114,0.66,0.19,1.378,0.357,2.126c0.194,0.744,0.4,1.533,0.618,2.368
			c0.949,3.297,2.423,7.289,5.161,11.246c2.679,3.958,6.407,8.025,11.365,11.2c4.944,3.157,11.028,5.442,17.672,6.115
			c0.825,0.116,1.671,0.078,2.513,0.125l1.269,0.042l0.637,0.021c0.139,0,0.412-0.025,0.611-0.037
			c1.727-0.139,3.528-0.16,5.196-0.531c3.409-0.47,6.839-1.649,10.112-3.101c0.804-0.405,1.611-0.812,2.422-1.22
			c0.804-0.417,1.546-0.955,2.325-1.427l1.159-0.731l1.09-0.839c0.716-0.574,1.472-1.103,2.161-1.716
			c2.784-2.43,5.234-5.271,7.328-8.383l1.437-2.424c0.255-0.396,0.464-0.818,0.653-1.25l0.6-1.28l0.609-1.277
			c0.19-0.431,0.328-0.885,0.495-1.327c0.309-0.893,0.673-1.769,0.938-2.676c1.072-3.64,1.547-7.434,1.625-11.233l-0.139-2.88
			c-0.008-1.012-0.169-1.919-0.312-2.837l-0.205-1.38l-0.102-0.691l-0.174-0.689l-0.696-2.755c-1.152-3.605-2.71-7.068-4.736-10.231
			c-2.094-3.11-4.54-5.956-7.328-8.379c-0.689-0.612-1.445-1.141-2.161-1.715l-1.089-0.839l-1.158-0.731
			c-0.78-0.472-1.521-1.01-2.326-1.426c-0.81-0.409-1.617-0.815-2.42-1.221c-3.284-1.453-6.678-2.627-10.135-3.104
			c-1.709-0.374-3.441-0.388-5.144-0.527l-0.601-0.04l-0.649,0.021l-1.292,0.042c-0.853,0.048-1.728,0.012-2.544,0.128
			c-6.582,0.667-12.709,2.955-17.641,6.109c-4.957,3.174-8.688,7.238-11.366,11.197c-2.738,3.957-4.214,7.948-5.162,11.245
			c-0.218,0.834-0.424,1.625-0.618,2.368c-0.167,0.749-0.243,1.467-0.357,2.127c-0.104,0.662-0.199,1.275-0.287,1.836
			c-0.084,0.562-0.073,1.081-0.11,1.542C336.946,113.488,336.892,114.473,336.892,114.473z M336.892,114.473
			c0,0,0.046-0.985,0.133-2.833c0.033-0.461,0.019-0.981,0.1-1.543c0.083-0.563,0.175-1.176,0.273-1.84
			c0.11-0.661,0.181-1.382,0.343-2.133c0.189-0.746,0.39-1.539,0.602-2.376c0.932-3.311,2.386-7.312,5.033-11.359
			c2.605-4.05,6.304-8.188,11.2-11.618c4.921-3.385,11.019-5.953,17.921-6.896c0.859-0.148,1.701-0.141,2.562-0.22l1.29-0.088
			l0.648-0.044c0.294-0.007,0.462,0.01,0.699,0.015c1.769,0.079,3.575,0.036,5.369,0.358c3.625,0.375,7.225,1.469,10.739,2.881
			c0.862,0.397,1.729,0.797,2.598,1.198c0.865,0.412,1.669,0.946,2.512,1.418l1.254,0.734l1.187,0.846
			c0.781,0.58,1.604,1.118,2.358,1.742c3.038,2.495,5.704,5.485,8.018,8.768c2.261,3.329,3.981,7.038,5.232,10.913l0.772,2.96
			l0.19,0.742l0.121,0.77l0.24,1.541c0.164,1.03,0.338,2.068,0.35,3.035l0.158,3.031c-0.106,4.089-0.652,8.17-1.835,12.077
			c-1.248,3.877-2.978,7.581-5.235,10.91c-2.313,3.281-4.976,6.275-8.019,8.764c-0.755,0.625-1.577,1.162-2.357,1.742l-1.187,0.846
			l-1.254,0.734c-0.842,0.472-1.646,1.007-2.51,1.419c-0.87,0.401-1.736,0.8-2.599,1.197c-3.523,1.414-7.088,2.504-10.76,2.885
			c-1.836,0.324-3.572,0.275-5.316,0.354c-0.235,0.005-0.396,0.019-0.69,0.016l-0.66-0.044l-1.313-0.089
			c-0.87-0.079-1.742-0.074-2.592-0.222c-6.842-0.937-12.982-3.508-17.89-6.891c-4.896-3.429-8.597-7.564-11.201-11.615
			c-2.646-4.047-4.104-8.047-5.033-11.358c-0.213-0.837-0.413-1.63-0.603-2.376c-0.162-0.751-0.232-1.472-0.343-2.133
			c-0.099-0.664-0.19-1.277-0.273-1.84c-0.081-0.563-0.066-1.082-0.1-1.543C336.938,115.458,336.892,114.473,336.892,114.473z"/>
	</g>
	<g>
		<path fill="#50BCB9" d="M356.892,114.473c0,0,0.028,0.495,0.082,1.423c0.006,0.466,0.092,1.033,0.206,1.696
			c0.059,0.331,0.098,0.691,0.183,1.067c0.1,0.373,0.204,0.769,0.314,1.188c0.482,1.653,1.227,3.657,2.626,5.623
			c1.364,1.968,3.247,3.988,5.747,5.532c2.486,1.543,5.536,2.625,8.83,2.88c0.811,0.04,1.688,0.058,2.472,0.021
			c0.863-0.087,1.785-0.118,2.58-0.319c1.647-0.261,3.33-0.89,4.914-1.62c1.596-0.753,3.062-1.797,4.422-2.965
			c1.338-1.203,2.515-2.595,3.512-4.116c0.963-1.548,1.696-3.232,2.253-4.975c0.512-1.763,0.732-3.598,0.765-5.435
			c-0.061-0.816-0.037-2.004-0.212-2.786c-0.086-0.865-0.334-1.759-0.555-2.648c-0.555-1.744-1.296-3.423-2.256-4.971
			c-0.998-1.52-2.172-2.916-3.513-4.113c-1.359-1.167-2.824-2.211-4.419-2.964c-3.18-1.537-6.645-2.16-9.991-1.917
			c-3.233,0.249-6.326,1.332-8.799,2.874c-2.5,1.542-4.385,3.561-5.749,5.529c-1.398,1.966-2.146,3.969-2.626,5.623
			c-0.111,0.418-0.216,0.814-0.314,1.188c-0.086,0.375-0.125,0.736-0.184,1.067c-0.114,0.664-0.2,1.23-0.206,1.696
			C356.92,113.979,356.892,114.473,356.892,114.473z M356.892,114.473c0,0,0.021-0.495,0.062-1.424
			c-0.001-0.467,0.076-1.035,0.182-1.702c0.054-0.333,0.089-0.695,0.169-1.073c0.094-0.375,0.192-0.774,0.298-1.196
			c0.464-1.667,1.189-3.68,2.497-5.736c1.291-2.057,3.14-4.16,5.592-5.936c2.478-1.744,5.527-3.102,9.071-3.662
			c3.412-0.511,7.324-0.181,10.948,1.291c1.825,0.724,3.541,1.776,5.161,3.001c1.587,1.273,2.982,2.811,4.199,4.504
			c1.194,1.714,2.1,3.639,2.752,5.654c0.274,1.023,0.57,2.035,0.702,3.145c0.217,1.167,0.193,1.975,0.27,3.135
			c-0.061,2.127-0.353,4.249-0.974,6.278c-0.65,2.017-1.564,3.936-2.756,5.651c-1.218,1.691-2.609,3.232-4.2,4.5
			c-1.618,1.225-3.334,2.277-5.158,3.001c-1.832,0.709-3.663,1.221-5.574,1.387c-0.966,0.148-1.822,0.104-2.703,0.126
			c-0.508,0.023-0.917-0.061-1.375-0.085c-0.444-0.049-0.889-0.056-1.321-0.14c-3.483-0.554-6.576-1.913-9.04-3.655
			c-2.452-1.775-4.302-3.876-5.593-5.933c-1.308-2.056-2.035-4.068-2.498-5.736c-0.104-0.421-0.204-0.82-0.298-1.196
			c-0.08-0.378-0.115-0.741-0.169-1.074c-0.105-0.667-0.183-1.235-0.182-1.701C356.914,114.968,356.892,114.473,356.892,114.473z"/>
	</g>
</g>
<path fill="#FFFFFF" stroke="#17A09C" stroke-width="5" stroke-miterlimit="10" d="M320.013,174.558h-0.538
	c-6.248,0-11.534,3.221-13.34,7.666v-5.813h-0.666v-2.309c0-6.088-5.692-11.023-12.715-11.023h-0.487
	c-7.022,0-12.715,4.936-12.715,11.023v-9.441c0-6.09-5.692-11.023-12.715-11.023h-0.488c-7.022,0-12.715,4.934-12.715,11.023V122.53
	v-4.238h-0.488c-1.732-7.66-8.032-13.348-15.561-13.348h-0.614c-7.528,0-13.827,5.688-15.561,13.348h-0.488v4.238v46.898v62.747
	c0,0-17.278-28.276-38.877-14.139c-21.598,14.139,2.749,24.348,7.854,29.454c5.105,5.104,33.773,60.473,72.256,70.291
	s64.794-12.959,71.863-43.59v-59.213v-25.215v-4.182C334.018,179.493,327.749,174.558,320.013,174.558z"/>
<g>
	<circle fill="#FFFFFF" cx="97.094" cy="114.473" r="57.702"/>
	<path fill="#7CCED2" d="M154.796,114.473c0,0-0.008,0.354-0.023,1.04c-0.03,0.685-0.002,1.705-0.125,3.028
		c-0.166,2.646-0.585,6.545-1.906,11.332c-1.311,4.772-3.517,10.459-7.281,16.276c-3.743,5.807-9.084,11.712-16.126,16.576
		c-3.527,2.412-7.473,4.541-11.774,6.23c-4.298,1.699-8.974,2.869-13.855,3.502c-1.219,0.171-2.459,0.24-3.702,0.354
		c-1.251,0.028-2.495,0.137-3.776,0.098c-0.625-0.008-1.251-0.017-1.879-0.024c-0.631-0.016-1.278-0.074-1.92-0.11
		c-1.294-0.054-2.567-0.233-3.857-0.376c-2.565-0.371-5.154-0.841-7.704-1.573c-1.289-0.318-2.543-0.771-3.82-1.176
		c-1.248-0.482-2.529-0.907-3.756-1.476c-4.975-2.121-9.726-5.008-14.052-8.536c-4.315-3.544-8.156-7.774-11.359-12.5
		c-6.451-9.437-9.968-21.047-9.984-32.667c0.01-11.621,3.534-23.231,9.978-32.671c3.203-4.728,7.048-8.953,11.359-12.504
		c4.327-3.528,9.079-6.415,14.055-8.536c1.227-0.568,2.509-0.993,3.757-1.475c1.277-0.405,2.532-0.857,3.821-1.176
		c2.55-0.731,5.14-1.202,7.705-1.573c1.289-0.142,2.567-0.321,3.849-0.375c1.278-0.106,2.551-0.128,3.817-0.135
		c1.309-0.038,2.505,0.07,3.751,0.098c1.246,0.113,2.501,0.184,3.72,0.355c4.882,0.634,9.558,1.804,13.856,3.503
		c4.301,1.69,8.249,3.82,11.775,6.232c7.042,4.864,12.381,10.773,16.125,16.579c3.764,5.817,5.968,11.505,7.28,16.277
		c1.32,4.786,1.74,8.687,1.905,11.332c0.123,1.323,0.095,2.343,0.125,3.028C154.789,114.119,154.796,114.473,154.796,114.473z
		 M154.796,114.473c0,0-0.01-0.354-0.029-1.04c-0.033-0.685-0.01-1.705-0.14-3.027c-0.179-2.644-0.618-6.54-1.961-11.313
		c-1.329-4.758-3.554-10.437-7.41-16.163c-3.816-5.715-9.188-11.549-16.292-16.158c-3.544-2.298-7.487-4.299-11.753-5.855
		c-4.264-1.565-8.874-2.596-13.657-3.098c-1.196-0.138-2.394-0.174-3.605-0.257c-1.22,0.003-2.505-0.075-3.693-0.005
		c-1.232,0.036-2.471,0.088-3.711,0.223c-1.244,0.082-2.482,0.288-3.729,0.456c-2.481,0.422-4.977,0.938-7.426,1.708
		c-1.238,0.337-2.44,0.807-3.663,1.227c-1.194,0.497-2.419,0.934-3.589,1.513c-9.479,4.334-18.006,11.528-23.97,20.646
		c-2.968,4.563-5.319,9.57-6.907,14.836c-0.802,2.631-1.357,5.336-1.781,8.059c-0.173,1.369-0.357,2.739-0.428,4.092
		c-0.135,1.314-0.111,2.829-0.162,4.157c0.029,2.76,0.191,5.52,0.587,8.25c0.423,2.723,0.979,5.428,1.781,8.059
		c1.592,5.264,3.934,10.276,6.904,14.839c5.966,9.118,14.489,16.319,23.973,20.65c1.17,0.579,2.396,1.016,3.589,1.513
		c1.223,0.419,2.426,0.889,3.664,1.227c2.449,0.769,4.946,1.285,7.427,1.707c1.247,0.168,2.489,0.375,3.721,0.455
		c0.619,0.049,1.226,0.122,1.851,0.153c0.627,0.023,1.253,0.047,1.878,0.07c1.215,0.069,2.453-0.008,3.668-0.005
		c1.215-0.082,2.428-0.119,3.623-0.257c4.784-0.502,9.395-1.534,13.659-3.1c4.267-1.557,8.209-3.559,11.754-5.857
		c7.104-4.61,12.473-10.447,16.29-16.161c3.855-5.727,6.079-11.407,7.409-16.164c1.343-4.773,1.782-8.669,1.96-11.313
		c0.13-1.322,0.107-2.342,0.14-3.027C154.787,114.827,154.796,114.473,154.796,114.473z"/>
</g>
<g>
	<path fill="#2EA8A5" d="M56.892,114.473c0,0,0.053,0.985,0.153,2.832c0.037,0.46,0.026,0.98,0.11,1.542
		c0.088,0.561,0.184,1.174,0.287,1.836c0.114,0.66,0.19,1.378,0.357,2.126c0.194,0.743,0.4,1.533,0.618,2.368
		c0.95,3.297,2.423,7.289,5.161,11.246c2.679,3.958,6.408,8.024,11.366,11.2c4.944,3.157,11.028,5.442,17.672,6.115
		c0.825,0.116,1.671,0.078,2.513,0.125l1.269,0.042l0.637,0.021c0.139,0,0.412-0.025,0.611-0.037
		c1.726-0.139,3.528-0.16,5.196-0.531c3.409-0.471,6.839-1.649,10.112-3.101c0.804-0.405,1.611-0.812,2.421-1.221
		c0.805-0.417,1.546-0.955,2.326-1.427l1.159-0.731l1.09-0.839c0.716-0.574,1.472-1.103,2.161-1.715
		c2.784-2.43,5.234-5.271,7.328-8.384l1.437-2.424c0.255-0.396,0.463-0.818,0.654-1.25l0.599-1.28l0.609-1.277
		c0.19-0.431,0.328-0.885,0.496-1.327c0.308-0.893,0.672-1.769,0.938-2.676c1.072-3.64,1.547-7.434,1.625-11.233l-0.14-2.88
		c-0.007-1.012-0.168-1.919-0.311-2.837l-0.206-1.38l-0.101-0.691l-0.173-0.689l-0.697-2.755c-1.152-3.605-2.709-7.068-4.735-10.231
		c-2.094-3.111-4.54-5.956-7.329-8.379c-0.689-0.612-1.444-1.141-2.16-1.715l-1.089-0.839l-1.159-0.731
		c-0.779-0.472-1.521-1.01-2.325-1.427c-0.81-0.408-1.617-0.815-2.421-1.221c-3.283-1.453-6.677-2.627-10.134-3.104
		c-1.709-0.374-3.441-0.388-5.144-0.527l-0.602-0.04l-0.649,0.021l-1.292,0.042c-0.852,0.048-1.728,0.012-2.543,0.128
		c-6.582,0.667-12.709,2.955-17.64,6.109c-4.957,3.174-8.688,7.238-11.366,11.197c-2.739,3.957-4.214,7.948-5.163,11.245
		c-0.218,0.834-0.424,1.625-0.618,2.368c-0.167,0.749-0.244,1.467-0.358,2.127c-0.104,0.663-0.199,1.275-0.287,1.836
		c-0.084,0.562-0.073,1.081-0.11,1.542C56.945,113.488,56.892,114.473,56.892,114.473z M56.892,114.473c0,0,0.046-0.985,0.133-2.833
		c0.034-0.461,0.019-0.981,0.099-1.543c0.084-0.563,0.175-1.176,0.274-1.84c0.11-0.661,0.181-1.382,0.343-2.133
		c0.188-0.746,0.39-1.539,0.602-2.376c0.931-3.311,2.386-7.312,5.033-11.359c2.605-4.049,6.304-8.188,11.2-11.618
		c4.921-3.385,11.019-5.953,17.921-6.896c0.859-0.148,1.701-0.141,2.562-0.22l1.29-0.088l0.648-0.044
		c0.294-0.007,0.462,0.01,0.7,0.014c1.769,0.079,3.575,0.036,5.369,0.358c3.625,0.374,7.224,1.469,10.738,2.881
		c0.863,0.397,1.729,0.797,2.599,1.197c0.865,0.412,1.668,0.947,2.511,1.419l1.254,0.734l1.187,0.846
		c0.781,0.58,1.603,1.118,2.359,1.742c3.038,2.495,5.704,5.485,8.017,8.768c2.261,3.329,3.981,7.038,5.232,10.914l0.772,2.959
		l0.19,0.742l0.122,0.77l0.24,1.541c0.163,1.03,0.337,2.068,0.349,3.035l0.159,3.031c-0.107,4.089-0.652,8.17-1.835,12.077
		c-1.248,3.877-2.977,7.581-5.235,10.91c-2.314,3.281-4.976,6.276-8.018,8.764c-0.756,0.624-1.577,1.162-2.358,1.742l-1.187,0.846
		l-1.253,0.734c-0.843,0.472-1.646,1.007-2.511,1.418c-0.869,0.401-1.735,0.8-2.598,1.198c-3.524,1.413-7.088,2.503-10.76,2.884
		c-1.835,0.324-3.572,0.275-5.317,0.354c-0.234,0.005-0.396,0.02-0.69,0.016l-0.66-0.044l-1.313-0.089
		c-0.87-0.079-1.742-0.074-2.592-0.223c-6.842-0.937-12.982-3.508-17.89-6.891c-4.895-3.429-8.597-7.565-11.201-11.615
		c-2.646-4.047-4.103-8.047-5.034-11.358c-0.212-0.837-0.413-1.63-0.602-2.375c-0.162-0.751-0.233-1.472-0.343-2.133
		c-0.099-0.664-0.19-1.277-0.274-1.84c-0.08-0.563-0.065-1.083-0.099-1.543C56.938,115.458,56.892,114.473,56.892,114.473z"/>
</g>
<g>
	<path fill="#50BCB9" d="M76.892,114.473c0,0,0.028,0.495,0.082,1.423c0.005,0.466,0.091,1.033,0.206,1.696
		c0.059,0.331,0.098,0.691,0.184,1.067c0.099,0.373,0.204,0.769,0.314,1.188c0.481,1.653,1.226,3.657,2.625,5.623
		c1.364,1.968,3.248,3.988,5.748,5.532c2.487,1.544,5.536,2.625,8.83,2.881c0.81,0.04,1.688,0.058,2.472,0.021
		c0.863-0.087,1.785-0.118,2.58-0.319c1.647-0.261,3.33-0.89,4.914-1.621c1.596-0.753,3.062-1.797,4.422-2.964
		c1.337-1.203,2.514-2.595,3.512-4.117c0.962-1.548,1.695-3.232,2.253-4.975c0.511-1.763,0.732-3.598,0.765-5.435
		c-0.061-0.816-0.038-2.004-0.212-2.786c-0.086-0.865-0.335-1.759-0.555-2.648c-0.554-1.744-1.296-3.423-2.256-4.972
		c-0.998-1.52-2.171-2.915-3.512-4.113c-1.359-1.167-2.824-2.211-4.419-2.964c-3.18-1.537-6.645-2.161-9.992-1.917
		c-3.232,0.249-6.326,1.332-8.799,2.874c-2.5,1.543-4.385,3.561-5.749,5.529c-1.399,1.966-2.145,3.969-2.626,5.623
		c-0.111,0.418-0.216,0.814-0.314,1.188c-0.085,0.375-0.125,0.736-0.183,1.067c-0.115,0.664-0.201,1.23-0.206,1.696
		C76.92,113.979,76.892,114.473,76.892,114.473z M76.892,114.473c0,0,0.021-0.495,0.062-1.424c-0.001-0.467,0.077-1.035,0.182-1.702
		c0.054-0.333,0.088-0.695,0.168-1.073c0.094-0.375,0.193-0.774,0.298-1.196c0.464-1.667,1.189-3.68,2.497-5.736
		c1.292-2.057,3.14-4.16,5.591-5.936c2.478-1.744,5.528-3.102,9.072-3.661c3.413-0.512,7.324-0.182,10.948,1.29
		c1.825,0.724,3.541,1.776,5.161,3.001c1.587,1.273,2.982,2.811,4.199,4.504c1.194,1.714,2.099,3.639,2.752,5.654
		c0.273,1.023,0.57,2.035,0.702,3.145c0.217,1.167,0.193,1.975,0.27,3.135c-0.061,2.127-0.353,4.249-0.975,6.278
		c-0.65,2.017-1.564,3.936-2.755,5.651c-1.217,1.691-2.609,3.232-4.2,4.5c-1.619,1.224-3.334,2.276-5.158,3
		c-1.833,0.709-3.664,1.221-5.575,1.387c-0.965,0.148-1.822,0.103-2.703,0.126c-0.508,0.023-0.917-0.061-1.375-0.085
		c-0.444-0.049-0.889-0.056-1.322-0.14c-3.482-0.554-6.576-1.913-9.04-3.655c-2.451-1.775-4.301-3.876-5.592-5.933
		c-1.307-2.056-2.035-4.068-2.498-5.736c-0.105-0.421-0.205-0.82-0.298-1.196c-0.081-0.378-0.115-0.741-0.169-1.074
		c-0.105-0.667-0.183-1.235-0.182-1.701C76.914,114.968,76.892,114.473,76.892,114.473z"/>
</g>
<path fill="#FFFFFF" stroke="#0DAAA6" stroke-width="3" stroke-miterlimit="10" d="M823.527,214.24c6.748,3.272-2.5,105.5-2.5,105.5
	s2.811,23.5,8.904,0c6.096-23.5,9.096-29.5,13.595-30.5c4.5-1,18.5-1,20,8.5s0,20.5,0,20.5s7-10,17-1s10,29.5,9.5,29
	s10.5-7.482,16,0.009s24.5,31.991,16.5,54.991s-22.5,100.5-74.5,103.5c-51.999,3-66.999-30.5-75.499-50.5s-18.5-42.5-22.5-44.5
	s2.287-20.119,0-41c-0.891-8.127-11.5-48-11.5-48s-3.667-20.333,16.5-4.5c12.166,13.167,17.5,46,16.5,47.5s8.5,12.188,8-5.156
	c-0.5-17.344,7-36.844,10-47.344S790.193,198.076,823.527,214.24z"/>
</svg>
