<?xml version="1.0" encoding="iso-8859-1"?>
<!-- Generator: Adobe Illustrator 16.0.0, SVG Export Plug-In . SVG Version: 6.00 Build 0)  -->
<!DOCTYPE svg PUBLIC "-//W3C//DTD SVG 1.1//EN" "http://www.w3.org/Graphics/SVG/1.1/DTD/svg11.dtd">
<svg version="1.1" id="Layer_1" xmlns="http://www.w3.org/2000/svg" xmlns:xlink="http://www.w3.org/1999/xlink" x="0px" y="0px"
	 width="470.27px" height="358.723px" viewBox="0 0 470.27 358.723" style="enable-background:new 0 0 470.27 358.723;"
	 xml:space="preserve">
<path style="fill:#FFFFFF;stroke:#0DAAA6;stroke-width:3;stroke-miterlimit:10;" d="M807.797,205.539
	c6.748,3.271-2.5,105.5-2.5,105.5s2.812,23.5,8.903,0c6.097-23.5,9.097-29.5,13.596-30.5c4.5-1,18.5-1,20,8.5s0,20.5,0,20.5
	s7-10,17-1s10,29.5,9.5,29s10.5-7.482,16,0.01c5.5,7.49,24.5,31.99,16.5,54.99s-22.5,100.5-74.5,103.5
	c-51.999,3-66.999-30.5-75.499-50.5s-18.5-42.5-22.5-44.5s2.286-20.119,0-41c-0.892-8.127-11.5-48-11.5-48s-3.667-20.332,16.5-4.5
	c12.166,13.168,17.5,46,16.5,47.5s8.5,12.188,8-5.156s7-36.844,10-47.344S774.463,189.375,807.797,205.539z"/>
<g>
	<path style="fill:#FFFFFF;" d="M233.897,68.142c56.498,0,102.293,45.951,102.293,102.631c0,56.679-45.795,102.629-102.293,102.629
		c-56.496,0-102.292-45.95-102.292-102.629C131.605,114.093,177.401,68.142,233.897,68.142z"/>
	<g>
		<path style="fill:#121212;" d="M146.365,171.231c0,34.691,20.16,64.67,49.402,78.879l-41.813-114.548
			C149.092,146.459,146.365,158.524,146.365,171.231z"/>
		<path style="fill:#121212;" d="M293.182,166.809c0-10.831-3.891-18.334-7.23-24.173c-4.443-7.22-8.606-13.335-8.606-20.555
			c0-8.057,6.11-15.562,14.721-15.562c0.389,0,0.756,0.05,1.137,0.074c-15.597-14.291-36.365-23.01-59.188-23.01
			c-30.62,0-57.559,15.71-73.234,39.506c2.062,0.064,3.997,0.104,5.642,0.104c9.165,0,23.361-1.112,23.361-1.112
			c4.723-0.278,5.282,6.66,0.558,7.22c0,0-4.749,0.559-10.03,0.835l31.916,94.939l19.185-57.528l-13.658-37.411
			c-4.717-0.276-9.193-0.835-9.193-0.835c-4.721-0.277-4.167-7.498,0.554-7.22c0,0,14.47,1.112,23.086,1.112
			c9.169,0,23.358-1.112,23.358-1.112c4.729-0.278,5.286,6.66,0.561,7.22c0,0-4.756,0.559-10.031,0.835l31.675,94.218l8.743-29.212
			C290.299,183.019,293.182,174.311,293.182,166.809z"/>
		<path style="fill:#121212;" d="M235.553,178.898l-26.298,76.418c7.85,2.31,16.154,3.568,24.759,3.568
			c10.208,0,19.996-1.764,29.105-4.966c-0.235-0.376-0.444-0.774-0.625-1.207L235.553,178.898z"/>
		<path style="fill:#121212;" d="M310.923,129.181c0.378,2.792,0.586,5.786,0.586,9.015c0,8.891-1.659,18.892-6.662,31.391
			l-26.77,77.406c26.055-15.198,43.583-43.427,43.583-75.761C321.66,155.995,317.769,141.663,310.923,129.181z"/>
		<path style="fill:#121212;" d="M234.014,69.063c-56.334,0-102.169,45.832-102.169,102.168
			c0,56.342,45.831,102.171,102.169,102.171c56.331,0,102.176-45.832,102.176-102.171C336.19,114.898,290.345,69.063,234.014,69.063
			z M234.014,268.719c-53.75,0-97.486-43.732-97.486-97.488c0-53.754,43.737-97.484,97.486-97.484
			c53.749,0,97.482,43.733,97.482,97.484C331.496,224.986,287.761,268.719,234.014,268.719z"/>
	</g>
</g>
</svg>
