<?xml version="1.0" encoding="utf-8"?>
<!-- Generator: Adobe Illustrator 16.0.0, SVG Export Plug-In . SVG Version: 6.00 Build 0)  -->
<!DOCTYPE svg PUBLIC "-//W3C//DTD SVG 1.1//EN" "http://www.w3.org/Graphics/SVG/1.1/DTD/svg11.dtd">
<svg version="1.1" id="Layer_1" xmlns="http://www.w3.org/2000/svg" xmlns:xlink="http://www.w3.org/1999/xlink" x="0px" y="0px"
	 width="152px" height="150px" viewBox="0 0 152 150" enable-background="new 0 0 152 150" xml:space="preserve">
<polygon fill="#BE3F27" points="77.448,38.352 43.748,57.964 77.448,77.162 110.434,57.757 "/>
<g>
	<path fill="#BE3F27" d="M42.899,96.631c0.299,0.342,0.738,0.559,1.229,0.559h65.927c0.438,0,0.838-0.174,1.131-0.455L76.954,76.775
		L42.899,96.631z"/>
	<path fill="#BE3F27" d="M109.869,57.757H44.127c-0.027,0-0.054,0.003-0.082,0.004l32.908,18.856L109.869,57.757z"/>
	<path fill="#DF5A47" d="M76.816,76.695l0.138-0.078L44.046,57.761c-0.865,0.043-1.554,0.756-1.554,1.632v36.162
		c0,0.412,0.154,0.788,0.407,1.076l34.055-19.855L76.816,76.695z"/>
	<path fill="#DF5A47" d="M111.688,95.555V59.393c0-0.903-0.731-1.636-1.635-1.636h-0.185l-32.916,18.86l0.137,0.078l-0.137,0.08
		l34.231,19.957C111.495,96.436,111.688,96.018,111.688,95.555z"/>
	<polygon fill="#DF5A47" points="76.954,76.775 77.09,76.695 76.954,76.617 76.816,76.695 	"/>
</g>
<g>
	<polygon fill="#E4E7E7" points="49.509,45.435 49.509,60.277 76.598,74.461 104.673,59.967 104.673,45.435 	"/>
</g>
</svg>
