<?xml version="1.0" encoding="utf-8"?>
<!-- Generator: Adobe Illustrator 16.0.0, SVG Export Plug-In . SVG Version: 6.00 Build 0)  -->
<!DOCTYPE svg PUBLIC "-//W3C//DTD SVG 1.1//EN" "http://www.w3.org/Graphics/SVG/1.1/DTD/svg11.dtd">
<svg version="1.1" id="Layer_1" xmlns="http://www.w3.org/2000/svg" xmlns:xlink="http://www.w3.org/1999/xlink" x="0px" y="0px"
	 width="152px" height="150px" viewBox="0 0 152 150" enable-background="new 0 0 152 150" xml:space="preserve">
<image overflow="visible" enable-background="new    " width="1367" height="768" xlink:href="574BC48.jpg"  transform="matrix(0.9994 0 0 0.9994 325.9346 -987.7866)">
</image>
<circle fill="#EFC84A" cx="493.091" cy="74" r="67"/>
<polygon fill="#BE3F27" points="493.448,38.352 459.748,57.964 493.448,77.162 526.434,57.757 "/>
<g>
	<path fill="#BE3F27" d="M458.898,96.631c0.3,0.342,0.737,0.559,1.229,0.559h65.927c0.439,0,0.838-0.174,1.131-0.455l-34.23-19.959
		L458.898,96.631z"/>
	<path fill="#BE3F27" d="M525.869,57.757h-65.742c-0.027,0-0.054,0.003-0.081,0.004l32.907,18.856L525.869,57.757z"/>
	<path fill="#DF5A47" d="M492.816,76.695l0.137-0.078l-32.907-18.856c-0.865,0.043-1.554,0.756-1.554,1.632v36.162
		c0,0.412,0.154,0.788,0.406,1.076l34.055-19.855L492.816,76.695z"/>
	<path fill="#DF5A47" d="M527.688,95.555V59.393c0-0.903-0.731-1.636-1.635-1.636h-0.185l-32.916,18.86l0.137,0.078l-0.137,0.08
		l34.23,19.957C527.495,96.436,527.688,96.018,527.688,95.555z"/>
	<polygon fill="#DF5A47" points="492.953,76.775 493.09,76.695 492.953,76.617 492.816,76.695 	"/>
</g>
<g>
	<polygon fill="#E4E7E7" points="465.509,45.435 465.509,60.277 492.598,74.461 520.673,59.967 520.673,45.435 	"/>
</g>
<g>
	<path fill="#EFC84A" d="M98.298,89.62c-3.907,8.597-12.563,14.578-22.62,14.578c-10.058,0-18.714-5.981-22.62-14.578h-5.906
		l-3.68,42.325c9.884,5.746,21.362,9.055,33.62,9.055c11.733,0,22.758-3.023,32.35-8.324L105.43,89.62H98.298z"/>
	<path opacity="0.3" fill="#F4EFEF" enable-background="new    " d="M98.298,89.62c-3.907,8.597-12.563,14.578-22.62,14.578
		c-10.058,0-18.714-5.981-22.62-14.578h-5.906l-3.68,42.325c9.884,5.746,21.362,9.055,33.62,9.055
		c11.733,0,22.758-3.023,32.35-8.324L105.43,89.62H98.298z"/>
	<path fill="#EFC84A" d="M75.678,104.198c10.058,0,18.712-5.981,22.62-14.578h-45.24C56.964,98.217,65.62,104.198,75.678,104.198z"
		/>
	<path opacity="0.3" fill="#F4EFEF" enable-background="new    " d="M75.678,104.198c10.058,0,18.712-5.981,22.62-14.578h-45.24
		C56.964,98.217,65.62,104.198,75.678,104.198z"/>
	<path opacity="0.5" fill="#F4EFEF" enable-background="new    " d="M75.678,104.198c10.058,0,18.712-5.981,22.62-14.578h-45.24
		C56.964,98.217,65.62,104.198,75.678,104.198z"/>
	<path fill="#DF5A47" d="M89.619,44.168V39.09c0-2.501-2.027-4.529-4.529-4.529h-7.67V7.008C77.311,7.008,77.201,7,77.091,7
		c-0.38,0-0.754,0.022-1.132,0.029v27.533h-7.711c-2.501,0-4.529,2.028-4.529,4.529v5.391c-14.112,5.388-24.14,19.044-24.14,35.05
		c0,3.028,0.361,5.974,1.039,8.795c0.725,0.793,1.765,1.294,2.924,1.294h3.611h5.906h45.24h7.131h5.213
		c1.159,0,2.199-0.501,2.924-1.294c0.679-2.821,1.039-5.767,1.039-8.795C114.604,63.208,104.176,49.326,89.619,44.168z"/>
</g>
<g>
	<circle fill="#EFC84A" cx="281.091" cy="74" r="67"/>
	<g>
		<g>
			<polyline fill="#DF5A47" points="312.7,41.37 299.023,43.929 304.583,49.487 310.085,54.989 			"/>
			<path fill="#DF5A47" d="M283.915,85.794c18.769-10.948,25.248-28.822,25.248-28.822l-6.033-6.032l-0.194-0.196l-6.033-6.032
				c0,0-17.873,6.479-28.821,25.248l-10.949,0.67L246.76,83.011l2.012,2.013l9.478-5.681l3.463,1.9l-2.122,2.121l5.393,5.391
				l0.139,0.14l5.391,5.391l2.122-2.122l1.899,3.462l-5.68,9.479l2.01,2.013l12.383-10.372L283.915,85.794z"/>
			<polyline fill="#DF5A47" points="258.666,85.182 257.55,87.639 266.375,96.465 268.749,95.264 			"/>
		</g>
		<circle fill="#EAEAEA" stroke="#BE3E27" stroke-width="3" stroke-miterlimit="10" cx="294.65" cy="59.278" r="7.129"/>
		<circle fill="#EAEAEA" stroke="#BE3E27" stroke-width="2" stroke-miterlimit="10" cx="283.945" cy="69.985" r="3.374"/>
		<path fill="#BE3F27" d="M255.906,88.748c0,0-4.721-0.057-7.23,5.014c2.17-0.818,5.018,0.223,5.018,0.223s-7.733-0.801-6.702,6.863
			c-0.646,3.793-5.277,2.203-6.321,1.699c-1.044-0.503,0.604,3.557,7.271,0.944c3.512-0.161-2.668,5.202-5.986,4.446
			c-3.318-0.758,8.631,4.646,11.934-8.004c5.215-4.188,2.361,5.133,0.041,5.942c-2.32,0.812,7.137,3.974,11.465-7.719"/>
	</g>
</g>
</svg>
